<?xml version="1.0" encoding="UTF-8" standalone="no"?><svg xmlns="http://www.w3.org/2000/svg" xmlns:xlink="http://www.w3.org/1999/xlink" contentScriptType="application/ecmascript" contentStyleType="text/css" height="378px" preserveAspectRatio="none" style="width:479px;height:378px;" version="1.1" viewBox="0 0 479 378" width="479px" zoomAndPan="magnify">
    <defs>
        <filter height="300%" id="f12ivk7oklop47" width="300%" x="-1" y="-1">
            <feGaussianBlur result="blurOut" stdDeviation="2.0" />
            <feColorMatrix in="blurOut" result="blurOut2" type="matrix" values="0 0 0 0 0 0 0 0 0 0 0 0 0 0 0 0 0 0 .4 0" />
            <feOffset dx="4.0" dy="4.0" in="blurOut2" result="blurOut3" />
            <feBlend in="SourceGraphic" in2="blurOut3" mode="normal" />
        </filter>
    </defs>
    <g>
        <rect fill="#FFFFFF" filter="url(#f12ivk7oklop47)" height="174.1094" style="stroke: #A80036; stroke-width: 1.0;" width="10" x="76" y="97.6094" />
        <rect fill="#FFFFFF" filter="url(#f12ivk7oklop47)" height="30.3516" style="stroke: #A80036; stroke-width: 1.0;" width="10" x="433" y="119.9609" />
        <rect fill="#FFFFFF" filter="url(#f12ivk7oklop47)" height="30.3516" style="stroke: #A80036; stroke-width: 1.0;" width="10" x="433" y="180.6641" />
        <rect fill="#FFFFFF" filter="url(#f12ivk7oklop47)" height="30.3516" style="stroke: #A80036; stroke-width: 1.0;" width="10" x="433" y="241.3672" />
        <line style="stroke: #A80036; stroke-width: 1.0; stroke-dasharray: 5.0,5.0;" x1="81" x2="81" y1="87.6094" y2="289.7188" />
        <line style="stroke: #A80036; stroke-width: 1.0; stroke-dasharray: 5.0,5.0;" x1="438" x2="438" y1="87.6094" y2="289.7188" /><text fill="#000000" font-family="sans-serif" font-size="14" lengthAdjust="spacingAndGlyphs" textLength="140" x="8" y="84.5332">Organization Manager</text>
        <ellipse cx="81" cy="13" fill="#FEFECE" filter="url(#f12ivk7oklop47)" rx="8" ry="8" style="stroke: #A80036; stroke-width: 2.0;" />
        <path d="M81,21 L81,48 M68,29 L94,29 M81,48 L68,63 M81,48 L94,63 " fill="none" filter="url(#f12ivk7oklop47)" style="stroke: #A80036; stroke-width: 2.0;" /><text fill="#000000" font-family="sans-serif" font-size="14" lengthAdjust="spacingAndGlyphs" textLength="140" x="8" y="303.252">Organization Manager</text>
        <ellipse cx="81" cy="316.3281" fill="#FEFECE" filter="url(#f12ivk7oklop47)" rx="8" ry="8" style="stroke: #A80036; stroke-width: 2.0;" />
        <path d="M81,324.3281 L81,351.3281 M68,332.3281 L94,332.3281 M81,351.3281 L68,366.3281 M81,351.3281 L94,366.3281 " fill="none" filter="url(#f12ivk7oklop47)" style="stroke: #A80036; stroke-width: 2.0;" />
        <rect fill="#FEFECE" filter="url(#f12ivk7oklop47)" height="31.6094" style="stroke: #A80036; stroke-width: 1.5;" width="64" x="404" y="51" /><text fill="#000000" font-family="sans-serif" font-size="14" lengthAdjust="spacingAndGlyphs" textLength="50" x="411" y="72.5332">:System</text>
        <rect fill="#FEFECE" filter="url(#f12ivk7oklop47)" height="31.6094" style="stroke: #A80036; stroke-width: 1.5;" width="64" x="404" y="288.7188" /><text fill="#000000" font-family="sans-serif" font-size="14" lengthAdjust="spacingAndGlyphs" textLength="50" x="411" y="310.252">:System</text>
        <rect fill="#FFFFFF" filter="url(#f12ivk7oklop47)" height="174.1094" style="stroke: #A80036; stroke-width: 1.0;" width="10" x="76" y="97.6094" />
        <rect fill="#FFFFFF" filter="url(#f12ivk7oklop47)" height="30.3516" style="stroke: #A80036; stroke-width: 1.0;" width="10" x="433" y="119.9609" />
        <rect fill="#FFFFFF" filter="url(#f12ivk7oklop47)" height="30.3516" style="stroke: #A80036; stroke-width: 1.0;" width="10" x="433" y="180.6641" />
        <rect fill="#FFFFFF" filter="url(#f12ivk7oklop47)" height="30.3516" style="stroke: #A80036; stroke-width: 1.0;" width="10" x="433" y="241.3672" />
        <polygon fill="#A80036" points="421,115.9609,431,119.9609,421,123.9609,425,119.9609" style="stroke: #A80036; stroke-width: 1.0;" />
        <line style="stroke: #A80036; stroke-width: 1.0;" x1="86" x2="427" y1="119.9609" y2="119.9609" /><text fill="#000000" font-family="sans-serif" font-size="13" lengthAdjust="spacingAndGlyphs" textLength="255" x="93" y="115.1045">Change scheduled automated payment date</text>
        <polygon fill="#A80036" points="97,146.3125,87,150.3125,97,154.3125,93,150.3125" style="stroke: #A80036; stroke-width: 1.0;" />
        <line style="stroke: #A80036; stroke-width: 1.0;" x1="91" x2="437" y1="150.3125" y2="150.3125" /><text fill="#000000" font-family="sans-serif" font-size="13" lengthAdjust="spacingAndGlyphs" textLength="318" x="103" y="145.4561">Requests necessary date (day, month and time of day)</text>
        <polygon fill="#A80036" points="421,176.6641,431,180.6641,421,184.6641,425,180.6641" style="stroke: #A80036; stroke-width: 1.0;" />
        <line style="stroke: #A80036; stroke-width: 1.0;" x1="86" x2="427" y1="180.6641" y2="180.6641" /><text fill="#000000" font-family="sans-serif" font-size="13" lengthAdjust="spacingAndGlyphs" textLength="125" x="93" y="175.8076">Inputs requested data</text>
        <polygon fill="#A80036" points="97,207.0156,87,211.0156,97,215.0156,93,211.0156" style="stroke: #A80036; stroke-width: 1.0;" />
        <line style="stroke: #A80036; stroke-width: 1.0;" x1="91" x2="437" y1="211.0156" y2="211.0156" /><text fill="#000000" font-family="sans-serif" font-size="13" lengthAdjust="spacingAndGlyphs" textLength="271" x="103" y="206.1592">Validates and asks for confirmation of the input</text>
        <polygon fill="#A80036" points="421,237.3672,431,241.3672,421,245.3672,425,241.3672" style="stroke: #A80036; stroke-width: 1.0;" />
        <line style="stroke: #A80036; stroke-width: 1.0;" x1="86" x2="427" y1="241.3672" y2="241.3672" /><text fill="#000000" font-family="sans-serif" font-size="13" lengthAdjust="spacingAndGlyphs" textLength="51" x="93" y="236.5107">Confirms</text>
        <polygon fill="#A80036" points="92,267.7188,82,271.7188,92,275.7188,88,271.7188" style="stroke: #A80036; stroke-width: 1.0;" />
        <line style="stroke: #A80036; stroke-width: 1.0;" x1="86" x2="437" y1="271.7188" y2="271.7188" /><text fill="#000000" font-family="sans-serif" font-size="13" lengthAdjust="spacingAndGlyphs" textLength="323" x="98" y="266.8623">Informs user of successful operation and saves changes</text>
        <!--
@startuml
actor "Organization Manager" as OM

activate OM
OM -> ":System" : Change scheduled automated payment date
activate ":System"
":System" -> OM : Requests necessary date (day, month and time of day)
deactivate ":System"

OM -> ":System" : Inputs requested data
activate ":System"
":System" -> OM : Validates and asks for confirmation of the input
deactivate ":System"

OM -> ":System" : Confirms
activate ":System"
":System" -> OM : Informs user of successful operation and saves changes
deactivate ":System"

deactivate OM
@enduml

PlantUML version 1.2018.14(Fri Dec 21 16:33:16 GMT 2018)
(GPL source distribution)
Java Runtime: Java(TM) SE Runtime Environment
JVM: Java HotSpot(TM) 64-Bit Server VM
Java Version: 1.8.0_221-b11
Operating System: Windows 10
OS Version: 10.0
Default Encoding: Cp1252
Language: pt
Country: PT
-->
    </g>
</svg>