<?xml version="1.0" encoding="UTF-8" standalone="no"?><svg xmlns="http://www.w3.org/2000/svg" xmlns:xlink="http://www.w3.org/1999/xlink" contentScriptType="application/ecmascript" contentStyleType="text/css" height="1339px" preserveAspectRatio="none" style="width:520px;height:1339px;" version="1.1" viewBox="0 0 520 1339" width="520px" zoomAndPan="magnify">
    <defs>
        <filter height="300%" id="fqszto393aa81" width="300%" x="-1" y="-1">
            <feGaussianBlur result="blurOut" stdDeviation="2.0" />
            <feColorMatrix in="blurOut" result="blurOut2" type="matrix" values="0 0 0 0 0 0 0 0 0 0 0 0 0 0 0 0 0 0 .4 0" />
            <feOffset dx="4.0" dy="4.0" in="blurOut2" result="blurOut3" />
            <feBlend in="SourceGraphic" in2="blurOut3" mode="normal" />
        </filter>
    </defs>
    <g>
        <!--class Platform-->
        <rect fill="#FEFECE" filter="url(#fqszto393aa81)" height="75.6719" id="Platform" style="stroke: #A80036; stroke-width: 1.5;" width="150" x="6" y="254" />
        <ellipse cx="53.75" cy="270" fill="#ADD1B2" rx="11" ry="11" style="stroke: #A80036; stroke-width: 1.0;" />
        <path d="M56.5156,265.875 Q56.6719,265.6563 56.8594,265.5469 Q57.0469,265.4375 57.2656,265.4375 Q57.6406,265.4375 57.875,265.6953 Q58.1094,265.9531 58.1094,266.5625 L58.1094,268.0156 Q58.1094,268.625 57.875,268.8906 Q57.6406,269.1563 57.2656,269.1563 Q56.9219,269.1563 56.7188,268.9531 Q56.5156,268.7656 56.4063,268.25 Q56.3594,267.8906 56.1719,267.7031 Q55.8438,267.3281 55.2344,267.1094 Q54.625,266.8906 54,266.8906 Q53.2344,266.8906 52.6016,267.2188 Q51.9688,267.5469 51.4766,268.2969 Q50.9844,269.0469 50.9844,270.0781 L50.9844,271.1719 Q50.9844,272.4063 51.875,273.2266 Q52.7656,274.0469 54.3594,274.0469 Q55.2969,274.0469 55.9531,273.7969 Q56.3438,273.6406 56.7656,273.2031 Q57.0313,272.9375 57.1797,272.8594 Q57.3281,272.7813 57.5313,272.7813 Q57.8594,272.7813 58.1172,273.0391 Q58.375,273.2969 58.375,273.6406 Q58.375,273.9844 58.0313,274.3906 Q57.5313,274.9688 56.7344,275.2969 Q55.6563,275.75 54.3594,275.75 Q52.8438,275.75 51.6406,275.125 Q50.6563,274.625 49.9688,273.5547 Q49.2813,272.4844 49.2813,271.2031 L49.2813,270.0469 Q49.2813,268.7188 49.8984,267.5703 Q50.5156,266.4219 51.6094,265.8047 Q52.7031,265.1875 53.9375,265.1875 Q54.6719,265.1875 55.3203,265.3516 Q55.9688,265.5156 56.5156,265.875 Z " /><text fill="#000000" font-family="sans-serif" font-size="12" lengthAdjust="spacingAndGlyphs" textLength="46" x="74.25" y="274.9102">Platform</text>
        <line style="stroke: #A80036; stroke-width: 1.5;" x1="7" x2="155" y1="286" y2="286" />
        <rect fill="none" height="6" style="stroke: #C82930; stroke-width: 1.0;" width="6" x="14" y="295.418" /><text fill="#000000" font-family="sans-serif" font-size="11" lengthAdjust="spacingAndGlyphs" textLength="86" x="26" y="301.4189">String designation</text>
        <line style="stroke: #A80036; stroke-width: 1.5;" x1="7" x2="155" y1="307.8359" y2="307.8359" />
        <ellipse cx="17" cy="320.2539" fill="#84BE84" rx="3" ry="3" style="stroke: #038048; stroke-width: 1.0;" /><text fill="#000000" font-family="sans-serif" font-size="11" lengthAdjust="spacingAndGlyphs" textLength="124" x="26" y="323.2549">getOrganizationRegistry()</text>
        <!--class RegistryOrganizations-->
        <rect fill="#FEFECE" filter="url(#fqszto393aa81)" height="61.8359" id="RegistryOrganizations" style="stroke: #A80036; stroke-width: 1.5;" width="198" x="29" y="408" />
        <ellipse cx="64.25" cy="424" fill="#ADD1B2" rx="11" ry="11" style="stroke: #A80036; stroke-width: 1.0;" />
        <path d="M67.0156,419.875 Q67.1719,419.6563 67.3594,419.5469 Q67.5469,419.4375 67.7656,419.4375 Q68.1406,419.4375 68.375,419.6953 Q68.6094,419.9531 68.6094,420.5625 L68.6094,422.0156 Q68.6094,422.625 68.375,422.8906 Q68.1406,423.1563 67.7656,423.1563 Q67.4219,423.1563 67.2188,422.9531 Q67.0156,422.7656 66.9063,422.25 Q66.8594,421.8906 66.6719,421.7031 Q66.3438,421.3281 65.7344,421.1094 Q65.125,420.8906 64.5,420.8906 Q63.7344,420.8906 63.1016,421.2188 Q62.4688,421.5469 61.9766,422.2969 Q61.4844,423.0469 61.4844,424.0781 L61.4844,425.1719 Q61.4844,426.4063 62.375,427.2266 Q63.2656,428.0469 64.8594,428.0469 Q65.7969,428.0469 66.4531,427.7969 Q66.8438,427.6406 67.2656,427.2031 Q67.5313,426.9375 67.6797,426.8594 Q67.8281,426.7813 68.0313,426.7813 Q68.3594,426.7813 68.6172,427.0391 Q68.875,427.2969 68.875,427.6406 Q68.875,427.9844 68.5313,428.3906 Q68.0313,428.9688 67.2344,429.2969 Q66.1563,429.75 64.8594,429.75 Q63.3438,429.75 62.1406,429.125 Q61.1563,428.625 60.4688,427.5547 Q59.7813,426.4844 59.7813,425.2031 L59.7813,424.0469 Q59.7813,422.7188 60.3984,421.5703 Q61.0156,420.4219 62.1094,419.8047 Q63.2031,419.1875 64.4375,419.1875 Q65.1719,419.1875 65.8203,419.3516 Q66.4688,419.5156 67.0156,419.875 Z " /><text fill="#000000" font-family="sans-serif" font-size="12" lengthAdjust="spacingAndGlyphs" textLength="121" x="82.75" y="428.9102">RegistryOrganizations</text>
        <line style="stroke: #A80036; stroke-width: 1.5;" x1="30" x2="226" y1="440" y2="440" />
        <line style="stroke: #A80036; stroke-width: 1.5;" x1="30" x2="226" y1="448" y2="448" />
        <ellipse cx="40" cy="460.418" fill="#84BE84" rx="3" ry="3" style="stroke: #038048; stroke-width: 1.0;" /><text fill="#000000" font-family="sans-serif" font-size="11" lengthAdjust="spacingAndGlyphs" textLength="172" x="49" y="463.4189">getOrganizationByUserEmail(String)</text>
        <!--class Organization-->
        <rect fill="#FEFECE" filter="url(#fqszto393aa81)" height="186.3594" id="Organization" style="stroke: #A80036; stroke-width: 1.5;" width="172" x="135" y="548" />
        <ellipse cx="182.25" cy="564" fill="#ADD1B2" rx="11" ry="11" style="stroke: #A80036; stroke-width: 1.0;" />
        <path d="M185.0156,559.875 Q185.1719,559.6563 185.3594,559.5469 Q185.5469,559.4375 185.7656,559.4375 Q186.1406,559.4375 186.375,559.6953 Q186.6094,559.9531 186.6094,560.5625 L186.6094,562.0156 Q186.6094,562.625 186.375,562.8906 Q186.1406,563.1563 185.7656,563.1563 Q185.4219,563.1563 185.2188,562.9531 Q185.0156,562.7656 184.9063,562.25 Q184.8594,561.8906 184.6719,561.7031 Q184.3438,561.3281 183.7344,561.1094 Q183.125,560.8906 182.5,560.8906 Q181.7344,560.8906 181.1016,561.2188 Q180.4688,561.5469 179.9766,562.2969 Q179.4844,563.0469 179.4844,564.0781 L179.4844,565.1719 Q179.4844,566.4063 180.375,567.2266 Q181.2656,568.0469 182.8594,568.0469 Q183.7969,568.0469 184.4531,567.7969 Q184.8438,567.6406 185.2656,567.2031 Q185.5313,566.9375 185.6797,566.8594 Q185.8281,566.7813 186.0313,566.7813 Q186.3594,566.7813 186.6172,567.0391 Q186.875,567.2969 186.875,567.6406 Q186.875,567.9844 186.5313,568.3906 Q186.0313,568.9688 185.2344,569.2969 Q184.1563,569.75 182.8594,569.75 Q181.3438,569.75 180.1406,569.125 Q179.1563,568.625 178.4688,567.5547 Q177.7813,566.4844 177.7813,565.2031 L177.7813,564.0469 Q177.7813,562.7188 178.3984,561.5703 Q179.0156,560.4219 180.1094,559.8047 Q181.2031,559.1875 182.4375,559.1875 Q183.1719,559.1875 183.8203,559.3516 Q184.4688,559.5156 185.0156,559.875 Z " /><text fill="#000000" font-family="sans-serif" font-size="12" lengthAdjust="spacingAndGlyphs" textLength="69" x="202.75" y="568.9102">Organization</text>
        <line style="stroke: #A80036; stroke-width: 1.5;" x1="136" x2="306" y1="580" y2="580" />
        <rect fill="none" height="6" style="stroke: #C82930; stroke-width: 1.0;" width="6" x="143" y="589.418" /><text fill="#000000" font-family="sans-serif" font-size="11" lengthAdjust="spacingAndGlyphs" textLength="100" x="155" y="595.4189">String managerName</text>
        <rect fill="none" height="6" style="stroke: #C82930; stroke-width: 1.0;" width="6" x="143" y="603.2539" /><text fill="#000000" font-family="sans-serif" font-size="11" lengthAdjust="spacingAndGlyphs" textLength="146" x="155" y="609.2549">String organizationDesignation</text>
        <rect fill="none" height="6" style="stroke: #C82930; stroke-width: 1.0;" width="6" x="143" y="617.0898" /><text fill="#000000" font-family="sans-serif" font-size="11" lengthAdjust="spacingAndGlyphs" textLength="115" x="155" y="623.0908">String collaboratorName</text>
        <rect fill="none" height="6" style="stroke: #C82930; stroke-width: 1.0;" width="6" x="143" y="630.9258" /><text fill="#000000" font-family="sans-serif" font-size="11" lengthAdjust="spacingAndGlyphs" textLength="97" x="155" y="636.9268">String managerEmail</text>
        <rect fill="none" height="6" style="stroke: #C82930; stroke-width: 1.0;" width="6" x="143" y="644.7617" /><text fill="#000000" font-family="sans-serif" font-size="11" lengthAdjust="spacingAndGlyphs" textLength="113" x="155" y="650.7627">String CollaboratorEmail</text>
        <rect fill="none" height="6" style="stroke: #C82930; stroke-width: 1.0;" width="6" x="143" y="658.5977" /><text fill="#000000" font-family="sans-serif" font-size="11" lengthAdjust="spacingAndGlyphs" textLength="84" x="155" y="664.5986">Date PayDayDate</text>
        <line style="stroke: #A80036; stroke-width: 1.5;" x1="136" x2="306" y1="671.0156" y2="671.0156" />
        <ellipse cx="146" cy="683.4336" fill="#84BE84" rx="3" ry="3" style="stroke: #038048; stroke-width: 1.0;" /><text fill="#000000" font-family="sans-serif" font-size="11" lengthAdjust="spacingAndGlyphs" textLength="116" x="155" y="686.4346">NewPaymentDate(Date)</text>
        <ellipse cx="146" cy="697.2695" fill="#84BE84" rx="3" ry="3" style="stroke: #038048; stroke-width: 1.0;" /><text fill="#000000" font-family="sans-serif" font-size="11" lengthAdjust="spacingAndGlyphs" textLength="92" x="155" y="700.2705">RegisterDate(Date)</text>
        <rect fill="#F24D5C" height="6" style="stroke: #C82930; stroke-width: 1.0;" width="6" x="143" y="708.1055" /><text fill="#000000" font-family="sans-serif" font-size="11" lengthAdjust="spacingAndGlyphs" textLength="130" x="155" y="714.1064">validatePaymentDate(Date)</text>
        <rect fill="#F24D5C" height="6" style="stroke: #C82930; stroke-width: 1.0;" width="6" x="143" y="721.9414" /><text fill="#000000" font-family="sans-serif" font-size="11" lengthAdjust="spacingAndGlyphs" textLength="108" x="155" y="727.9424">setPaymentDate(Date)</text>
        <!--class AplicationPOT-->
        <rect fill="#FEFECE" filter="url(#fqszto393aa81)" height="75.6719" id="AplicationPOT" style="stroke: #A80036; stroke-width: 1.5;" width="119" x="333.5" y="254" />
        <ellipse cx="353" cy="270" fill="#ADD1B2" rx="11" ry="11" style="stroke: #A80036; stroke-width: 1.0;" />
        <path d="M355.7656,265.875 Q355.9219,265.6563 356.1094,265.5469 Q356.2969,265.4375 356.5156,265.4375 Q356.8906,265.4375 357.125,265.6953 Q357.3594,265.9531 357.3594,266.5625 L357.3594,268.0156 Q357.3594,268.625 357.125,268.8906 Q356.8906,269.1563 356.5156,269.1563 Q356.1719,269.1563 355.9688,268.9531 Q355.7656,268.7656 355.6563,268.25 Q355.6094,267.8906 355.4219,267.7031 Q355.0938,267.3281 354.4844,267.1094 Q353.875,266.8906 353.25,266.8906 Q352.4844,266.8906 351.8516,267.2188 Q351.2188,267.5469 350.7266,268.2969 Q350.2344,269.0469 350.2344,270.0781 L350.2344,271.1719 Q350.2344,272.4063 351.125,273.2266 Q352.0156,274.0469 353.6094,274.0469 Q354.5469,274.0469 355.2031,273.7969 Q355.5938,273.6406 356.0156,273.2031 Q356.2813,272.9375 356.4297,272.8594 Q356.5781,272.7813 356.7813,272.7813 Q357.1094,272.7813 357.3672,273.0391 Q357.625,273.2969 357.625,273.6406 Q357.625,273.9844 357.2813,274.3906 Q356.7813,274.9688 355.9844,275.2969 Q354.9063,275.75 353.6094,275.75 Q352.0938,275.75 350.8906,275.125 Q349.9063,274.625 349.2188,273.5547 Q348.5313,272.4844 348.5313,271.2031 L348.5313,270.0469 Q348.5313,268.7188 349.1484,267.5703 Q349.7656,266.4219 350.8594,265.8047 Q351.9531,265.1875 353.1875,265.1875 Q353.9219,265.1875 354.5703,265.3516 Q355.2188,265.5156 355.7656,265.875 Z " /><text fill="#000000" font-family="sans-serif" font-size="12" lengthAdjust="spacingAndGlyphs" textLength="77" x="368" y="274.9102">AplicationPOT</text>
        <line style="stroke: #A80036; stroke-width: 1.5;" x1="334.5" x2="451.5" y1="286" y2="286" />
        <line style="stroke: #A80036; stroke-width: 1.5;" x1="334.5" x2="451.5" y1="294" y2="294" />
        <ellipse cx="344.5" cy="306.418" fill="#84BE84" rx="3" ry="3" style="stroke: #038048; stroke-width: 1.0;" /><text fill="#000000" font-family="sans-serif" font-size="11" lengthAdjust="spacingAndGlyphs" textLength="64" x="353.5" y="309.4189">getInstance()</text>
        <ellipse cx="344.5" cy="320.2539" fill="#84BE84" rx="3" ry="3" style="stroke: #038048; stroke-width: 1.0;" /><text fill="#000000" font-family="sans-serif" font-size="11" lengthAdjust="spacingAndGlyphs" textLength="93" x="353.5" y="323.2549">getActualSession()</text>
        <!--class ActualSession-->
        <rect fill="#FEFECE" filter="url(#fqszto393aa81)" height="61.8359" id="ActualSession" style="stroke: #A80036; stroke-width: 1.5;" width="111" x="398.5" y="408" />
        <ellipse cx="413.5" cy="424" fill="#ADD1B2" rx="11" ry="11" style="stroke: #A80036; stroke-width: 1.0;" />
        <path d="M416.2656,419.875 Q416.4219,419.6563 416.6094,419.5469 Q416.7969,419.4375 417.0156,419.4375 Q417.3906,419.4375 417.625,419.6953 Q417.8594,419.9531 417.8594,420.5625 L417.8594,422.0156 Q417.8594,422.625 417.625,422.8906 Q417.3906,423.1563 417.0156,423.1563 Q416.6719,423.1563 416.4688,422.9531 Q416.2656,422.7656 416.1563,422.25 Q416.1094,421.8906 415.9219,421.7031 Q415.5938,421.3281 414.9844,421.1094 Q414.375,420.8906 413.75,420.8906 Q412.9844,420.8906 412.3516,421.2188 Q411.7188,421.5469 411.2266,422.2969 Q410.7344,423.0469 410.7344,424.0781 L410.7344,425.1719 Q410.7344,426.4063 411.625,427.2266 Q412.5156,428.0469 414.1094,428.0469 Q415.0469,428.0469 415.7031,427.7969 Q416.0938,427.6406 416.5156,427.2031 Q416.7813,426.9375 416.9297,426.8594 Q417.0781,426.7813 417.2813,426.7813 Q417.6094,426.7813 417.8672,427.0391 Q418.125,427.2969 418.125,427.6406 Q418.125,427.9844 417.7813,428.3906 Q417.2813,428.9688 416.4844,429.2969 Q415.4063,429.75 414.1094,429.75 Q412.5938,429.75 411.3906,429.125 Q410.4063,428.625 409.7188,427.5547 Q409.0313,426.4844 409.0313,425.2031 L409.0313,424.0469 Q409.0313,422.7188 409.6484,421.5703 Q410.2656,420.4219 411.3594,419.8047 Q412.4531,419.1875 413.6875,419.1875 Q414.4219,419.1875 415.0703,419.3516 Q415.7188,419.5156 416.2656,419.875 Z " /><text fill="#000000" font-family="sans-serif" font-size="12" lengthAdjust="spacingAndGlyphs" textLength="79" x="427.5" y="428.9102">ActualSession</text>
        <line style="stroke: #A80036; stroke-width: 1.5;" x1="399.5" x2="508.5" y1="440" y2="440" />
        <line style="stroke: #A80036; stroke-width: 1.5;" x1="399.5" x2="508.5" y1="448" y2="448" />
        <ellipse cx="409.5" cy="460.418" fill="#84BE84" rx="3" ry="3" style="stroke: #038048; stroke-width: 1.0;" /><text fill="#000000" font-family="sans-serif" font-size="11" lengthAdjust="spacingAndGlyphs" textLength="70" x="418.5" y="463.4189">getEmailUser()</text>
        <!--class Collaborator-->
        <rect fill="#FEFECE" filter="url(#fqszto393aa81)" height="103.3438" id="Collaborator" style="stroke: #A80036; stroke-width: 1.5;" width="124" x="114" y="1072" />
        <ellipse cx="139.8" cy="1088" fill="#ADD1B2" rx="11" ry="11" style="stroke: #A80036; stroke-width: 1.0;" />
        <path d="M142.5656,1083.875 Q142.7219,1083.6563 142.9094,1083.5469 Q143.0969,1083.4375 143.3156,1083.4375 Q143.6906,1083.4375 143.925,1083.6953 Q144.1594,1083.9531 144.1594,1084.5625 L144.1594,1086.0156 Q144.1594,1086.625 143.925,1086.8906 Q143.6906,1087.1563 143.3156,1087.1563 Q142.9719,1087.1563 142.7688,1086.9531 Q142.5656,1086.7656 142.4563,1086.25 Q142.4094,1085.8906 142.2219,1085.7031 Q141.8938,1085.3281 141.2844,1085.1094 Q140.675,1084.8906 140.05,1084.8906 Q139.2844,1084.8906 138.6516,1085.2188 Q138.0188,1085.5469 137.5266,1086.2969 Q137.0344,1087.0469 137.0344,1088.0781 L137.0344,1089.1719 Q137.0344,1090.4063 137.925,1091.2266 Q138.8156,1092.0469 140.4094,1092.0469 Q141.3469,1092.0469 142.0031,1091.7969 Q142.3938,1091.6406 142.8156,1091.2031 Q143.0813,1090.9375 143.2297,1090.8594 Q143.3781,1090.7813 143.5813,1090.7813 Q143.9094,1090.7813 144.1672,1091.0391 Q144.425,1091.2969 144.425,1091.6406 Q144.425,1091.9844 144.0813,1092.3906 Q143.5813,1092.9688 142.7844,1093.2969 Q141.7063,1093.75 140.4094,1093.75 Q138.8938,1093.75 137.6906,1093.125 Q136.7063,1092.625 136.0188,1091.5547 Q135.3313,1090.4844 135.3313,1089.2031 L135.3313,1088.0469 Q135.3313,1086.7188 135.9484,1085.5703 Q136.5656,1084.4219 137.6594,1083.8047 Q138.7531,1083.1875 139.9875,1083.1875 Q140.7219,1083.1875 141.3703,1083.3516 Q142.0188,1083.5156 142.5656,1083.875 Z " /><text fill="#000000" font-family="sans-serif" font-size="12" lengthAdjust="spacingAndGlyphs" textLength="68" x="156.2" y="1092.9102">Collaborator</text>
        <line style="stroke: #A80036; stroke-width: 1.5;" x1="115" x2="237" y1="1104" y2="1104" />
        <rect fill="none" height="6" style="stroke: #C82930; stroke-width: 1.0;" width="6" x="122" y="1113.418" /><text fill="#000000" font-family="sans-serif" font-size="11" lengthAdjust="spacingAndGlyphs" textLength="57" x="134" y="1119.4189">String name</text>
        <rect fill="none" height="6" style="stroke: #C82930; stroke-width: 1.0;" width="6" x="122" y="1127.2539" /><text fill="#000000" font-family="sans-serif" font-size="11" lengthAdjust="spacingAndGlyphs" textLength="70" x="134" y="1133.2549">String function</text>
        <rect fill="none" height="6" style="stroke: #C82930; stroke-width: 1.0;" width="6" x="122" y="1141.0898" /><text fill="#000000" font-family="sans-serif" font-size="11" lengthAdjust="spacingAndGlyphs" textLength="55" x="134" y="1147.0908">String email</text>
        <rect fill="none" height="6" style="stroke: #C82930; stroke-width: 1.0;" width="6" x="122" y="1154.9258" /><text fill="#000000" font-family="sans-serif" font-size="11" lengthAdjust="spacingAndGlyphs" textLength="98" x="134" y="1160.9268">String phoneNumber</text>
        <line style="stroke: #A80036; stroke-width: 1.5;" x1="115" x2="237" y1="1167.3438" y2="1167.3438" />
        <!--class User-->
        <rect fill="#FEFECE" filter="url(#fqszto393aa81)" height="75.6719" id="User" style="stroke: #A80036; stroke-width: 1.5;" width="107" x="122.5" y="1253" />
        <ellipse cx="159.1" cy="1269" fill="#ADD1B2" rx="11" ry="11" style="stroke: #A80036; stroke-width: 1.0;" />
        <path d="M161.8656,1264.875 Q162.0219,1264.6563 162.2094,1264.5469 Q162.3969,1264.4375 162.6156,1264.4375 Q162.9906,1264.4375 163.225,1264.6953 Q163.4594,1264.9531 163.4594,1265.5625 L163.4594,1267.0156 Q163.4594,1267.625 163.225,1267.8906 Q162.9906,1268.1563 162.6156,1268.1563 Q162.2719,1268.1563 162.0688,1267.9531 Q161.8656,1267.7656 161.7563,1267.25 Q161.7094,1266.8906 161.5219,1266.7031 Q161.1938,1266.3281 160.5844,1266.1094 Q159.975,1265.8906 159.35,1265.8906 Q158.5844,1265.8906 157.9516,1266.2188 Q157.3188,1266.5469 156.8266,1267.2969 Q156.3344,1268.0469 156.3344,1269.0781 L156.3344,1270.1719 Q156.3344,1271.4063 157.225,1272.2266 Q158.1156,1273.0469 159.7094,1273.0469 Q160.6469,1273.0469 161.3031,1272.7969 Q161.6938,1272.6406 162.1156,1272.2031 Q162.3813,1271.9375 162.5297,1271.8594 Q162.6781,1271.7813 162.8813,1271.7813 Q163.2094,1271.7813 163.4672,1272.0391 Q163.725,1272.2969 163.725,1272.6406 Q163.725,1272.9844 163.3813,1273.3906 Q162.8813,1273.9688 162.0844,1274.2969 Q161.0063,1274.75 159.7094,1274.75 Q158.1938,1274.75 156.9906,1274.125 Q156.0063,1273.625 155.3188,1272.5547 Q154.6313,1271.4844 154.6313,1270.2031 L154.6313,1269.0469 Q154.6313,1267.7188 155.2484,1266.5703 Q155.8656,1265.4219 156.9594,1264.8047 Q158.0531,1264.1875 159.2875,1264.1875 Q160.0219,1264.1875 160.6703,1264.3516 Q161.3188,1264.5156 161.8656,1264.875 Z " /><text fill="#000000" font-family="sans-serif" font-size="12" lengthAdjust="spacingAndGlyphs" textLength="27" x="177.9" y="1273.9102">User</text>
        <line style="stroke: #A80036; stroke-width: 1.5;" x1="123.5" x2="228.5" y1="1285" y2="1285" />
        <rect fill="none" height="6" style="stroke: #C82930; stroke-width: 1.0;" width="6" x="130.5" y="1294.418" /><text fill="#000000" font-family="sans-serif" font-size="11" lengthAdjust="spacingAndGlyphs" textLength="55" x="142.5" y="1300.4189">String email</text>
        <rect fill="none" height="6" style="stroke: #C82930; stroke-width: 1.0;" width="6" x="130.5" y="1308.2539" /><text fill="#000000" font-family="sans-serif" font-size="11" lengthAdjust="spacingAndGlyphs" textLength="81" x="142.5" y="1314.2549">String password</text>
        <line style="stroke: #A80036; stroke-width: 1.5;" x1="123.5" x2="228.5" y1="1320.6719" y2="1320.6719" />
        <!--class Manager-->
        <rect fill="#FEFECE" filter="url(#fqszto393aa81)" height="103.3438" id="Manager" style="stroke: #A80036; stroke-width: 1.5;" width="124" x="186" y="891" />
        <ellipse cx="220.8" cy="907" fill="#ADD1B2" rx="11" ry="11" style="stroke: #A80036; stroke-width: 1.0;" />
        <path d="M223.5656,902.875 Q223.7219,902.6563 223.9094,902.5469 Q224.0969,902.4375 224.3156,902.4375 Q224.6906,902.4375 224.925,902.6953 Q225.1594,902.9531 225.1594,903.5625 L225.1594,905.0156 Q225.1594,905.625 224.925,905.8906 Q224.6906,906.1563 224.3156,906.1563 Q223.9719,906.1563 223.7688,905.9531 Q223.5656,905.7656 223.4563,905.25 Q223.4094,904.8906 223.2219,904.7031 Q222.8938,904.3281 222.2844,904.1094 Q221.675,903.8906 221.05,903.8906 Q220.2844,903.8906 219.6516,904.2188 Q219.0188,904.5469 218.5266,905.2969 Q218.0344,906.0469 218.0344,907.0781 L218.0344,908.1719 Q218.0344,909.4063 218.925,910.2266 Q219.8156,911.0469 221.4094,911.0469 Q222.3469,911.0469 223.0031,910.7969 Q223.3938,910.6406 223.8156,910.2031 Q224.0813,909.9375 224.2297,909.8594 Q224.3781,909.7813 224.5813,909.7813 Q224.9094,909.7813 225.1672,910.0391 Q225.425,910.2969 225.425,910.6406 Q225.425,910.9844 225.0813,911.3906 Q224.5813,911.9688 223.7844,912.2969 Q222.7063,912.75 221.4094,912.75 Q219.8938,912.75 218.6906,912.125 Q217.7063,911.625 217.0188,910.5547 Q216.3313,909.4844 216.3313,908.2031 L216.3313,907.0469 Q216.3313,905.7188 216.9484,904.5703 Q217.5656,903.4219 218.6594,902.8047 Q219.7531,902.1875 220.9875,902.1875 Q221.7219,902.1875 222.3703,902.3516 Q223.0188,902.5156 223.5656,902.875 Z " /><text fill="#000000" font-family="sans-serif" font-size="12" lengthAdjust="spacingAndGlyphs" textLength="48" x="239.2" y="911.9102">Manager</text>
        <line style="stroke: #A80036; stroke-width: 1.5;" x1="187" x2="309" y1="923" y2="923" />
        <rect fill="none" height="6" style="stroke: #C82930; stroke-width: 1.0;" width="6" x="194" y="932.418" /><text fill="#000000" font-family="sans-serif" font-size="11" lengthAdjust="spacingAndGlyphs" textLength="57" x="206" y="938.4189">String name</text>
        <rect fill="none" height="6" style="stroke: #C82930; stroke-width: 1.0;" width="6" x="194" y="946.2539" /><text fill="#000000" font-family="sans-serif" font-size="11" lengthAdjust="spacingAndGlyphs" textLength="70" x="206" y="952.2549">String function</text>
        <rect fill="none" height="6" style="stroke: #C82930; stroke-width: 1.0;" width="6" x="194" y="960.0898" /><text fill="#000000" font-family="sans-serif" font-size="11" lengthAdjust="spacingAndGlyphs" textLength="55" x="206" y="966.0908">String email</text>
        <rect fill="none" height="6" style="stroke: #C82930; stroke-width: 1.0;" width="6" x="194" y="973.9258" /><text fill="#000000" font-family="sans-serif" font-size="11" lengthAdjust="spacingAndGlyphs" textLength="98" x="206" y="979.9268">String phoneNumber</text>
        <line style="stroke: #A80036; stroke-width: 1.5;" x1="187" x2="309" y1="986.3438" y2="986.3438" />
        <!--class PaymentTimerUI-->
        <rect fill="#FEFECE" filter="url(#fqszto393aa81)" height="48" id="PaymentTimerUI" style="stroke: #A80036; stroke-width: 1.5;" width="124" x="218" y="8" />
        <ellipse cx="233" cy="24" fill="#ADD1B2" rx="11" ry="11" style="stroke: #A80036; stroke-width: 1.0;" />
        <path d="M235.7656,19.875 Q235.9219,19.6563 236.1094,19.5469 Q236.2969,19.4375 236.5156,19.4375 Q236.8906,19.4375 237.125,19.6953 Q237.3594,19.9531 237.3594,20.5625 L237.3594,22.0156 Q237.3594,22.625 237.125,22.8906 Q236.8906,23.1563 236.5156,23.1563 Q236.1719,23.1563 235.9688,22.9531 Q235.7656,22.7656 235.6563,22.25 Q235.6094,21.8906 235.4219,21.7031 Q235.0938,21.3281 234.4844,21.1094 Q233.875,20.8906 233.25,20.8906 Q232.4844,20.8906 231.8516,21.2188 Q231.2188,21.5469 230.7266,22.2969 Q230.2344,23.0469 230.2344,24.0781 L230.2344,25.1719 Q230.2344,26.4063 231.125,27.2266 Q232.0156,28.0469 233.6094,28.0469 Q234.5469,28.0469 235.2031,27.7969 Q235.5938,27.6406 236.0156,27.2031 Q236.2813,26.9375 236.4297,26.8594 Q236.5781,26.7813 236.7813,26.7813 Q237.1094,26.7813 237.3672,27.0391 Q237.625,27.2969 237.625,27.6406 Q237.625,27.9844 237.2813,28.3906 Q236.7813,28.9688 235.9844,29.2969 Q234.9063,29.75 233.6094,29.75 Q232.0938,29.75 230.8906,29.125 Q229.9063,28.625 229.2188,27.5547 Q228.5313,26.4844 228.5313,25.2031 L228.5313,24.0469 Q228.5313,22.7188 229.1484,21.5703 Q229.7656,20.4219 230.8594,19.8047 Q231.9531,19.1875 233.1875,19.1875 Q233.9219,19.1875 234.5703,19.3516 Q235.2188,19.5156 235.7656,19.875 Z " /><text fill="#000000" font-family="sans-serif" font-size="12" lengthAdjust="spacingAndGlyphs" textLength="92" x="247" y="28.9102">PaymentTimerUI</text>
        <line style="stroke: #A80036; stroke-width: 1.5;" x1="219" x2="341" y1="40" y2="40" />
        <line style="stroke: #A80036; stroke-width: 1.5;" x1="219" x2="341" y1="48" y2="48" />
        <!--class PaymentTimerController-->
        <rect fill="#FEFECE" filter="url(#fqszto393aa81)" height="75.6719" id="PaymentTimerController" style="stroke: #A80036; stroke-width: 1.5;" width="166" x="197" y="117" />
        <ellipse cx="212" cy="133" fill="#ADD1B2" rx="11" ry="11" style="stroke: #A80036; stroke-width: 1.0;" />
        <path d="M214.7656,128.875 Q214.9219,128.6563 215.1094,128.5469 Q215.2969,128.4375 215.5156,128.4375 Q215.8906,128.4375 216.125,128.6953 Q216.3594,128.9531 216.3594,129.5625 L216.3594,131.0156 Q216.3594,131.625 216.125,131.8906 Q215.8906,132.1563 215.5156,132.1563 Q215.1719,132.1563 214.9688,131.9531 Q214.7656,131.7656 214.6563,131.25 Q214.6094,130.8906 214.4219,130.7031 Q214.0938,130.3281 213.4844,130.1094 Q212.875,129.8906 212.25,129.8906 Q211.4844,129.8906 210.8516,130.2188 Q210.2188,130.5469 209.7266,131.2969 Q209.2344,132.0469 209.2344,133.0781 L209.2344,134.1719 Q209.2344,135.4063 210.125,136.2266 Q211.0156,137.0469 212.6094,137.0469 Q213.5469,137.0469 214.2031,136.7969 Q214.5938,136.6406 215.0156,136.2031 Q215.2813,135.9375 215.4297,135.8594 Q215.5781,135.7813 215.7813,135.7813 Q216.1094,135.7813 216.3672,136.0391 Q216.625,136.2969 216.625,136.6406 Q216.625,136.9844 216.2813,137.3906 Q215.7813,137.9688 214.9844,138.2969 Q213.9063,138.75 212.6094,138.75 Q211.0938,138.75 209.8906,138.125 Q208.9063,137.625 208.2188,136.5547 Q207.5313,135.4844 207.5313,134.2031 L207.5313,133.0469 Q207.5313,131.7188 208.1484,130.5703 Q208.7656,129.4219 209.8594,128.8047 Q210.9531,128.1875 212.1875,128.1875 Q212.9219,128.1875 213.5703,128.3516 Q214.2188,128.5156 214.7656,128.875 Z " /><text fill="#000000" font-family="sans-serif" font-size="12" lengthAdjust="spacingAndGlyphs" textLength="134" x="226" y="137.9102">PaymentTimerController</text>
        <line style="stroke: #A80036; stroke-width: 1.5;" x1="198" x2="362" y1="149" y2="149" />
        <line style="stroke: #A80036; stroke-width: 1.5;" x1="198" x2="362" y1="157" y2="157" />
        <rect fill="#F24D5C" height="6" style="stroke: #C82930; stroke-width: 1.0;" width="6" x="205" y="166.418" /><text fill="#000000" font-family="sans-serif" font-size="11" lengthAdjust="spacingAndGlyphs" textLength="119" x="217" y="172.4189">newPaymentTimer(Date)</text>
        <rect fill="#F24D5C" height="6" style="stroke: #C82930; stroke-width: 1.0;" width="6" x="205" y="180.2539" /><text fill="#000000" font-family="sans-serif" font-size="11" lengthAdjust="spacingAndGlyphs" textLength="70" x="217" y="186.2549">RegisterDate()</text>
        <!--link PaymentTimerUI to PaymentTimerController-->
        <path d="M280,56.04 C280,71.71 280,92.91 280,111.58 " fill="none" id="PaymentTimerUI-PaymentTimerController" style="stroke: #A80036; stroke-width: 1.0; stroke-dasharray: 7.0,7.0;" />
        <polygon fill="#A80036" points="280,116.77,284,107.77,280,111.77,276,107.77,280,116.77" style="stroke: #A80036; stroke-width: 1.0;" />
        <!--link PaymentTimerController to Platform-->
        <path d="M225.359,193.07 C198.928,211 167.156,232.55 140.155,250.87 " fill="none" id="PaymentTimerController-Platform" style="stroke: #A80036; stroke-width: 1.0; stroke-dasharray: 7.0,7.0;" />
        <polygon fill="#A80036" points="135.864,253.78,145.5561,252.0297,139.9994,250.9696,141.0595,245.413,135.864,253.78" style="stroke: #A80036; stroke-width: 1.0;" />
        <!--link PaymentTimerController to RegistryOrganizations-->
        <path d="M259.972,193.16 C230.471,247.89 175.721,349.466 146.887,402.96 " fill="none" id="PaymentTimerController-RegistryOrganizations" style="stroke: #A80036; stroke-width: 1.0; stroke-dasharray: 7.0,7.0;" />
        <polygon fill="#A80036" points="144.348,407.67,152.1398,401.6461,146.7207,403.2688,145.098,397.8497,144.348,407.67" style="stroke: #A80036; stroke-width: 1.0;" />
        <!--link PaymentTimerController to Organization-->
        <path d="M275.977,193.25 C269.568,252.08 256.485,370.089 244,470 C241.052,493.59 237.707,518.997 234.498,542.794 " fill="none" id="PaymentTimerController-Organization" style="stroke: #A80036; stroke-width: 1.0; stroke-dasharray: 7.0,7.0;" />
        <polygon fill="#A80036" points="233.815,547.846,238.9851,539.4633,234.4851,542.8911,231.0572,538.3911,233.815,547.846" style="stroke: #A80036; stroke-width: 1.0;" />
        <!--link PaymentTimerController to AplicationPOT-->
        <path d="M311.177,193.25 C325.874,210.81 343.454,231.81 358.546,249.84 " fill="none" id="PaymentTimerController-AplicationPOT" style="stroke: #A80036; stroke-width: 1.0; stroke-dasharray: 7.0,7.0;" />
        <polygon fill="#A80036" points="361.925,253.87,359.2275,244.3977,358.7206,250.0318,353.0865,249.5248,361.925,253.87" style="stroke: #A80036; stroke-width: 1.0;" />
        <!--link PaymentTimerController to ActualSession-->
        <path d="M363.172,179.12 C401.749,194.16 444.591,217.87 470,254 C501.906,299.36 496.742,324.02 484,378 C482.006,386.448 478.63,395.062 474.846,403.031 " fill="none" id="PaymentTimerController-ActualSession" style="stroke: #A80036; stroke-width: 1.0; stroke-dasharray: 7.0,7.0;" />
        <polygon fill="#A80036" points="472.446,407.901,480.0133,401.5974,474.6569,403.4164,472.8379,398.0599,472.446,407.901" style="stroke: #A80036; stroke-width: 1.0;" />
        <!--link AplicationPOT to ActualSession-->
        <path d="M391.533,330.228 C392.176,345.564 394.579,363.174 401,378 C405.035,387.316 411.082,396.201 417.665,404.142 " fill="none" id="AplicationPOT-ActualSession" style="stroke: #A80036; stroke-width: 1.0;" />
        <polygon fill="#A80036" points="420.933,407.963,418.1231,398.5235,417.6832,404.1632,412.0434,403.7232,420.933,407.963" style="stroke: #A80036; stroke-width: 1.0;" /><text fill="#000000" font-family="sans-serif" font-size="13" lengthAdjust="spacingAndGlyphs" textLength="77" x="402" y="374.4951">interacts with</text><text fill="#000000" font-family="sans-serif" font-size="13" lengthAdjust="spacingAndGlyphs" textLength="7" x="383.7414" y="351.1449">1</text><text fill="#000000" font-family="sans-serif" font-size="13" lengthAdjust="spacingAndGlyphs" textLength="7" x="405.934" y="396.9752">1</text>
        <!--link Platform to RegistryOrganizations-->
        <path d="M93.1037,330.341 C100.3356,352.652 109.467,380.825 116.575,402.754 " fill="none" id="Platform-RegistryOrganizations" style="stroke: #A80036; stroke-width: 1.0;" />
        <polygon fill="#A80036" points="118.152,407.617,119.183,397.8223,116.6108,402.8605,111.5726,400.2882,118.152,407.617" style="stroke: #A80036; stroke-width: 1.0;" /><text fill="#000000" font-family="sans-serif" font-size="13" lengthAdjust="spacingAndGlyphs" textLength="21" x="109" y="374.4951">has</text><text fill="#000000" font-family="sans-serif" font-size="13" lengthAdjust="spacingAndGlyphs" textLength="7" x="87.4749" y="351.2759">1</text><text fill="#000000" font-family="sans-serif" font-size="13" lengthAdjust="spacingAndGlyphs" textLength="7" x="108.399" y="397.0425">1</text>
        <!--link RegistryOrganizations to Organization-->
        <path d="M142.125,470.376 C150.422,488.218 161.448,511.932 172.62,535.957 " fill="none" id="RegistryOrganizations-Organization" style="stroke: #A80036; stroke-width: 1.0;" />
        <polygon fill="#FFFFFF" points="178.105,547.752,179.202,540.6248,173.045,536.871,171.948,543.9982,178.105,547.752" style="stroke: #A80036; stroke-width: 1.0;" /><text fill="#000000" font-family="sans-serif" font-size="13" lengthAdjust="spacingAndGlyphs" textLength="57" x="165" y="514.4951">agregates</text><text fill="#000000" font-family="sans-serif" font-size="13" lengthAdjust="spacingAndGlyphs" textLength="7" x="137.1504" y="491.4263">1</text><text fill="#000000" font-family="sans-serif" font-size="13" lengthAdjust="spacingAndGlyphs" textLength="5" x="169.4876" y="537.1786">*</text>
        <!--link Organization to Collaborator-->
        <path d="M194.127,734.189 C182.421,780.737 170.734,838.365 168,891 C165.625,936.716 166.577,948.244 168,994 C168.655,1015.076 169.914,1038.068 171.243,1058.703 " fill="none" id="Organization-Collaborator" style="stroke: #A80036; stroke-width: 1.0;" />
        <polygon fill="#FFFFFF" points="172.12,1071.878,175.7123,1065.6253,171.3222,1059.9045,167.73,1066.1572,172.12,1071.878" style="stroke: #A80036; stroke-width: 1.0;" /><text fill="#000000" font-family="sans-serif" font-size="13" lengthAdjust="spacingAndGlyphs" textLength="57" x="174" y="857.4951">agregates</text><text fill="#000000" font-family="sans-serif" font-size="13" lengthAdjust="spacingAndGlyphs" textLength="7" x="184.7067" y="755.7473">1</text><text fill="#000000" font-family="sans-serif" font-size="13" lengthAdjust="spacingAndGlyphs" textLength="5" x="166.2228" y="1060.9893">*</text>
        <!--link Organization to Manager-->
        <path d="M229.321,734.304 C233.788,783.852 239.146,843.29 242.976,885.774 " fill="none" id="Organization-Manager" style="stroke: #A80036; stroke-width: 1.0;" />
        <polygon fill="#A80036" points="243.436,890.869,246.6122,881.5464,242.9873,885.8892,238.6445,882.2643,243.436,890.869" style="stroke: #A80036; stroke-width: 1.0;" /><text fill="#000000" font-family="sans-serif" font-size="13" lengthAdjust="spacingAndGlyphs" textLength="32" x="238" y="809.4951">has a</text><text fill="#000000" font-family="sans-serif" font-size="13" lengthAdjust="spacingAndGlyphs" textLength="7" x="222.7052" y="755.8715">1</text><text fill="#000000" font-family="sans-serif" font-size="13" lengthAdjust="spacingAndGlyphs" textLength="7" x="235.302" y="879.9791">1</text>
        <!--link Manager to Organization-->
        <path d="M268.645,890.786 C277.602,862.642 284.855,826.965 279,795 C275.631,776.611 270.162,757.565 263.893,739.415 " fill="none" id="Manager-Organization" style="stroke: #A80036; stroke-width: 1.0; stroke-dasharray: 7.0,7.0;" />
        <polygon fill="#A80036" points="262.105,734.321,261.3105,744.1378,263.7605,739.039,268.8593,741.489,262.105,734.321" style="stroke: #A80036; stroke-width: 1.0;" /><text fill="#000000" font-family="sans-serif" font-size="13" lengthAdjust="spacingAndGlyphs" textLength="130" x="282" y="809.4951">sets up payment timer</text>
        <!--link Manager to Collaborator-->
        <path d="M227.56,994.315 C218.439,1016.992 207.667,1043.771 198.335,1066.974 " fill="none" id="Manager-Collaborator" style="stroke: #A80036; stroke-width: 1.0;" />
        <polygon fill="#A80036" points="196.366,1071.868,203.4348,1065.01,198.2313,1067.229,196.0124,1062.0255,196.366,1071.868" style="stroke: #A80036; stroke-width: 1.0;" /><text fill="#000000" font-family="sans-serif" font-size="13" lengthAdjust="spacingAndGlyphs" textLength="21" x="216" y="1038.4951">is a</text><text fill="#000000" font-family="sans-serif" font-size="13" lengthAdjust="spacingAndGlyphs" textLength="7" x="217.3431" y="1015.8483">1</text><text fill="#000000" font-family="sans-serif" font-size="13" lengthAdjust="spacingAndGlyphs" textLength="7" x="191.7378" y="1060.9779">1</text>
        <!--link Collaborator to User-->
        <path d="M176,1175.055 C176,1198.288 176,1225.533 176,1247.6647 " fill="none" id="Collaborator-User" style="stroke: #A80036; stroke-width: 1.0;" />
        <polygon fill="#A80036" points="176,1252.8843,180,1243.8843,176,1247.8843,172,1243.8843,176,1252.8843" style="stroke: #A80036; stroke-width: 1.0;" /><text fill="#000000" font-family="sans-serif" font-size="13" lengthAdjust="spacingAndGlyphs" textLength="21" x="177" y="1219.4951">is a</text><text fill="#000000" font-family="sans-serif" font-size="13" lengthAdjust="spacingAndGlyphs" textLength="7" x="168.5078" y="1196.9256">1</text><text fill="#000000" font-family="sans-serif" font-size="13" lengthAdjust="spacingAndGlyphs" textLength="7" x="168.3766" y="1242.2256">1</text>
        <!--
@startuml

class Platform {
  -String designation
  +getOrganizationRegistry()
}

class RegistryOrganizations {
    +getOrganizationByUserEmail(String)
}

class Organization {
  -String managerName
  -String organizationDesignation
  -String collaboratorName
  -String managerEmail
  -String CollaboratorEmail
  -Date PayDayDate
  +NewPaymentDate(Date)
  +RegisterDate(Date)
  -validatePaymentDate(Date)
  -setPaymentDate(Date)
}

class AplicationPOT {
  +getInstance()
  +getActualSession()
}

class ActualSession {
  +getEmailUser()
}

class Collaborator {
  -String name
  -String function
  -String email
  -String phoneNumber
}

class User {
  -String email
  -String password
}

class Manager {
  -String name
  -String function
  -String email
  -String phoneNumber
}

class PaymentTimerUI {

}

class PaymentTimerController {
  -newPaymentTimer(Date)
  -RegisterDate()
}

PaymentTimerUI ..> PaymentTimerController
PaymentTimerController ..> Platform
PaymentTimerController ..> RegistryOrganizations
PaymentTimerController ..> Organization
PaymentTimerController ..> AplicationPOT
PaymentTimerController ..> ActualSession

AplicationPOT "1" - -> "1" ActualSession : interacts with

Platform "1" - -> "1" RegistryOrganizations : has
RegistryOrganizations "1" - -o "*" Organization : agregates

Organization "1" - -o "*" Collaborator : agregates
Organization "1" - -> "1" Manager : has a
Manager "1" - -> "1" Collaborator : is a
Collaborator "1" - -> "1" User : is a
Manager ...> Organization : sets up payment timer 


@enduml

PlantUML version 1.2018.14(Fri Dec 21 16:33:16 GMT 2018)
(GPL source distribution)
Java Runtime: Java(TM) SE Runtime Environment
JVM: Java HotSpot(TM) 64-Bit Server VM
Java Version: 1.8.0_221-b11
Operating System: Windows 10
OS Version: 10.0
Default Encoding: Cp1252
Language: pt
Country: PT
-->
    </g>
</svg>