<?xml version="1.0" encoding="UTF-8" standalone="no"?><svg xmlns="http://www.w3.org/2000/svg" xmlns:xlink="http://www.w3.org/1999/xlink" contentScriptType="application/ecmascript" contentStyleType="text/css" height="290px" preserveAspectRatio="none" style="width:644px;height:290px;" version="1.1" viewBox="0 0 644 290" width="644px" zoomAndPan="magnify">
    <defs>
        <filter height="300%" id="f2h6p1nura8je" width="300%" x="-1" y="-1">
            <feGaussianBlur result="blurOut" stdDeviation="2.0" />
            <feColorMatrix in="blurOut" result="blurOut2" type="matrix" values="0 0 0 0 0 0 0 0 0 0 0 0 0 0 0 0 0 0 .4 0" />
            <feOffset dx="4.0" dy="4.0" in="blurOut2" result="blurOut3" />
            <feBlend in="SourceGraphic" in2="blurOut3" mode="normal" />
        </filter>
    </defs>
    <g>
        <!--class Platform-->
        <rect fill="#FEFECE" filter="url(#f2h6p1nura8je)" height="53.8359" id="Platform" style="stroke: #A80036; stroke-width: 1.5;" width="102" x="6" y="190.5" />
        <ellipse cx="31.8" cy="206.5" fill="#ADD1B2" rx="11" ry="11" style="stroke: #A80036; stroke-width: 1.0;" />
        <path d="M34.5656,202.375 Q34.7219,202.1563 34.9094,202.0469 Q35.0969,201.9375 35.3156,201.9375 Q35.6906,201.9375 35.925,202.1953 Q36.1594,202.4531 36.1594,203.0625 L36.1594,204.5156 Q36.1594,205.125 35.925,205.3906 Q35.6906,205.6563 35.3156,205.6563 Q34.9719,205.6563 34.7688,205.4531 Q34.5656,205.2656 34.4563,204.75 Q34.4094,204.3906 34.2219,204.2031 Q33.8938,203.8281 33.2844,203.6094 Q32.675,203.3906 32.05,203.3906 Q31.2844,203.3906 30.6516,203.7188 Q30.0188,204.0469 29.5266,204.7969 Q29.0344,205.5469 29.0344,206.5781 L29.0344,207.6719 Q29.0344,208.9063 29.925,209.7266 Q30.8156,210.5469 32.4094,210.5469 Q33.3469,210.5469 34.0031,210.2969 Q34.3938,210.1406 34.8156,209.7031 Q35.0813,209.4375 35.2297,209.3594 Q35.3781,209.2813 35.5813,209.2813 Q35.9094,209.2813 36.1672,209.5391 Q36.425,209.7969 36.425,210.1406 Q36.425,210.4844 36.0813,210.8906 Q35.5813,211.4688 34.7844,211.7969 Q33.7063,212.25 32.4094,212.25 Q30.8938,212.25 29.6906,211.625 Q28.7063,211.125 28.0188,210.0547 Q27.3313,208.9844 27.3313,207.7031 L27.3313,206.5469 Q27.3313,205.2188 27.9484,204.0703 Q28.5656,202.9219 29.6594,202.3047 Q30.7531,201.6875 31.9875,201.6875 Q32.7219,201.6875 33.3703,201.8516 Q34.0188,202.0156 34.5656,202.375 Z " /><text fill="#000000" font-family="sans-serif" font-size="12" lengthAdjust="spacingAndGlyphs" textLength="46" x="48.2" y="211.4102">Platform</text>
        <line style="stroke: #A80036; stroke-width: 1.5;" x1="7" x2="107" y1="222.5" y2="222.5" /><text fill="#000000" font-family="sans-serif" font-size="11" lengthAdjust="spacingAndGlyphs" textLength="90" x="12" y="237.9189">-String designation</text>
        <!--class Organization-->
        <rect fill="#FEFECE" filter="url(#f2h6p1nura8je)" height="123.0156" id="Organization" style="stroke: #A80036; stroke-width: 1.5;" width="162" x="252" y="156" />
        <ellipse cx="294.45" cy="172" fill="#ADD1B2" rx="11" ry="11" style="stroke: #A80036; stroke-width: 1.0;" />
        <path d="M297.2156,167.875 Q297.3719,167.6563 297.5594,167.5469 Q297.7469,167.4375 297.9656,167.4375 Q298.3406,167.4375 298.575,167.6953 Q298.8094,167.9531 298.8094,168.5625 L298.8094,170.0156 Q298.8094,170.625 298.575,170.8906 Q298.3406,171.1563 297.9656,171.1563 Q297.6219,171.1563 297.4188,170.9531 Q297.2156,170.7656 297.1063,170.25 Q297.0594,169.8906 296.8719,169.7031 Q296.5438,169.3281 295.9344,169.1094 Q295.325,168.8906 294.7,168.8906 Q293.9344,168.8906 293.3016,169.2188 Q292.6688,169.5469 292.1766,170.2969 Q291.6844,171.0469 291.6844,172.0781 L291.6844,173.1719 Q291.6844,174.4063 292.575,175.2266 Q293.4656,176.0469 295.0594,176.0469 Q295.9969,176.0469 296.6531,175.7969 Q297.0438,175.6406 297.4656,175.2031 Q297.7313,174.9375 297.8797,174.8594 Q298.0281,174.7813 298.2313,174.7813 Q298.5594,174.7813 298.8172,175.0391 Q299.075,175.2969 299.075,175.6406 Q299.075,175.9844 298.7313,176.3906 Q298.2313,176.9688 297.4344,177.2969 Q296.3563,177.75 295.0594,177.75 Q293.5438,177.75 292.3406,177.125 Q291.3563,176.625 290.6688,175.5547 Q289.9813,174.4844 289.9813,173.2031 L289.9813,172.0469 Q289.9813,170.7188 290.5984,169.5703 Q291.2156,168.4219 292.3094,167.8047 Q293.4031,167.1875 294.6375,167.1875 Q295.3719,167.1875 296.0203,167.3516 Q296.6688,167.5156 297.2156,167.875 Z " /><text fill="#000000" font-family="sans-serif" font-size="12" lengthAdjust="spacingAndGlyphs" textLength="69" x="314.55" y="176.9102">Organization</text>
        <line style="stroke: #A80036; stroke-width: 1.5;" x1="253" x2="413" y1="188" y2="188" /><text fill="#000000" font-family="sans-serif" font-size="11" lengthAdjust="spacingAndGlyphs" textLength="104" x="258" y="203.4189">-String managerName</text><text fill="#000000" font-family="sans-serif" font-size="11" lengthAdjust="spacingAndGlyphs" textLength="150" x="258" y="217.2549">-String organizationDesignation</text><text fill="#000000" font-family="sans-serif" font-size="11" lengthAdjust="spacingAndGlyphs" textLength="119" x="258" y="231.0908">-String collaboratorName</text><text fill="#000000" font-family="sans-serif" font-size="11" lengthAdjust="spacingAndGlyphs" textLength="101" x="258" y="244.9268">-String managerEmail</text><text fill="#000000" font-family="sans-serif" font-size="11" lengthAdjust="spacingAndGlyphs" textLength="117" x="258" y="258.7627">-String CollaboratorEmail</text><text fill="#000000" font-family="sans-serif" font-size="11" lengthAdjust="spacingAndGlyphs" textLength="88" x="258" y="272.5986">-Date PayDayDate</text>
        <!--class Collaborator-->
        <rect fill="#FEFECE" filter="url(#f2h6p1nura8je)" height="95.3438" id="Collaborator" style="stroke: #A80036; stroke-width: 1.5;" width="114" x="519" y="8" />
        <ellipse cx="540.3" cy="24" fill="#ADD1B2" rx="11" ry="11" style="stroke: #A80036; stroke-width: 1.0;" />
        <path d="M543.0656,19.875 Q543.2219,19.6563 543.4094,19.5469 Q543.5969,19.4375 543.8156,19.4375 Q544.1906,19.4375 544.425,19.6953 Q544.6594,19.9531 544.6594,20.5625 L544.6594,22.0156 Q544.6594,22.625 544.425,22.8906 Q544.1906,23.1563 543.8156,23.1563 Q543.4719,23.1563 543.2688,22.9531 Q543.0656,22.7656 542.9563,22.25 Q542.9094,21.8906 542.7219,21.7031 Q542.3938,21.3281 541.7844,21.1094 Q541.175,20.8906 540.55,20.8906 Q539.7844,20.8906 539.1516,21.2188 Q538.5188,21.5469 538.0266,22.2969 Q537.5344,23.0469 537.5344,24.0781 L537.5344,25.1719 Q537.5344,26.4063 538.425,27.2266 Q539.3156,28.0469 540.9094,28.0469 Q541.8469,28.0469 542.5031,27.7969 Q542.8938,27.6406 543.3156,27.2031 Q543.5813,26.9375 543.7297,26.8594 Q543.8781,26.7813 544.0813,26.7813 Q544.4094,26.7813 544.6672,27.0391 Q544.925,27.2969 544.925,27.6406 Q544.925,27.9844 544.5813,28.3906 Q544.0813,28.9688 543.2844,29.2969 Q542.2063,29.75 540.9094,29.75 Q539.3938,29.75 538.1906,29.125 Q537.2063,28.625 536.5188,27.5547 Q535.8313,26.4844 535.8313,25.2031 L535.8313,24.0469 Q535.8313,22.7188 536.4484,21.5703 Q537.0656,20.4219 538.1594,19.8047 Q539.2531,19.1875 540.4875,19.1875 Q541.2219,19.1875 541.8703,19.3516 Q542.5188,19.5156 543.0656,19.875 Z " /><text fill="#000000" font-family="sans-serif" font-size="12" lengthAdjust="spacingAndGlyphs" textLength="68" x="555.7" y="28.9102">Collaborator</text>
        <line style="stroke: #A80036; stroke-width: 1.5;" x1="520" x2="632" y1="40" y2="40" /><text fill="#000000" font-family="sans-serif" font-size="11" lengthAdjust="spacingAndGlyphs" textLength="61" x="525" y="55.4189">-String name</text><text fill="#000000" font-family="sans-serif" font-size="11" lengthAdjust="spacingAndGlyphs" textLength="74" x="525" y="69.2549">-String function</text><text fill="#000000" font-family="sans-serif" font-size="11" lengthAdjust="spacingAndGlyphs" textLength="59" x="525" y="83.0908">-String email</text><text fill="#000000" font-family="sans-serif" font-size="11" lengthAdjust="spacingAndGlyphs" textLength="102" x="525" y="96.9268">-String phoneNumber</text>
        <!--class Manager-->
        <rect fill="#FEFECE" filter="url(#f2h6p1nura8je)" height="95.3438" id="Manager" style="stroke: #A80036; stroke-width: 1.5;" width="114" x="276" y="8" />
        <ellipse cx="306.3" cy="24" fill="#ADD1B2" rx="11" ry="11" style="stroke: #A80036; stroke-width: 1.0;" />
        <path d="M309.0656,19.875 Q309.2219,19.6563 309.4094,19.5469 Q309.5969,19.4375 309.8156,19.4375 Q310.1906,19.4375 310.425,19.6953 Q310.6594,19.9531 310.6594,20.5625 L310.6594,22.0156 Q310.6594,22.625 310.425,22.8906 Q310.1906,23.1563 309.8156,23.1563 Q309.4719,23.1563 309.2688,22.9531 Q309.0656,22.7656 308.9563,22.25 Q308.9094,21.8906 308.7219,21.7031 Q308.3938,21.3281 307.7844,21.1094 Q307.175,20.8906 306.55,20.8906 Q305.7844,20.8906 305.1516,21.2188 Q304.5188,21.5469 304.0266,22.2969 Q303.5344,23.0469 303.5344,24.0781 L303.5344,25.1719 Q303.5344,26.4063 304.425,27.2266 Q305.3156,28.0469 306.9094,28.0469 Q307.8469,28.0469 308.5031,27.7969 Q308.8938,27.6406 309.3156,27.2031 Q309.5813,26.9375 309.7297,26.8594 Q309.8781,26.7813 310.0813,26.7813 Q310.4094,26.7813 310.6672,27.0391 Q310.925,27.2969 310.925,27.6406 Q310.925,27.9844 310.5813,28.3906 Q310.0813,28.9688 309.2844,29.2969 Q308.2063,29.75 306.9094,29.75 Q305.3938,29.75 304.1906,29.125 Q303.2063,28.625 302.5188,27.5547 Q301.8313,26.4844 301.8313,25.2031 L301.8313,24.0469 Q301.8313,22.7188 302.4484,21.5703 Q303.0656,20.4219 304.1594,19.8047 Q305.2531,19.1875 306.4875,19.1875 Q307.2219,19.1875 307.8703,19.3516 Q308.5188,19.5156 309.0656,19.875 Z " /><text fill="#000000" font-family="sans-serif" font-size="12" lengthAdjust="spacingAndGlyphs" textLength="48" x="323.7" y="28.9102">Manager</text>
        <line style="stroke: #A80036; stroke-width: 1.5;" x1="277" x2="389" y1="40" y2="40" /><text fill="#000000" font-family="sans-serif" font-size="11" lengthAdjust="spacingAndGlyphs" textLength="61" x="282" y="55.4189">-String name</text><text fill="#000000" font-family="sans-serif" font-size="11" lengthAdjust="spacingAndGlyphs" textLength="74" x="282" y="69.2549">-String function</text><text fill="#000000" font-family="sans-serif" font-size="11" lengthAdjust="spacingAndGlyphs" textLength="59" x="282" y="83.0908">-String email</text><text fill="#000000" font-family="sans-serif" font-size="11" lengthAdjust="spacingAndGlyphs" textLength="102" x="282" y="96.9268">-String phoneNumber</text>
        <!--class User-->
        <rect fill="#FEFECE" filter="url(#f2h6p1nura8je)" height="67.6719" id="User" style="stroke: #A80036; stroke-width: 1.5;" width="97" x="527.5" y="155.5" />
        <ellipse cx="559.6" cy="171.5" fill="#ADD1B2" rx="11" ry="11" style="stroke: #A80036; stroke-width: 1.0;" />
        <path d="M562.3656,167.375 Q562.5219,167.1563 562.7094,167.0469 Q562.8969,166.9375 563.1156,166.9375 Q563.4906,166.9375 563.725,167.1953 Q563.9594,167.4531 563.9594,168.0625 L563.9594,169.5156 Q563.9594,170.125 563.725,170.3906 Q563.4906,170.6563 563.1156,170.6563 Q562.7719,170.6563 562.5688,170.4531 Q562.3656,170.2656 562.2563,169.75 Q562.2094,169.3906 562.0219,169.2031 Q561.6938,168.8281 561.0844,168.6094 Q560.475,168.3906 559.85,168.3906 Q559.0844,168.3906 558.4516,168.7188 Q557.8188,169.0469 557.3266,169.7969 Q556.8344,170.5469 556.8344,171.5781 L556.8344,172.6719 Q556.8344,173.9063 557.725,174.7266 Q558.6156,175.5469 560.2094,175.5469 Q561.1469,175.5469 561.8031,175.2969 Q562.1938,175.1406 562.6156,174.7031 Q562.8813,174.4375 563.0297,174.3594 Q563.1781,174.2813 563.3813,174.2813 Q563.7094,174.2813 563.9672,174.5391 Q564.225,174.7969 564.225,175.1406 Q564.225,175.4844 563.8813,175.8906 Q563.3813,176.4688 562.5844,176.7969 Q561.5063,177.25 560.2094,177.25 Q558.6938,177.25 557.4906,176.625 Q556.5063,176.125 555.8188,175.0547 Q555.1313,173.9844 555.1313,172.7031 L555.1313,171.5469 Q555.1313,170.2188 555.7484,169.0703 Q556.3656,167.9219 557.4594,167.3047 Q558.5531,166.6875 559.7875,166.6875 Q560.5219,166.6875 561.1703,166.8516 Q561.8188,167.0156 562.3656,167.375 Z " /><text fill="#000000" font-family="sans-serif" font-size="12" lengthAdjust="spacingAndGlyphs" textLength="27" x="577.4" y="176.4102">User</text>
        <line style="stroke: #A80036; stroke-width: 1.5;" x1="528.5" x2="623.5" y1="187.5" y2="187.5" /><text fill="#000000" font-family="sans-serif" font-size="11" lengthAdjust="spacingAndGlyphs" textLength="59" x="533.5" y="202.9189">-String email</text><text fill="#000000" font-family="sans-serif" font-size="11" lengthAdjust="spacingAndGlyphs" textLength="85" x="533.5" y="216.7549">-String password</text>
        <!--link Platform to Organization-->
        <path d="M108.256,217.5 C146.934,217.5 201.282,217.5 246.729,217.5 " fill="none" id="Platform-Organization" style="stroke: #A80036; stroke-width: 1.0;" />
        <polygon fill="#A80036" points="251.942,217.5,242.942,213.5,246.942,217.5,242.942,221.5,251.942,217.5" style="stroke: #A80036; stroke-width: 1.0;" /><text fill="#000000" font-family="sans-serif" font-size="13" lengthAdjust="spacingAndGlyphs" textLength="82" x="139" y="213.9951">has registered</text><text fill="#000000" font-family="sans-serif" font-size="13" lengthAdjust="spacingAndGlyphs" textLength="7" x="115.9561" y="232.1564">1</text><text fill="#000000" font-family="sans-serif" font-size="13" lengthAdjust="spacingAndGlyphs" textLength="5" x="238.9779" y="231.7736">*</text>
        <!--link Organization to Collaborator-->
        <path d="M414.204,198.9993 C439.594,190.7522 466.801,179.2407 489,163.5 C509.904,148.678 528.347,127.399 542.74,107.642 " fill="none" id="Organization-Collaborator" style="stroke: #A80036; stroke-width: 1.0;" />
        <polygon fill="#A80036" points="545.935,103.189,537.439,108.1707,543.0207,107.2519,543.9396,112.8336,545.935,103.189" style="stroke: #A80036; stroke-width: 1.0;" /><text fill="#000000" font-family="sans-serif" font-size="13" lengthAdjust="spacingAndGlyphs" textLength="21" x="456" y="159.9951">has</text><text fill="#000000" font-family="sans-serif" font-size="13" lengthAdjust="spacingAndGlyphs" textLength="7" x="422.0127" y="211.5419">1</text><text fill="#000000" font-family="sans-serif" font-size="13" lengthAdjust="spacingAndGlyphs" textLength="5" x="536.152" y="124.864">*</text>
        <!--link Manager to Organization-->
        <path d="M333,103.179 C333,117.981 333,134.58 333,150.444 " fill="none" id="Manager-Organization" style="stroke: #A80036; stroke-width: 1.0;" />
        <polygon fill="#A80036" points="333,155.793,337,146.793,333,150.793,329,146.793,333,155.793" style="stroke: #A80036; stroke-width: 1.0;" /><text fill="#000000" font-family="sans-serif" font-size="13" lengthAdjust="spacingAndGlyphs" textLength="130" x="256" y="134.9951">sets up payment timer</text><text fill="#000000" font-family="sans-serif" font-size="13" lengthAdjust="spacingAndGlyphs" textLength="7" x="325.4859" y="124.8525">1</text><text fill="#000000" font-family="sans-serif" font-size="13" lengthAdjust="spacingAndGlyphs" textLength="7" x="325.5953" y="145.2477">1</text>
        <!--link Manager to Collaborator-->
        <path d="M390.2,55.5 C427.205,55.5 475.652,55.5 513.657,55.5 " fill="none" id="Manager-Collaborator" style="stroke: #A80036; stroke-width: 1.0;" />
        <polygon fill="#A80036" points="518.711,55.5,509.711,51.5,513.711,55.5,509.711,59.5,518.711,55.5" style="stroke: #A80036; stroke-width: 1.0;" /><text fill="#000000" font-family="sans-serif" font-size="13" lengthAdjust="spacingAndGlyphs" textLength="21" x="456" y="51.9951">is a</text><text fill="#000000" font-family="sans-serif" font-size="13" lengthAdjust="spacingAndGlyphs" textLength="7" x="397.9772" y="70.0206">1</text><text fill="#000000" font-family="sans-serif" font-size="13" lengthAdjust="spacingAndGlyphs" textLength="7" x="503.9224" y="70.0206">1</text>
        <!--link Manager to User-->
        <path d="M390.2,86.748 C430.163,108.968 483.47,138.608 522.559,160.342 " fill="none" id="Manager-User" style="stroke: #A80036; stroke-width: 1.0;" />
        <polygon fill="#A80036" points="527.254,162.952,521.3302,155.0838,522.8836,160.5232,517.4441,162.0765,527.254,162.952" style="stroke: #A80036; stroke-width: 1.0;" /><text fill="#000000" font-family="sans-serif" font-size="13" lengthAdjust="spacingAndGlyphs" textLength="43" x="445" y="114.9951">acts as</text><text fill="#000000" font-family="sans-serif" font-size="13" lengthAdjust="spacingAndGlyphs" textLength="7" x="397.9772" y="105.2723">1</text><text fill="#000000" font-family="sans-serif" font-size="13" lengthAdjust="spacingAndGlyphs" textLength="7" x="512.5804" y="173.7728">1</text>
        <!--link Collaborator to User-->
        <path d="M576,103.248 C576,118.576 576,135.373 576,150.039 " fill="none" id="Collaborator-User" style="stroke: #A80036; stroke-width: 1.0;" />
        <polygon fill="#A80036" points="576,155.339,580,146.339,576,150.339,572,146.339,576,155.339" style="stroke: #A80036; stroke-width: 1.0;" /><text fill="#000000" font-family="sans-serif" font-size="13" lengthAdjust="spacingAndGlyphs" textLength="43" x="542.5" y="134.7451">acts as</text><text fill="#000000" font-family="sans-serif" font-size="13" lengthAdjust="spacingAndGlyphs" textLength="7" x="568.4859" y="124.9317">1</text><text fill="#000000" font-family="sans-serif" font-size="13" lengthAdjust="spacingAndGlyphs" textLength="7" x="568.3109" y="144.6006">1</text>
        <!--
@startuml
skinparam classAttributeIconSize 0
hide methods
left to right direction

class Platform {
  -String designation
}

class Organization {
  -String managerName
  -String organizationDesignation
  -String collaboratorName
  -String managerEmail
  -String CollaboratorEmail
  -Date PayDayDate
}

class Collaborator {
  -String name
  -String function
  -String email
  -String phoneNumber
}

class Manager {
  -String name
  -String function
  -String email
  -String phoneNumber
}

class User {
  -String email
  -String password
}


Platform "1" - -> "*" Organization : has registered

Organization "1" - -> "*" Collaborator : has

Manager "1" -> "1" Organization : sets up payment timer
Manager "1" -> "1" Collaborator : is a
Manager "1" -> "1" User : acts as

Collaborator "1" -> "1" User : acts as



@enduml

PlantUML version 1.2018.14(Fri Dec 21 16:33:16 GMT 2018)
(GPL source distribution)
Java Runtime: Java(TM) SE Runtime Environment
JVM: Java HotSpot(TM) 64-Bit Server VM
Java Version: 1.8.0_221-b11
Operating System: Windows 10
OS Version: 10.0
Default Encoding: Cp1252
Language: pt
Country: PT
-->
    </g>
</svg>