<?xml version="1.0" encoding="UTF-8" standalone="no"?><svg xmlns="http://www.w3.org/2000/svg" xmlns:xlink="http://www.w3.org/1999/xlink" contentScriptType="application/ecmascript" contentStyleType="text/css" height="436px" preserveAspectRatio="none" style="width:4159px;height:436px;" version="1.1" viewBox="0 0 4159 436" width="4159px" zoomAndPan="magnify"><defs><filter height="300%" id="f114atfgl7zybr" width="300%" x="-1" y="-1"><feGaussianBlur result="blurOut" stdDeviation="2.0"/><feColorMatrix in="blurOut" result="blurOut2" type="matrix" values="0 0 0 0 0 0 0 0 0 0 0 0 0 0 0 0 0 0 .4 0"/><feOffset dx="4.0" dy="4.0" in="blurOut2" result="blurOut3"/><feBlend in="SourceGraphic" in2="blurOut3" mode="normal"/></filter></defs><g><!--MD5=[1da298b6da3d705473b47b19a5c4392c]
class ShowFreelancerPerformanceStatisticsUI--><rect fill="#FEFECE" filter="url(#f114atfgl7zybr)" height="48" id="ShowFreelancerPerformanceStatisticsUI" style="stroke: #A80036; stroke-width: 1.5;" width="282" x="6" y="313"/><ellipse cx="21" cy="329" fill="#ADD1B2" rx="11" ry="11" style="stroke: #A80036; stroke-width: 1.0;"/><path d="M23.9688,334.6406 Q23.3906,334.9375 22.75,335.0859 Q22.1094,335.2344 21.4063,335.2344 Q18.9063,335.2344 17.5859,333.5859 Q16.2656,331.9375 16.2656,328.8125 Q16.2656,325.6875 17.5859,324.0313 Q18.9063,322.375 21.4063,322.375 Q22.1094,322.375 22.7578,322.5313 Q23.4063,322.6875 23.9688,322.9844 L23.9688,325.7031 Q23.3438,325.125 22.75,324.8516 Q22.1563,324.5781 21.5313,324.5781 Q20.1875,324.5781 19.5,325.6484 Q18.8125,326.7188 18.8125,328.8125 Q18.8125,330.9063 19.5,331.9766 Q20.1875,333.0469 21.5313,333.0469 Q22.1563,333.0469 22.75,332.7734 Q23.3438,332.5 23.9688,331.9219 L23.9688,334.6406 Z "/><text fill="#000000" font-family="sans-serif" font-size="12" lengthAdjust="spacingAndGlyphs" textLength="250" x="35" y="333.1543">ShowFreelancerPerformanceStatisticsUI</text><line style="stroke: #A80036; stroke-width: 1.5;" x1="7" x2="287" y1="345" y2="345"/><line style="stroke: #A80036; stroke-width: 1.5;" x1="7" x2="287" y1="353" y2="353"/><!--MD5=[4e41f7c29530202f304e2ce5ffeaf158]
class ShowFreelancerPerformanceStatisticsController--><rect fill="#FEFECE" filter="url(#f114atfgl7zybr)" height="176.0469" id="ShowFreelancerPerformanceStatisticsController" style="stroke: #A80036; stroke-width: 1.5;" width="402" x="349" y="249"/><ellipse cx="396.25" cy="265" fill="#ADD1B2" rx="11" ry="11" style="stroke: #A80036; stroke-width: 1.0;"/><path d="M399.2188,270.6406 Q398.6406,270.9375 398,271.0859 Q397.3594,271.2344 396.6563,271.2344 Q394.1563,271.2344 392.8359,269.5859 Q391.5156,267.9375 391.5156,264.8125 Q391.5156,261.6875 392.8359,260.0313 Q394.1563,258.375 396.6563,258.375 Q397.3594,258.375 398.0078,258.5313 Q398.6563,258.6875 399.2188,258.9844 L399.2188,261.7031 Q398.5938,261.125 398,260.8516 Q397.4063,260.5781 396.7813,260.5781 Q395.4375,260.5781 394.75,261.6484 Q394.0625,262.7188 394.0625,264.8125 Q394.0625,266.9063 394.75,267.9766 Q395.4375,269.0469 396.7813,269.0469 Q397.4063,269.0469 398,268.7734 Q398.5938,268.5 399.2188,267.9219 L399.2188,270.6406 Z "/><text fill="#000000" font-family="sans-serif" font-size="12" lengthAdjust="spacingAndGlyphs" textLength="299" x="416.75" y="269.1543">ShowFreelancerPerformanceStatisticsController</text><line style="stroke: #A80036; stroke-width: 1.5;" x1="350" x2="750" y1="281" y2="281"/><line style="stroke: #A80036; stroke-width: 1.5;" x1="350" x2="750" y1="289" y2="289"/><ellipse cx="360" cy="300" fill="#84BE84" rx="3" ry="3" style="stroke: #038048; stroke-width: 1.0;"/><text fill="#000000" font-family="sans-serif" font-size="11" lengthAdjust="spacingAndGlyphs" textLength="233" x="369" y="303.2104">RegistryOrganizarions getOrganizations()</text><ellipse cx="360" cy="312.8047" fill="#84BE84" rx="3" ry="3" style="stroke: #038048; stroke-width: 1.0;"/><text fill="#000000" font-family="sans-serif" font-size="11" lengthAdjust="spacingAndGlyphs" textLength="353" x="369" y="316.0151">TreeMap&lt;String, List&lt;Double&gt;&gt; determinePaymentPlatform()</text><ellipse cx="360" cy="325.6094" fill="#84BE84" rx="3" ry="3" style="stroke: #038048; stroke-width: 1.0;"/><text fill="#000000" font-family="sans-serif" font-size="11" lengthAdjust="spacingAndGlyphs" textLength="335" x="369" y="328.8198">TreeMap&lt;String, List&lt;Double&gt;&gt; determineDelayPlatform()</text><ellipse cx="360" cy="338.4141" fill="#84BE84" rx="3" ry="3" style="stroke: #038048; stroke-width: 1.0;"/><text fill="#000000" font-family="sans-serif" font-size="11" lengthAdjust="spacingAndGlyphs" textLength="289" x="369" y="341.6245">TreeMap&lt;String, Double&gt; calculateMeanPayment()</text><ellipse cx="360" cy="351.2188" fill="#84BE84" rx="3" ry="3" style="stroke: #038048; stroke-width: 1.0;"/><text fill="#000000" font-family="sans-serif" font-size="11" lengthAdjust="spacingAndGlyphs" textLength="311" x="369" y="354.4292">TreeMap&lt;String, Double&gt; calculateDeviationPayment()</text><ellipse cx="360" cy="364.0234" fill="#84BE84" rx="3" ry="3" style="stroke: #038048; stroke-width: 1.0;"/><text fill="#000000" font-family="sans-serif" font-size="11" lengthAdjust="spacingAndGlyphs" textLength="271" x="369" y="367.2339">TreeMap&lt;String, Double&gt; calculateMeanDelay()</text><ellipse cx="360" cy="376.8281" fill="#84BE84" rx="3" ry="3" style="stroke: #038048; stroke-width: 1.0;"/><text fill="#000000" font-family="sans-serif" font-size="11" lengthAdjust="spacingAndGlyphs" textLength="293" x="369" y="380.0386">TreeMap&lt;String, Double&gt; calculateDeviationDelay()</text><ellipse cx="360" cy="389.6328" fill="#84BE84" rx="3" ry="3" style="stroke: #038048; stroke-width: 1.0;"/><text fill="#000000" font-family="sans-serif" font-size="11" lengthAdjust="spacingAndGlyphs" textLength="376" x="369" y="392.8433">TreeMap&lt;String, List&lt;Double&gt;&gt; determinePaymentOrganization()</text><ellipse cx="360" cy="402.4375" fill="#84BE84" rx="3" ry="3" style="stroke: #038048; stroke-width: 1.0;"/><text fill="#000000" font-family="sans-serif" font-size="11" lengthAdjust="spacingAndGlyphs" textLength="358" x="369" y="405.6479">TreeMap&lt;String, List&lt;Double&gt;&gt; determineDelayOrganization()</text><ellipse cx="360" cy="415.2422" fill="#84BE84" rx="3" ry="3" style="stroke: #038048; stroke-width: 1.0;"/><text fill="#000000" font-family="sans-serif" font-size="11" lengthAdjust="spacingAndGlyphs" textLength="206" x="369" y="418.4526">double calculateNormalDistribution()</text><!--MD5=[99b8db98afdc2c8404e39242ef4c1e65]
class Platform--><rect fill="#FEFECE" filter="url(#f114atfgl7zybr)" height="73.6094" id="Platform" style="stroke: #A80036; stroke-width: 1.5;" width="297" x="812" y="300"/><ellipse cx="930.25" cy="316" fill="#ADD1B2" rx="11" ry="11" style="stroke: #A80036; stroke-width: 1.0;"/><path d="M933.2188,321.6406 Q932.6406,321.9375 932,322.0859 Q931.3594,322.2344 930.6563,322.2344 Q928.1563,322.2344 926.8359,320.5859 Q925.5156,318.9375 925.5156,315.8125 Q925.5156,312.6875 926.8359,311.0313 Q928.1563,309.375 930.6563,309.375 Q931.3594,309.375 932.0078,309.5313 Q932.6563,309.6875 933.2188,309.9844 L933.2188,312.7031 Q932.5938,312.125 932,311.8516 Q931.4063,311.5781 930.7813,311.5781 Q929.4375,311.5781 928.75,312.6484 Q928.0625,313.7188 928.0625,315.8125 Q928.0625,317.9063 928.75,318.9766 Q929.4375,320.0469 930.7813,320.0469 Q931.4063,320.0469 932,319.7734 Q932.5938,319.5 933.2188,318.9219 L933.2188,321.6406 Z "/><text fill="#000000" font-family="sans-serif" font-size="12" lengthAdjust="spacingAndGlyphs" textLength="52" x="950.75" y="320.1543">Platform</text><line style="stroke: #A80036; stroke-width: 1.5;" x1="813" x2="1108" y1="332" y2="332"/><rect fill="none" height="6" style="stroke: #C82930; stroke-width: 1.0;" width="6" x="820" y="340"/><text fill="#000000" font-family="sans-serif" font-size="11" lengthAdjust="spacingAndGlyphs" textLength="70" x="832" y="346.2104">String name</text><line style="stroke: #A80036; stroke-width: 1.5;" x1="813" x2="1108" y1="352.8047" y2="352.8047"/><ellipse cx="823" cy="363.8047" fill="#84BE84" rx="3" ry="3" style="stroke: #038048; stroke-width: 1.0;"/><text fill="#000000" font-family="sans-serif" font-size="11" lengthAdjust="spacingAndGlyphs" textLength="271" x="832" y="367.0151">RegistryOrganization getRegistryOrganizations()</text><!--MD5=[33715664216438c299d64633eb1ff89b]
class RegistryOrganizations--><rect fill="#FEFECE" filter="url(#f114atfgl7zybr)" height="150.4375" id="RegistryOrganizations" style="stroke: #A80036; stroke-width: 1.5;" width="565" x="1207" y="262"/><ellipse cx="1417.75" cy="278" fill="#ADD1B2" rx="11" ry="11" style="stroke: #A80036; stroke-width: 1.0;"/><path d="M1420.7188,283.6406 Q1420.1406,283.9375 1419.5,284.0859 Q1418.8594,284.2344 1418.1563,284.2344 Q1415.6563,284.2344 1414.3359,282.5859 Q1413.0156,280.9375 1413.0156,277.8125 Q1413.0156,274.6875 1414.3359,273.0313 Q1415.6563,271.375 1418.1563,271.375 Q1418.8594,271.375 1419.5078,271.5313 Q1420.1563,271.6875 1420.7188,271.9844 L1420.7188,274.7031 Q1420.0938,274.125 1419.5,273.8516 Q1418.9063,273.5781 1418.2813,273.5781 Q1416.9375,273.5781 1416.25,274.6484 Q1415.5625,275.7188 1415.5625,277.8125 Q1415.5625,279.9063 1416.25,280.9766 Q1416.9375,282.0469 1418.2813,282.0469 Q1418.9063,282.0469 1419.5,281.7734 Q1420.0938,281.5 1420.7188,280.9219 L1420.7188,283.6406 Z "/><text fill="#000000" font-family="sans-serif" font-size="12" lengthAdjust="spacingAndGlyphs" textLength="135" x="1438.25" y="282.1543">RegistryOrganizations</text><line style="stroke: #A80036; stroke-width: 1.5;" x1="1208" x2="1771" y1="294" y2="294"/><line style="stroke: #A80036; stroke-width: 1.5;" x1="1208" x2="1771" y1="302" y2="302"/><ellipse cx="1218" cy="313" fill="#84BE84" rx="3" ry="3" style="stroke: #038048; stroke-width: 1.0;"/><text fill="#000000" font-family="sans-serif" font-size="11" lengthAdjust="spacingAndGlyphs" textLength="234" x="1227" y="316.2104">List&lt;Organization&gt; getLstOrganizations()</text><ellipse cx="1218" cy="325.8047" fill="#84BE84" rx="3" ry="3" style="stroke: #038048; stroke-width: 1.0;"/><text fill="#000000" font-family="sans-serif" font-size="11" lengthAdjust="spacingAndGlyphs" textLength="353" x="1227" y="329.0151">TreeMap&lt;String, List&lt;Double&gt;&gt; determinePaymentPlatform()</text><ellipse cx="1218" cy="338.6094" fill="#84BE84" rx="3" ry="3" style="stroke: #038048; stroke-width: 1.0;"/><text fill="#000000" font-family="sans-serif" font-size="11" lengthAdjust="spacingAndGlyphs" textLength="335" x="1227" y="341.8198">TreeMap&lt;String, List&lt;Double&gt;&gt; determineDelayPlatform()</text><ellipse cx="1218" cy="351.4141" fill="#84BE84" rx="3" ry="3" style="stroke: #038048; stroke-width: 1.0;"/><text fill="#000000" font-family="sans-serif" font-size="11" lengthAdjust="spacingAndGlyphs" textLength="398" x="1227" y="354.6245">TreeMap&lt;String, Double&gt; calculateMeanPayment(mapTotalPayments)</text><ellipse cx="1218" cy="364.2188" fill="#84BE84" rx="3" ry="3" style="stroke: #038048; stroke-width: 1.0;"/><text fill="#000000" font-family="sans-serif" font-size="11" lengthAdjust="spacingAndGlyphs" textLength="539" x="1227" y="367.4292">TreeMap&lt;String, Double&gt; calculateDeviationPayment(mapTotalPayments, mapMeanPayments)</text><ellipse cx="1218" cy="377.0234" fill="#84BE84" rx="3" ry="3" style="stroke: #038048; stroke-width: 1.0;"/><text fill="#000000" font-family="sans-serif" font-size="11" lengthAdjust="spacingAndGlyphs" textLength="362" x="1227" y="380.2339">TreeMap&lt;String, Double&gt; calculateMeanDelay(mapTotalDelays)</text><ellipse cx="1218" cy="389.8281" fill="#84BE84" rx="3" ry="3" style="stroke: #038048; stroke-width: 1.0;"/><text fill="#000000" font-family="sans-serif" font-size="11" lengthAdjust="spacingAndGlyphs" textLength="485" x="1227" y="393.0386">TreeMap&lt;String, Double&gt; calculateDeviationDelay(mapTotalDelays, mapMeanDelays)</text><ellipse cx="1218" cy="402.6328" fill="#84BE84" rx="3" ry="3" style="stroke: #038048; stroke-width: 1.0;"/><text fill="#000000" font-family="sans-serif" font-size="11" lengthAdjust="spacingAndGlyphs" textLength="206" x="1227" y="405.8433">double calculateNormalDistribution()</text><!--MD5=[86c7c362de55a38b660185a1328fe18d]
class Organization--><rect fill="#FEFECE" filter="url(#f114atfgl7zybr)" height="124.8281" id="Organization" style="stroke: #A80036; stroke-width: 1.5;" width="554" x="1870" y="274.5"/><ellipse cx="2103.75" cy="290.5" fill="#ADD1B2" rx="11" ry="11" style="stroke: #A80036; stroke-width: 1.0;"/><path d="M2106.7188,296.1406 Q2106.1406,296.4375 2105.5,296.5859 Q2104.8594,296.7344 2104.1563,296.7344 Q2101.6563,296.7344 2100.3359,295.0859 Q2099.0156,293.4375 2099.0156,290.3125 Q2099.0156,287.1875 2100.3359,285.5313 Q2101.6563,283.875 2104.1563,283.875 Q2104.8594,283.875 2105.5078,284.0313 Q2106.1563,284.1875 2106.7188,284.4844 L2106.7188,287.2031 Q2106.0938,286.625 2105.5,286.3516 Q2104.9063,286.0781 2104.2813,286.0781 Q2102.9375,286.0781 2102.25,287.1484 Q2101.5625,288.2188 2101.5625,290.3125 Q2101.5625,292.4063 2102.25,293.4766 Q2102.9375,294.5469 2104.2813,294.5469 Q2104.9063,294.5469 2105.5,294.2734 Q2106.0938,294 2106.7188,293.4219 L2106.7188,296.1406 Z "/><text fill="#000000" font-family="sans-serif" font-size="12" lengthAdjust="spacingAndGlyphs" textLength="78" x="2124.25" y="294.6543">Organization</text><line style="stroke: #A80036; stroke-width: 1.5;" x1="1871" x2="2423" y1="306.5" y2="306.5"/><rect fill="none" height="6" style="stroke: #C82930; stroke-width: 1.0;" width="6" x="1878" y="314.5"/><text fill="#000000" font-family="sans-serif" font-size="11" lengthAdjust="spacingAndGlyphs" textLength="70" x="1890" y="320.7104">String name</text><rect fill="none" height="6" style="stroke: #C82930; stroke-width: 1.0;" width="6" x="1878" y="327.3047"/><text fill="#000000" font-family="sans-serif" font-size="11" lengthAdjust="spacingAndGlyphs" textLength="52" x="1890" y="333.5151">String nif</text><rect fill="none" height="6" style="stroke: #C82930; stroke-width: 1.0;" width="6" x="1878" y="340.1094"/><text fill="#000000" font-family="sans-serif" font-size="11" lengthAdjust="spacingAndGlyphs" textLength="97" x="1890" y="346.3198">Date payDayDate</text><line style="stroke: #A80036; stroke-width: 1.5;" x1="1871" x2="2423" y1="352.9141" y2="352.9141"/><ellipse cx="1881" cy="363.9141" fill="#84BE84" rx="3" ry="3" style="stroke: #038048; stroke-width: 1.0;"/><text fill="#000000" font-family="sans-serif" font-size="11" lengthAdjust="spacingAndGlyphs" textLength="528" x="1890" y="367.1245">TreeMap&lt;String, List&lt;Double&gt;&gt; determinePaymentOrganization(mapOrganizationPayments)</text><ellipse cx="1881" cy="376.7188" fill="#84BE84" rx="3" ry="3" style="stroke: #038048; stroke-width: 1.0;"/><text fill="#000000" font-family="sans-serif" font-size="11" lengthAdjust="spacingAndGlyphs" textLength="492" x="1890" y="379.9292">TreeMap&lt;String, List&lt;Double&gt;&gt; determineDelayOrganization(mapOrganizationDelays)</text><ellipse cx="1881" cy="389.5234" fill="#84BE84" rx="3" ry="3" style="stroke: #038048; stroke-width: 1.0;"/><text fill="#000000" font-family="sans-serif" font-size="11" lengthAdjust="spacingAndGlyphs" textLength="176" x="1890" y="392.7339">int determineNumberOfTasks()</text><!--MD5=[587ce92a074ce7913f038873c96800e7]
class ListTransactions--><rect fill="#FEFECE" filter="url(#f114atfgl7zybr)" height="60.8047" id="ListTransactions" style="stroke: #A80036; stroke-width: 1.5;" width="252" x="2522" y="182.5"/><ellipse cx="2592.75" cy="198.5" fill="#ADD1B2" rx="11" ry="11" style="stroke: #A80036; stroke-width: 1.0;"/><path d="M2595.7188,204.1406 Q2595.1406,204.4375 2594.5,204.5859 Q2593.8594,204.7344 2593.1563,204.7344 Q2590.6563,204.7344 2589.3359,203.0859 Q2588.0156,201.4375 2588.0156,198.3125 Q2588.0156,195.1875 2589.3359,193.5313 Q2590.6563,191.875 2593.1563,191.875 Q2593.8594,191.875 2594.5078,192.0313 Q2595.1563,192.1875 2595.7188,192.4844 L2595.7188,195.2031 Q2595.0938,194.625 2594.5,194.3516 Q2593.9063,194.0781 2593.2813,194.0781 Q2591.9375,194.0781 2591.25,195.1484 Q2590.5625,196.2188 2590.5625,198.3125 Q2590.5625,200.4063 2591.25,201.4766 Q2591.9375,202.5469 2593.2813,202.5469 Q2593.9063,202.5469 2594.5,202.2734 Q2595.0938,202 2595.7188,201.4219 L2595.7188,204.1406 Z "/><text fill="#000000" font-family="sans-serif" font-size="12" lengthAdjust="spacingAndGlyphs" textLength="102" x="2613.25" y="202.6543">ListTransactions</text><line style="stroke: #A80036; stroke-width: 1.5;" x1="2523" x2="2773" y1="214.5" y2="214.5"/><line style="stroke: #A80036; stroke-width: 1.5;" x1="2523" x2="2773" y1="222.5" y2="222.5"/><ellipse cx="2533" cy="233.5" fill="#84BE84" rx="3" ry="3" style="stroke: #038048; stroke-width: 1.0;"/><text fill="#000000" font-family="sans-serif" font-size="11" lengthAdjust="spacingAndGlyphs" textLength="226" x="2542" y="236.7104">List&lt;Transaction&gt; getLstTransactions()</text><!--MD5=[c38b041ce756cbe16ae0cf6e4cd53481]
class Execution--><rect fill="#FEFECE" filter="url(#f114atfgl7zybr)" height="99.2188" id="Execution" style="stroke: #A80036; stroke-width: 1.5;" width="154" x="3994" y="26.5"/><ellipse cx="4036.45" cy="42.5" fill="#ADD1B2" rx="11" ry="11" style="stroke: #A80036; stroke-width: 1.0;"/><path d="M4039.4188,48.1406 Q4038.8406,48.4375 4038.2,48.5859 Q4037.5594,48.7344 4036.8563,48.7344 Q4034.3563,48.7344 4033.0359,47.0859 Q4031.7156,45.4375 4031.7156,42.3125 Q4031.7156,39.1875 4033.0359,37.5313 Q4034.3563,35.875 4036.8563,35.875 Q4037.5594,35.875 4038.2078,36.0313 Q4038.8563,36.1875 4039.4188,36.4844 L4039.4188,39.2031 Q4038.7938,38.625 4038.2,38.3516 Q4037.6063,38.0781 4036.9813,38.0781 Q4035.6375,38.0781 4034.95,39.1484 Q4034.2625,40.2188 4034.2625,42.3125 Q4034.2625,44.4063 4034.95,45.4766 Q4035.6375,46.5469 4036.9813,46.5469 Q4037.6063,46.5469 4038.2,46.2734 Q4038.7938,46 4039.4188,45.4219 L4039.4188,48.1406 Z "/><text fill="#000000" font-family="sans-serif" font-size="12" lengthAdjust="spacingAndGlyphs" textLength="61" x="4056.55" y="46.6543">Execution</text><line style="stroke: #A80036; stroke-width: 1.5;" x1="3995" x2="4147" y1="58.5" y2="58.5"/><rect fill="none" height="6" style="stroke: #C82930; stroke-width: 1.0;" width="6" x="4002" y="66.5"/><text fill="#000000" font-family="sans-serif" font-size="11" lengthAdjust="spacingAndGlyphs" textLength="87" x="4014" y="72.7104">Date finishDate</text><rect fill="none" height="6" style="stroke: #C82930; stroke-width: 1.0;" width="6" x="4002" y="79.3047"/><text fill="#000000" font-family="sans-serif" font-size="11" lengthAdjust="spacingAndGlyphs" textLength="106" x="4014" y="85.5151">double delayHours</text><rect fill="none" height="6" style="stroke: #C82930; stroke-width: 1.0;" width="6" x="4002" y="92.1094"/><text fill="#000000" font-family="sans-serif" font-size="11" lengthAdjust="spacingAndGlyphs" textLength="128" x="4014" y="98.3198">String briefDescription</text><line style="stroke: #A80036; stroke-width: 1.5;" x1="3995" x2="4147" y1="104.9141" y2="104.9141"/><ellipse cx="4005" cy="115.9141" fill="#84BE84" rx="3" ry="3" style="stroke: #038048; stroke-width: 1.0;"/><text fill="#000000" font-family="sans-serif" font-size="11" lengthAdjust="spacingAndGlyphs" textLength="99" x="4014" y="119.1245">double getDelay()</text><!--MD5=[4555bb1b0911a5adf28ce6dbe60fed2e]
class Transaction--><rect fill="#FEFECE" filter="url(#f114atfgl7zybr)" height="112.0234" id="Transaction" style="stroke: #A80036; stroke-width: 1.5;" width="232" x="2951" y="131"/><ellipse cx="3025.75" cy="147" fill="#ADD1B2" rx="11" ry="11" style="stroke: #A80036; stroke-width: 1.0;"/><path d="M3028.7188,152.6406 Q3028.1406,152.9375 3027.5,153.0859 Q3026.8594,153.2344 3026.1563,153.2344 Q3023.6563,153.2344 3022.3359,151.5859 Q3021.0156,149.9375 3021.0156,146.8125 Q3021.0156,143.6875 3022.3359,142.0313 Q3023.6563,140.375 3026.1563,140.375 Q3026.8594,140.375 3027.5078,140.5313 Q3028.1563,140.6875 3028.7188,140.9844 L3028.7188,143.7031 Q3028.0938,143.125 3027.5,142.8516 Q3026.9063,142.5781 3026.2813,142.5781 Q3024.9375,142.5781 3024.25,143.6484 Q3023.5625,144.7188 3023.5625,146.8125 Q3023.5625,148.9063 3024.25,149.9766 Q3024.9375,151.0469 3026.2813,151.0469 Q3026.9063,151.0469 3027.5,150.7734 Q3028.0938,150.5 3028.7188,149.9219 L3028.7188,152.6406 Z "/><text fill="#000000" font-family="sans-serif" font-size="12" lengthAdjust="spacingAndGlyphs" textLength="74" x="3046.25" y="151.1543">Transaction</text><line style="stroke: #A80036; stroke-width: 1.5;" x1="2952" x2="3182" y1="163" y2="163"/><rect fill="none" height="6" style="stroke: #C82930; stroke-width: 1.0;" width="6" x="2959" y="171"/><text fill="#000000" font-family="sans-serif" font-size="11" lengthAdjust="spacingAndGlyphs" textLength="48" x="2971" y="177.2104">String id</text><line style="stroke: #A80036; stroke-width: 1.5;" x1="2952" x2="3182" y1="183.8047" y2="183.8047"/><ellipse cx="2962" cy="194.8047" fill="#84BE84" rx="3" ry="3" style="stroke: #038048; stroke-width: 1.0;"/><text fill="#000000" font-family="sans-serif" font-size="11" lengthAdjust="spacingAndGlyphs" textLength="138" x="2971" y="198.0151">Execution getExecution()</text><ellipse cx="2962" cy="207.6094" fill="#84BE84" rx="3" ry="3" style="stroke: #038048; stroke-width: 1.0;"/><text fill="#000000" font-family="sans-serif" font-size="11" lengthAdjust="spacingAndGlyphs" textLength="150" x="2971" y="210.8198">Freelancer getFreelancer()</text><ellipse cx="2962" cy="220.4141" fill="#84BE84" rx="3" ry="3" style="stroke: #038048; stroke-width: 1.0;"/><text fill="#000000" font-family="sans-serif" font-size="11" lengthAdjust="spacingAndGlyphs" textLength="142" x="2971" y="223.6245">double computeAmount()</text><ellipse cx="2962" cy="233.2188" fill="#84BE84" rx="3" ry="3" style="stroke: #038048; stroke-width: 1.0;"/><text fill="#000000" font-family="sans-serif" font-size="11" lengthAdjust="spacingAndGlyphs" textLength="206" x="2971" y="236.4292">double calculateNormalDistribution()</text><!--MD5=[1f687b5315377fe49fca59b457947463]
class Freelancer--><rect fill="#FEFECE" filter="url(#f114atfgl7zybr)" height="163.2422" id="Freelancer" style="stroke: #A80036; stroke-width: 1.5;" width="161" x="3399" y="62.5"/><ellipse cx="3441.9" cy="78.5" fill="#ADD1B2" rx="11" ry="11" style="stroke: #A80036; stroke-width: 1.0;"/><path d="M3444.8688,84.1406 Q3444.2906,84.4375 3443.65,84.5859 Q3443.0094,84.7344 3442.3063,84.7344 Q3439.8063,84.7344 3438.4859,83.0859 Q3437.1656,81.4375 3437.1656,78.3125 Q3437.1656,75.1875 3438.4859,73.5313 Q3439.8063,71.875 3442.3063,71.875 Q3443.0094,71.875 3443.6578,72.0313 Q3444.3063,72.1875 3444.8688,72.4844 L3444.8688,75.2031 Q3444.2438,74.625 3443.65,74.3516 Q3443.0563,74.0781 3442.4313,74.0781 Q3441.0875,74.0781 3440.4,75.1484 Q3439.7125,76.2188 3439.7125,78.3125 Q3439.7125,80.4063 3440.4,81.4766 Q3441.0875,82.5469 3442.4313,82.5469 Q3443.0563,82.5469 3443.65,82.2734 Q3444.2438,82 3444.8688,81.4219 L3444.8688,84.1406 Z "/><text fill="#000000" font-family="sans-serif" font-size="12" lengthAdjust="spacingAndGlyphs" textLength="67" x="3462.1" y="82.6543">Freelancer</text><line style="stroke: #A80036; stroke-width: 1.5;" x1="3400" x2="3559" y1="94.5" y2="94.5"/><rect fill="none" height="6" style="stroke: #C82930; stroke-width: 1.0;" width="6" x="3407" y="102.5"/><text fill="#000000" font-family="sans-serif" font-size="11" lengthAdjust="spacingAndGlyphs" textLength="107" x="3419" y="108.7104">String freelancerID</text><rect fill="none" height="6" style="stroke: #C82930; stroke-width: 1.0;" width="6" x="3407" y="115.3047"/><text fill="#000000" font-family="sans-serif" font-size="11" lengthAdjust="spacingAndGlyphs" textLength="70" x="3419" y="121.5151">String name</text><rect fill="none" height="6" style="stroke: #C82930; stroke-width: 1.0;" width="6" x="3407" y="128.1094"/><text fill="#000000" font-family="sans-serif" font-size="11" lengthAdjust="spacingAndGlyphs" textLength="91" x="3419" y="134.3198">String expertise</text><rect fill="none" height="6" style="stroke: #C82930; stroke-width: 1.0;" width="6" x="3407" y="140.9141"/><text fill="#000000" font-family="sans-serif" font-size="11" lengthAdjust="spacingAndGlyphs" textLength="69" x="3419" y="147.1245">String email</text><rect fill="none" height="6" style="stroke: #C82930; stroke-width: 1.0;" width="6" x="3407" y="153.7188"/><text fill="#000000" font-family="sans-serif" font-size="11" lengthAdjust="spacingAndGlyphs" textLength="52" x="3419" y="159.9292">String nif</text><rect fill="none" height="6" style="stroke: #C82930; stroke-width: 1.0;" width="6" x="3407" y="166.5234"/><text fill="#000000" font-family="sans-serif" font-size="11" lengthAdjust="spacingAndGlyphs" textLength="62" x="3419" y="172.7339">String iban</text><rect fill="none" height="6" style="stroke: #C82930; stroke-width: 1.0;" width="6" x="3407" y="179.3281"/><text fill="#000000" font-family="sans-serif" font-size="11" lengthAdjust="spacingAndGlyphs" textLength="85" x="3419" y="185.5386">String address</text><rect fill="none" height="6" style="stroke: #C82930; stroke-width: 1.0;" width="6" x="3407" y="192.1328"/><text fill="#000000" font-family="sans-serif" font-size="11" lengthAdjust="spacingAndGlyphs" textLength="80" x="3419" y="198.3433">String country</text><line style="stroke: #A80036; stroke-width: 1.5;" x1="3400" x2="3559" y1="204.9375" y2="204.9375"/><ellipse cx="3410" cy="215.9375" fill="#84BE84" rx="3" ry="3" style="stroke: #038048; stroke-width: 1.0;"/><text fill="#000000" font-family="sans-serif" font-size="11" lengthAdjust="spacingAndGlyphs" textLength="135" x="3419" y="219.1479">String getFreelancerID()</text><!--MD5=[b34797a66dc35cbf1d65f7e3ca75530e]
class Task--><rect fill="#FEFECE" filter="url(#f114atfgl7zybr)" height="112.0234" id="Task" style="stroke: #A80036; stroke-width: 1.5;" width="184" x="3693" y="174"/><ellipse cx="3766.25" cy="190" fill="#ADD1B2" rx="11" ry="11" style="stroke: #A80036; stroke-width: 1.0;"/><path d="M3769.2188,195.6406 Q3768.6406,195.9375 3768,196.0859 Q3767.3594,196.2344 3766.6563,196.2344 Q3764.1563,196.2344 3762.8359,194.5859 Q3761.5156,192.9375 3761.5156,189.8125 Q3761.5156,186.6875 3762.8359,185.0313 Q3764.1563,183.375 3766.6563,183.375 Q3767.3594,183.375 3768.0078,183.5313 Q3768.6563,183.6875 3769.2188,183.9844 L3769.2188,186.7031 Q3768.5938,186.125 3768,185.8516 Q3767.4063,185.5781 3766.7813,185.5781 Q3765.4375,185.5781 3764.75,186.6484 Q3764.0625,187.7188 3764.0625,189.8125 Q3764.0625,191.9063 3764.75,192.9766 Q3765.4375,194.0469 3766.7813,194.0469 Q3767.4063,194.0469 3768,193.7734 Q3768.5938,193.5 3769.2188,192.9219 L3769.2188,195.6406 Z "/><text fill="#000000" font-family="sans-serif" font-size="12" lengthAdjust="spacingAndGlyphs" textLength="29" x="3786.75" y="194.1543">Task</text><line style="stroke: #A80036; stroke-width: 1.5;" x1="3694" x2="3876" y1="206" y2="206"/><rect fill="none" height="6" style="stroke: #C82930; stroke-width: 1.0;" width="6" x="3701" y="214"/><text fill="#000000" font-family="sans-serif" font-size="11" lengthAdjust="spacingAndGlyphs" textLength="73" x="3713" y="220.2104">String taskID</text><rect fill="none" height="6" style="stroke: #C82930; stroke-width: 1.0;" width="6" x="3701" y="226.8047"/><text fill="#000000" font-family="sans-serif" font-size="11" lengthAdjust="spacingAndGlyphs" textLength="126" x="3713" y="233.0151">String taskDescription</text><rect fill="none" height="6" style="stroke: #C82930; stroke-width: 1.0;" width="6" x="3701" y="239.6094"/><text fill="#000000" font-family="sans-serif" font-size="11" lengthAdjust="spacingAndGlyphs" textLength="158" x="3713" y="245.8198">double taskDurationInHours</text><rect fill="none" height="6" style="stroke: #C82930; stroke-width: 1.0;" width="6" x="3701" y="252.4141"/><text fill="#000000" font-family="sans-serif" font-size="11" lengthAdjust="spacingAndGlyphs" textLength="138" x="3713" y="258.6245">double taskCostPerHour</text><rect fill="none" height="6" style="stroke: #C82930; stroke-width: 1.0;" width="6" x="3701" y="265.2188"/><text fill="#000000" font-family="sans-serif" font-size="11" lengthAdjust="spacingAndGlyphs" textLength="113" x="3713" y="271.4292">String taskCategory</text><line style="stroke: #A80036; stroke-width: 1.5;" x1="3694" x2="3876" y1="278.0234" y2="278.0234"/><!--MD5=[f500c918dd286cee4c9f6c927b21fc0d]
link ShowFreelancerPerformanceStatisticsUI to ShowFreelancerPerformanceStatisticsController--><path d="M288.2329,337 C306.1722,337 324.8134,337 343.5119,337 " fill="none" id="ShowFreelancerPerformanceStatisticsUI-&gt;ShowFreelancerPerformanceStatisticsController" style="stroke: #A80036; stroke-width: 1.0; stroke-dasharray: 7.0,7.0;"/><polygon fill="#A80036" points="348.7868,337,339.7868,333,343.7868,337,339.7868,341,348.7868,337" style="stroke: #A80036; stroke-width: 1.0;"/><!--MD5=[81b72888c0a8fdba1835404b29efa1bf]
link ShowFreelancerPerformanceStatisticsController to Platform--><path d="M751.041,337 C769.7952,337 788.5961,337 806.8174,337 " fill="none" id="ShowFreelancerPerformanceStatisticsController-&gt;Platform" style="stroke: #A80036; stroke-width: 1.0; stroke-dasharray: 7.0,7.0;"/><polygon fill="#A80036" points="811.9408,337,802.9408,333,806.9408,337,802.9408,341,811.9408,337" style="stroke: #A80036; stroke-width: 1.0;"/><!--MD5=[d7e6b8c0ccf00764186b54e4e31b9fc3]
link Platform to RegistryOrganizations--><path d="M1109.2638,337 C1139.9761,337 1173.2818,337 1206.9793,337 " fill="none" id="Platform-RegistryOrganizations" style="stroke: #A80036; stroke-width: 1.0;"/><text fill="#000000" font-family="sans-serif" font-size="13" lengthAdjust="spacingAndGlyphs" textLength="23" x="1140" y="333.0669">has</text><polygon fill="#000000" points="1166,327.0664,1172,330.0664,1166,333.0664,1166,327.0664" style="stroke: #000000; stroke-width: 1.0;"/><text fill="#000000" font-family="sans-serif" font-size="13" lengthAdjust="spacingAndGlyphs" textLength="8" x="1117.1407" y="349.4671">1</text><text fill="#000000" font-family="sans-serif" font-size="13" lengthAdjust="spacingAndGlyphs" textLength="8" x="1191.3686" y="349.2621">1</text><!--MD5=[4444e3f7d3a256ce06ca5b39bcbcc4ba]
link RegistryOrganizations to Organization--><path d="M1772.155,337 C1804.5242,337 1837.5017,337 1869.7985,337 " fill="none" id="RegistryOrganizations-Organization" style="stroke: #A80036; stroke-width: 1.0;"/><text fill="#000000" font-family="sans-serif" font-size="13" lengthAdjust="spacingAndGlyphs" textLength="23" x="1803" y="333.0669">has</text><polygon fill="#000000" points="1829,327.0664,1835,330.0664,1829,333.0664,1829,327.0664" style="stroke: #000000; stroke-width: 1.0;"/><text fill="#000000" font-family="sans-serif" font-size="13" lengthAdjust="spacingAndGlyphs" textLength="8" x="1779.7693" y="349.2621">1</text><text fill="#000000" font-family="sans-serif" font-size="13" lengthAdjust="spacingAndGlyphs" textLength="7" x="1855.3424" y="349.2702">*</text><!--MD5=[02bb9ce2210e261d6550aa31ee7fd776]
link Organization to ListTransactions--><path d="M2399.7016,274.4551 C2443.2321,263.6811 2486.674,252.929 2524.7686,243.5004 " fill="none" id="Organization-ListTransactions" style="stroke: #A80036; stroke-width: 1.0;"/><text fill="#000000" font-family="sans-serif" font-size="13" lengthAdjust="spacingAndGlyphs" textLength="23" x="2455" y="249.0669">has</text><polygon fill="#000000" points="2481,243.0664,2487,246.0664,2481,249.0664,2481,243.0664" style="stroke: #000000; stroke-width: 1.0;"/><text fill="#000000" font-family="sans-serif" font-size="13" lengthAdjust="spacingAndGlyphs" textLength="8" x="2420.4577" y="263.4407">1</text><text fill="#000000" font-family="sans-serif" font-size="13" lengthAdjust="spacingAndGlyphs" textLength="8" x="2505.8347" y="258.8471">1</text><!--MD5=[bc7c47ae1c4406ef2290619baa1d80b6]
link ListTransactions to Transaction--><path d="M2774.282,205.1639 C2830.4257,201.68 2896.0906,197.6054 2950.9838,194.1991 " fill="none" id="ListTransactions-Transaction" style="stroke: #A80036; stroke-width: 1.0;"/><text fill="#000000" font-family="sans-serif" font-size="13" lengthAdjust="spacingAndGlyphs" textLength="102" x="2805" y="192.0669">has registries of</text><polygon fill="#000000" points="2910,186.0664,2916,189.0664,2910,192.0664,2910,186.0664" style="stroke: #000000; stroke-width: 1.0;"/><text fill="#000000" font-family="sans-serif" font-size="13" lengthAdjust="spacingAndGlyphs" textLength="8" x="2781.8139" y="217.2208">1</text><text fill="#000000" font-family="sans-serif" font-size="13" lengthAdjust="spacingAndGlyphs" textLength="7" x="2935.9538" y="207.2573">*</text><!--MD5=[4078351e3988aa35b1504a42837f2ab1]
link Organization to Task--><path d="M2424.1022,358.7755 C2496.894,362.924 2575.3597,366 2648,366 C2648,366 2648,366 3479.5,366 C3562.5205,366 3648.1158,323.5643 3707.5047,286.1016 " fill="none" id="Organization-Task" style="stroke: #A80036; stroke-width: 1.0;"/><text fill="#000000" font-family="sans-serif" font-size="13" lengthAdjust="spacingAndGlyphs" textLength="23" x="3049" y="362.0669">has</text><polygon fill="#000000" points="3075,356.0664,3081,359.0664,3075,362.0664,3075,356.0664" style="stroke: #000000; stroke-width: 1.0;"/><text fill="#000000" font-family="sans-serif" font-size="13" lengthAdjust="spacingAndGlyphs" textLength="8" x="2431.569" y="371.6241">1</text><text fill="#000000" font-family="sans-serif" font-size="13" lengthAdjust="spacingAndGlyphs" textLength="7" x="3690.6334" y="305.9266">*</text><!--MD5=[9926cd7d1f33844ac98d85654cc7d38d]
link Task to Execution--><path d="M3877.0665,180.4257 C3914.7876,160.1144 3957.9476,136.8744 3993.9604,117.4828 " fill="none" id="Task-Execution" style="stroke: #A80036; stroke-width: 1.0;"/><text fill="#000000" font-family="sans-serif" font-size="13" lengthAdjust="spacingAndGlyphs" textLength="42" x="3908" y="131.0669">details</text><polygon fill="#000000" points="3953,125.0664,3959,128.0664,3953,131.0664,3953,125.0664" style="stroke: #000000; stroke-width: 1.0;"/><text fill="#000000" font-family="sans-serif" font-size="13" lengthAdjust="spacingAndGlyphs" textLength="8" x="3885.022" y="189.0128">1</text><text fill="#000000" font-family="sans-serif" font-size="13" lengthAdjust="spacingAndGlyphs" textLength="16" x="3970.1208" y="134.0613">0..</text><!--MD5=[b4b6c1ff9c803d8207b36238c02005ea]
link Freelancer to Task--><path d="M3560.1661,166.708 C3600.9136,178.1786 3650.5409,192.149 3692.7941,204.0435 " fill="none" id="Freelancer-Task" style="stroke: #A80036; stroke-width: 1.0;"/><text fill="#000000" font-family="sans-serif" font-size="13" lengthAdjust="spacingAndGlyphs" textLength="58" x="3591" y="173.0669">executes</text><polygon fill="#000000" points="3652,167.0664,3658,170.0664,3652,173.0664,3652,167.0664" style="stroke: #000000; stroke-width: 1.0;"/><text fill="#000000" font-family="sans-serif" font-size="13" lengthAdjust="spacingAndGlyphs" textLength="8" x="3567.9713" y="181.5547">1</text><text fill="#000000" font-family="sans-serif" font-size="13" lengthAdjust="spacingAndGlyphs" textLength="7" x="3677.8685" y="214.5865">*</text><!--MD5=[8e4873cec2cb3febaaa9495c716fc885]
link Transaction to Task--><path d="M3183.1348,219.0019 C3246.4047,234.792 3326.3952,252.1121 3399,260 C3470.137,267.7285 3488.6015,264.7389 3560,260 C3603.8437,257.09 3652.1781,251.0238 3692.7743,245.1029 " fill="none" id="Transaction-Task" style="stroke: #A80036; stroke-width: 1.0;"/><text fill="#000000" font-family="sans-serif" font-size="13" lengthAdjust="spacingAndGlyphs" textLength="55" x="3445.5" y="256.0669">specifies</text><polygon fill="#000000" points="3503.5,250.0664,3509.5,253.0664,3503.5,256.0664,3503.5,250.0664" style="stroke: #000000; stroke-width: 1.0;"/><text fill="#000000" font-family="sans-serif" font-size="13" lengthAdjust="spacingAndGlyphs" textLength="8" x="3190.8309" y="233.6029">1</text><text fill="#000000" font-family="sans-serif" font-size="13" lengthAdjust="spacingAndGlyphs" textLength="8" x="3677.1063" y="258.9753">1</text><!--MD5=[6d9a0d3e52bb71e36b137034df33f234]
link Transaction to Execution--><path d="M3168.5261,130.8344 C3232.523,98.7022 3318.087,61.5774 3399,45 C3610.9522,1.5755 3868.0423,37.2308 3993.9562,60.2554 " fill="none" id="Transaction-Execution" style="stroke: #A80036; stroke-width: 1.0;"/><text fill="#000000" font-family="sans-serif" font-size="13" lengthAdjust="spacingAndGlyphs" textLength="23" x="3608.5" y="21.0669">has</text><polygon fill="#000000" points="3634.5,15.0664,3640.5,18.0664,3634.5,21.0664,3634.5,15.0664" style="stroke: #000000; stroke-width: 1.0;"/><text fill="#000000" font-family="sans-serif" font-size="13" lengthAdjust="spacingAndGlyphs" textLength="8" x="3173.0216" y="119.7511">1</text><text fill="#000000" font-family="sans-serif" font-size="13" lengthAdjust="spacingAndGlyphs" textLength="8" x="3977.9785" y="71.5065">1</text><!--MD5=[542f32193441b56ea302115ed1249c3b]
link Transaction to Freelancer--><path d="M3183.002,174.9077 C3251.8693,167.7288 3337.4584,158.8068 3398.9502,152.3967 " fill="none" id="Transaction-Freelancer" style="stroke: #A80036; stroke-width: 1.0;"/><text fill="#000000" font-family="sans-serif" font-size="13" lengthAdjust="spacingAndGlyphs" textLength="141" x="3214" y="152.0669">has information about</text><polygon fill="#000000" points="3358,146.0664,3364,149.0664,3358,152.0664,3358,146.0664" style="stroke: #000000; stroke-width: 1.0;"/><text fill="#000000" font-family="sans-serif" font-size="13" lengthAdjust="spacingAndGlyphs" textLength="8" x="3191.0646" y="186.6697">1</text><text fill="#000000" font-family="sans-serif" font-size="13" lengthAdjust="spacingAndGlyphs" textLength="8" x="3382.8915" y="165.9735">1</text><!--MD5=[1ae66f5e9ce5aede7538a07606a450cd]
@startuml
left to right direction

class ShowFreelancerPerformanceStatisticsUI {}

class ShowFreelancerPerformanceStatisticsController {
    +RegistryOrganizarions getOrganizations()
    +TreeMap<String, List<Double>> determinePaymentPlatform()
    +TreeMap<String, List<Double>> determineDelayPlatform()
    +TreeMap<String, Double> calculateMeanPayment()
    +TreeMap<String, Double> calculateDeviationPayment()
    +TreeMap<String, Double> calculateMeanDelay()
    +TreeMap<String, Double> calculateDeviationDelay()
    +TreeMap<String, List<Double>> determinePaymentOrganization()
    +TreeMap<String, List<Double>> determineDelayOrganization()
    +double calculateNormalDistribution()
}

class Platform {
    -String name
    +RegistryOrganization getRegistryOrganizations()
}

class RegistryOrganizations {
    +List<Organization> getLstOrganizations()
    +TreeMap<String, List<Double>> determinePaymentPlatform()
    +TreeMap<String, List<Double>> determineDelayPlatform()
    +TreeMap<String, Double> calculateMeanPayment(mapTotalPayments)
    +TreeMap<String, Double> calculateDeviationPayment(mapTotalPayments, mapMeanPayments)
    +TreeMap<String, Double> calculateMeanDelay(mapTotalDelays)
    +TreeMap<String, Double> calculateDeviationDelay(mapTotalDelays, mapMeanDelays)
    +double calculateNormalDistribution()
}

class Organization {
    -String name
    -String nif
    -Date payDayDate
    +TreeMap<String, List<Double>> determinePaymentOrganization(mapOrganizationPayments)
    +TreeMap<String, List<Double>> determineDelayOrganization(mapOrganizationDelays)
    +int determineNumberOfTasks()
}

class ListTransactions{
    +List<Transaction> getLstTransactions()
}


class Execution {
    - Date finishDate
    - double delayHours
    - String briefDescription
    + double getDelay()
}


class Transaction {
    - String id
    + Execution getExecution()
    + Freelancer getFreelancer()
    + double computeAmount()
    + double calculateNormalDistribution()
}

class Freelancer {
    - String freelancerID
    - String name
    - String expertise
    - String email
    - String nif
    - String iban
    - String address
    - String country
    + String getFreelancerID()
}

class Task {
    - String taskID
    - String taskDescription
    - double taskDurationInHours
    - double taskCostPerHour
    - String taskCategory

}

ShowFreelancerPerformanceStatisticsUI ..> ShowFreelancerPerformanceStatisticsController
ShowFreelancerPerformanceStatisticsController ..> Platform
Platform "1" - - "1" RegistryOrganizations : has >
RegistryOrganizations "1" - - "*" Organization : has >
Organization "1" - - "1" ListTransactions : has >
ListTransactions "1" - - "*" Transaction : has registries of >
Organization "1" - - "*" Task: has >
Task "1" - - "0.." Execution : details >
Freelancer "1" - - "*" Task : executes >
Transaction "1" - - "1" Task : specifies >
Transaction "1" - - "1" Execution : has >
Transaction "1" - - "1" Freelancer : has information about >
@enduml

PlantUML version 1.2019.12(Sun Nov 03 10:24:54 UTC 2019)
(GPL source distribution)
Java Runtime: OpenJDK Runtime Environment
JVM: OpenJDK 64-Bit Server VM
Java Version: 1.8.0_232-heroku-b09
Operating System: Linux
Default Encoding: UTF-8
Language: en
Country: US
--></g></svg>