<?xml version="1.0" encoding="UTF-8" standalone="no"?><svg xmlns="http://www.w3.org/2000/svg" xmlns:xlink="http://www.w3.org/1999/xlink" contentScriptType="application/ecmascript" contentStyleType="text/css" height="530px" preserveAspectRatio="none" style="width:1983px;height:530px;" version="1.1" viewBox="0 0 1983 530" width="1983px" zoomAndPan="magnify"><defs><filter height="300%" id="f1p1p9c6hetd41" width="300%" x="-1" y="-1"><feGaussianBlur result="blurOut" stdDeviation="2.0"/><feColorMatrix in="blurOut" result="blurOut2" type="matrix" values="0 0 0 0 0 0 0 0 0 0 0 0 0 0 0 0 0 0 .4 0"/><feOffset dx="4.0" dy="4.0" in="blurOut2" result="blurOut3"/><feBlend in="SourceGraphic" in2="blurOut3" mode="normal"/></filter></defs><g><!--MD5=[c38b041ce756cbe16ae0cf6e4cd53481]
class Execution--><rect fill="#FEFECE" filter="url(#f1p1p9c6hetd41)" height="78.4141" id="Execution" style="stroke: #A80036; stroke-width: 1.5;" width="154" x="1521" y="177"/><ellipse cx="1563.45" cy="193" fill="#ADD1B2" rx="11" ry="11" style="stroke: #A80036; stroke-width: 1.0;"/><path d="M1566.4188,198.6406 Q1565.8406,198.9375 1565.2,199.0859 Q1564.5594,199.2344 1563.8563,199.2344 Q1561.3563,199.2344 1560.0359,197.5859 Q1558.7156,195.9375 1558.7156,192.8125 Q1558.7156,189.6875 1560.0359,188.0313 Q1561.3563,186.375 1563.8563,186.375 Q1564.5594,186.375 1565.2078,186.5313 Q1565.8563,186.6875 1566.4188,186.9844 L1566.4188,189.7031 Q1565.7938,189.125 1565.2,188.8516 Q1564.6063,188.5781 1563.9813,188.5781 Q1562.6375,188.5781 1561.95,189.6484 Q1561.2625,190.7188 1561.2625,192.8125 Q1561.2625,194.9063 1561.95,195.9766 Q1562.6375,197.0469 1563.9813,197.0469 Q1564.6063,197.0469 1565.2,196.7734 Q1565.7938,196.5 1566.4188,195.9219 L1566.4188,198.6406 Z "/><text fill="#000000" font-family="sans-serif" font-size="12" lengthAdjust="spacingAndGlyphs" textLength="61" x="1583.55" y="197.1543">Execution</text><line style="stroke: #A80036; stroke-width: 1.5;" x1="1522" x2="1674" y1="209" y2="209"/><rect fill="none" height="6" style="stroke: #C82930; stroke-width: 1.0;" width="6" x="1529" y="217"/><text fill="#000000" font-family="sans-serif" font-size="11" lengthAdjust="spacingAndGlyphs" textLength="87" x="1541" y="223.2104">Date finishDate</text><rect fill="none" height="6" style="stroke: #C82930; stroke-width: 1.0;" width="6" x="1529" y="229.8047"/><text fill="#000000" font-family="sans-serif" font-size="11" lengthAdjust="spacingAndGlyphs" textLength="82" x="1541" y="236.0151">int delayHours</text><rect fill="none" height="6" style="stroke: #C82930; stroke-width: 1.0;" width="6" x="1529" y="242.6094"/><text fill="#000000" font-family="sans-serif" font-size="11" lengthAdjust="spacingAndGlyphs" textLength="128" x="1541" y="248.8198">String briefDescription</text><!--MD5=[764fca796ce7f635542948d8fc39db5e]
class Payment--><rect fill="#FEFECE" filter="url(#f1p1p9c6hetd41)" height="40" id="Payment" style="stroke: #A80036; stroke-width: 1.5;" width="86" x="1113" y="87"/><ellipse cx="1128" cy="103" fill="#ADD1B2" rx="11" ry="11" style="stroke: #A80036; stroke-width: 1.0;"/><path d="M1130.9688,108.6406 Q1130.3906,108.9375 1129.75,109.0859 Q1129.1094,109.2344 1128.4063,109.2344 Q1125.9063,109.2344 1124.5859,107.5859 Q1123.2656,105.9375 1123.2656,102.8125 Q1123.2656,99.6875 1124.5859,98.0313 Q1125.9063,96.375 1128.4063,96.375 Q1129.1094,96.375 1129.7578,96.5313 Q1130.4063,96.6875 1130.9688,96.9844 L1130.9688,99.7031 Q1130.3438,99.125 1129.75,98.8516 Q1129.1563,98.5781 1128.5313,98.5781 Q1127.1875,98.5781 1126.5,99.6484 Q1125.8125,100.7188 1125.8125,102.8125 Q1125.8125,104.9063 1126.5,105.9766 Q1127.1875,107.0469 1128.5313,107.0469 Q1129.1563,107.0469 1129.75,106.7734 Q1130.3438,106.5 1130.9688,105.9219 L1130.9688,108.6406 Z "/><text fill="#000000" font-family="sans-serif" font-size="12" lengthAdjust="spacingAndGlyphs" textLength="54" x="1142" y="107.1543">Payment</text><line style="stroke: #A80036; stroke-width: 1.5;" x1="1114" x2="1198" y1="119" y2="119"/><!--MD5=[1f687b5315377fe49fca59b457947463]
class Freelancer--><rect fill="#FEFECE" filter="url(#f1p1p9c6hetd41)" height="142.4375" id="Freelancer" style="stroke: #A80036; stroke-width: 1.5;" width="133" x="1531.5" y="377"/><ellipse cx="1561.8" cy="393" fill="#ADD1B2" rx="11" ry="11" style="stroke: #A80036; stroke-width: 1.0;"/><path d="M1564.7688,398.6406 Q1564.1906,398.9375 1563.55,399.0859 Q1562.9094,399.2344 1562.2063,399.2344 Q1559.7063,399.2344 1558.3859,397.5859 Q1557.0656,395.9375 1557.0656,392.8125 Q1557.0656,389.6875 1558.3859,388.0313 Q1559.7063,386.375 1562.2063,386.375 Q1562.9094,386.375 1563.5578,386.5313 Q1564.2063,386.6875 1564.7688,386.9844 L1564.7688,389.7031 Q1564.1438,389.125 1563.55,388.8516 Q1562.9563,388.5781 1562.3313,388.5781 Q1560.9875,388.5781 1560.3,389.6484 Q1559.6125,390.7188 1559.6125,392.8125 Q1559.6125,394.9063 1560.3,395.9766 Q1560.9875,397.0469 1562.3313,397.0469 Q1562.9563,397.0469 1563.55,396.7734 Q1564.1438,396.5 1564.7688,395.9219 L1564.7688,398.6406 Z "/><text fill="#000000" font-family="sans-serif" font-size="12" lengthAdjust="spacingAndGlyphs" textLength="67" x="1579.2" y="397.1543">Freelancer</text><line style="stroke: #A80036; stroke-width: 1.5;" x1="1532.5" x2="1663.5" y1="409" y2="409"/><rect fill="none" height="6" style="stroke: #C82930; stroke-width: 1.0;" width="6" x="1539.5" y="417"/><text fill="#000000" font-family="sans-serif" font-size="11" lengthAdjust="spacingAndGlyphs" textLength="107" x="1551.5" y="423.2104">String freelancerID</text><rect fill="none" height="6" style="stroke: #C82930; stroke-width: 1.0;" width="6" x="1539.5" y="429.8047"/><text fill="#000000" font-family="sans-serif" font-size="11" lengthAdjust="spacingAndGlyphs" textLength="70" x="1551.5" y="436.0151">String name</text><rect fill="none" height="6" style="stroke: #C82930; stroke-width: 1.0;" width="6" x="1539.5" y="442.6094"/><text fill="#000000" font-family="sans-serif" font-size="11" lengthAdjust="spacingAndGlyphs" textLength="91" x="1551.5" y="448.8198">String expertise</text><rect fill="none" height="6" style="stroke: #C82930; stroke-width: 1.0;" width="6" x="1539.5" y="455.4141"/><text fill="#000000" font-family="sans-serif" font-size="11" lengthAdjust="spacingAndGlyphs" textLength="69" x="1551.5" y="461.6245">String email</text><rect fill="none" height="6" style="stroke: #C82930; stroke-width: 1.0;" width="6" x="1539.5" y="468.2188"/><text fill="#000000" font-family="sans-serif" font-size="11" lengthAdjust="spacingAndGlyphs" textLength="52" x="1551.5" y="474.4292">String nif</text><rect fill="none" height="6" style="stroke: #C82930; stroke-width: 1.0;" width="6" x="1539.5" y="481.0234"/><text fill="#000000" font-family="sans-serif" font-size="11" lengthAdjust="spacingAndGlyphs" textLength="62" x="1551.5" y="487.2339">String iban</text><rect fill="none" height="6" style="stroke: #C82930; stroke-width: 1.0;" width="6" x="1539.5" y="493.8281"/><text fill="#000000" font-family="sans-serif" font-size="11" lengthAdjust="spacingAndGlyphs" textLength="85" x="1551.5" y="500.0386">String address</text><rect fill="none" height="6" style="stroke: #C82930; stroke-width: 1.0;" width="6" x="1539.5" y="506.6328"/><text fill="#000000" font-family="sans-serif" font-size="11" lengthAdjust="spacingAndGlyphs" textLength="80" x="1551.5" y="512.8433">String country</text><!--MD5=[b34797a66dc35cbf1d65f7e3ca75530e]
class Task--><rect fill="#FEFECE" filter="url(#f1p1p9c6hetd41)" height="104.0234" id="Task" style="stroke: #A80036; stroke-width: 1.5;" width="164" x="1808" y="155"/><ellipse cx="1871.25" cy="171" fill="#ADD1B2" rx="11" ry="11" style="stroke: #A80036; stroke-width: 1.0;"/><path d="M1874.2188,176.6406 Q1873.6406,176.9375 1873,177.0859 Q1872.3594,177.2344 1871.6563,177.2344 Q1869.1563,177.2344 1867.8359,175.5859 Q1866.5156,173.9375 1866.5156,170.8125 Q1866.5156,167.6875 1867.8359,166.0313 Q1869.1563,164.375 1871.6563,164.375 Q1872.3594,164.375 1873.0078,164.5313 Q1873.6563,164.6875 1874.2188,164.9844 L1874.2188,167.7031 Q1873.5938,167.125 1873,166.8516 Q1872.4063,166.5781 1871.7813,166.5781 Q1870.4375,166.5781 1869.75,167.6484 Q1869.0625,168.7188 1869.0625,170.8125 Q1869.0625,172.9063 1869.75,173.9766 Q1870.4375,175.0469 1871.7813,175.0469 Q1872.4063,175.0469 1873,174.7734 Q1873.5938,174.5 1874.2188,173.9219 L1874.2188,176.6406 Z "/><text fill="#000000" font-family="sans-serif" font-size="12" lengthAdjust="spacingAndGlyphs" textLength="29" x="1891.75" y="175.1543">Task</text><line style="stroke: #A80036; stroke-width: 1.5;" x1="1809" x2="1971" y1="187" y2="187"/><rect fill="none" height="6" style="stroke: #C82930; stroke-width: 1.0;" width="6" x="1816" y="195"/><text fill="#000000" font-family="sans-serif" font-size="11" lengthAdjust="spacingAndGlyphs" textLength="73" x="1828" y="201.2104">String taskID</text><rect fill="none" height="6" style="stroke: #C82930; stroke-width: 1.0;" width="6" x="1816" y="207.8047"/><text fill="#000000" font-family="sans-serif" font-size="11" lengthAdjust="spacingAndGlyphs" textLength="126" x="1828" y="214.0151">String taskDescription</text><rect fill="none" height="6" style="stroke: #C82930; stroke-width: 1.0;" width="6" x="1816" y="220.6094"/><text fill="#000000" font-family="sans-serif" font-size="11" lengthAdjust="spacingAndGlyphs" textLength="134" x="1828" y="226.8198">int taskDurationInHours</text><rect fill="none" height="6" style="stroke: #C82930; stroke-width: 1.0;" width="6" x="1816" y="233.4141"/><text fill="#000000" font-family="sans-serif" font-size="11" lengthAdjust="spacingAndGlyphs" textLength="138" x="1828" y="239.6245">double taskCostPerHour</text><rect fill="none" height="6" style="stroke: #C82930; stroke-width: 1.0;" width="6" x="1816" y="246.2188"/><text fill="#000000" font-family="sans-serif" font-size="11" lengthAdjust="spacingAndGlyphs" textLength="113" x="1828" y="252.4292">String taskCategory</text><!--MD5=[da547346deef918ea16944ba046651ef]
class Administrator--><rect fill="#FEFECE" filter="url(#f1p1p9c6hetd41)" height="52.8047" id="Administrator" style="stroke: #A80036; stroke-width: 1.5;" width="116" x="6" y="76.5"/><ellipse cx="21" cy="92.5" fill="#ADD1B2" rx="11" ry="11" style="stroke: #A80036; stroke-width: 1.0;"/><path d="M23.9688,98.1406 Q23.3906,98.4375 22.75,98.5859 Q22.1094,98.7344 21.4063,98.7344 Q18.9063,98.7344 17.5859,97.0859 Q16.2656,95.4375 16.2656,92.3125 Q16.2656,89.1875 17.5859,87.5313 Q18.9063,85.875 21.4063,85.875 Q22.1094,85.875 22.7578,86.0313 Q23.4063,86.1875 23.9688,86.4844 L23.9688,89.2031 Q23.3438,88.625 22.75,88.3516 Q22.1563,88.0781 21.5313,88.0781 Q20.1875,88.0781 19.5,89.1484 Q18.8125,90.2188 18.8125,92.3125 Q18.8125,94.4063 19.5,95.4766 Q20.1875,96.5469 21.5313,96.5469 Q22.1563,96.5469 22.75,96.2734 Q23.3438,96 23.9688,95.4219 L23.9688,98.1406 Z "/><text fill="#000000" font-family="sans-serif" font-size="12" lengthAdjust="spacingAndGlyphs" textLength="84" x="35" y="96.6543">Administrator</text><line style="stroke: #A80036; stroke-width: 1.5;" x1="7" x2="121" y1="108.5" y2="108.5"/><rect fill="none" height="6" style="stroke: #C82930; stroke-width: 1.0;" width="6" x="14" y="116.5"/><text fill="#000000" font-family="sans-serif" font-size="11" lengthAdjust="spacingAndGlyphs" textLength="69" x="26" y="122.7104">String email</text><!--MD5=[99b8db98afdc2c8404e39242ef4c1e65]
class Platform--><rect fill="#FEFECE" filter="url(#f1p1p9c6hetd41)" height="52.8047" id="Platform" style="stroke: #A80036; stroke-width: 1.5;" width="96" x="297.5" y="125.5"/><ellipse cx="317.9" cy="141.5" fill="#ADD1B2" rx="11" ry="11" style="stroke: #A80036; stroke-width: 1.0;"/><path d="M320.8688,147.1406 Q320.2906,147.4375 319.65,147.5859 Q319.0094,147.7344 318.3063,147.7344 Q315.8063,147.7344 314.4859,146.0859 Q313.1656,144.4375 313.1656,141.3125 Q313.1656,138.1875 314.4859,136.5313 Q315.8063,134.875 318.3063,134.875 Q319.0094,134.875 319.6578,135.0313 Q320.3063,135.1875 320.8688,135.4844 L320.8688,138.2031 Q320.2438,137.625 319.65,137.3516 Q319.0563,137.0781 318.4313,137.0781 Q317.0875,137.0781 316.4,138.1484 Q315.7125,139.2188 315.7125,141.3125 Q315.7125,143.4063 316.4,144.4766 Q317.0875,145.5469 318.4313,145.5469 Q319.0563,145.5469 319.65,145.2734 Q320.2438,145 320.8688,144.4219 L320.8688,147.1406 Z "/><text fill="#000000" font-family="sans-serif" font-size="12" lengthAdjust="spacingAndGlyphs" textLength="52" x="333.1" y="145.6543">Platform</text><line style="stroke: #A80036; stroke-width: 1.5;" x1="298.5" x2="392.5" y1="157.5" y2="157.5"/><rect fill="none" height="6" style="stroke: #C82930; stroke-width: 1.0;" width="6" x="305.5" y="165.5"/><text fill="#000000" font-family="sans-serif" font-size="11" lengthAdjust="spacingAndGlyphs" textLength="70" x="317.5" y="171.7104">String name</text><!--MD5=[86c7c362de55a38b660185a1328fe18d]
class Organization--><rect fill="#FEFECE" filter="url(#f1p1p9c6hetd41)" height="78.4141" id="Organization" style="stroke: #A80036; stroke-width: 1.5;" width="123" x="604" y="111"/><ellipse cx="624.85" cy="127" fill="#ADD1B2" rx="11" ry="11" style="stroke: #A80036; stroke-width: 1.0;"/><path d="M627.8188,132.6406 Q627.2406,132.9375 626.6,133.0859 Q625.9594,133.2344 625.2563,133.2344 Q622.7563,133.2344 621.4359,131.5859 Q620.1156,129.9375 620.1156,126.8125 Q620.1156,123.6875 621.4359,122.0313 Q622.7563,120.375 625.2563,120.375 Q625.9594,120.375 626.6078,120.5313 Q627.2563,120.6875 627.8188,120.9844 L627.8188,123.7031 Q627.1938,123.125 626.6,122.8516 Q626.0063,122.5781 625.3813,122.5781 Q624.0375,122.5781 623.35,123.6484 Q622.6625,124.7188 622.6625,126.8125 Q622.6625,128.9063 623.35,129.9766 Q624.0375,131.0469 625.3813,131.0469 Q626.0063,131.0469 626.6,130.7734 Q627.1938,130.5 627.8188,129.9219 L627.8188,132.6406 Z "/><text fill="#000000" font-family="sans-serif" font-size="12" lengthAdjust="spacingAndGlyphs" textLength="78" x="640.15" y="131.1543">Organization</text><line style="stroke: #A80036; stroke-width: 1.5;" x1="605" x2="726" y1="143" y2="143"/><rect fill="none" height="6" style="stroke: #C82930; stroke-width: 1.0;" width="6" x="612" y="151"/><text fill="#000000" font-family="sans-serif" font-size="11" lengthAdjust="spacingAndGlyphs" textLength="70" x="624" y="157.2104">String name</text><rect fill="none" height="6" style="stroke: #C82930; stroke-width: 1.0;" width="6" x="612" y="163.8047"/><text fill="#000000" font-family="sans-serif" font-size="11" lengthAdjust="spacingAndGlyphs" textLength="52" x="624" y="170.0151">String nif</text><rect fill="none" height="6" style="stroke: #C82930; stroke-width: 1.0;" width="6" x="612" y="176.6094"/><text fill="#000000" font-family="sans-serif" font-size="11" lengthAdjust="spacingAndGlyphs" textLength="97" x="624" y="182.8198">Date payDayDate</text><!--MD5=[4555bb1b0911a5adf28ce6dbe60fed2e]
class Transaction--><rect fill="#FEFECE" filter="url(#f1p1p9c6hetd41)" height="52.8047" id="Transaction" style="stroke: #A80036; stroke-width: 1.5;" width="106" x="1103" y="280.5"/><ellipse cx="1118" cy="296.5" fill="#ADD1B2" rx="11" ry="11" style="stroke: #A80036; stroke-width: 1.0;"/><path d="M1120.9688,302.1406 Q1120.3906,302.4375 1119.75,302.5859 Q1119.1094,302.7344 1118.4063,302.7344 Q1115.9063,302.7344 1114.5859,301.0859 Q1113.2656,299.4375 1113.2656,296.3125 Q1113.2656,293.1875 1114.5859,291.5313 Q1115.9063,289.875 1118.4063,289.875 Q1119.1094,289.875 1119.7578,290.0313 Q1120.4063,290.1875 1120.9688,290.4844 L1120.9688,293.2031 Q1120.3438,292.625 1119.75,292.3516 Q1119.1563,292.0781 1118.5313,292.0781 Q1117.1875,292.0781 1116.5,293.1484 Q1115.8125,294.2188 1115.8125,296.3125 Q1115.8125,298.4063 1116.5,299.4766 Q1117.1875,300.5469 1118.5313,300.5469 Q1119.1563,300.5469 1119.75,300.2734 Q1120.3438,300 1120.9688,299.4219 L1120.9688,302.1406 Z "/><text fill="#000000" font-family="sans-serif" font-size="12" lengthAdjust="spacingAndGlyphs" textLength="74" x="1132" y="300.6543">Transaction</text><line style="stroke: #A80036; stroke-width: 1.5;" x1="1104" x2="1208" y1="312.5" y2="312.5"/><rect fill="none" height="6" style="stroke: #C82930; stroke-width: 1.0;" width="6" x="1111" y="320.5"/><text fill="#000000" font-family="sans-serif" font-size="11" lengthAdjust="spacingAndGlyphs" textLength="48" x="1123" y="326.7104">String id</text><!--MD5=[40d2668bbcd459976779c45dfe17221f]
class Statistics--><rect fill="#FEFECE" filter="url(#f1p1p9c6hetd41)" height="40" id="Statistics" style="stroke: #A80036; stroke-width: 1.5;" width="90" x="620.5" y="35"/><ellipse cx="635.5" cy="51" fill="#ADD1B2" rx="11" ry="11" style="stroke: #A80036; stroke-width: 1.0;"/><path d="M638.4688,56.6406 Q637.8906,56.9375 637.25,57.0859 Q636.6094,57.2344 635.9063,57.2344 Q633.4063,57.2344 632.0859,55.5859 Q630.7656,53.9375 630.7656,50.8125 Q630.7656,47.6875 632.0859,46.0313 Q633.4063,44.375 635.9063,44.375 Q636.6094,44.375 637.2578,44.5313 Q637.9063,44.6875 638.4688,44.9844 L638.4688,47.7031 Q637.8438,47.125 637.25,46.8516 Q636.6563,46.5781 636.0313,46.5781 Q634.6875,46.5781 634,47.6484 Q633.3125,48.7188 633.3125,50.8125 Q633.3125,52.9063 634,53.9766 Q634.6875,55.0469 636.0313,55.0469 Q636.6563,55.0469 637.25,54.7734 Q637.8438,54.5 638.4688,53.9219 L638.4688,56.6406 Z "/><text fill="#000000" font-family="sans-serif" font-size="12" lengthAdjust="spacingAndGlyphs" textLength="58" x="649.5" y="55.1543">Statistics</text><line style="stroke: #A80036; stroke-width: 1.5;" x1="621.5" x2="709.5" y1="67" y2="67"/><!--MD5=[020250475aebc24ba5d0c773fd881bc9]
link Administrator to Platform--><path d="M122.327,113.1528 C174.0212,122.1511 248.6184,135.1361 297.0809,143.5718 " fill="none" id="Administrator-Platform" style="stroke: #A80036; stroke-width: 1.0;"/><text fill="#000000" font-family="sans-serif" font-size="13" lengthAdjust="spacingAndGlyphs" textLength="57" x="153" y="115.0669">works for</text><polygon fill="#000000" points="213,109.0664,219,112.0664,213,115.0664,213,109.0664" style="stroke: #000000; stroke-width: 1.0;"/><text fill="#000000" font-family="sans-serif" font-size="13" lengthAdjust="spacingAndGlyphs" textLength="8" x="129.9231" y="127.3911">1</text><text fill="#000000" font-family="sans-serif" font-size="13" lengthAdjust="spacingAndGlyphs" textLength="8" x="281.3818" y="155.5265">1</text><!--MD5=[e69694e61e786937b3f144235e8b4f28]
link Administrator to Statistics--><path d="M122.2024,96.831 C132.1397,95.8397 142.363,94.8586 152,94 C324.986,78.5877 531.1054,64.1101 620.4772,58.0225 " fill="none" id="Administrator-Statistics" style="stroke: #A80036; stroke-width: 1.0;"/><text fill="#000000" font-family="sans-serif" font-size="13" lengthAdjust="spacingAndGlyphs" textLength="168" x="255" y="68.0669">views (of all organizations)</text><polygon fill="#000000" points="426,62.0664,432,65.0664,426,68.0664,426,62.0664" style="stroke: #000000; stroke-width: 1.0;"/><text fill="#000000" font-family="sans-serif" font-size="13" lengthAdjust="spacingAndGlyphs" textLength="8" x="130.1721" y="109.0894">1</text><text fill="#000000" font-family="sans-serif" font-size="13" lengthAdjust="spacingAndGlyphs" textLength="7" x="605.4406" y="71.8432">*</text><!--MD5=[22697d4d863c2e08ab1d60ca0d61f844]
link Platform to Freelancer--><path d="M393.8863,168.7689 C533.6863,216.4386 951.0237,353.265 1309,415 C1384.7673,428.0665 1472.6321,437.2631 1531.4062,442.5712 " fill="none" id="Platform-Freelancer" style="stroke: #A80036; stroke-width: 1.0;"/><text fill="#000000" font-family="sans-serif" font-size="13" lengthAdjust="spacingAndGlyphs" textLength="92" x="827.5" y="281.0669">has registered</text><polygon fill="#000000" points="922.5,275.0664,928.5,278.0664,922.5,281.0664,922.5,275.0664" style="stroke: #000000; stroke-width: 1.0;"/><text fill="#000000" font-family="sans-serif" font-size="13" lengthAdjust="spacingAndGlyphs" textLength="8" x="401.5805" y="184.4244">1</text><text fill="#000000" font-family="sans-serif" font-size="13" lengthAdjust="spacingAndGlyphs" textLength="7" x="1516.3016" y="454.86">*</text><!--MD5=[7640e466c042ba2d6f9c19c816f7f0fc]
link Platform to Organization--><path d="M393.7537,151.6984 C449.8874,151.3476 542.6735,150.7677 603.9484,150.3847 " fill="none" id="Platform-Organization" style="stroke: #A80036; stroke-width: 1.0;"/><text fill="#000000" font-family="sans-serif" font-size="13" lengthAdjust="spacingAndGlyphs" textLength="92" x="468" y="147.0669">has registered</text><polygon fill="#000000" points="563,141.0664,569,144.0664,563,147.0664,563,141.0664" style="stroke: #000000; stroke-width: 1.0;"/><text fill="#000000" font-family="sans-serif" font-size="13" lengthAdjust="spacingAndGlyphs" textLength="8" x="401.4285" y="164.8467">1</text><text fill="#000000" font-family="sans-serif" font-size="13" lengthAdjust="spacingAndGlyphs" textLength="7" x="589.0202" y="163.3954">*</text><!--MD5=[d7637ac3eb48d4f2830e10106a654da0]
link Organization to Payment--><path d="M727.2721,149.4265 C795.0899,148.249 907.0991,144.6911 1003,134 C1040.2615,129.8461 1082.1661,122.243 1112.6864,116.1611 " fill="none" id="Organization-Payment" style="stroke: #A80036; stroke-width: 1.0;"/><text fill="#000000" font-family="sans-serif" font-size="13" lengthAdjust="spacingAndGlyphs" textLength="102" x="822.5" y="130.0669">has registries of</text><polygon fill="#000000" points="927.5,124.0664,933.5,127.0664,927.5,130.0664,927.5,124.0664" style="stroke: #000000; stroke-width: 1.0;"/><text fill="#000000" font-family="sans-serif" font-size="13" lengthAdjust="spacingAndGlyphs" textLength="8" x="734.877" y="162.278">1</text><text fill="#000000" font-family="sans-serif" font-size="13" lengthAdjust="spacingAndGlyphs" textLength="7" x="1097.9329" y="130.9985">*</text><!--MD5=[d0956b6d22ad75d32c6c85cdfa66958f]
link Payment to Freelancer--><path d="M1172.1413,127.1548 C1198.0873,158.4284 1251.9709,218.8963 1309,256 C1382.0526,303.5287 1419.5627,279.0765 1491,329 C1510.0157,342.289 1528.0101,359.5692 1543.6265,376.8231 " fill="none" id="Payment-Freelancer" style="stroke: #A80036; stroke-width: 1.0;"/><text fill="#000000" font-family="sans-serif" font-size="13" lengthAdjust="spacingAndGlyphs" textLength="167" x="1310" y="252.0669">has degree of expertise of</text><polygon fill="#000000" points="1480,246.0664,1486,249.0664,1480,252.0664,1480,246.0664" style="stroke: #000000; stroke-width: 1.0;"/><text fill="#000000" font-family="sans-serif" font-size="13" lengthAdjust="spacingAndGlyphs" textLength="7" x="1168.6967" y="147.0183">*</text><text fill="#000000" font-family="sans-serif" font-size="13" lengthAdjust="spacingAndGlyphs" textLength="8" x="1529.6067" y="365.7607">1</text><!--MD5=[a6a2c0b047828a7af8b8d6b818ae28b6]
link Payment to Task--><path d="M1199.288,109.5775 C1288.6335,115.2836 1499.7717,130.7655 1675,159 C1719.1772,166.1183 1767.8824,176.7561 1807.749,186.2096 " fill="none" id="Payment-Task" style="stroke: #A80036; stroke-width: 1.0;"/><text fill="#000000" font-family="sans-serif" font-size="13" lengthAdjust="spacingAndGlyphs" textLength="96" x="1543.5" y="135.0669">has duration of</text><polygon fill="#000000" points="1642.5,129.0664,1648.5,132.0664,1642.5,135.0664,1642.5,129.0664" style="stroke: #000000; stroke-width: 1.0;"/><text fill="#000000" font-family="sans-serif" font-size="13" lengthAdjust="spacingAndGlyphs" textLength="8" x="1207.1201" y="123.3245">1</text><text fill="#000000" font-family="sans-serif" font-size="13" lengthAdjust="spacingAndGlyphs" textLength="8" x="1792.0673" y="197.0977">1</text><!--MD5=[a6a2c0b047828a7af8b8d6b818ae28b6]
link Payment to Task--><path d="M1199.2313,102.548 C1288.9078,94.4107 1501.2898,80.8472 1675,114 C1722.0863,122.9865 1733.8474,127.334 1778,146 C1787.789,150.1384 1797.8447,154.8695 1807.7228,159.8254 " fill="none" id="Payment-Task-1" style="stroke: #A80036; stroke-width: 1.0;"/><text fill="#000000" font-family="sans-serif" font-size="13" lengthAdjust="spacingAndGlyphs" textLength="85" x="1549" y="78.0669">has task cost</text><text fill="#000000" font-family="sans-serif" font-size="13" lengthAdjust="spacingAndGlyphs" textLength="54" x="1564.5" y="93.1997">per hour</text><polygon fill="#000000" points="1637,79.6328,1643,82.6328,1637,85.6328,1637,79.6328" style="stroke: #000000; stroke-width: 1.0;"/><text fill="#000000" font-family="sans-serif" font-size="13" lengthAdjust="spacingAndGlyphs" textLength="8" x="1207.054" y="97.6463">1</text><text fill="#000000" font-family="sans-serif" font-size="13" lengthAdjust="spacingAndGlyphs" textLength="8" x="1792.0387" y="168.3636">1</text><!--MD5=[b4b6c1ff9c803d8207b36238c02005ea]
link Freelancer to Task--><path d="M1664.9265,419.647 C1700.6918,402.5828 1744.189,378.6217 1778,350 C1808.6877,324.0222 1836.5893,288.4495 1856.8678,259.2831 " fill="none" id="Freelancer-Task" style="stroke: #A80036; stroke-width: 1.0;"/><text fill="#000000" font-family="sans-serif" font-size="13" lengthAdjust="spacingAndGlyphs" textLength="58" x="1706" y="346.0669">executes</text><polygon fill="#000000" points="1767,340.0664,1773,343.0664,1767,346.0664,1767,340.0664" style="stroke: #000000; stroke-width: 1.0;"/><text fill="#000000" font-family="sans-serif" font-size="13" lengthAdjust="spacingAndGlyphs" textLength="8" x="1672.6841" y="429.4164">1</text><text fill="#000000" font-family="sans-serif" font-size="13" lengthAdjust="spacingAndGlyphs" textLength="7" x="1845.1743" y="279.0167">*</text><!--MD5=[8e4873cec2cb3febaaa9495c716fc885]
link Transaction to Task--><path d="M1209.3442,310.8642 C1304.1524,316.4721 1507.7601,322.8171 1675,289 C1720.3237,279.8352 1768.6155,262.1942 1807.9255,245.6156 " fill="none" id="Transaction-Task" style="stroke: #A80036; stroke-width: 1.0;"/><text fill="#000000" font-family="sans-serif" font-size="13" lengthAdjust="spacingAndGlyphs" textLength="55" x="1564" y="285.0669">specifies</text><polygon fill="#000000" points="1622,279.0664,1628,282.0664,1622,285.0664,1622,279.0664" style="stroke: #000000; stroke-width: 1.0;"/><text fill="#000000" font-family="sans-serif" font-size="13" lengthAdjust="spacingAndGlyphs" textLength="8" x="1217.0498" y="307.4646">1</text><text fill="#000000" font-family="sans-serif" font-size="13" lengthAdjust="spacingAndGlyphs" textLength="8" x="1791.9905" y="261.9388">1</text><!--MD5=[6d9a0d3e52bb71e36b137034df33f234]
link Transaction to Execution--><path d="M1197.6741,280.4389 C1227.4424,262.964 1269.1221,241.4567 1309,231 C1379.1029,212.6179 1461.9623,210.1889 1520.9441,211.5712 " fill="none" id="Transaction-Execution" style="stroke: #A80036; stroke-width: 1.0;"/><text fill="#000000" font-family="sans-serif" font-size="13" lengthAdjust="spacingAndGlyphs" textLength="23" x="1382" y="208.0669">has</text><polygon fill="#000000" points="1408,202.0664,1414,205.0664,1408,208.0664,1408,202.0664" style="stroke: #000000; stroke-width: 1.0;"/><text fill="#000000" font-family="sans-serif" font-size="13" lengthAdjust="spacingAndGlyphs" textLength="8" x="1198.8572" y="269.2434">1</text><text fill="#000000" font-family="sans-serif" font-size="13" lengthAdjust="spacingAndGlyphs" textLength="8" x="1504.9652" y="223.9266">1</text><!--MD5=[542f32193441b56ea302115ed1249c3b]
link Transaction to Freelancer--><path d="M1209.255,322.9601 C1275.4815,342.9393 1391.9074,378.4948 1491,411 C1504.0736,415.2885 1517.9977,419.9981 1531.3298,424.578 " fill="none" id="Transaction-Freelancer" style="stroke: #A80036; stroke-width: 1.0;"/><text fill="#000000" font-family="sans-serif" font-size="13" lengthAdjust="spacingAndGlyphs" textLength="141" x="1323" y="350.0669">has information about</text><polygon fill="#000000" points="1467,344.0664,1473,347.0664,1467,350.0664,1467,344.0664" style="stroke: #000000; stroke-width: 1.0;"/><text fill="#000000" font-family="sans-serif" font-size="13" lengthAdjust="spacingAndGlyphs" textLength="8" x="1216.9486" y="338.2015">1</text><text fill="#000000" font-family="sans-serif" font-size="13" lengthAdjust="spacingAndGlyphs" textLength="8" x="1515.6002" y="434.8868">1</text><!--MD5=[5b472b31f0f3b0881d5db1623fc7f0bf]
link Statistics to Execution--><path d="M710.9313,46.0573 C725.5756,43.5766 741.9183,41.228 757,40 C988.5913,21.143 1054.9522,7.4149 1279,69 C1369.9906,94.011 1467.541,142.4995 1530.4716,176.9423 " fill="none" id="Statistics-Execution" style="stroke: #A80036; stroke-width: 1.0;"/><text fill="#000000" font-family="sans-serif" font-size="13" lengthAdjust="spacingAndGlyphs" textLength="231" x="1034" y="21.0669">has mean and standard deviation of</text><polygon fill="#000000" points="1268,15.0664,1274,18.0664,1268,21.0664,1268,15.0664" style="stroke: #000000; stroke-width: 1.0;"/><text fill="#000000" font-family="sans-serif" font-size="13" lengthAdjust="spacingAndGlyphs" textLength="8" x="718.5005" y="57.9134">1</text><text fill="#000000" font-family="sans-serif" font-size="13" lengthAdjust="spacingAndGlyphs" textLength="7" x="1511.2636" y="165.9829">*</text><!--MD5=[9090131b9ce55fe28aa0b3dde19808f7]
link Statistics to Payment--><path d="M710.7659,59.7988 C804.9196,69.7805 1020.7499,92.6616 1112.9549,102.4366 " fill="none" id="Statistics-Payment" style="stroke: #A80036; stroke-width: 1.0;"/><text fill="#000000" font-family="sans-serif" font-size="13" lengthAdjust="spacingAndGlyphs" textLength="231" x="758" y="61.0669">has mean and standard deviation of</text><polygon fill="#000000" points="992,55.0664,998,58.0664,992,61.0664,992,55.0664" style="stroke: #000000; stroke-width: 1.0;"/><text fill="#000000" font-family="sans-serif" font-size="13" lengthAdjust="spacingAndGlyphs" textLength="8" x="718.6177" y="73.8364">1</text><text fill="#000000" font-family="sans-serif" font-size="13" lengthAdjust="spacingAndGlyphs" textLength="7" x="1097.955" y="97.4415">*</text><!--MD5=[f228629d357fb35b2c0ec54e4d1e82d1]
@startuml
hide methods
left to right direction

class Execution {
    - Date finishDate
    - int delayHours
    - String briefDescription
}

class Payment {}

class Freelancer {
    - String freelancerID
    - String name
    - String expertise
    - String email
    - String nif
    - String iban
    - String address
    - String country
}

class Task {
    - String taskID
    - String taskDescription
    - int taskDurationInHours
    - double taskCostPerHour
    - String taskCategory
}

class Administrator {
    - String email
}

class Platform {
    - String name
}

class Organization {
    -String name
    -String nif
    -Date payDayDate
}

class Transaction {
    - String id
}

Administrator "1" - - "1" Platform : works for >
Administrator "1" - - "*" Statistics: views (of all organizations) >
Platform "1" - - "*" Freelancer: has registered >
Platform "1" - - "*" Organization : has registered >
Organization "1" - - "*" Payment : has registries of >
Payment "*" - - "1" Freelancer : has degree of expertise of >
Payment "1" - - "1" Task : has duration of >
Payment "1" - - "1" Task : has task cost\nper hour >
Freelancer "1" - - "*" Task : executes >
Transaction "1" - - "1" Task : specifies >
Transaction "1" - - "1" Execution : has >
Transaction "1" - - "1" Freelancer : has information about >
Statistics "1" - - "*" Execution : has mean and standard deviation of >
Statistics "1" - - "*" Payment : has mean and standard deviation of >
@enduml

PlantUML version 1.2019.12(Sun Nov 03 10:24:54 UTC 2019)
(GPL source distribution)
Java Runtime: OpenJDK Runtime Environment
JVM: OpenJDK 64-Bit Server VM
Java Version: 1.8.0_232-heroku-b09
Operating System: Linux
Default Encoding: UTF-8
Language: en
Country: US
--></g></svg>