<?xml version="1.0" encoding="UTF-8" standalone="no"?><svg xmlns="http://www.w3.org/2000/svg" xmlns:xlink="http://www.w3.org/1999/xlink" contentScriptType="application/ecmascript" contentStyleType="text/css" height="1156.25px" preserveAspectRatio="none" style="width:1626px;height:1156px;" version="1.1" viewBox="0 0 1626 1156" width="1626.25px" zoomAndPan="magnify"><defs><filter height="300%" id="fw7dp841cw9nx" width="300%" x="-1" y="-1"><feGaussianBlur result="blurOut" stdDeviation="2.5"/><feColorMatrix in="blurOut" result="blurOut2" type="matrix" values="0 0 0 0 0 0 0 0 0 0 0 0 0 0 0 0 0 0 .4 0"/><feOffset dx="5.0" dy="5.0" in="blurOut2" result="blurOut3"/><feBlend in="SourceGraphic" in2="blurOut3" mode="normal"/></filter></defs><g><!--MD5=[f483d6e5de34a60207b28a5563be5e8b]
class Collaborator--><rect fill="#FEFECE" filter="url(#fw7dp841cw9nx)" height="129.1797" id="Collaborator" style="stroke: #A80036; stroke-width: 1.875;" width="165" x="680" y="1013.75"/><ellipse cx="716.75" cy="1033.75" fill="#ADD1B2" rx="13.75" ry="13.75" style="stroke: #A80036; stroke-width: 1.25;"/><path d="M719.25,1029.375 Q719.5039,1028.75 719.7969,1028.4375 Q720.0898,1028.125 720.4219,1028.125 Q721.0078,1028.125 721.3789,1028.4766 Q721.75,1028.8281 721.75,1029.6484 L721.75,1031.6016 Q721.75,1032.4219 721.3984,1032.7734 Q721.0469,1033.125 720.5,1033.125 Q720.0117,1033.125 719.6992,1032.9102 Q719.3867,1032.6953 719.25,1032.1289 Q719.1914,1031.7383 718.9766,1031.5234 Q718.5859,1031.1133 717.8828,1030.8789 Q717.1797,1030.625 716.4766,1030.625 Q715.5977,1030.625 714.8555,1030.9766 Q714.1328,1031.3281 713.5664,1032.1094 Q713,1032.8906 713,1033.9648 L713,1035.1172 Q713,1036.4063 714.0547,1037.2656 Q715.1094,1038.125 716.9844,1038.125 Q718.0977,1038.125 718.8789,1037.8711 Q719.3281,1037.7344 719.8359,1037.2852 Q720.168,1037.0313 720.3438,1036.9531 Q720.5195,1036.875 720.7344,1036.875 Q721.1445,1036.875 721.4375,1037.207 Q721.75,1037.5195 721.75,1037.9688 Q721.75,1038.3984 721.3203,1038.9063 Q720.6953,1039.6484 719.6992,1040.0586 Q718.3906,1040.625 716.7891,1040.625 Q714.9141,1040.625 713.4102,1039.8828 Q712.1992,1039.2969 711.3398,1038.0273 Q710.5,1036.7578 710.5,1035.2539 L710.5,1033.8867 Q710.5,1032.3242 711.2422,1030.957 Q712.0039,1029.5898 713.3125,1028.8672 Q714.6406,1028.125 716.125,1028.125 Q717.0234,1028.125 717.8047,1028.4375 Q718.5859,1028.75 719.25,1029.375 Z "/><text fill="#000000" font-family="sans-serif" font-size="15" lengthAdjust="spacingAndGlyphs" textLength="85" x="738.25" y="1039.8877">Collaborator</text><line style="stroke: #A80036; stroke-width: 1.875;" x1="681.25" x2="843.75" y1="1053.75" y2="1053.75"/><rect fill="none" height="7.5" style="stroke: #C82930; stroke-width: 1.25;" width="7.5" x="690" y="1063.75"/><text fill="#000000" font-family="sans-serif" font-size="13.75" lengthAdjust="spacingAndGlyphs" textLength="71.25" x="705" y="1073.0237">String name</text><rect fill="none" height="7.5" style="stroke: #C82930; stroke-width: 1.25;" width="7.5" x="690" y="1081.0449"/><text fill="#000000" font-family="sans-serif" font-size="13.75" lengthAdjust="spacingAndGlyphs" textLength="68.75" x="705" y="1090.3186">String email</text><line style="stroke: #A80036; stroke-width: 1.875;" x1="681.25" x2="843.75" y1="1098.3398" y2="1098.3398"/><ellipse cx="693.75" cy="1112.0898" fill="#84BE84" rx="3.75" ry="3.75" style="stroke: #038048; stroke-width: 1.25;"/><text fill="#000000" font-family="sans-serif" font-size="13.75" lengthAdjust="spacingAndGlyphs" textLength="132.5" x="705" y="1117.6135">Manager(name, email)</text><ellipse cx="693.75" cy="1129.3848" fill="#84BE84" rx="3.75" ry="3.75" style="stroke: #038048; stroke-width: 1.25;"/><text fill="#000000" font-family="sans-serif" font-size="13.75" lengthAdjust="spacingAndGlyphs" textLength="97.5" x="705" y="1134.9084">String getEmail()</text><!--MD5=[b24ed8d4ae84bae9290d9aab401637c7]
class Manager--><rect fill="#FEFECE" filter="url(#fw7dp841cw9nx)" height="129.1797" id="Manager" style="stroke: #A80036; stroke-width: 1.875;" width="185" x="312.5" y="1013.75"/><ellipse cx="369.6875" cy="1033.75" fill="#ADD1B2" rx="13.75" ry="13.75" style="stroke: #A80036; stroke-width: 1.25;"/><path d="M372.1875,1029.375 Q372.4414,1028.75 372.7344,1028.4375 Q373.0273,1028.125 373.3594,1028.125 Q373.9453,1028.125 374.3164,1028.4766 Q374.6875,1028.8281 374.6875,1029.6484 L374.6875,1031.6016 Q374.6875,1032.4219 374.3359,1032.7734 Q373.9844,1033.125 373.4375,1033.125 Q372.9492,1033.125 372.6367,1032.9102 Q372.3242,1032.6953 372.1875,1032.1289 Q372.1289,1031.7383 371.9141,1031.5234 Q371.5234,1031.1133 370.8203,1030.8789 Q370.1172,1030.625 369.4141,1030.625 Q368.5352,1030.625 367.793,1030.9766 Q367.0703,1031.3281 366.5039,1032.1094 Q365.9375,1032.8906 365.9375,1033.9648 L365.9375,1035.1172 Q365.9375,1036.4063 366.9922,1037.2656 Q368.0469,1038.125 369.9219,1038.125 Q371.0352,1038.125 371.8164,1037.8711 Q372.2656,1037.7344 372.7734,1037.2852 Q373.1055,1037.0313 373.2813,1036.9531 Q373.457,1036.875 373.6719,1036.875 Q374.082,1036.875 374.375,1037.207 Q374.6875,1037.5195 374.6875,1037.9688 Q374.6875,1038.3984 374.2578,1038.9063 Q373.6328,1039.6484 372.6367,1040.0586 Q371.3281,1040.625 369.7266,1040.625 Q367.8516,1040.625 366.3477,1039.8828 Q365.1367,1039.2969 364.2773,1038.0273 Q363.4375,1036.7578 363.4375,1035.2539 L363.4375,1033.8867 Q363.4375,1032.3242 364.1797,1030.957 Q364.9414,1029.5898 366.25,1028.8672 Q367.5781,1028.125 369.0625,1028.125 Q369.9609,1028.125 370.7422,1028.4375 Q371.5234,1028.75 372.1875,1029.375 Z "/><text fill="#000000" font-family="sans-serif" font-size="15" lengthAdjust="spacingAndGlyphs" textLength="60" x="395.3125" y="1039.8877">Manager</text><line style="stroke: #A80036; stroke-width: 1.875;" x1="313.75" x2="496.25" y1="1053.75" y2="1053.75"/><rect fill="none" height="7.5" style="stroke: #C82930; stroke-width: 1.25;" width="7.5" x="322.5" y="1063.75"/><text fill="#000000" font-family="sans-serif" font-size="13.75" lengthAdjust="spacingAndGlyphs" textLength="71.25" x="337.5" y="1073.0237">String name</text><rect fill="none" height="7.5" style="stroke: #C82930; stroke-width: 1.25;" width="7.5" x="322.5" y="1081.0449"/><text fill="#000000" font-family="sans-serif" font-size="13.75" lengthAdjust="spacingAndGlyphs" textLength="68.75" x="337.5" y="1090.3186">String email</text><line style="stroke: #A80036; stroke-width: 1.875;" x1="313.75" x2="496.25" y1="1098.3398" y2="1098.3398"/><ellipse cx="326.25" cy="1112.0898" fill="#84BE84" rx="3.75" ry="3.75" style="stroke: #038048; stroke-width: 1.25;"/><text fill="#000000" font-family="sans-serif" font-size="13.75" lengthAdjust="spacingAndGlyphs" textLength="152.5" x="337.5" y="1117.6135">Collaborator(name, email)</text><ellipse cx="326.25" cy="1129.3848" fill="#84BE84" rx="3.75" ry="3.75" style="stroke: #038048; stroke-width: 1.25;"/><text fill="#000000" font-family="sans-serif" font-size="13.75" lengthAdjust="spacingAndGlyphs" textLength="97.5" x="337.5" y="1134.9084">String getEmail()</text><!--MD5=[86c7c362de55a38b660185a1328fe18d]
class Organization--><rect fill="#FEFECE" filter="url(#fw7dp841cw9nx)" height="129.1797" id="Organization" style="stroke: #A80036; stroke-width: 1.875;" width="290" x="28.75" y="787.5"/><ellipse cx="125.3125" cy="807.5" fill="#ADD1B2" rx="13.75" ry="13.75" style="stroke: #A80036; stroke-width: 1.25;"/><path d="M127.8125,803.125 Q128.0664,802.5 128.3594,802.1875 Q128.6523,801.875 128.9844,801.875 Q129.5703,801.875 129.9414,802.2266 Q130.3125,802.5781 130.3125,803.3984 L130.3125,805.3516 Q130.3125,806.1719 129.9609,806.5234 Q129.6094,806.875 129.0625,806.875 Q128.5742,806.875 128.2617,806.6602 Q127.9492,806.4453 127.8125,805.8789 Q127.7539,805.4883 127.5391,805.2734 Q127.1484,804.8633 126.4453,804.6289 Q125.7422,804.375 125.0391,804.375 Q124.1602,804.375 123.418,804.7266 Q122.6953,805.0781 122.1289,805.8594 Q121.5625,806.6406 121.5625,807.7148 L121.5625,808.8672 Q121.5625,810.1563 122.6172,811.0156 Q123.6719,811.875 125.5469,811.875 Q126.6602,811.875 127.4414,811.6211 Q127.8906,811.4844 128.3984,811.0352 Q128.7305,810.7813 128.9063,810.7031 Q129.082,810.625 129.2969,810.625 Q129.707,810.625 130,810.957 Q130.3125,811.2695 130.3125,811.7188 Q130.3125,812.1484 129.8828,812.6563 Q129.2578,813.3984 128.2617,813.8086 Q126.9531,814.375 125.3516,814.375 Q123.4766,814.375 121.9727,813.6328 Q120.7617,813.0469 119.9023,811.7773 Q119.0625,810.5078 119.0625,809.0039 L119.0625,807.6367 Q119.0625,806.0742 119.8047,804.707 Q120.5664,803.3398 121.875,802.6172 Q123.2031,801.875 124.6875,801.875 Q125.5859,801.875 126.3672,802.1875 Q127.1484,802.5 127.8125,803.125 Z "/><text fill="#000000" font-family="sans-serif" font-size="15" lengthAdjust="spacingAndGlyphs" textLength="86.25" x="150.9375" y="813.6377">Organization</text><line style="stroke: #A80036; stroke-width: 1.875;" x1="30" x2="317.5" y1="827.5" y2="827.5"/><rect fill="none" height="7.5" style="stroke: #C82930; stroke-width: 1.25;" width="7.5" x="38.75" y="837.5"/><text fill="#000000" font-family="sans-serif" font-size="13.75" lengthAdjust="spacingAndGlyphs" textLength="71.25" x="53.75" y="846.7737">String name</text><line style="stroke: #A80036; stroke-width: 1.875;" x1="30" x2="317.5" y1="854.7949" y2="854.7949"/><ellipse cx="42.5" cy="868.5449" fill="#84BE84" rx="3.75" ry="3.75" style="stroke: #038048; stroke-width: 1.25;"/><text fill="#000000" font-family="sans-serif" font-size="13.75" lengthAdjust="spacingAndGlyphs" text-decoration="underline" textLength="160" x="53.75" y="874.0686">newManager(name, email)</text><ellipse cx="42.5" cy="885.8398" fill="#84BE84" rx="3.75" ry="3.75" style="stroke: #038048; stroke-width: 1.25;"/><text fill="#000000" font-family="sans-serif" font-size="13.75" lengthAdjust="spacingAndGlyphs" text-decoration="underline" textLength="180" x="53.75" y="891.3635">newCollaborator(name, email)</text><ellipse cx="42.5" cy="903.1348" fill="#84BE84" rx="3.75" ry="3.75" style="stroke: #038048; stroke-width: 1.25;"/><text fill="#000000" font-family="sans-serif" font-size="13.75" lengthAdjust="spacingAndGlyphs" textLength="257.5" x="53.75" y="908.6584">Organization(name, manager, collaborator)</text><!--MD5=[99b8db98afdc2c8404e39242ef4c1e65]
class Platform--><rect fill="#FEFECE" filter="url(#fw7dp841cw9nx)" height="146.4746" id="Platform" style="stroke: #A80036; stroke-width: 1.875;" width="241.25" x="804.375" y="317.5"/><ellipse cx="890.9375" cy="337.5" fill="#ADD1B2" rx="13.75" ry="13.75" style="stroke: #A80036; stroke-width: 1.25;"/><path d="M893.4375,333.125 Q893.6914,332.5 893.9844,332.1875 Q894.2773,331.875 894.6094,331.875 Q895.1953,331.875 895.5664,332.2266 Q895.9375,332.5781 895.9375,333.3984 L895.9375,335.3516 Q895.9375,336.1719 895.5859,336.5234 Q895.2344,336.875 894.6875,336.875 Q894.1992,336.875 893.8867,336.6602 Q893.5742,336.4453 893.4375,335.8789 Q893.3789,335.4883 893.1641,335.2734 Q892.7734,334.8633 892.0703,334.6289 Q891.3672,334.375 890.6641,334.375 Q889.7852,334.375 889.043,334.7266 Q888.3203,335.0781 887.7539,335.8594 Q887.1875,336.6406 887.1875,337.7148 L887.1875,338.8672 Q887.1875,340.1563 888.2422,341.0156 Q889.2969,341.875 891.1719,341.875 Q892.2852,341.875 893.0664,341.6211 Q893.5156,341.4844 894.0234,341.0352 Q894.3555,340.7813 894.5313,340.7031 Q894.707,340.625 894.9219,340.625 Q895.332,340.625 895.625,340.957 Q895.9375,341.2695 895.9375,341.7188 Q895.9375,342.1484 895.5078,342.6563 Q894.8828,343.3984 893.8867,343.8086 Q892.5781,344.375 890.9766,344.375 Q889.1016,344.375 887.5977,343.6328 Q886.3867,343.0469 885.5273,341.7773 Q884.6875,340.5078 884.6875,339.0039 L884.6875,337.6367 Q884.6875,336.0742 885.4297,334.707 Q886.1914,333.3398 887.5,332.6172 Q888.8281,331.875 890.3125,331.875 Q891.2109,331.875 891.9922,332.1875 Q892.7734,332.5 893.4375,333.125 Z "/><text fill="#000000" font-family="sans-serif" font-size="15" lengthAdjust="spacingAndGlyphs" textLength="57.5" x="916.5625" y="343.6377">Platform</text><line style="stroke: #A80036; stroke-width: 1.875;" x1="805.625" x2="1044.375" y1="357.5" y2="357.5"/><rect fill="none" height="7.5" style="stroke: #C82930; stroke-width: 1.25;" width="7.5" x="814.375" y="367.5"/><text fill="#000000" font-family="sans-serif" font-size="13.75" lengthAdjust="spacingAndGlyphs" textLength="71.25" x="829.375" y="376.7737">String name</text><line style="stroke: #A80036; stroke-width: 1.875;" x1="805.625" x2="1044.375" y1="384.7949" y2="384.7949"/><ellipse cx="818.125" cy="398.5449" fill="#84BE84" rx="3.75" ry="3.75" style="stroke: #038048; stroke-width: 1.25;"/><text fill="#000000" font-family="sans-serif" font-size="13.75" lengthAdjust="spacingAndGlyphs" textLength="162.5" x="829.375" y="404.0686">getRegistryOrganizations()</text><ellipse cx="818.125" cy="415.8398" fill="#84BE84" rx="3.75" ry="3.75" style="stroke: #038048; stroke-width: 1.25;"/><text fill="#000000" font-family="sans-serif" font-size="13.75" lengthAdjust="spacingAndGlyphs" textLength="208.75" x="829.375" y="421.3635">getPasswordGeneratorAlgorithm()</text><ellipse cx="818.125" cy="433.1348" fill="#84BE84" rx="3.75" ry="3.75" style="stroke: #038048; stroke-width: 1.25;"/><text fill="#000000" font-family="sans-serif" font-size="13.75" lengthAdjust="spacingAndGlyphs" textLength="153.75" x="829.375" y="438.6584">getAuthorizationFacade()</text><ellipse cx="818.125" cy="450.4297" fill="#84BE84" rx="3.75" ry="3.75" style="stroke: #038048; stroke-width: 1.25;"/><text fill="#000000" font-family="sans-serif" font-size="13.75" lengthAdjust="spacingAndGlyphs" textLength="105" x="829.375" y="455.9534">getEmailService()</text><!--MD5=[7ff0368d1571d333e4272eb42aefb658]
class AuthorizationFacade--><rect fill="#FEFECE" filter="url(#fw7dp841cw9nx)" height="77.2949" id="AuthorizationFacade" style="stroke: #A80036; stroke-width: 1.875;" width="363.75" x="1073.125" y="813.125"/><ellipse cx="1180.3125" cy="833.125" fill="#ADD1B2" rx="13.75" ry="13.75" style="stroke: #A80036; stroke-width: 1.25;"/><path d="M1182.8125,828.75 Q1183.0664,828.125 1183.3594,827.8125 Q1183.6523,827.5 1183.9844,827.5 Q1184.5703,827.5 1184.9414,827.8516 Q1185.3125,828.2031 1185.3125,829.0234 L1185.3125,830.9766 Q1185.3125,831.7969 1184.9609,832.1484 Q1184.6094,832.5 1184.0625,832.5 Q1183.5742,832.5 1183.2617,832.2852 Q1182.9492,832.0703 1182.8125,831.5039 Q1182.7539,831.1133 1182.5391,830.8984 Q1182.1484,830.4883 1181.4453,830.2539 Q1180.7422,830 1180.0391,830 Q1179.1602,830 1178.418,830.3516 Q1177.6953,830.7031 1177.1289,831.4844 Q1176.5625,832.2656 1176.5625,833.3398 L1176.5625,834.4922 Q1176.5625,835.7813 1177.6172,836.6406 Q1178.6719,837.5 1180.5469,837.5 Q1181.6602,837.5 1182.4414,837.2461 Q1182.8906,837.1094 1183.3984,836.6602 Q1183.7305,836.4063 1183.9063,836.3281 Q1184.082,836.25 1184.2969,836.25 Q1184.707,836.25 1185,836.582 Q1185.3125,836.8945 1185.3125,837.3438 Q1185.3125,837.7734 1184.8828,838.2813 Q1184.2578,839.0234 1183.2617,839.4336 Q1181.9531,840 1180.3516,840 Q1178.4766,840 1176.9727,839.2578 Q1175.7617,838.6719 1174.9023,837.4023 Q1174.0625,836.1328 1174.0625,834.6289 L1174.0625,833.2617 Q1174.0625,831.6992 1174.8047,830.332 Q1175.5664,828.9648 1176.875,828.2422 Q1178.2031,827.5 1179.6875,827.5 Q1180.5859,827.5 1181.3672,827.8125 Q1182.1484,828.125 1182.8125,828.75 Z "/><text fill="#000000" font-family="sans-serif" font-size="15" lengthAdjust="spacingAndGlyphs" textLength="138.75" x="1205.9375" y="839.2627">AuthorizationFacade</text><line style="stroke: #A80036; stroke-width: 1.875;" x1="1074.375" x2="1435.625" y1="853.125" y2="853.125"/><line style="stroke: #A80036; stroke-width: 1.875;" x1="1074.375" x2="1435.625" y1="863.125" y2="863.125"/><ellipse cx="1086.875" cy="876.875" fill="#84BE84" rx="3.75" ry="3.75" style="stroke: #038048; stroke-width: 1.25;"/><text fill="#000000" font-family="sans-serif" font-size="13.75" lengthAdjust="spacingAndGlyphs" textLength="331.25" x="1098.125" y="882.3987">registerUserWithFunctions(name, email, pwd, function)</text><!--MD5=[4f951974ade12dc82702c8e5d25dd0a5]
class RegisterOrganizationController--><rect fill="#FEFECE" filter="url(#fw7dp841cw9nx)" height="94.5898" id="RegisterOrganizationController" style="stroke: #A80036; stroke-width: 1.875;" width="517.5" x="7.5" y="146.25"/><ellipse cx="154.6875" cy="166.25" fill="#ADD1B2" rx="13.75" ry="13.75" style="stroke: #A80036; stroke-width: 1.25;"/><path d="M157.1875,161.875 Q157.4414,161.25 157.7344,160.9375 Q158.0273,160.625 158.3594,160.625 Q158.9453,160.625 159.3164,160.9766 Q159.6875,161.3281 159.6875,162.1484 L159.6875,164.1016 Q159.6875,164.9219 159.3359,165.2734 Q158.9844,165.625 158.4375,165.625 Q157.9492,165.625 157.6367,165.4102 Q157.3242,165.1953 157.1875,164.6289 Q157.1289,164.2383 156.9141,164.0234 Q156.5234,163.6133 155.8203,163.3789 Q155.1172,163.125 154.4141,163.125 Q153.5352,163.125 152.793,163.4766 Q152.0703,163.8281 151.5039,164.6094 Q150.9375,165.3906 150.9375,166.4648 L150.9375,167.6172 Q150.9375,168.9063 151.9922,169.7656 Q153.0469,170.625 154.9219,170.625 Q156.0352,170.625 156.8164,170.3711 Q157.2656,170.2344 157.7734,169.7852 Q158.1055,169.5313 158.2813,169.4531 Q158.457,169.375 158.6719,169.375 Q159.082,169.375 159.375,169.707 Q159.6875,170.0195 159.6875,170.4688 Q159.6875,170.8984 159.2578,171.4063 Q158.6328,172.1484 157.6367,172.5586 Q156.3281,173.125 154.7266,173.125 Q152.8516,173.125 151.3477,172.3828 Q150.1367,171.7969 149.2773,170.5273 Q148.4375,169.2578 148.4375,167.7539 L148.4375,166.3867 Q148.4375,164.8242 149.1797,163.457 Q149.9414,162.0898 151.25,161.3672 Q152.5781,160.625 154.0625,160.625 Q154.9609,160.625 155.7422,160.9375 Q156.5234,161.25 157.1875,161.875 Z "/><text fill="#000000" font-family="sans-serif" font-size="15" lengthAdjust="spacingAndGlyphs" textLength="212.5" x="180.3125" y="172.3877">RegisterOrganizationController</text><line style="stroke: #A80036; stroke-width: 1.875;" x1="8.75" x2="523.75" y1="186.25" y2="186.25"/><line style="stroke: #A80036; stroke-width: 1.875;" x1="8.75" x2="523.75" y1="196.25" y2="196.25"/><ellipse cx="21.25" cy="210" fill="#84BE84" rx="3.75" ry="3.75" style="stroke: #038048; stroke-width: 1.25;"/><text fill="#000000" font-family="sans-serif" font-size="13.75" lengthAdjust="spacingAndGlyphs" textLength="485" x="32.5" y="215.5237">newOrganization(orgName,managerName,managerEmail,collabName,collabEmail)</text><ellipse cx="21.25" cy="227.2949" fill="#84BE84" rx="3.75" ry="3.75" style="stroke: #038048; stroke-width: 1.25;"/><text fill="#000000" font-family="sans-serif" font-size="13.75" lengthAdjust="spacingAndGlyphs" textLength="132.5" x="32.5" y="232.8186">registerOrganization()</text><!--MD5=[690c9444a84a9a133b26ae44540ba6a6]
class RegisterOrganizationUI--><rect fill="#FEFECE" filter="url(#fw7dp841cw9nx)" height="60" id="RegisterOrganizationUI" style="stroke: #A80036; stroke-width: 1.875;" width="200" x="166.25" y="10"/><ellipse cx="185" cy="30" fill="#ADD1B2" rx="13.75" ry="13.75" style="stroke: #A80036; stroke-width: 1.25;"/><path d="M187.5,25.625 Q187.7539,25 188.0469,24.6875 Q188.3398,24.375 188.6719,24.375 Q189.2578,24.375 189.6289,24.7266 Q190,25.0781 190,25.8984 L190,27.8516 Q190,28.6719 189.6484,29.0234 Q189.2969,29.375 188.75,29.375 Q188.2617,29.375 187.9492,29.1602 Q187.6367,28.9453 187.5,28.3789 Q187.4414,27.9883 187.2266,27.7734 Q186.8359,27.3633 186.1328,27.1289 Q185.4297,26.875 184.7266,26.875 Q183.8477,26.875 183.1055,27.2266 Q182.3828,27.5781 181.8164,28.3594 Q181.25,29.1406 181.25,30.2148 L181.25,31.3672 Q181.25,32.6563 182.3047,33.5156 Q183.3594,34.375 185.2344,34.375 Q186.3477,34.375 187.1289,34.1211 Q187.5781,33.9844 188.0859,33.5352 Q188.418,33.2813 188.5938,33.2031 Q188.7695,33.125 188.9844,33.125 Q189.3945,33.125 189.6875,33.457 Q190,33.7695 190,34.2188 Q190,34.6484 189.5703,35.1563 Q188.9453,35.8984 187.9492,36.3086 Q186.6406,36.875 185.0391,36.875 Q183.1641,36.875 181.6602,36.1328 Q180.4492,35.5469 179.5898,34.2773 Q178.75,33.0078 178.75,31.5039 L178.75,30.1367 Q178.75,28.5742 179.4922,27.207 Q180.2539,25.8398 181.5625,25.1172 Q182.8906,24.375 184.375,24.375 Q185.2734,24.375 186.0547,24.6875 Q186.8359,25 187.5,25.625 Z "/><text fill="#000000" font-family="sans-serif" font-size="15" lengthAdjust="spacingAndGlyphs" textLength="160" x="202.5" y="36.1377">RegisterOrganizationUI</text><line style="stroke: #A80036; stroke-width: 1.875;" x1="167.5" x2="365" y1="50" y2="50"/><line style="stroke: #A80036; stroke-width: 1.875;" x1="167.5" x2="365" y1="60" y2="60"/><!--MD5=[33715664216438c299d64633eb1ff89b]
class RegistryOrganizations--><rect fill="#FEFECE" filter="url(#fw7dp841cw9nx)" height="129.1797" id="RegistryOrganizations" style="stroke: #A80036; stroke-width: 1.875;" width="597.5" x="432.5" y="561.25"/><ellipse cx="650.3125" cy="581.25" fill="#ADD1B2" rx="13.75" ry="13.75" style="stroke: #A80036; stroke-width: 1.25;"/><path d="M652.8125,576.875 Q653.0664,576.25 653.3594,575.9375 Q653.6523,575.625 653.9844,575.625 Q654.5703,575.625 654.9414,575.9766 Q655.3125,576.3281 655.3125,577.1484 L655.3125,579.1016 Q655.3125,579.9219 654.9609,580.2734 Q654.6094,580.625 654.0625,580.625 Q653.5742,580.625 653.2617,580.4102 Q652.9492,580.1953 652.8125,579.6289 Q652.7539,579.2383 652.5391,579.0234 Q652.1484,578.6133 651.4453,578.3789 Q650.7422,578.125 650.0391,578.125 Q649.1602,578.125 648.418,578.4766 Q647.6953,578.8281 647.1289,579.6094 Q646.5625,580.3906 646.5625,581.4648 L646.5625,582.6172 Q646.5625,583.9063 647.6172,584.7656 Q648.6719,585.625 650.5469,585.625 Q651.6602,585.625 652.4414,585.3711 Q652.8906,585.2344 653.3984,584.7852 Q653.7305,584.5313 653.9063,584.4531 Q654.082,584.375 654.2969,584.375 Q654.707,584.375 655,584.707 Q655.3125,585.0195 655.3125,585.4688 Q655.3125,585.8984 654.8828,586.4063 Q654.2578,587.1484 653.2617,587.5586 Q651.9531,588.125 650.3516,588.125 Q648.4766,588.125 646.9727,587.3828 Q645.7617,586.7969 644.9023,585.5273 Q644.0625,584.2578 644.0625,582.7539 L644.0625,581.3867 Q644.0625,579.8242 644.8047,578.457 Q645.5664,577.0898 646.875,576.3672 Q648.2031,575.625 649.6875,575.625 Q650.5859,575.625 651.3672,575.9375 Q652.1484,576.25 652.8125,576.875 Z "/><text fill="#000000" font-family="sans-serif" font-size="15" lengthAdjust="spacingAndGlyphs" textLength="151.25" x="675.9375" y="587.3877">RegistryOrganizations</text><line style="stroke: #A80036; stroke-width: 1.875;" x1="433.75" x2="1028.75" y1="601.25" y2="601.25"/><line style="stroke: #A80036; stroke-width: 1.875;" x1="433.75" x2="1028.75" y1="611.25" y2="611.25"/><ellipse cx="446.25" cy="625" fill="#84BE84" rx="3.75" ry="3.75" style="stroke: #038048; stroke-width: 1.25;"/><text fill="#000000" font-family="sans-serif" font-size="13.75" lengthAdjust="spacingAndGlyphs" textLength="565" x="457.5" y="630.5237">Organization newOrganization(orgName,managerName,managerEmail,collabName,collabEmail)</text><ellipse cx="446.25" cy="642.2949" fill="#84BE84" rx="3.75" ry="3.75" style="stroke: #038048; stroke-width: 1.25;"/><text fill="#000000" font-family="sans-serif" font-size="13.75" lengthAdjust="spacingAndGlyphs" textLength="232.5" x="457.5" y="647.8186">validateOrganization(Organization org)</text><ellipse cx="446.25" cy="659.5898" fill="#84BE84" rx="3.75" ry="3.75" style="stroke: #038048; stroke-width: 1.25;"/><text fill="#000000" font-family="sans-serif" font-size="13.75" lengthAdjust="spacingAndGlyphs" textLength="232.5" x="457.5" y="665.1135">registerOrganization(Organization org)</text><rect fill="#F24D5C" height="7.5" style="stroke: #C82930; stroke-width: 1.25;" width="7.5" x="442.5" y="673.1348"/><text fill="#000000" font-family="sans-serif" font-size="13.75" lengthAdjust="spacingAndGlyphs" textLength="208.75" x="457.5" y="682.4084">addOrganization(Organization org)</text><!--MD5=[c770a74bfa57c89e52aad2356be61140]
class PasswordGeneratorAlgorithm--><rect fill="#FEFECE" filter="url(#fw7dp841cw9nx)" height="77.2949" id="PasswordGeneratorAlgorithm" style="stroke: #A80036; stroke-width: 1.875;" width="243.75" x="363.125" y="813.125"/><ellipse cx="381.875" cy="833.125" fill="#ADD1B2" rx="13.75" ry="13.75" style="stroke: #A80036; stroke-width: 1.25;"/><path d="M384.375,828.75 Q384.6289,828.125 384.9219,827.8125 Q385.2148,827.5 385.5469,827.5 Q386.1328,827.5 386.5039,827.8516 Q386.875,828.2031 386.875,829.0234 L386.875,830.9766 Q386.875,831.7969 386.5234,832.1484 Q386.1719,832.5 385.625,832.5 Q385.1367,832.5 384.8242,832.2852 Q384.5117,832.0703 384.375,831.5039 Q384.3164,831.1133 384.1016,830.8984 Q383.7109,830.4883 383.0078,830.2539 Q382.3047,830 381.6016,830 Q380.7227,830 379.9805,830.3516 Q379.2578,830.7031 378.6914,831.4844 Q378.125,832.2656 378.125,833.3398 L378.125,834.4922 Q378.125,835.7813 379.1797,836.6406 Q380.2344,837.5 382.1094,837.5 Q383.2227,837.5 384.0039,837.2461 Q384.4531,837.1094 384.9609,836.6602 Q385.293,836.4063 385.4688,836.3281 Q385.6445,836.25 385.8594,836.25 Q386.2695,836.25 386.5625,836.582 Q386.875,836.8945 386.875,837.3438 Q386.875,837.7734 386.4453,838.2813 Q385.8203,839.0234 384.8242,839.4336 Q383.5156,840 381.9141,840 Q380.0391,840 378.5352,839.2578 Q377.3242,838.6719 376.4648,837.4023 Q375.625,836.1328 375.625,834.6289 L375.625,833.2617 Q375.625,831.6992 376.3672,830.332 Q377.1289,828.9648 378.4375,828.2422 Q379.7656,827.5 381.25,827.5 Q382.1484,827.5 382.9297,827.8125 Q383.7109,828.125 384.375,828.75 Z "/><text fill="#000000" font-family="sans-serif" font-size="15" lengthAdjust="spacingAndGlyphs" textLength="203.75" x="399.375" y="839.2627">PasswordGeneratorAlgorithm</text><line style="stroke: #A80036; stroke-width: 1.875;" x1="364.375" x2="605.625" y1="853.125" y2="853.125"/><line style="stroke: #A80036; stroke-width: 1.875;" x1="364.375" x2="605.625" y1="863.125" y2="863.125"/><ellipse cx="376.875" cy="876.875" fill="#84BE84" rx="3.75" ry="3.75" style="stroke: #038048; stroke-width: 1.25;"/><text fill="#000000" font-family="sans-serif" font-size="13.75" lengthAdjust="spacingAndGlyphs" textLength="196.25" x="388.125" y="882.3987">generatePassword(name, email)</text><!--MD5=[3e83395c58633f827e310dc3ce31a371]
class <<interface>>\nExternalEmailService--><rect fill="#FEFECE" filter="url(#fw7dp841cw9nx)" height="87.5293" id="&lt;&lt;interface&gt;&gt;\nExternalEmailService" style="stroke: #A80036; stroke-width: 1.875;" width="200" x="828.75" y="808.125"/><ellipse cx="853.125" cy="833.2422" fill="#B4A7E5" rx="13.75" ry="13.75" style="stroke: #A80036; stroke-width: 1.25;"/><path d="M854.375,829.4922 L854.375,836.9922 L856.875,836.9922 L857.4805,836.9922 L858.125,837.7734 L858.125,838.2422 L858.125,838.7109 L857.4805,839.4922 L856.875,839.4922 L849.375,839.4922 L848.7695,839.4922 L848.125,838.7109 L848.125,838.2422 L848.125,837.7734 L848.7695,836.9922 L849.375,836.9922 L851.875,836.9922 L851.875,829.4922 L849.375,829.4922 L848.7695,829.4922 L848.125,828.7109 L848.125,828.2422 L848.125,827.7734 L848.7695,826.9922 L849.375,826.9922 L856.875,826.9922 L857.4805,826.9922 L858.125,827.7734 L858.125,828.2422 L858.125,828.7109 L857.4805,829.4922 L856.875,829.4922 L854.375,829.4922 Z "/><text fill="#000000" font-family="sans-serif" font-size="15" font-style="italic" lengthAdjust="spacingAndGlyphs" textLength="93.75" x="898.75" y="829.9463">&lt;&lt;interface&gt;&gt;</text><text fill="#000000" font-family="sans-serif" font-size="15" font-style="italic" lengthAdjust="spacingAndGlyphs" textLength="147.5" x="871.875" y="848.8135">ExternalEmailService</text><line style="stroke: #A80036; stroke-width: 1.875;" x1="830" x2="1027.5" y1="858.3594" y2="858.3594"/><line style="stroke: #A80036; stroke-width: 1.875;" x1="830" x2="1027.5" y1="868.3594" y2="868.3594"/><ellipse cx="842.5" cy="882.1094" fill="#84BE84" rx="3.75" ry="3.75" style="stroke: #038048; stroke-width: 1.25;"/><text fill="#000000" font-family="sans-serif" font-size="13.75" lengthAdjust="spacingAndGlyphs" textLength="167.5" x="853.75" y="887.6331">sendPassword(email, pwd)</text><!--MD5=[f62aaae6a33751a54124a969b3e6d0f7]
link RegisterOrganizationUI to RegisterOrganizationController--><path d="M266.25,70.055 C266.25,89.6412 266.25,116.135 266.25,139.4688 " fill="none" id="RegisterOrganizationUI-&gt;RegisterOrganizationController" style="stroke: #A80036; stroke-width: 1.25; stroke-dasharray: 7.0,7.0;"/><polygon fill="#A80036" points="266.25,145.9588,271.25,134.7088,266.25,139.7088,261.25,134.7088,266.25,145.9588" style="stroke: #A80036; stroke-width: 1.25;"/><!--MD5=[6b34e12a50a29485e6b670a597970921]
link RegisterOrganizationController to Platform--><path d="M423.2,241.3112 C537.8625,275.1438 691.3513,320.4325 798.26,351.9788 " fill="none" id="RegisterOrganizationController-&gt;Platform" style="stroke: #A80036; stroke-width: 1.25; stroke-dasharray: 7.0,7.0;"/><polygon fill="#A80036" points="804.2725,353.7525,794.8984,345.7719,798.2782,351.983,792.0672,355.3628,804.2725,353.7525" style="stroke: #A80036; stroke-width: 1.25;"/><!--MD5=[9fa3a86e20649d9ff786ad172f815d6a]
link RegisterOrganizationController to Organization--><path d="M259.6713,241.625 C243.6437,355.2312 202.5,646.8462 183.5612,781.0875 " fill="none" id="RegisterOrganizationController-&gt;Organization" style="stroke: #A80036; stroke-width: 1.25; stroke-dasharray: 7.0,7.0;"/><polygon fill="#A80036" points="182.6762,787.3587,189.1993,776.9178,183.5496,781.1701,179.2974,775.5204,182.6762,787.3587" style="stroke: #A80036; stroke-width: 1.25;"/><!--MD5=[5e021a4adfc7ac34877df2d441f3700b]
link RegisterOrganizationController to RegistryOrganizations--><path d="M316.455,241.3588 C398.7038,317.3063 562.5213,468.5725 657.8263,556.5763 " fill="none" id="RegisterOrganizationController-&gt;RegistryOrganizations" style="stroke: #A80036; stroke-width: 1.25; stroke-dasharray: 7.0,7.0;"/><polygon fill="#A80036" points="662.875,561.2388,657.9995,549.9342,658.2823,556.9996,651.2169,557.2825,662.875,561.2388" style="stroke: #A80036; stroke-width: 1.25;"/><!--MD5=[729d38e941f71726a36b38b157ad7957]
link Platform to Collaborator--><path d="M1045.7588,440.8213 C1246.3875,529.0962 1611.9,723.7388 1458.75,916.25 C1383.7875,1010.4775 1022.1412,1054.163 851.7125,1069.7751 " fill="none" id="Platform-&gt;Collaborator" style="stroke: #A80036; stroke-width: 1.25; stroke-dasharray: 7.0,7.0;"/><polygon fill="#A80036" points="845.2338,1070.3635,856.8904,1074.324,851.4581,1069.7974,855.9847,1064.3651,845.2338,1070.3635" style="stroke: #A80036; stroke-width: 1.25;"/><!--MD5=[d02557eb089fb4ddfbe1cd11c576521d]
link Platform to AuthorizationFacade--><path d="M1043.8125,463.9575 C1080.5413,490.8163 1118.5738,523.9575 1146.25,561.25 C1202.7237,637.345 1233.0288,746.13 1246.3988,806.3125 " fill="none" id="Platform-&gt;AuthorizationFacade" style="stroke: #A80036; stroke-width: 1.25; stroke-dasharray: 7.0,7.0;"/><polygon fill="#A80036" points="1247.7925,812.6925,1250.276,800.6345,1246.4584,806.5865,1240.5064,802.769,1247.7925,812.6925" style="stroke: #A80036; stroke-width: 1.25;"/><!--MD5=[cc8c3e0800db3418322db8ec7ce48887]
link Platform to PasswordGeneratorAlgorithm--><path d="M804.125,409.545 C649.4113,434.92 394.6225,486.95 338.75,561.25 C304.3588,606.9838 318.095,636.635 338.75,690 C357.11,737.435 396.715,779.47 430.0863,808.63 " fill="none" id="Platform-&gt;PasswordGeneratorAlgorithm" style="stroke: #A80036; stroke-width: 1.25;"/><polygon fill="#A80036" points="434.9613,812.8387,429.7132,801.7023,430.2304,808.7544,423.1783,809.2716,434.9613,812.8387" style="stroke: #A80036; stroke-width: 1.25;"/><text fill="#000000" font-family="sans-serif" font-size="16.25" lengthAdjust="spacingAndGlyphs" textLength="68.75" x="340" y="632.4939">resorts to</text><text fill="#000000" font-family="sans-serif" font-size="16.25" lengthAdjust="spacingAndGlyphs" textLength="8.75" x="785.7855" y="407.1051">1</text><text fill="#000000" font-family="sans-serif" font-size="16.25" lengthAdjust="spacingAndGlyphs" textLength="8.75" x="414.9884" y="799.6604">1</text><!--MD5=[d7e6b8c0ccf00764186b54e4e31b9fc3]
link Platform to RegistryOrganizations--><path d="M865.0238,463.8475 C840.5437,493.2225 812.37,527.0313 788.21,556.0238 " fill="none" id="Platform-&gt;RegistryOrganizations" style="stroke: #A80036; stroke-width: 1.25;"/><polygon fill="#A80036" points="784.0587,561.005,795.1021,555.5638,788.0601,556.2038,787.4202,549.1617,784.0587,561.005" style="stroke: #A80036; stroke-width: 1.25;"/><text fill="#000000" font-family="sans-serif" font-size="16.25" lengthAdjust="spacingAndGlyphs" textLength="26.25" x="830" y="519.3689">has</text><text fill="#000000" font-family="sans-serif" font-size="16.25" lengthAdjust="spacingAndGlyphs" textLength="8.75" x="848.4309" y="490.8722">1</text><text fill="#000000" font-family="sans-serif" font-size="16.25" lengthAdjust="spacingAndGlyphs" textLength="8.75" x="781.817" y="547.8475">1</text><!--MD5=[0a369087443c41ecfe2917ba429503f3]
link Platform to <<interface>>\nExternalEmailService--><path d="M995.3213,463.7725 C1018.16,491.8588 1040.655,525.82 1052.5,561.25 C1070.6438,615.52 1070.9463,635.8325 1052.5,690 C1037.7962,733.1763 1006.2762,773.7938 978.7288,803.3825 " fill="none" id="Platform-&gt;&lt;&lt;interface&gt;&gt;\nExternalEmailService" style="stroke: #A80036; stroke-width: 1.25;"/><polygon fill="#A80036" points="974.345,808.035,985.6982,803.274,978.6303,803.4854,978.4189,796.4175,974.345,808.035" style="stroke: #A80036; stroke-width: 1.25;"/><text fill="#000000" font-family="sans-serif" font-size="16.25" lengthAdjust="spacingAndGlyphs" textLength="68.75" x="1066.25" y="632.4939">resorts to</text><text fill="#000000" font-family="sans-serif" font-size="16.25" lengthAdjust="spacingAndGlyphs" textLength="8.75" x="994.6084" y="490.7881">1</text><text fill="#000000" font-family="sans-serif" font-size="16.25" lengthAdjust="spacingAndGlyphs" textLength="8.75" x="973.4526" y="794.6797">1</text><!--MD5=[4444e3f7d3a256ce06ca5b39bcbcc4ba]
link RegistryOrganizations to Organization--><path d="M573.7288,690.095 C495.745,721.3938 402.0413,759.0013 324.9388,789.9463 " fill="none" id="RegistryOrganizations-&gt;Organization" style="stroke: #A80036; stroke-width: 1.25;"/><polygon fill="#A80036" points="318.9463,792.3512,331.249,792.8044,324.7471,790.0248,327.5267,783.523,318.9463,792.3512" style="stroke: #A80036; stroke-width: 1.25;"/><text fill="#000000" font-family="sans-serif" font-size="16.25" lengthAdjust="spacingAndGlyphs" textLength="102.5" x="471.25" y="745.6189">has registered</text><text fill="#000000" font-family="sans-serif" font-size="16.25" lengthAdjust="spacingAndGlyphs" textLength="8.75" x="542.2121" y="717.4369">1</text><text fill="#000000" font-family="sans-serif" font-size="16.25" lengthAdjust="spacingAndGlyphs" textLength="6.25" x="328.9116" y="784.5493">*</text><!--MD5=[9d48376428b1af34af947472ff948929]
link RegistryOrganizations to PasswordGeneratorAlgorithm--><path d="M661.6725,690.095 C619.885,728.0638 567.8788,775.3188 531.1425,808.6988 " fill="none" id="RegistryOrganizations-&gt;PasswordGeneratorAlgorithm" style="stroke: #A80036; stroke-width: 1.25; stroke-dasharray: 7.0,7.0;"/><polygon fill="#A80036" points="526.2888,813.1088,537.9784,809.2469,530.9156,808.9069,531.2556,801.8441,526.2888,813.1088" style="stroke: #A80036; stroke-width: 1.25;"/><!--MD5=[2967ba9722d40c06d4b0e2489880afef]
link RegistryOrganizations to <<interface>>\nExternalEmailService--><path d="M787.3175,690.3938 C818.9475,726.2288 857.8138,770.26 886.7925,803.0913 " fill="none" id="RegistryOrganizations-&gt;&lt;&lt;interface&gt;&gt;\nExternalEmailService" style="stroke: #A80036; stroke-width: 1.25; stroke-dasharray: 7.0,7.0;"/><polygon fill="#A80036" points="890.995,807.8512,887.2992,796.108,886.8592,803.1654,879.8018,802.7254,890.995,807.8512" style="stroke: #A80036; stroke-width: 1.25;"/><!--MD5=[24228c4fb076f9f5a867f3e6a1e2ad6d]
link RegistryOrganizations to AuthorizationFacade--><path d="M879.235,690.095 C969.745,728.7613 1082.795,777.0575 1161.1313,810.5238 " fill="none" id="RegistryOrganizations-&gt;AuthorizationFacade" style="stroke: #A80036; stroke-width: 1.25; stroke-dasharray: 7.0,7.0;"/><polygon fill="#A80036" points="1167.1825,813.1088,1158.8009,804.0915,1161.4349,810.6537,1154.8727,813.2877,1167.1825,813.1088" style="stroke: #A80036; stroke-width: 1.25;"/><!--MD5=[fa4539e9dab1d710499bdc1ebafc20f1]
link RegistryOrganizations to Manager--><path d="M720.3025,690.2575 C707.0337,752.6775 679.81,848.2837 628.75,916.25 C595.6275,960.34 546.9413,997.3025 503.435,1024.612 " fill="none" id="RegistryOrganizations-&gt;Manager" style="stroke: #A80036; stroke-width: 1.25; stroke-dasharray: 7.0,7.0;"/><polygon fill="#A80036" points="497.6088,1028.2318,509.8033,1026.5421,502.9176,1024.9336,504.5262,1018.0479,497.6088,1028.2318" style="stroke: #A80036; stroke-width: 1.25;"/><!--MD5=[e16809c0281bca2392cb120886b0c113]
link RegistryOrganizations to Collaborator--><path d="M735.6613,690.395 C741.4663,773.9812 751.6338,920.4088 757.65,1007.0325 " fill="none" id="RegistryOrganizations-&gt;Collaborator" style="stroke: #A80036; stroke-width: 1.25; stroke-dasharray: 7.0,7.0;"/><polygon fill="#A80036" points="758.1113,1013.6788,762.3213,1002.1099,757.679,1007.4437,752.3452,1002.8015,758.1113,1013.6788" style="stroke: #A80036; stroke-width: 1.25;"/><!--MD5=[45817597bcd7048073a670d966abfd17]
link Organization to Collaborator--><path d="M318.9063,908.29 C430.0225,950.5188 579.7013,1007.4038 673.645,1043.1061 " fill="none" id="Organization-&gt;Collaborator" style="stroke: #A80036; stroke-width: 1.25;"/><polygon fill="#A80036" points="679.7513,1045.4269,671.0128,1036.755,673.9093,1043.2056,667.4587,1046.1021,679.7513,1045.4269" style="stroke: #A80036; stroke-width: 1.25;"/><text fill="#000000" font-family="sans-serif" font-size="16.25" lengthAdjust="spacingAndGlyphs" textLength="26.25" x="487.5" y="971.8689">has</text><text fill="#000000" font-family="sans-serif" font-size="16.25" lengthAdjust="spacingAndGlyphs" textLength="8.75" x="328.9529" y="908.2777">1</text><text fill="#000000" font-family="sans-serif" font-size="16.25" lengthAdjust="spacingAndGlyphs" textLength="8.75" x="661.4721" y="1037.6262">1</text><!--MD5=[bc039f41cf0b27fadee5cae63fc6e1fe]
link Organization to Manager--><path d="M239.3988,916.6438 C269.185,945.465 304.45,979.5863 334.7663,1008.9188 " fill="none" id="Organization-&gt;Manager" style="stroke: #A80036; stroke-width: 1.25;"/><polygon fill="#A80036" points="339.5875,1013.585,334.9806,1002.1684,335.0964,1009.2385,328.0262,1009.3542,339.5875,1013.585" style="stroke: #A80036; stroke-width: 1.25;"/><text fill="#000000" font-family="sans-serif" font-size="16.25" lengthAdjust="spacingAndGlyphs" textLength="26.25" x="298.75" y="971.8689">has</text><text fill="#000000" font-family="sans-serif" font-size="16.25" lengthAdjust="spacingAndGlyphs" textLength="8.75" x="238.8824" y="943.5604">1</text><text fill="#000000" font-family="sans-serif" font-size="16.25" lengthAdjust="spacingAndGlyphs" textLength="8.75" x="321.0236" y="999.9724">1</text><!--MD5=[4e4dec40fb799c9a91b89d88752e6ab7]
@startuml

class Collaborator {
  -String name
  -String email
  +Manager(name, email)
  +String getEmail()
}

class Manager {
  -String name
  -String email
  +Collaborator(name, email)
  +String getEmail()
}

class Organization {
  -String name
  +{static} newManager(name, email)
  +{static} newCollaborator(name, email)
  +Organization(name, manager, collaborator)
}

class Platform {
  -String name
  +getRegistryOrganizations()
  +getPasswordGeneratorAlgorithm()
  +getAuthorizationFacade()
  +getEmailService()
}

class AuthorizationFacade {
   +registerUserWithFunctions(name, email, pwd, function)
}

class RegisterOrganizationController {
    +newOrganization(orgName,managerName,managerEmail,collabName,collabEmail)
    +registerOrganization()
}

class RegisterOrganizationUI {
}

class RegistryOrganizations {
    +Organization newOrganization(orgName,managerName,managerEmail,collabName,collabEmail)
    +validateOrganization(Organization org)
    +registerOrganization(Organization org)
    -addOrganization(Organization org)
}

class PasswordGeneratorAlgorithm {
    +generatePassword(name, email)
}

interface "<<interface>>\nExternalEmailService" {
    +sendPassword(email, pwd)
}

RegisterOrganizationUI ..> RegisterOrganizationController
RegisterOrganizationController ..> Platform
RegisterOrganizationController ..> Organization
RegisterOrganizationController ..> RegistryOrganizations

Platform ..> Collaborator
Platform ..> AuthorizationFacade
Platform "1" - -> "1" PasswordGeneratorAlgorithm: resorts to
Platform "1" - -> "1" RegistryOrganizations: has
Platform "1" - -> "1" "<<interface>>\nExternalEmailService" : resorts to

RegistryOrganizations "1" - -> "*" Organization : has registered
RegistryOrganizations ..> PasswordGeneratorAlgorithm
RegistryOrganizations ..> "<<interface>>\nExternalEmailService"
RegistryOrganizations ..> AuthorizationFacade
RegistryOrganizations ..> Manager
RegistryOrganizations ..> Collaborator

Organization "1" - -> "1" "Collaborator": has
Organization "1" - -> "1" Manager: has 

@enduml

PlantUML version 1.2020.07(Sun Apr 19 12:42:40 BST 2020)
(GPL source distribution)
Java Runtime: OpenJDK Runtime Environment
JVM: OpenJDK 64-Bit Server VM
Java Version: 11.0.6+8-b765.40
Operating System: Windows 10
Default Encoding: Cp1252
Language: pt
Country: PT
--></g></svg>