<?xml version="1.0" encoding="UTF-8" standalone="no"?><svg xmlns="http://www.w3.org/2000/svg" xmlns:xlink="http://www.w3.org/1999/xlink" contentScriptType="application/ecmascript" contentStyleType="text/css" height="385px" preserveAspectRatio="none" style="width:635px;height:385px;" version="1.1" viewBox="0 0 635 385" width="635px" zoomAndPan="magnify"><defs><filter height="300%" id="f1wmcms6rok5w" width="300%" x="-1" y="-1"><feGaussianBlur result="blurOut" stdDeviation="2.5"/><feColorMatrix in="blurOut" result="blurOut2" type="matrix" values="0 0 0 0 0 0 0 0 0 0 0 0 0 0 0 0 0 0 .4 0"/><feOffset dx="5.0" dy="5.0" in="blurOut2" result="blurOut3"/><feBlend in="SourceGraphic" in2="blurOut3" mode="normal"/></filter></defs><g><!--MD5=[47d38591df2b719fa88d22dcbcecb8e0]
class ExternalEmailService--><rect fill="#FEFECE" filter="url(#f1wmcms6rok5w)" height="77.5293" id="ExternalEmailService" style="stroke: #A80036; stroke-width: 1.875;" width="200" x="300.625" y="18.125"/><ellipse cx="325" cy="43.2422" fill="#B4A7E5" rx="13.75" ry="13.75" style="stroke: #A80036; stroke-width: 1.25;"/><path d="M326.25,39.4922 L326.25,46.9922 L328.75,46.9922 L329.3555,46.9922 L330,47.7734 L330,48.2422 L330,48.7109 L329.3555,49.4922 L328.75,49.4922 L321.25,49.4922 L320.6445,49.4922 L320,48.7109 L320,48.2422 L320,47.7734 L320.6445,46.9922 L321.25,46.9922 L323.75,46.9922 L323.75,39.4922 L321.25,39.4922 L320.6445,39.4922 L320,38.7109 L320,38.2422 L320,37.7734 L320.6445,36.9922 L321.25,36.9922 L328.75,36.9922 L329.3555,36.9922 L330,37.7734 L330,38.2422 L330,38.7109 L329.3555,39.4922 L328.75,39.4922 L326.25,39.4922 Z "/><text fill="#000000" font-family="sans-serif" font-size="15" font-style="italic" lengthAdjust="spacingAndGlyphs" textLength="76.25" x="379.375" y="39.9463">«interface»</text><text fill="#000000" font-family="sans-serif" font-size="15" font-style="italic" lengthAdjust="spacingAndGlyphs" textLength="147.5" x="343.75" y="58.8135">ExternalEmailService</text><line style="stroke: #A80036; stroke-width: 1.875;" x1="301.875" x2="499.375" y1="68.3594" y2="68.3594"/><ellipse cx="314.375" cy="82.1094" fill="#84BE84" rx="3.75" ry="3.75" style="stroke: #038048; stroke-width: 1.25;"/><text fill="#000000" font-family="sans-serif" font-size="13.75" lengthAdjust="spacingAndGlyphs" textLength="167.5" x="325.625" y="87.6331">sendPassword(email, pwd)</text><path d="M7.5,10 L7.5,104.2578 A0,0 0 0 0 7.5,104.2578 L256.25,104.2578 A0,0 0 0 0 256.25,104.2578 L256.25,61.875 L300.2575,56.875 L256.25,51.875 L256.25,22.5 L243.75,10 L7.5,10 A0,0 0 0 0 7.5,10 " fill="#FBFB77" filter="url(#f1wmcms6rok5w)" style="stroke: #A80036; stroke-width: 1.25;"/><path d="M243.75,10 L243.75,22.5 L256.25,22.5 L243.75,10 " fill="#FBFB77" style="stroke: #A80036; stroke-width: 1.25;"/><text fill="#000000" font-family="sans-serif" font-size="16.25" lengthAdjust="spacingAndGlyphs" textLength="195" x="15" y="33.1189">This interface will be object</text><text fill="#000000" font-family="sans-serif" font-size="16.25" lengthAdjust="spacingAndGlyphs" textLength="202.5" x="15" y="53.5583">of multiple implementations,</text><text fill="#000000" font-family="sans-serif" font-size="16.25" lengthAdjust="spacingAndGlyphs" textLength="222.5" x="15" y="73.9978">one for each external algorithm</text><text fill="#000000" font-family="sans-serif" font-size="16.25" lengthAdjust="spacingAndGlyphs" textLength="181.25" x="15" y="94.4373">that has to be supported.</text><!--MD5=[9e260dc97de85a7c313b64160eed2689]
class EmailServiceAdapter1--><rect fill="#FEFECE" filter="url(#f1wmcms6rok5w)" height="67.2949" id="EmailServiceAdapter1" style="stroke: #A80036; stroke-width: 1.875;" width="200" x="178.125" y="178.75"/><ellipse cx="200.8125" cy="198.75" fill="#ADD1B2" rx="13.75" ry="13.75" style="stroke: #A80036; stroke-width: 1.25;"/><path d="M203.3125,194.375 Q203.5664,193.75 203.8594,193.4375 Q204.1523,193.125 204.4844,193.125 Q205.0703,193.125 205.4414,193.4766 Q205.8125,193.8281 205.8125,194.6484 L205.8125,196.6016 Q205.8125,197.4219 205.4609,197.7734 Q205.1094,198.125 204.5625,198.125 Q204.0742,198.125 203.7617,197.9102 Q203.4492,197.6953 203.3125,197.1289 Q203.2539,196.7383 203.0391,196.5234 Q202.6484,196.1133 201.9453,195.8789 Q201.2422,195.625 200.5391,195.625 Q199.6602,195.625 198.918,195.9766 Q198.1953,196.3281 197.6289,197.1094 Q197.0625,197.8906 197.0625,198.9648 L197.0625,200.1172 Q197.0625,201.4063 198.1172,202.2656 Q199.1719,203.125 201.0469,203.125 Q202.1602,203.125 202.9414,202.8711 Q203.3906,202.7344 203.8984,202.2852 Q204.2305,202.0313 204.4063,201.9531 Q204.582,201.875 204.7969,201.875 Q205.207,201.875 205.5,202.207 Q205.8125,202.5195 205.8125,202.9688 Q205.8125,203.3984 205.3828,203.9063 Q204.7578,204.6484 203.7617,205.0586 Q202.4531,205.625 200.8516,205.625 Q198.9766,205.625 197.4727,204.8828 Q196.2617,204.2969 195.4023,203.0273 Q194.5625,201.7578 194.5625,200.2539 L194.5625,198.8867 Q194.5625,197.3242 195.3047,195.957 Q196.0664,194.5898 197.375,193.8672 Q198.7031,193.125 200.1875,193.125 Q201.0859,193.125 201.8672,193.4375 Q202.6484,193.75 203.3125,194.375 Z "/><text fill="#000000" font-family="sans-serif" font-size="15" lengthAdjust="spacingAndGlyphs" textLength="151.25" x="219.1875" y="204.8877">EmailServiceAdapter1</text><line style="stroke: #A80036; stroke-width: 1.875;" x1="179.375" x2="376.875" y1="218.75" y2="218.75"/><ellipse cx="191.875" cy="232.5" fill="#84BE84" rx="3.75" ry="3.75" style="stroke: #038048; stroke-width: 1.25;"/><text fill="#000000" font-family="sans-serif" font-size="13.75" lengthAdjust="spacingAndGlyphs" textLength="167.5" x="203.125" y="238.0237">sendPassword(email, pwd)</text><!--MD5=[d3f54b156b95d05faae1915e1b8b6292]
class ExternalService1API--><rect fill="#FEFECE" filter="url(#f1wmcms6rok5w)" height="50" id="ExternalService1API" style="stroke: #A80036; stroke-width: 1.875;" width="176.25" x="190" y="321.25"/><ellipse cx="208.75" cy="341.25" fill="#ADD1B2" rx="13.75" ry="13.75" style="stroke: #A80036; stroke-width: 1.25;"/><path d="M211.25,336.875 Q211.5039,336.25 211.7969,335.9375 Q212.0898,335.625 212.4219,335.625 Q213.0078,335.625 213.3789,335.9766 Q213.75,336.3281 213.75,337.1484 L213.75,339.1016 Q213.75,339.9219 213.3984,340.2734 Q213.0469,340.625 212.5,340.625 Q212.0117,340.625 211.6992,340.4102 Q211.3867,340.1953 211.25,339.6289 Q211.1914,339.2383 210.9766,339.0234 Q210.5859,338.6133 209.8828,338.3789 Q209.1797,338.125 208.4766,338.125 Q207.5977,338.125 206.8555,338.4766 Q206.1328,338.8281 205.5664,339.6094 Q205,340.3906 205,341.4648 L205,342.6172 Q205,343.9063 206.0547,344.7656 Q207.1094,345.625 208.9844,345.625 Q210.0977,345.625 210.8789,345.3711 Q211.3281,345.2344 211.8359,344.7852 Q212.168,344.5313 212.3438,344.4531 Q212.5195,344.375 212.7344,344.375 Q213.1445,344.375 213.4375,344.707 Q213.75,345.0195 213.75,345.4688 Q213.75,345.8984 213.3203,346.4063 Q212.6953,347.1484 211.6992,347.5586 Q210.3906,348.125 208.7891,348.125 Q206.9141,348.125 205.4102,347.3828 Q204.1992,346.7969 203.3398,345.5273 Q202.5,344.2578 202.5,342.7539 L202.5,341.3867 Q202.5,339.8242 203.2422,338.457 Q204.0039,337.0898 205.3125,336.3672 Q206.6406,335.625 208.125,335.625 Q209.0234,335.625 209.8047,335.9375 Q210.5859,336.25 211.25,336.875 Z "/><text fill="#000000" font-family="sans-serif" font-size="15" lengthAdjust="spacingAndGlyphs" textLength="136.25" x="226.25" y="347.3877">ExternalService1API</text><line style="stroke: #A80036; stroke-width: 1.875;" x1="191.25" x2="365" y1="361.25" y2="361.25"/><!--MD5=[64c6d5ad13afc345e165e848d37b7c0b]
class EmailServiceAdapter2--><rect fill="#FEFECE" filter="url(#f1wmcms6rok5w)" height="67.2949" id="EmailServiceAdapter2" style="stroke: #A80036; stroke-width: 1.875;" width="200" x="421.875" y="178.75"/><ellipse cx="444.5625" cy="198.75" fill="#ADD1B2" rx="13.75" ry="13.75" style="stroke: #A80036; stroke-width: 1.25;"/><path d="M447.0625,194.375 Q447.3164,193.75 447.6094,193.4375 Q447.9023,193.125 448.2344,193.125 Q448.8203,193.125 449.1914,193.4766 Q449.5625,193.8281 449.5625,194.6484 L449.5625,196.6016 Q449.5625,197.4219 449.2109,197.7734 Q448.8594,198.125 448.3125,198.125 Q447.8242,198.125 447.5117,197.9102 Q447.1992,197.6953 447.0625,197.1289 Q447.0039,196.7383 446.7891,196.5234 Q446.3984,196.1133 445.6953,195.8789 Q444.9922,195.625 444.2891,195.625 Q443.4102,195.625 442.668,195.9766 Q441.9453,196.3281 441.3789,197.1094 Q440.8125,197.8906 440.8125,198.9648 L440.8125,200.1172 Q440.8125,201.4063 441.8672,202.2656 Q442.9219,203.125 444.7969,203.125 Q445.9102,203.125 446.6914,202.8711 Q447.1406,202.7344 447.6484,202.2852 Q447.9805,202.0313 448.1563,201.9531 Q448.332,201.875 448.5469,201.875 Q448.957,201.875 449.25,202.207 Q449.5625,202.5195 449.5625,202.9688 Q449.5625,203.3984 449.1328,203.9063 Q448.5078,204.6484 447.5117,205.0586 Q446.2031,205.625 444.6016,205.625 Q442.7266,205.625 441.2227,204.8828 Q440.0117,204.2969 439.1523,203.0273 Q438.3125,201.7578 438.3125,200.2539 L438.3125,198.8867 Q438.3125,197.3242 439.0547,195.957 Q439.8164,194.5898 441.125,193.8672 Q442.4531,193.125 443.9375,193.125 Q444.8359,193.125 445.6172,193.4375 Q446.3984,193.75 447.0625,194.375 Z "/><text fill="#000000" font-family="sans-serif" font-size="15" lengthAdjust="spacingAndGlyphs" textLength="151.25" x="462.9375" y="204.8877">EmailServiceAdapter2</text><line style="stroke: #A80036; stroke-width: 1.875;" x1="423.125" x2="620.625" y1="218.75" y2="218.75"/><ellipse cx="435.625" cy="232.5" fill="#84BE84" rx="3.75" ry="3.75" style="stroke: #038048; stroke-width: 1.25;"/><text fill="#000000" font-family="sans-serif" font-size="13.75" lengthAdjust="spacingAndGlyphs" textLength="167.5" x="446.875" y="238.0237">sendPassword(email, pwd)</text><!--MD5=[bef00b7543dc932f0546311711fc7741]
class ExternalService2API--><rect fill="#FEFECE" filter="url(#f1wmcms6rok5w)" height="50" id="ExternalService2API" style="stroke: #A80036; stroke-width: 1.875;" width="176.25" x="433.75" y="321.25"/><ellipse cx="452.5" cy="341.25" fill="#ADD1B2" rx="13.75" ry="13.75" style="stroke: #A80036; stroke-width: 1.25;"/><path d="M455,336.875 Q455.2539,336.25 455.5469,335.9375 Q455.8398,335.625 456.1719,335.625 Q456.7578,335.625 457.1289,335.9766 Q457.5,336.3281 457.5,337.1484 L457.5,339.1016 Q457.5,339.9219 457.1484,340.2734 Q456.7969,340.625 456.25,340.625 Q455.7617,340.625 455.4492,340.4102 Q455.1367,340.1953 455,339.6289 Q454.9414,339.2383 454.7266,339.0234 Q454.3359,338.6133 453.6328,338.3789 Q452.9297,338.125 452.2266,338.125 Q451.3477,338.125 450.6055,338.4766 Q449.8828,338.8281 449.3164,339.6094 Q448.75,340.3906 448.75,341.4648 L448.75,342.6172 Q448.75,343.9063 449.8047,344.7656 Q450.8594,345.625 452.7344,345.625 Q453.8477,345.625 454.6289,345.3711 Q455.0781,345.2344 455.5859,344.7852 Q455.918,344.5313 456.0938,344.4531 Q456.2695,344.375 456.4844,344.375 Q456.8945,344.375 457.1875,344.707 Q457.5,345.0195 457.5,345.4688 Q457.5,345.8984 457.0703,346.4063 Q456.4453,347.1484 455.4492,347.5586 Q454.1406,348.125 452.5391,348.125 Q450.6641,348.125 449.1602,347.3828 Q447.9492,346.7969 447.0898,345.5273 Q446.25,344.2578 446.25,342.7539 L446.25,341.3867 Q446.25,339.8242 446.9922,338.457 Q447.7539,337.0898 449.0625,336.3672 Q450.3906,335.625 451.875,335.625 Q452.7734,335.625 453.5547,335.9375 Q454.3359,336.25 455,336.875 Z "/><text fill="#000000" font-family="sans-serif" font-size="15" lengthAdjust="spacingAndGlyphs" textLength="136.25" x="470" y="347.3877">ExternalService2API</text><line style="stroke: #A80036; stroke-width: 1.875;" x1="435" x2="608.75" y1="361.25" y2="361.25"/><!--MD5=[057d72d417c797c6cd59d3a4623fd885]
reverse link ExternalEmailService to EmailServiceAdapter1--><path d="M354.465,115.825 C337.5138,137.015 318.9163,160.2613 304.3225,178.5038 " fill="none" id="ExternalEmailService&lt;-EmailServiceAdapter1" style="stroke: #A80036; stroke-width: 1.25; stroke-dasharray: 7.0,7.0;"/><polygon fill="none" points="347.8938,110.0313,370.3438,95.9763,361.5588,120.9637,347.8938,110.0313" style="stroke: #A80036; stroke-width: 1.25;"/><!--MD5=[b138f639aae1691f6303851649f1e8f3]
link EmailServiceAdapter1 to ExternalService1API--><path d="M278.125,246.5314 C278.125,267.2693 278.125,293.9029 278.125,314.2408 " fill="none" id="EmailServiceAdapter1-&gt;ExternalService1API" style="stroke: #A80036; stroke-width: 1.25;"/><polygon fill="#A80036" points="278.125,320.879,283.125,309.629,278.125,314.629,273.125,309.629,278.125,320.879" style="stroke: #A80036; stroke-width: 1.25;"/><!--MD5=[7e27379ba7c7c364cb48563ade3c1d23]
reverse link ExternalEmailService to EmailServiceAdapter2--><path d="M446.3137,115.825 C463.0925,137.015 481.5,160.2613 495.945,178.5038 " fill="none" id="ExternalEmailService&lt;-EmailServiceAdapter2" style="stroke: #A80036; stroke-width: 1.25; stroke-dasharray: 7.0,7.0;"/><polygon fill="none" points="439.2562,121.0075,430.5975,95.9763,452.9762,110.1438,439.2562,121.0075" style="stroke: #A80036; stroke-width: 1.25;"/><!--MD5=[e1bd32a462124c76e0761f4cfe0c90b3]
link EmailServiceAdapter2 to ExternalService2API--><path d="M521.875,246.5314 C521.875,267.2693 521.875,293.9029 521.875,314.2408 " fill="none" id="EmailServiceAdapter2-&gt;ExternalService2API" style="stroke: #A80036; stroke-width: 1.25;"/><polygon fill="#A80036" points="521.875,320.879,526.875,309.629,521.875,314.629,516.875,309.629,521.875,320.879" style="stroke: #A80036; stroke-width: 1.25;"/><!--MD5=[fd0878f9f87f86b217edd431b6b5322d]
@startuml

hide attributes

note left of ExternalEmailService
This interface will be object
of multiple implementations,
one for each external algorithm
that has to be supported.
end note

interface ExternalEmailService << interface >>
{
 +sendPassword(email, pwd)
}


class EmailServiceAdapter1
{
+sendPassword(email, pwd)
}

class ExternalService1API
{

}

ExternalEmailService <|.. EmailServiceAdapter1
EmailServiceAdapter1 -d->  ExternalService1API

class EmailServiceAdapter2
{
+sendPassword(email, pwd)
}

class ExternalService2API
{

}

ExternalEmailService <|.. EmailServiceAdapter2
EmailServiceAdapter2 -d->  ExternalService2API


@enduml

PlantUML version 1.2020.07(Sun Apr 19 12:42:40 BST 2020)
(GPL source distribution)
Java Runtime: OpenJDK Runtime Environment
JVM: OpenJDK 64-Bit Server VM
Java Version: 11.0.6+8-b765.40
Operating System: Windows 10
Default Encoding: Cp1252
Language: pt
Country: PT
--></g></svg>