<?xml version="1.0" encoding="UTF-8" standalone="no"?><svg xmlns="http://www.w3.org/2000/svg" xmlns:xlink="http://www.w3.org/1999/xlink" contentScriptType="application/ecmascript" contentStyleType="text/css" height="526px" preserveAspectRatio="none" style="width:1327px;height:526px;" version="1.1" viewBox="0 0 1327 526" width="1327px" zoomAndPan="magnify"><defs><filter height="300%" id="f1o4vcicyvgv7u" width="300%" x="-1" y="-1"><feGaussianBlur result="blurOut" stdDeviation="2.0"/><feColorMatrix in="blurOut" result="blurOut2" type="matrix" values="0 0 0 0 0 0 0 0 0 0 0 0 0 0 0 0 0 0 .4 0"/><feOffset dx="4.0" dy="4.0" in="blurOut2" result="blurOut3"/><feBlend in="SourceGraphic" in2="blurOut3" mode="normal"/></filter></defs><g><!--MD5=[c38b041ce756cbe16ae0cf6e4cd53481]
class Execution--><rect fill="#FEFECE" filter="url(#f1o4vcicyvgv7u)" height="78.4141" id="Execution" style="stroke: #A80036; stroke-width: 1.5;" width="154" x="1162" y="64"/><ellipse cx="1204.45" cy="80" fill="#ADD1B2" rx="11" ry="11" style="stroke: #A80036; stroke-width: 1.0;"/><path d="M1207.4188,85.6406 Q1206.8406,85.9375 1206.2,86.0859 Q1205.5594,86.2344 1204.8563,86.2344 Q1202.3563,86.2344 1201.0359,84.5859 Q1199.7156,82.9375 1199.7156,79.8125 Q1199.7156,76.6875 1201.0359,75.0313 Q1202.3563,73.375 1204.8563,73.375 Q1205.5594,73.375 1206.2078,73.5313 Q1206.8563,73.6875 1207.4188,73.9844 L1207.4188,76.7031 Q1206.7938,76.125 1206.2,75.8516 Q1205.6063,75.5781 1204.9813,75.5781 Q1203.6375,75.5781 1202.95,76.6484 Q1202.2625,77.7188 1202.2625,79.8125 Q1202.2625,81.9063 1202.95,82.9766 Q1203.6375,84.0469 1204.9813,84.0469 Q1205.6063,84.0469 1206.2,83.7734 Q1206.7938,83.5 1207.4188,82.9219 L1207.4188,85.6406 Z "/><text fill="#000000" font-family="sans-serif" font-size="12" lengthAdjust="spacingAndGlyphs" textLength="61" x="1224.55" y="84.1543">Execution</text><line style="stroke: #A80036; stroke-width: 1.5;" x1="1163" x2="1315" y1="96" y2="96"/><rect fill="none" height="6" style="stroke: #C82930; stroke-width: 1.0;" width="6" x="1170" y="104"/><text fill="#000000" font-family="sans-serif" font-size="11" lengthAdjust="spacingAndGlyphs" textLength="87" x="1182" y="110.2104">Date finishDate</text><rect fill="none" height="6" style="stroke: #C82930; stroke-width: 1.0;" width="6" x="1170" y="116.8047"/><text fill="#000000" font-family="sans-serif" font-size="11" lengthAdjust="spacingAndGlyphs" textLength="82" x="1182" y="123.0151">int delayHours</text><rect fill="none" height="6" style="stroke: #C82930; stroke-width: 1.0;" width="6" x="1170" y="129.6094"/><text fill="#000000" font-family="sans-serif" font-size="11" lengthAdjust="spacingAndGlyphs" textLength="128" x="1182" y="135.8198">String briefDescription</text><!--MD5=[1f687b5315377fe49fca59b457947463]
class Freelancer--><rect fill="#FEFECE" filter="url(#f1o4vcicyvgv7u)" height="142.4375" id="Freelancer" style="stroke: #A80036; stroke-width: 1.5;" width="133" x="915.5" y="373"/><ellipse cx="945.8" cy="389" fill="#ADD1B2" rx="11" ry="11" style="stroke: #A80036; stroke-width: 1.0;"/><path d="M948.7688,394.6406 Q948.1906,394.9375 947.55,395.0859 Q946.9094,395.2344 946.2063,395.2344 Q943.7063,395.2344 942.3859,393.5859 Q941.0656,391.9375 941.0656,388.8125 Q941.0656,385.6875 942.3859,384.0313 Q943.7063,382.375 946.2063,382.375 Q946.9094,382.375 947.5578,382.5313 Q948.2063,382.6875 948.7688,382.9844 L948.7688,385.7031 Q948.1438,385.125 947.55,384.8516 Q946.9563,384.5781 946.3313,384.5781 Q944.9875,384.5781 944.3,385.6484 Q943.6125,386.7188 943.6125,388.8125 Q943.6125,390.9063 944.3,391.9766 Q944.9875,393.0469 946.3313,393.0469 Q946.9563,393.0469 947.55,392.7734 Q948.1438,392.5 948.7688,391.9219 L948.7688,394.6406 Z "/><text fill="#000000" font-family="sans-serif" font-size="12" lengthAdjust="spacingAndGlyphs" textLength="67" x="963.2" y="393.1543">Freelancer</text><line style="stroke: #A80036; stroke-width: 1.5;" x1="916.5" x2="1047.5" y1="405" y2="405"/><rect fill="none" height="6" style="stroke: #C82930; stroke-width: 1.0;" width="6" x="923.5" y="413"/><text fill="#000000" font-family="sans-serif" font-size="11" lengthAdjust="spacingAndGlyphs" textLength="107" x="935.5" y="419.2104">String freelancerID</text><rect fill="none" height="6" style="stroke: #C82930; stroke-width: 1.0;" width="6" x="923.5" y="425.8047"/><text fill="#000000" font-family="sans-serif" font-size="11" lengthAdjust="spacingAndGlyphs" textLength="70" x="935.5" y="432.0151">String name</text><rect fill="none" height="6" style="stroke: #C82930; stroke-width: 1.0;" width="6" x="923.5" y="438.6094"/><text fill="#000000" font-family="sans-serif" font-size="11" lengthAdjust="spacingAndGlyphs" textLength="91" x="935.5" y="444.8198">String expertise</text><rect fill="none" height="6" style="stroke: #C82930; stroke-width: 1.0;" width="6" x="923.5" y="451.4141"/><text fill="#000000" font-family="sans-serif" font-size="11" lengthAdjust="spacingAndGlyphs" textLength="69" x="935.5" y="457.6245">String email</text><rect fill="none" height="6" style="stroke: #C82930; stroke-width: 1.0;" width="6" x="923.5" y="464.2188"/><text fill="#000000" font-family="sans-serif" font-size="11" lengthAdjust="spacingAndGlyphs" textLength="52" x="935.5" y="470.4292">String nif</text><rect fill="none" height="6" style="stroke: #C82930; stroke-width: 1.0;" width="6" x="923.5" y="477.0234"/><text fill="#000000" font-family="sans-serif" font-size="11" lengthAdjust="spacingAndGlyphs" textLength="62" x="935.5" y="483.2339">String iban</text><rect fill="none" height="6" style="stroke: #C82930; stroke-width: 1.0;" width="6" x="923.5" y="489.8281"/><text fill="#000000" font-family="sans-serif" font-size="11" lengthAdjust="spacingAndGlyphs" textLength="85" x="935.5" y="496.0386">String address</text><rect fill="none" height="6" style="stroke: #C82930; stroke-width: 1.0;" width="6" x="923.5" y="502.6328"/><text fill="#000000" font-family="sans-serif" font-size="11" lengthAdjust="spacingAndGlyphs" textLength="80" x="935.5" y="508.8433">String country</text><!--MD5=[b34797a66dc35cbf1d65f7e3ca75530e]
class Task--><rect fill="#FEFECE" filter="url(#f1o4vcicyvgv7u)" height="104.0234" id="Task" style="stroke: #A80036; stroke-width: 1.5;" width="164" x="900" y="129"/><ellipse cx="963.25" cy="145" fill="#ADD1B2" rx="11" ry="11" style="stroke: #A80036; stroke-width: 1.0;"/><path d="M966.2188,150.6406 Q965.6406,150.9375 965,151.0859 Q964.3594,151.2344 963.6563,151.2344 Q961.1563,151.2344 959.8359,149.5859 Q958.5156,147.9375 958.5156,144.8125 Q958.5156,141.6875 959.8359,140.0313 Q961.1563,138.375 963.6563,138.375 Q964.3594,138.375 965.0078,138.5313 Q965.6563,138.6875 966.2188,138.9844 L966.2188,141.7031 Q965.5938,141.125 965,140.8516 Q964.4063,140.5781 963.7813,140.5781 Q962.4375,140.5781 961.75,141.6484 Q961.0625,142.7188 961.0625,144.8125 Q961.0625,146.9063 961.75,147.9766 Q962.4375,149.0469 963.7813,149.0469 Q964.4063,149.0469 965,148.7734 Q965.5938,148.5 966.2188,147.9219 L966.2188,150.6406 Z "/><text fill="#000000" font-family="sans-serif" font-size="12" lengthAdjust="spacingAndGlyphs" textLength="29" x="983.75" y="149.1543">Task</text><line style="stroke: #A80036; stroke-width: 1.5;" x1="901" x2="1063" y1="161" y2="161"/><rect fill="none" height="6" style="stroke: #C82930; stroke-width: 1.0;" width="6" x="908" y="169"/><text fill="#000000" font-family="sans-serif" font-size="11" lengthAdjust="spacingAndGlyphs" textLength="73" x="920" y="175.2104">String taskID</text><rect fill="none" height="6" style="stroke: #C82930; stroke-width: 1.0;" width="6" x="908" y="181.8047"/><text fill="#000000" font-family="sans-serif" font-size="11" lengthAdjust="spacingAndGlyphs" textLength="126" x="920" y="188.0151">String taskDescription</text><rect fill="none" height="6" style="stroke: #C82930; stroke-width: 1.0;" width="6" x="908" y="194.6094"/><text fill="#000000" font-family="sans-serif" font-size="11" lengthAdjust="spacingAndGlyphs" textLength="134" x="920" y="200.8198">int taskDurationInHours</text><rect fill="none" height="6" style="stroke: #C82930; stroke-width: 1.0;" width="6" x="908" y="207.4141"/><text fill="#000000" font-family="sans-serif" font-size="11" lengthAdjust="spacingAndGlyphs" textLength="138" x="920" y="213.6245">double taskCostPerHour</text><rect fill="none" height="6" style="stroke: #C82930; stroke-width: 1.0;" width="6" x="908" y="220.2188"/><text fill="#000000" font-family="sans-serif" font-size="11" lengthAdjust="spacingAndGlyphs" textLength="113" x="920" y="226.4292">String taskCategory</text><!--MD5=[4555bb1b0911a5adf28ce6dbe60fed2e]
class Transaction--><rect fill="#FEFECE" filter="url(#f1o4vcicyvgv7u)" height="52.8047" id="Transaction" style="stroke: #A80036; stroke-width: 1.5;" width="106" x="6" y="245.5"/><ellipse cx="21" cy="261.5" fill="#ADD1B2" rx="11" ry="11" style="stroke: #A80036; stroke-width: 1.0;"/><path d="M23.9688,267.1406 Q23.3906,267.4375 22.75,267.5859 Q22.1094,267.7344 21.4063,267.7344 Q18.9063,267.7344 17.5859,266.0859 Q16.2656,264.4375 16.2656,261.3125 Q16.2656,258.1875 17.5859,256.5313 Q18.9063,254.875 21.4063,254.875 Q22.1094,254.875 22.7578,255.0313 Q23.4063,255.1875 23.9688,255.4844 L23.9688,258.2031 Q23.3438,257.625 22.75,257.3516 Q22.1563,257.0781 21.5313,257.0781 Q20.1875,257.0781 19.5,258.1484 Q18.8125,259.2188 18.8125,261.3125 Q18.8125,263.4063 19.5,264.4766 Q20.1875,265.5469 21.5313,265.5469 Q22.1563,265.5469 22.75,265.2734 Q23.3438,265 23.9688,264.4219 L23.9688,267.1406 Z "/><text fill="#000000" font-family="sans-serif" font-size="12" lengthAdjust="spacingAndGlyphs" textLength="74" x="35" y="265.6543">Transaction</text><line style="stroke: #A80036; stroke-width: 1.5;" x1="7" x2="111" y1="277.5" y2="277.5"/><rect fill="none" height="6" style="stroke: #C82930; stroke-width: 1.0;" width="6" x="14" y="285.5"/><text fill="#000000" font-family="sans-serif" font-size="11" lengthAdjust="spacingAndGlyphs" textLength="79" x="26" y="291.7104">String transID</text><!--MD5=[f483d6e5de34a60207b28a5563be5e8b]
class Collaborator--><rect fill="#FEFECE" filter="url(#f1o4vcicyvgv7u)" height="65.6094" id="Collaborator" style="stroke: #A80036; stroke-width: 1.5;" width="109" x="549" y="354"/><ellipse cx="564" cy="370" fill="#ADD1B2" rx="11" ry="11" style="stroke: #A80036; stroke-width: 1.0;"/><path d="M566.9688,375.6406 Q566.3906,375.9375 565.75,376.0859 Q565.1094,376.2344 564.4063,376.2344 Q561.9063,376.2344 560.5859,374.5859 Q559.2656,372.9375 559.2656,369.8125 Q559.2656,366.6875 560.5859,365.0313 Q561.9063,363.375 564.4063,363.375 Q565.1094,363.375 565.7578,363.5313 Q566.4063,363.6875 566.9688,363.9844 L566.9688,366.7031 Q566.3438,366.125 565.75,365.8516 Q565.1563,365.5781 564.5313,365.5781 Q563.1875,365.5781 562.5,366.6484 Q561.8125,367.7188 561.8125,369.8125 Q561.8125,371.9063 562.5,372.9766 Q563.1875,374.0469 564.5313,374.0469 Q565.1563,374.0469 565.75,373.7734 Q566.3438,373.5 566.9688,372.9219 L566.9688,375.6406 Z "/><text fill="#000000" font-family="sans-serif" font-size="12" lengthAdjust="spacingAndGlyphs" textLength="77" x="578" y="374.1543">Collaborator</text><line style="stroke: #A80036; stroke-width: 1.5;" x1="550" x2="657" y1="386" y2="386"/><rect fill="none" height="6" style="stroke: #C82930; stroke-width: 1.0;" width="6" x="557" y="394"/><text fill="#000000" font-family="sans-serif" font-size="11" lengthAdjust="spacingAndGlyphs" textLength="70" x="569" y="400.2104">String name</text><rect fill="none" height="6" style="stroke: #C82930; stroke-width: 1.0;" width="6" x="557" y="406.8047"/><text fill="#000000" font-family="sans-serif" font-size="11" lengthAdjust="spacingAndGlyphs" textLength="69" x="569" y="413.0151">String email</text><!--MD5=[86c7c362de55a38b660185a1328fe18d]
class Organization--><rect fill="#FEFECE" filter="url(#f1o4vcicyvgv7u)" height="78.4141" id="Organization" style="stroke: #A80036; stroke-width: 1.5;" width="123" x="210" y="233"/><ellipse cx="230.85" cy="249" fill="#ADD1B2" rx="11" ry="11" style="stroke: #A80036; stroke-width: 1.0;"/><path d="M233.8188,254.6406 Q233.2406,254.9375 232.6,255.0859 Q231.9594,255.2344 231.2563,255.2344 Q228.7563,255.2344 227.4359,253.5859 Q226.1156,251.9375 226.1156,248.8125 Q226.1156,245.6875 227.4359,244.0313 Q228.7563,242.375 231.2563,242.375 Q231.9594,242.375 232.6078,242.5313 Q233.2563,242.6875 233.8188,242.9844 L233.8188,245.7031 Q233.1938,245.125 232.6,244.8516 Q232.0063,244.5781 231.3813,244.5781 Q230.0375,244.5781 229.35,245.6484 Q228.6625,246.7188 228.6625,248.8125 Q228.6625,250.9063 229.35,251.9766 Q230.0375,253.0469 231.3813,253.0469 Q232.0063,253.0469 232.6,252.7734 Q233.1938,252.5 233.8188,251.9219 L233.8188,254.6406 Z "/><text fill="#000000" font-family="sans-serif" font-size="12" lengthAdjust="spacingAndGlyphs" textLength="78" x="246.15" y="253.1543">Organization</text><line style="stroke: #A80036; stroke-width: 1.5;" x1="211" x2="332" y1="265" y2="265"/><rect fill="none" height="6" style="stroke: #C82930; stroke-width: 1.0;" width="6" x="218" y="273"/><text fill="#000000" font-family="sans-serif" font-size="11" lengthAdjust="spacingAndGlyphs" textLength="70" x="230" y="279.2104">String name</text><rect fill="none" height="6" style="stroke: #C82930; stroke-width: 1.0;" width="6" x="218" y="285.8047"/><text fill="#000000" font-family="sans-serif" font-size="11" lengthAdjust="spacingAndGlyphs" textLength="52" x="230" y="292.0151">String nif</text><rect fill="none" height="6" style="stroke: #C82930; stroke-width: 1.0;" width="6" x="218" y="298.6094"/><text fill="#000000" font-family="sans-serif" font-size="11" lengthAdjust="spacingAndGlyphs" textLength="97" x="230" y="304.8198">Date payDayDate</text><!--MD5=[764fca796ce7f635542948d8fc39db5e]
class Payment--><rect fill="#FEFECE" filter="url(#f1o4vcicyvgv7u)" height="40" id="Payment" style="stroke: #A80036; stroke-width: 1.5;" width="86" x="560.5" y="253"/><ellipse cx="575.5" cy="269" fill="#ADD1B2" rx="11" ry="11" style="stroke: #A80036; stroke-width: 1.0;"/><path d="M578.4688,274.6406 Q577.8906,274.9375 577.25,275.0859 Q576.6094,275.2344 575.9063,275.2344 Q573.4063,275.2344 572.0859,273.5859 Q570.7656,271.9375 570.7656,268.8125 Q570.7656,265.6875 572.0859,264.0313 Q573.4063,262.375 575.9063,262.375 Q576.6094,262.375 577.2578,262.5313 Q577.9063,262.6875 578.4688,262.9844 L578.4688,265.7031 Q577.8438,265.125 577.25,264.8516 Q576.6563,264.5781 576.0313,264.5781 Q574.6875,264.5781 574,265.6484 Q573.3125,266.7188 573.3125,268.8125 Q573.3125,270.9063 574,271.9766 Q574.6875,273.0469 576.0313,273.0469 Q576.6563,273.0469 577.25,272.7734 Q577.8438,272.5 578.4688,271.9219 L578.4688,274.6406 Z "/><text fill="#000000" font-family="sans-serif" font-size="12" lengthAdjust="spacingAndGlyphs" textLength="54" x="589.5" y="273.1543">Payment</text><line style="stroke: #A80036; stroke-width: 1.5;" x1="561.5" x2="645.5" y1="285" y2="285"/><!--MD5=[45817597bcd7048073a670d966abfd17]
link Organization to Collaborator--><path d="M333.1686,293.3611 C395.0513,314.7964 489.4645,347.4998 548.7671,368.0413 " fill="none" id="Organization-Collaborator" style="stroke: #A80036; stroke-width: 1.0;"/><text fill="#000000" font-family="sans-serif" font-size="13" lengthAdjust="spacingAndGlyphs" textLength="23" x="423" y="301.0669">has</text><polygon fill="#000000" points="449,295.0664,455,298.0664,449,301.0664,449,295.0664" style="stroke: #000000; stroke-width: 1.0;"/><text fill="#000000" font-family="sans-serif" font-size="13" lengthAdjust="spacingAndGlyphs" textLength="8" x="341.172" y="308.9283">1</text><text fill="#000000" font-family="sans-serif" font-size="13" lengthAdjust="spacingAndGlyphs" textLength="8" x="532.8749" y="378.6036">1</text><!--MD5=[4078351e3988aa35b1504a42837f2ab1]
link Organization to Task--><path d="M333.3617,254.4471 C343.2445,251.831 353.3809,249.2581 363,247 C506.3224,213.3551 541.5261,197.788 688,183 C759.2255,175.8091 840.6506,175.897 899.7218,177.4466 " fill="none" id="Organization-Task" style="stroke: #A80036; stroke-width: 1.0;"/><text fill="#000000" font-family="sans-serif" font-size="13" lengthAdjust="spacingAndGlyphs" textLength="23" x="585.5" y="183.0669">has</text><polygon fill="#000000" points="611.5,177.0664,617.5,180.0664,611.5,183.0664,611.5,177.0664" style="stroke: #000000; stroke-width: 1.0;"/><text fill="#000000" font-family="sans-serif" font-size="13" lengthAdjust="spacingAndGlyphs" textLength="8" x="340.977" y="265.3354">1</text><text fill="#000000" font-family="sans-serif" font-size="13" lengthAdjust="spacingAndGlyphs" textLength="7" x="885.0822" y="189.8699">*</text><!--MD5=[4b35f5cbbb9f0916ba1866e97e83f62f]
link Transaction to Organization--><path d="M112.0746,272 C141.7011,272 178.7596,272 209.6894,272 " fill="none" id="Transaction-Organization" style="stroke: #A80036; stroke-width: 1.0;"/><polygon fill="#000000" points="150,262.0664,144,265.0664,150,268.0664,150,262.0664" style="stroke: #000000; stroke-width: 1.0;"/><text fill="#000000" font-family="sans-serif" font-size="13" lengthAdjust="spacingAndGlyphs" textLength="23" x="156" y="268.0669">has</text><text fill="#000000" font-family="sans-serif" font-size="13" lengthAdjust="spacingAndGlyphs" textLength="7" x="120.0304" y="285.1447">*</text><text fill="#000000" font-family="sans-serif" font-size="13" lengthAdjust="spacingAndGlyphs" textLength="8" x="194.08" y="284.9178">1</text><!--MD5=[542f32193441b56ea302115ed1249c3b]
link Transaction to Freelancer--><path d="M86.9369,298.6162 C102.4762,312.7051 122.5572,329.7763 142,343 C170.2761,362.2314 177.8366,367.3854 210,379 C279.8103,404.2093 601.9426,463.1228 688,471 C768.5521,478.3733 789.6763,480.5452 870,471 C884.797,469.2416 900.467,466.22 915.2486,462.8194 " fill="none" id="Transaction-Freelancer" style="stroke: #A80036; stroke-width: 1.0;"/><text fill="#000000" font-family="sans-serif" font-size="13" lengthAdjust="spacingAndGlyphs" textLength="141" x="364" y="412.0669">has information about</text><polygon fill="#000000" points="508,406.0664,514,409.0664,508,412.0664,508,406.0664" style="stroke: #000000; stroke-width: 1.0;"/><text fill="#000000" font-family="sans-serif" font-size="13" lengthAdjust="spacingAndGlyphs" textLength="8" x="84.1731" y="318.1819">1</text><text fill="#000000" font-family="sans-serif" font-size="13" lengthAdjust="spacingAndGlyphs" textLength="8" x="899.5102" y="477.7483">1</text><!--MD5=[8e4873cec2cb3febaaa9495c716fc885]
link Transaction to Task--><path d="M112.2861,248.8098 C140.809,237.1867 176.8107,223.7586 210,215 C494.8322,139.8331 577.4747,119.2382 870,154 C879.7322,155.1565 889.8421,156.8595 899.8286,158.8574 " fill="none" id="Transaction-Task" style="stroke: #A80036; stroke-width: 1.0;"/><text fill="#000000" font-family="sans-serif" font-size="13" lengthAdjust="spacingAndGlyphs" textLength="55" x="407" y="142.0669">specifies</text><polygon fill="#000000" points="465,136.0664,471,139.0664,465,142.0664,465,136.0664" style="stroke: #000000; stroke-width: 1.0;"/><text fill="#000000" font-family="sans-serif" font-size="13" lengthAdjust="spacingAndGlyphs" textLength="8" x="119.9839" y="258.7904">1</text><text fill="#000000" font-family="sans-serif" font-size="13" lengthAdjust="spacingAndGlyphs" textLength="8" x="883.8847" y="169.5795">1</text><!--MD5=[d7637ac3eb48d4f2830e10106a654da0]
link Organization to Payment--><path d="M333.1686,272.1857 C399.1768,272.3846 502.1975,272.6949 560.1394,272.8694 " fill="none" id="Organization-Payment" style="stroke: #A80036; stroke-width: 1.0;"/><text fill="#000000" font-family="sans-serif" font-size="13" lengthAdjust="spacingAndGlyphs" textLength="102" x="383.5" y="268.0669">has registries of</text><polygon fill="#000000" points="488.5,262.0664,494.5,265.0664,488.5,268.0664,488.5,262.0664" style="stroke: #000000; stroke-width: 1.0;"/><text fill="#000000" font-family="sans-serif" font-size="13" lengthAdjust="spacingAndGlyphs" textLength="8" x="341.172" y="285.1722">1</text><text fill="#000000" font-family="sans-serif" font-size="13" lengthAdjust="spacingAndGlyphs" textLength="7" x="545.3781" y="286.1678">*</text><!--MD5=[d0956b6d22ad75d32c6c85cdfa66958f]
link Payment to Freelancer--><path d="M634.2259,293.013 C649.8432,302.5134 669.4091,313.4183 688,321 C765.4609,352.5901 793.7515,334.5865 870,369 C885.3573,375.9313 900.9356,384.8963 915.3956,394.2029 " fill="none" id="Payment-Freelancer" style="stroke: #A80036; stroke-width: 1.0;"/><text fill="#000000" font-family="sans-serif" font-size="13" lengthAdjust="spacingAndGlyphs" textLength="167" x="689" y="317.0669">has degree of expertise of</text><polygon fill="#000000" points="859,311.0664,865,314.0664,859,317.0664,859,311.0664" style="stroke: #000000; stroke-width: 1.0;"/><text fill="#000000" font-family="sans-serif" font-size="13" lengthAdjust="spacingAndGlyphs" textLength="7" x="635.2235" y="313.1813">*</text><text fill="#000000" font-family="sans-serif" font-size="13" lengthAdjust="spacingAndGlyphs" textLength="8" x="899.6732" y="401.6269">1</text><!--MD5=[a6a2c0b047828a7af8b8d6b818ae28b6]
link Payment to Task--><path d="M646.8473,254.3746 C659.9092,249.2258 674.3927,243.9689 688,240 C767.1577,216.9118 789.1697,220.2935 870,204 C879.6321,202.0584 889.7267,200.0077 899.7449,197.9627 " fill="none" id="Payment-Task" style="stroke: #A80036; stroke-width: 1.0;"/><text fill="#000000" font-family="sans-serif" font-size="13" lengthAdjust="spacingAndGlyphs" textLength="96" x="724.5" y="200.0669">has duration of</text><polygon fill="#000000" points="823.5,194.0664,829.5,197.0664,823.5,200.0664,823.5,194.0664" style="stroke: #000000; stroke-width: 1.0;"/><text fill="#000000" font-family="sans-serif" font-size="13" lengthAdjust="spacingAndGlyphs" textLength="8" x="654.3933" y="264.679">1</text><text fill="#000000" font-family="sans-serif" font-size="13" lengthAdjust="spacingAndGlyphs" textLength="8" x="884.0628" y="212.2132">1</text><!--MD5=[a6a2c0b047828a7af8b8d6b818ae28b6]
link Payment to Task--><path d="M646.702,283.8709 C700.8399,295.3381 795.5501,308.1875 870,280 C895.7267,270.2596 919.3507,251.6121 938.2024,233.1037 " fill="none" id="Payment-Task-1" style="stroke: #A80036; stroke-width: 1.0;"/><text fill="#000000" font-family="sans-serif" font-size="13" lengthAdjust="spacingAndGlyphs" textLength="85" x="730" y="261.0669">has task cost</text><text fill="#000000" font-family="sans-serif" font-size="13" lengthAdjust="spacingAndGlyphs" textLength="54" x="745.5" y="276.1997">per hour</text><polygon fill="#000000" points="818,262.6328,824,265.6328,818,268.6328,818,262.6328" style="stroke: #000000; stroke-width: 1.0;"/><text fill="#000000" font-family="sans-serif" font-size="13" lengthAdjust="spacingAndGlyphs" textLength="8" x="654.5198" y="298.9915">1</text><text fill="#000000" font-family="sans-serif" font-size="13" lengthAdjust="spacingAndGlyphs" textLength="8" x="923.7796" y="253.1872">1</text><!--MD5=[6d9a0d3e52bb71e36b137034df33f234]
link Transaction to Execution--><path d="M67.6215,245.0965 C90.0058,181.0795 156.3847,25 271.5,25 C271.5,25 271.5,25 982,25 C1044.3646,25 1111.7152,46.2913 1161.8184,66.6262 " fill="none" id="Transaction-Execution" style="stroke: #A80036; stroke-width: 1.0;"/><text fill="#000000" font-family="sans-serif" font-size="13" lengthAdjust="spacingAndGlyphs" textLength="85" x="554.5" y="21.0669">has details of</text><polygon fill="#000000" points="642.5,15.0664,648.5,18.0664,642.5,21.0664,642.5,15.0664" style="stroke: #000000; stroke-width: 1.0;"/><text fill="#000000" font-family="sans-serif" font-size="13" lengthAdjust="spacingAndGlyphs" textLength="8" x="60.6902" y="234.2455">1</text><text fill="#000000" font-family="sans-serif" font-size="13" lengthAdjust="spacingAndGlyphs" textLength="8" x="1146.0808" y="75.9277">1</text><!--MD5=[d2c3650dbd07e79cdad2ffd4a879dec6]
link Collaborator to Freelancer--><path d="M639.8794,420.279 C653.8822,430.9746 670.687,441.4785 688,447 C763.135,470.962 854.6637,464.9084 915.4318,456.3413 " fill="none" id="Collaborator-Freelancer" style="stroke: #A80036; stroke-width: 1.0;"/><text fill="#000000" font-family="sans-serif" font-size="13" lengthAdjust="spacingAndGlyphs" textLength="48" x="748.5" y="443.0669">creates</text><polygon fill="#000000" points="799.5,437.0664,805.5,440.0664,799.5,443.0664,799.5,437.0664" style="stroke: #000000; stroke-width: 1.0;"/><text fill="#000000" font-family="sans-serif" font-size="13" lengthAdjust="spacingAndGlyphs" textLength="8" x="637.647" y="439.6563">1</text><text fill="#000000" font-family="sans-serif" font-size="13" lengthAdjust="spacingAndGlyphs" textLength="7" x="900.3302" y="453.9504">*</text><!--MD5=[f919d21ae7a75ef5ececc535e09d5009]
link Collaborator to Task--><path d="M658.1548,404.6115 C715.3162,419.5423 805.5224,432.9443 870,394 C885.2662,384.7793 929.9939,293.0997 958.0903,233.0622 " fill="none" id="Collaborator-Task" style="stroke: #A80036; stroke-width: 1.0;"/><text fill="#000000" font-family="sans-serif" font-size="13" lengthAdjust="spacingAndGlyphs" textLength="48" x="748.5" y="390.0669">creates</text><polygon fill="#000000" points="799.5,384.0664,805.5,387.0664,799.5,390.0664,799.5,384.0664" style="stroke: #000000; stroke-width: 1.0;"/><text fill="#000000" font-family="sans-serif" font-size="13" lengthAdjust="spacingAndGlyphs" textLength="8" x="666.0365" y="420.0879">1</text><text fill="#000000" font-family="sans-serif" font-size="13" lengthAdjust="spacingAndGlyphs" textLength="7" x="947.4071" y="253.1401">*</text><!--MD5=[8b5db564ea9bd1758097b07ca3fd81a4]
link Collaborator to Transaction--><path d="M548.8328,387.5196 C471.7095,386.8681 327.2811,380.5374 210,346 C172.1933,334.8665 132.269,314.8966 102.9743,298.5061 " fill="none" id="Collaborator-Transaction" style="stroke: #A80036; stroke-width: 1.0;"/><polygon fill="#000000" points="244,336.0664,238,339.0664,244,342.0664,244,336.0664" style="stroke: #000000; stroke-width: 1.0;"/><text fill="#000000" font-family="sans-serif" font-size="13" lengthAdjust="spacingAndGlyphs" textLength="56" x="250" y="342.0669">registers</text><text fill="#000000" font-family="sans-serif" font-size="13" lengthAdjust="spacingAndGlyphs" textLength="8" x="532.9494" y="400.6993">1</text><text fill="#000000" font-family="sans-serif" font-size="13" lengthAdjust="spacingAndGlyphs" textLength="7" x="105.334" y="318.4748">*</text><!--MD5=[9926cd7d1f33844ac98d85654cc7d38d]
link Task to Execution--><path d="M1064.023,156.1059 C1095.3127,146.6094 1130.8515,135.8233 1161.6887,126.4641 " fill="none" id="Task-Execution" style="stroke: #A80036; stroke-width: 1.0;"/><text fill="#000000" font-family="sans-serif" font-size="13" lengthAdjust="spacingAndGlyphs" textLength="23" x="1095" y="134.0669">has</text><polygon fill="#000000" points="1121,128.0664,1127,131.0664,1121,134.0664,1121,128.0664" style="stroke: #000000; stroke-width: 1.0;"/><text fill="#000000" font-family="sans-serif" font-size="13" lengthAdjust="spacingAndGlyphs" textLength="8" x="1071.9532" y="166.5743">1</text><text fill="#000000" font-family="sans-serif" font-size="13" lengthAdjust="spacingAndGlyphs" textLength="16" x="1138.0907" y="141.2762">0..</text><!--MD5=[30d2d2a320be74ccc944be545f337c25]
@startuml
hide methods
left to right direction

class Execution {
    - Date finishDate
    - int delayHours
    - String briefDescription
}

class Freelancer {
    - String freelancerID
    - String name
    - String expertise
    - String email
    - String nif
    - String iban
    - String address
    - String country
}

class Task {
    - String taskID
    - String taskDescription
    - int taskDurationInHours
    - double taskCostPerHour
    - String taskCategory
}


class Transaction {
    - String transID
}

class Collaborator {
    - String name
    - String email
}

class Organization  {
    -String name
    -String nif
    -Date payDayDate
}

Organization "1" - - "1" Collaborator : has >
Organization "1" - - "*" Task : has >
Organization "1" -up- "*" Transaction : has >
Transaction "1" - - "1" Freelancer : has information about >
Transaction "1" - - "1" Task : specifies >
Organization "1" - - "*" Payment : has registries of >
Payment "*" - - "1" Freelancer : has degree of expertise of >
Payment "1" - - "1" Task : has duration of >
Payment "1" - - "1" Task : has task cost\nper hour >
Transaction "1" - - "1" Execution : has details of >
Collaborator "1" - - "*" Freelancer : creates >
Collaborator "1" - - "*" Task : creates >
Collaborator "1" - - "*" Transaction : registers >
Task "1" - - "0.." Execution : has >
@enduml

PlantUML version 1.2019.12(Sun Nov 03 10:24:54 UTC 2019)
(GPL source distribution)
Java Runtime: OpenJDK Runtime Environment
JVM: OpenJDK 64-Bit Server VM
Java Version: 1.8.0_232-heroku-b09
Operating System: Linux
Default Encoding: UTF-8
Language: en
Country: US
--></g></svg>