<?xml version="1.0" encoding="UTF-8" standalone="no"?><svg xmlns="http://www.w3.org/2000/svg" xmlns:xlink="http://www.w3.org/1999/xlink" contentScriptType="application/ecmascript" contentStyleType="text/css" height="1477px" preserveAspectRatio="none" style="width:937px;height:1477px;" version="1.1" viewBox="0 0 937 1477" width="937px" zoomAndPan="magnify"><defs><filter height="300%" id="fxcmcyl9eh29h" width="300%" x="-1" y="-1"><feGaussianBlur result="blurOut" stdDeviation="2.0"/><feColorMatrix in="blurOut" result="blurOut2" type="matrix" values="0 0 0 0 0 0 0 0 0 0 0 0 0 0 0 0 0 0 .4 0"/><feOffset dx="4.0" dy="4.0" in="blurOut2" result="blurOut3"/><feBlend in="SourceGraphic" in2="blurOut3" mode="normal"/></filter></defs><g><!--MD5=[2574427b71bef502b77697c7d85ca332]
class RegisterPaymentTransactionUI--><rect fill="#FEFECE" filter="url(#fxcmcyl9eh29h)" height="48" id="RegisterPaymentTransactionUI" style="stroke: #A80036; stroke-width: 1.5;" width="224" x="221" y="8"/><ellipse cx="236" cy="24" fill="#ADD1B2" rx="11" ry="11" style="stroke: #A80036; stroke-width: 1.0;"/><path d="M238.9688,29.6406 Q238.3906,29.9375 237.75,30.0859 Q237.1094,30.2344 236.4063,30.2344 Q233.9063,30.2344 232.5859,28.5859 Q231.2656,26.9375 231.2656,23.8125 Q231.2656,20.6875 232.5859,19.0313 Q233.9063,17.375 236.4063,17.375 Q237.1094,17.375 237.7578,17.5313 Q238.4063,17.6875 238.9688,17.9844 L238.9688,20.7031 Q238.3438,20.125 237.75,19.8516 Q237.1563,19.5781 236.5313,19.5781 Q235.1875,19.5781 234.5,20.6484 Q233.8125,21.7188 233.8125,23.8125 Q233.8125,25.9063 234.5,26.9766 Q235.1875,28.0469 236.5313,28.0469 Q237.1563,28.0469 237.75,27.7734 Q238.3438,27.5 238.9688,26.9219 L238.9688,29.6406 Z "/><text fill="#000000" font-family="sans-serif" font-size="12" lengthAdjust="spacingAndGlyphs" textLength="192" x="250" y="28.1543">RegisterPaymentTransactionUI</text><line style="stroke: #A80036; stroke-width: 1.5;" x1="222" x2="444" y1="40" y2="40"/><line style="stroke: #A80036; stroke-width: 1.5;" x1="222" x2="444" y1="48" y2="48"/><!--MD5=[967b2149a2b67fd9e0151a0829ae525d]
class RegisterPaymentTransactionController--><rect fill="#FEFECE" filter="url(#fxcmcyl9eh29h)" height="150.4375" id="RegisterPaymentTransactionController" style="stroke: #A80036; stroke-width: 1.5;" width="609" x="28.5" y="117"/><ellipse cx="208.25" cy="133" fill="#ADD1B2" rx="11" ry="11" style="stroke: #A80036; stroke-width: 1.0;"/><path d="M211.2188,138.6406 Q210.6406,138.9375 210,139.0859 Q209.3594,139.2344 208.6563,139.2344 Q206.1563,139.2344 204.8359,137.5859 Q203.5156,135.9375 203.5156,132.8125 Q203.5156,129.6875 204.8359,128.0313 Q206.1563,126.375 208.6563,126.375 Q209.3594,126.375 210.0078,126.5313 Q210.6563,126.6875 211.2188,126.9844 L211.2188,129.7031 Q210.5938,129.125 210,128.8516 Q209.4063,128.5781 208.7813,128.5781 Q207.4375,128.5781 206.75,129.6484 Q206.0625,130.7188 206.0625,132.8125 Q206.0625,134.9063 206.75,135.9766 Q207.4375,137.0469 208.7813,137.0469 Q209.4063,137.0469 210,136.7734 Q210.5938,136.5 211.2188,135.9219 L211.2188,138.6406 Z "/><text fill="#000000" font-family="sans-serif" font-size="12" lengthAdjust="spacingAndGlyphs" textLength="241" x="228.75" y="137.1543">RegisterPaymentTransactionController</text><line style="stroke: #A80036; stroke-width: 1.5;" x1="29.5" x2="636.5" y1="149" y2="149"/><line style="stroke: #A80036; stroke-width: 1.5;" x1="29.5" x2="636.5" y1="157" y2="157"/><ellipse cx="39.5" cy="168" fill="#84BE84" rx="3" ry="3" style="stroke: #038048; stroke-width: 1.0;"/><text fill="#000000" font-family="sans-serif" font-size="11" lengthAdjust="spacingAndGlyphs" textLength="461" x="48.5" y="171.2104">Transaction newTransaction(String transId, String taskId, String taskDescription,</text><text fill="#000000" font-family="sans-serif" font-size="11" lengthAdjust="spacingAndGlyphs" textLength="413" x="48.5" y="184.0151">int taskAssignedDuration, double taskCostPerHour, String taskCategory,</text><text fill="#000000" font-family="sans-serif" font-size="11" lengthAdjust="spacingAndGlyphs" textLength="532" x="52.5" y="196.8198">Date executionFinishDate, double delay, String executionBriefDescription, String freelancerId,</text><text fill="#000000" font-family="sans-serif" font-size="11" lengthAdjust="spacingAndGlyphs" textLength="425" x="48.5" y="209.6245">String freelancerName, String freelancerExpertise, String freelancerEmail,</text><text fill="#000000" font-family="sans-serif" font-size="11" lengthAdjust="spacingAndGlyphs" textLength="406" x="48.5" y="222.4292">String freelancerNIF, String freelancerBankAccount, String streetName,</text><text fill="#000000" font-family="sans-serif" font-size="11" lengthAdjust="spacingAndGlyphs" textLength="266" x="48.5" y="235.2339">String doorNumber, String city, String country)</text><ellipse cx="39.5" cy="244.8281" fill="#84BE84" rx="3" ry="3" style="stroke: #038048; stroke-width: 1.0;"/><text fill="#000000" font-family="sans-serif" font-size="11" lengthAdjust="spacingAndGlyphs" textLength="583" x="48.5" y="248.0386">double computeAmount(double taskCostPerHour, int taskAssignedDuration,String freelancerExpertise)</text><ellipse cx="39.5" cy="257.6328" fill="#84BE84" rx="3" ry="3" style="stroke: #038048; stroke-width: 1.0;"/><text fill="#000000" font-family="sans-serif" font-size="11" lengthAdjust="spacingAndGlyphs" textLength="169" x="48.5" y="260.8433">boolean registerTransaction()</text><!--MD5=[e45a4727c47b726c25e081782e8bc183]
class ApplicationPOT--><rect fill="#FEFECE" filter="url(#fxcmcyl9eh29h)" height="73.6094" id="ApplicationPOT" style="stroke: #A80036; stroke-width: 1.5;" width="218" x="6" y="334"/><ellipse cx="64.25" cy="350" fill="#ADD1B2" rx="11" ry="11" style="stroke: #A80036; stroke-width: 1.0;"/><path d="M67.2188,355.6406 Q66.6406,355.9375 66,356.0859 Q65.3594,356.2344 64.6563,356.2344 Q62.1563,356.2344 60.8359,354.5859 Q59.5156,352.9375 59.5156,349.8125 Q59.5156,346.6875 60.8359,345.0313 Q62.1563,343.375 64.6563,343.375 Q65.3594,343.375 66.0078,343.5313 Q66.6563,343.6875 67.2188,343.9844 L67.2188,346.7031 Q66.5938,346.125 66,345.8516 Q65.4063,345.5781 64.7813,345.5781 Q63.4375,345.5781 62.75,346.6484 Q62.0625,347.7188 62.0625,349.8125 Q62.0625,351.9063 62.75,352.9766 Q63.4375,354.0469 64.7813,354.0469 Q65.4063,354.0469 66,353.7734 Q66.5938,353.5 67.2188,352.9219 L67.2188,355.6406 Z "/><text fill="#000000" font-family="sans-serif" font-size="12" lengthAdjust="spacingAndGlyphs" textLength="93" x="84.75" y="354.1543">ApplicationPOT</text><line style="stroke: #A80036; stroke-width: 1.5;" x1="7" x2="223" y1="366" y2="366"/><line style="stroke: #A80036; stroke-width: 1.5;" x1="7" x2="223" y1="374" y2="374"/><ellipse cx="17" cy="385" fill="#84BE84" rx="3" ry="3" style="stroke: #038048; stroke-width: 1.0;"/><text fill="#000000" font-family="sans-serif" font-size="11" lengthAdjust="spacingAndGlyphs" textLength="162" x="26" y="388.2104">ApplicationPOT getInstance()</text><ellipse cx="17" cy="397.8047" fill="#84BE84" rx="3" ry="3" style="stroke: #038048; stroke-width: 1.0;"/><text fill="#000000" font-family="sans-serif" font-size="11" lengthAdjust="spacingAndGlyphs" textLength="192" x="26" y="401.0151">UserSession getCurrentSession()</text><!--MD5=[c5b08e60048ef1bcd788d24cf324082e]
class UserSession--><rect fill="#FEFECE" filter="url(#fxcmcyl9eh29h)" height="60.8047" id="UserSession" style="stroke: #A80036; stroke-width: 1.5;" width="148" x="259" y="340.5"/><ellipse cx="291.1" cy="356.5" fill="#ADD1B2" rx="11" ry="11" style="stroke: #A80036; stroke-width: 1.0;"/><path d="M294.0688,362.1406 Q293.4906,362.4375 292.85,362.5859 Q292.2094,362.7344 291.5063,362.7344 Q289.0063,362.7344 287.6859,361.0859 Q286.3656,359.4375 286.3656,356.3125 Q286.3656,353.1875 287.6859,351.5313 Q289.0063,349.875 291.5063,349.875 Q292.2094,349.875 292.8578,350.0313 Q293.5063,350.1875 294.0688,350.4844 L294.0688,353.2031 Q293.4438,352.625 292.85,352.3516 Q292.2563,352.0781 291.6313,352.0781 Q290.2875,352.0781 289.6,353.1484 Q288.9125,354.2188 288.9125,356.3125 Q288.9125,358.4063 289.6,359.4766 Q290.2875,360.5469 291.6313,360.5469 Q292.2563,360.5469 292.85,360.2734 Q293.4438,360 294.0688,359.4219 L294.0688,362.1406 Z "/><text fill="#000000" font-family="sans-serif" font-size="12" lengthAdjust="spacingAndGlyphs" textLength="78" x="308.9" y="360.6543">UserSession</text><line style="stroke: #A80036; stroke-width: 1.5;" x1="260" x2="406" y1="372.5" y2="372.5"/><line style="stroke: #A80036; stroke-width: 1.5;" x1="260" x2="406" y1="380.5" y2="380.5"/><ellipse cx="270" cy="391.5" fill="#84BE84" rx="3" ry="3" style="stroke: #038048; stroke-width: 1.0;"/><text fill="#000000" font-family="sans-serif" font-size="11" lengthAdjust="spacingAndGlyphs" textLength="122" x="279" y="394.7104">String getEmailUser()</text><!--MD5=[99b8db98afdc2c8404e39242ef4c1e65]
class Platform--><rect fill="#FEFECE" filter="url(#fxcmcyl9eh29h)" height="86.4141" id="Platform" style="stroke: #A80036; stroke-width: 1.5;" width="305" x="442.5" y="328"/><ellipse cx="564.75" cy="344" fill="#ADD1B2" rx="11" ry="11" style="stroke: #A80036; stroke-width: 1.0;"/><path d="M567.7188,349.6406 Q567.1406,349.9375 566.5,350.0859 Q565.8594,350.2344 565.1563,350.2344 Q562.6563,350.2344 561.3359,348.5859 Q560.0156,346.9375 560.0156,343.8125 Q560.0156,340.6875 561.3359,339.0313 Q562.6563,337.375 565.1563,337.375 Q565.8594,337.375 566.5078,337.5313 Q567.1563,337.6875 567.7188,337.9844 L567.7188,340.7031 Q567.0938,340.125 566.5,339.8516 Q565.9063,339.5781 565.2813,339.5781 Q563.9375,339.5781 563.25,340.6484 Q562.5625,341.7188 562.5625,343.8125 Q562.5625,345.9063 563.25,346.9766 Q563.9375,348.0469 565.2813,348.0469 Q565.9063,348.0469 566.5,347.7734 Q567.0938,347.5 567.7188,346.9219 L567.7188,349.6406 Z "/><text fill="#000000" font-family="sans-serif" font-size="12" lengthAdjust="spacingAndGlyphs" textLength="52" x="585.25" y="348.1543">Platform</text><line style="stroke: #A80036; stroke-width: 1.5;" x1="443.5" x2="746.5" y1="360" y2="360"/><rect fill="none" height="6" style="stroke: #C82930; stroke-width: 1.0;" width="6" x="450.5" y="368"/><text fill="#000000" font-family="sans-serif" font-size="11" lengthAdjust="spacingAndGlyphs" textLength="104" x="462.5" y="374.2104">String designation</text><line style="stroke: #A80036; stroke-width: 1.5;" x1="443.5" x2="746.5" y1="380.8047" y2="380.8047"/><ellipse cx="453.5" cy="391.8047" fill="#84BE84" rx="3" ry="3" style="stroke: #038048; stroke-width: 1.0;"/><text fill="#000000" font-family="sans-serif" font-size="11" lengthAdjust="spacingAndGlyphs" textLength="279" x="462.5" y="395.0151">RegistrYOrganizations getRegistryOrganizations()</text><ellipse cx="453.5" cy="404.6094" fill="#84BE84" rx="3" ry="3" style="stroke: #038048; stroke-width: 1.0;"/><text fill="#000000" font-family="sans-serif" font-size="11" lengthAdjust="spacingAndGlyphs" textLength="256" x="462.5" y="407.8198">RegistryFreelancers getRegistryFreelancers()</text><!--MD5=[33715664216438c299d64633eb1ff89b]
class RegistryOrganizations--><rect fill="#FEFECE" filter="url(#fxcmcyl9eh29h)" height="60.8047" id="RegistryOrganizations" style="stroke: #A80036; stroke-width: 1.5;" width="339" x="175.5" y="491"/><ellipse cx="273.25" cy="507" fill="#ADD1B2" rx="11" ry="11" style="stroke: #A80036; stroke-width: 1.0;"/><path d="M276.2188,512.6406 Q275.6406,512.9375 275,513.0859 Q274.3594,513.2344 273.6563,513.2344 Q271.1563,513.2344 269.8359,511.5859 Q268.5156,509.9375 268.5156,506.8125 Q268.5156,503.6875 269.8359,502.0313 Q271.1563,500.375 273.6563,500.375 Q274.3594,500.375 275.0078,500.5313 Q275.6563,500.6875 276.2188,500.9844 L276.2188,503.7031 Q275.5938,503.125 275,502.8516 Q274.4063,502.5781 273.7813,502.5781 Q272.4375,502.5781 271.75,503.6484 Q271.0625,504.7188 271.0625,506.8125 Q271.0625,508.9063 271.75,509.9766 Q272.4375,511.0469 273.7813,511.0469 Q274.4063,511.0469 275,510.7734 Q275.5938,510.5 276.2188,509.9219 L276.2188,512.6406 Z "/><text fill="#000000" font-family="sans-serif" font-size="12" lengthAdjust="spacingAndGlyphs" textLength="135" x="293.75" y="511.1543">RegistryOrganizations</text><line style="stroke: #A80036; stroke-width: 1.5;" x1="176.5" x2="513.5" y1="523" y2="523"/><line style="stroke: #A80036; stroke-width: 1.5;" x1="176.5" x2="513.5" y1="531" y2="531"/><ellipse cx="186.5" cy="542" fill="#84BE84" rx="3" ry="3" style="stroke: #038048; stroke-width: 1.0;"/><text fill="#000000" font-family="sans-serif" font-size="11" lengthAdjust="spacingAndGlyphs" textLength="313" x="195.5" y="545.2104">Organization getOrganizationByUserEmail(String email)</text><!--MD5=[86c7c362de55a38b660185a1328fe18d]
class Organization--><rect fill="#FEFECE" filter="url(#fxcmcyl9eh29h)" height="99.2188" id="Organization" style="stroke: #A80036; stroke-width: 1.5;" width="164" x="263" y="629"/><ellipse cx="302.3" cy="645" fill="#ADD1B2" rx="11" ry="11" style="stroke: #A80036; stroke-width: 1.0;"/><path d="M305.2688,650.6406 Q304.6906,650.9375 304.05,651.0859 Q303.4094,651.2344 302.7063,651.2344 Q300.2063,651.2344 298.8859,649.5859 Q297.5656,647.9375 297.5656,644.8125 Q297.5656,641.6875 298.8859,640.0313 Q300.2063,638.375 302.7063,638.375 Q303.4094,638.375 304.0578,638.5313 Q304.7063,638.6875 305.2688,638.9844 L305.2688,641.7031 Q304.6438,641.125 304.05,640.8516 Q303.4563,640.5781 302.8313,640.5781 Q301.4875,640.5781 300.8,641.6484 Q300.1125,642.7188 300.1125,644.8125 Q300.1125,646.9063 300.8,647.9766 Q301.4875,649.0469 302.8313,649.0469 Q303.4563,649.0469 304.05,648.7734 Q304.6438,648.5 305.2688,647.9219 L305.2688,650.6406 Z "/><text fill="#000000" font-family="sans-serif" font-size="12" lengthAdjust="spacingAndGlyphs" textLength="78" x="321.7" y="649.1543">Organization</text><line style="stroke: #A80036; stroke-width: 1.5;" x1="264" x2="426" y1="661" y2="661"/><rect fill="none" height="6" style="stroke: #C82930; stroke-width: 1.0;" width="6" x="271" y="669"/><text fill="#000000" font-family="sans-serif" font-size="11" lengthAdjust="spacingAndGlyphs" textLength="70" x="283" y="675.2104">String name</text><rect fill="none" height="6" style="stroke: #C82930; stroke-width: 1.0;" width="6" x="271" y="681.8047"/><text fill="#000000" font-family="sans-serif" font-size="11" lengthAdjust="spacingAndGlyphs" textLength="52" x="283" y="688.0151">String nif</text><rect fill="none" height="6" style="stroke: #C82930; stroke-width: 1.0;" width="6" x="271" y="694.6094"/><text fill="#000000" font-family="sans-serif" font-size="11" lengthAdjust="spacingAndGlyphs" textLength="97" x="283" y="700.8198">Date payDayDate</text><line style="stroke: #A80036; stroke-width: 1.5;" x1="264" x2="426" y1="707.4141" y2="707.4141"/><ellipse cx="274" cy="718.4141" fill="#84BE84" rx="3" ry="3" style="stroke: #038048; stroke-width: 1.0;"/><text fill="#000000" font-family="sans-serif" font-size="11" lengthAdjust="spacingAndGlyphs" textLength="138" x="283" y="721.6245">ListTasks getListTasks()</text><!--MD5=[5fcee7f3f291bb175eedf2ea72bc23fc]
class ListTasks--><rect fill="#FEFECE" filter="url(#fxcmcyl9eh29h)" height="60.8047" id="ListTasks" style="stroke: #A80036; stroke-width: 1.5;" width="241" x="180.5" y="985"/><ellipse cx="268.25" cy="1001" fill="#ADD1B2" rx="11" ry="11" style="stroke: #A80036; stroke-width: 1.0;"/><path d="M271.2188,1006.6406 Q270.6406,1006.9375 270,1007.0859 Q269.3594,1007.2344 268.6563,1007.2344 Q266.1563,1007.2344 264.8359,1005.5859 Q263.5156,1003.9375 263.5156,1000.8125 Q263.5156,997.6875 264.8359,996.0313 Q266.1563,994.375 268.6563,994.375 Q269.3594,994.375 270.0078,994.5313 Q270.6563,994.6875 271.2188,994.9844 L271.2188,997.7031 Q270.5938,997.125 270,996.8516 Q269.4063,996.5781 268.7813,996.5781 Q267.4375,996.5781 266.75,997.6484 Q266.0625,998.7188 266.0625,1000.8125 Q266.0625,1002.9063 266.75,1003.9766 Q267.4375,1005.0469 268.7813,1005.0469 Q269.4063,1005.0469 270,1004.7734 Q270.5938,1004.5 271.2188,1003.9219 L271.2188,1006.6406 Z "/><text fill="#000000" font-family="sans-serif" font-size="12" lengthAdjust="spacingAndGlyphs" textLength="57" x="288.75" y="1005.1543">ListTasks</text><line style="stroke: #A80036; stroke-width: 1.5;" x1="181.5" x2="420.5" y1="1017" y2="1017"/><line style="stroke: #A80036; stroke-width: 1.5;" x1="181.5" x2="420.5" y1="1025" y2="1025"/><ellipse cx="191.5" cy="1036" fill="#84BE84" rx="3" ry="3" style="stroke: #038048; stroke-width: 1.0;"/><text fill="#000000" font-family="sans-serif" font-size="11" lengthAdjust="spacingAndGlyphs" textLength="215" x="200.5" y="1039.2104">boolean existsTaskByID(String taskId)</text><!--MD5=[978a975de38da8c3ea831d1914ac7312]
class RegistryFreelancers--><rect fill="#FEFECE" filter="url(#fxcmcyl9eh29h)" height="60.8047" id="RegistryFreelancers" style="stroke: #A80036; stroke-width: 1.5;" width="308" x="550" y="491"/><ellipse cx="637.75" cy="507" fill="#ADD1B2" rx="11" ry="11" style="stroke: #A80036; stroke-width: 1.0;"/><path d="M640.7188,512.6406 Q640.1406,512.9375 639.5,513.0859 Q638.8594,513.2344 638.1563,513.2344 Q635.6563,513.2344 634.3359,511.5859 Q633.0156,509.9375 633.0156,506.8125 Q633.0156,503.6875 634.3359,502.0313 Q635.6563,500.375 638.1563,500.375 Q638.8594,500.375 639.5078,500.5313 Q640.1563,500.6875 640.7188,500.9844 L640.7188,503.7031 Q640.0938,503.125 639.5,502.8516 Q638.9063,502.5781 638.2813,502.5781 Q636.9375,502.5781 636.25,503.6484 Q635.5625,504.7188 635.5625,506.8125 Q635.5625,508.9063 636.25,509.9766 Q636.9375,511.0469 638.2813,511.0469 Q638.9063,511.0469 639.5,510.7734 Q640.0938,510.5 640.7188,509.9219 L640.7188,512.6406 Z "/><text fill="#000000" font-family="sans-serif" font-size="12" lengthAdjust="spacingAndGlyphs" textLength="124" x="658.25" y="511.1543">RegistryFreelancers</text><line style="stroke: #A80036; stroke-width: 1.5;" x1="551" x2="857" y1="523" y2="523"/><line style="stroke: #A80036; stroke-width: 1.5;" x1="551" x2="857" y1="531" y2="531"/><ellipse cx="561" cy="542" fill="#84BE84" rx="3" ry="3" style="stroke: #038048; stroke-width: 1.0;"/><text fill="#000000" font-family="sans-serif" font-size="11" lengthAdjust="spacingAndGlyphs" textLength="282" x="570" y="545.2104">boolean existsFreelancerByID(String freelancerId)</text><!--MD5=[587ce92a074ce7913f038873c96800e7]
class ListTransactions--><rect fill="#FEFECE" filter="url(#fxcmcyl9eh29h)" height="150.4375" id="ListTransactions" style="stroke: #A80036; stroke-width: 1.5;" width="562" x="361" y="805"/><ellipse cx="586.75" cy="821" fill="#ADD1B2" rx="11" ry="11" style="stroke: #A80036; stroke-width: 1.0;"/><path d="M589.7188,826.6406 Q589.1406,826.9375 588.5,827.0859 Q587.8594,827.2344 587.1563,827.2344 Q584.6563,827.2344 583.3359,825.5859 Q582.0156,823.9375 582.0156,820.8125 Q582.0156,817.6875 583.3359,816.0313 Q584.6563,814.375 587.1563,814.375 Q587.8594,814.375 588.5078,814.5313 Q589.1563,814.6875 589.7188,814.9844 L589.7188,817.7031 Q589.0938,817.125 588.5,816.8516 Q587.9063,816.5781 587.2813,816.5781 Q585.9375,816.5781 585.25,817.6484 Q584.5625,818.7188 584.5625,820.8125 Q584.5625,822.9063 585.25,823.9766 Q585.9375,825.0469 587.2813,825.0469 Q587.9063,825.0469 588.5,824.7734 Q589.0938,824.5 589.7188,823.9219 L589.7188,826.6406 Z "/><text fill="#000000" font-family="sans-serif" font-size="12" lengthAdjust="spacingAndGlyphs" textLength="102" x="607.25" y="825.1543">ListTransactions</text><line style="stroke: #A80036; stroke-width: 1.5;" x1="362" x2="922" y1="837" y2="837"/><line style="stroke: #A80036; stroke-width: 1.5;" x1="362" x2="922" y1="845" y2="845"/><ellipse cx="372" cy="856" fill="#84BE84" rx="3" ry="3" style="stroke: #038048; stroke-width: 1.0;"/><text fill="#000000" font-family="sans-serif" font-size="11" lengthAdjust="spacingAndGlyphs" textLength="461" x="381" y="859.2104">Transaction newTransaction(String transId, String taskId, String taskDescription,</text><text fill="#000000" font-family="sans-serif" font-size="11" lengthAdjust="spacingAndGlyphs" textLength="413" x="381" y="872.0151">int taskAssignedDuration, double taskCostPerHour, String taskCategory,</text><text fill="#000000" font-family="sans-serif" font-size="11" lengthAdjust="spacingAndGlyphs" textLength="532" x="385" y="884.8198">Date executionFinishDate, double delay, String executionBriefDescription, String freelancerId,</text><text fill="#000000" font-family="sans-serif" font-size="11" lengthAdjust="spacingAndGlyphs" textLength="425" x="381" y="897.6245">String freelancerName, String freelancerExpertise, String freelancerEmail,</text><text fill="#000000" font-family="sans-serif" font-size="11" lengthAdjust="spacingAndGlyphs" textLength="406" x="381" y="910.4292">String freelancerNIF, String freelancerBankAccount, String streetName,</text><text fill="#000000" font-family="sans-serif" font-size="11" lengthAdjust="spacingAndGlyphs" textLength="266" x="381" y="923.2339">String doorNumber, String city, String country)</text><ellipse cx="372" cy="932.8281" fill="#84BE84" rx="3" ry="3" style="stroke: #038048; stroke-width: 1.0;"/><text fill="#000000" font-family="sans-serif" font-size="11" lengthAdjust="spacingAndGlyphs" textLength="303" x="381" y="936.0386">boolean validateTransaction(Transaction transaction)</text><ellipse cx="372" cy="945.6328" fill="#84BE84" rx="3" ry="3" style="stroke: #038048; stroke-width: 1.0;"/><text fill="#000000" font-family="sans-serif" font-size="11" lengthAdjust="spacingAndGlyphs" textLength="280" x="381" y="948.8433">boolean addTransaction(Transaction transaction)</text><!--MD5=[4555bb1b0911a5adf28ce6dbe60fed2e]
class Transaction--><rect fill="#FEFECE" filter="url(#fxcmcyl9eh29h)" height="163.2422" id="Transaction" style="stroke: #A80036; stroke-width: 1.5;" width="562" x="364" y="1076"/><ellipse cx="603.75" cy="1092" fill="#ADD1B2" rx="11" ry="11" style="stroke: #A80036; stroke-width: 1.0;"/><path d="M606.7188,1097.6406 Q606.1406,1097.9375 605.5,1098.0859 Q604.8594,1098.2344 604.1563,1098.2344 Q601.6563,1098.2344 600.3359,1096.5859 Q599.0156,1094.9375 599.0156,1091.8125 Q599.0156,1088.6875 600.3359,1087.0313 Q601.6563,1085.375 604.1563,1085.375 Q604.8594,1085.375 605.5078,1085.5313 Q606.1563,1085.6875 606.7188,1085.9844 L606.7188,1088.7031 Q606.0938,1088.125 605.5,1087.8516 Q604.9063,1087.5781 604.2813,1087.5781 Q602.9375,1087.5781 602.25,1088.6484 Q601.5625,1089.7188 601.5625,1091.8125 Q601.5625,1093.9063 602.25,1094.9766 Q602.9375,1096.0469 604.2813,1096.0469 Q604.9063,1096.0469 605.5,1095.7734 Q606.0938,1095.5 606.7188,1094.9219 L606.7188,1097.6406 Z "/><text fill="#000000" font-family="sans-serif" font-size="12" lengthAdjust="spacingAndGlyphs" textLength="74" x="624.25" y="1096.1543">Transaction</text><line style="stroke: #A80036; stroke-width: 1.5;" x1="365" x2="925" y1="1108" y2="1108"/><rect fill="none" height="6" style="stroke: #C82930; stroke-width: 1.0;" width="6" x="372" y="1116"/><text fill="#000000" font-family="sans-serif" font-size="11" lengthAdjust="spacingAndGlyphs" textLength="79" x="384" y="1122.2104">String transID</text><line style="stroke: #A80036; stroke-width: 1.5;" x1="365" x2="925" y1="1128.8047" y2="1128.8047"/><ellipse cx="375" cy="1139.8047" fill="#84BE84" rx="3" ry="3" style="stroke: #038048; stroke-width: 1.0;"/><text fill="#000000" font-family="sans-serif" font-size="11" lengthAdjust="spacingAndGlyphs" textLength="407" x="384" y="1143.0151">Transaction create(String transId, String taskId, String taskDescription,</text><text fill="#000000" font-family="sans-serif" font-size="11" lengthAdjust="spacingAndGlyphs" textLength="413" x="384" y="1155.8198">int taskAssignedDuration, double taskCostPerHour, String taskCategory,</text><text fill="#000000" font-family="sans-serif" font-size="11" lengthAdjust="spacingAndGlyphs" textLength="532" x="388" y="1168.6245">Date executionFinishDate, double delay, String executionBriefDescription, String freelancerId,</text><text fill="#000000" font-family="sans-serif" font-size="11" lengthAdjust="spacingAndGlyphs" textLength="425" x="384" y="1181.4292">String freelancerName, String freelancerExpertise, String freelancerEmail,</text><text fill="#000000" font-family="sans-serif" font-size="11" lengthAdjust="spacingAndGlyphs" textLength="406" x="384" y="1194.2339">String freelancerNIF, String freelancerBankAccount, String streetName,</text><text fill="#000000" font-family="sans-serif" font-size="11" lengthAdjust="spacingAndGlyphs" textLength="266" x="384" y="1207.0386">String doorNumber, String city, String country)</text><ellipse cx="375" cy="1216.6328" fill="#84BE84" rx="3" ry="3" style="stroke: #038048; stroke-width: 1.0;"/><text fill="#000000" font-family="sans-serif" font-size="11" lengthAdjust="spacingAndGlyphs" textLength="142" x="384" y="1219.8433">double computeAmount()</text><ellipse cx="375" cy="1229.4375" fill="#84BE84" rx="3" ry="3" style="stroke: #038048; stroke-width: 1.0;"/><text fill="#000000" font-family="sans-serif" font-size="11" lengthAdjust="spacingAndGlyphs" textLength="516" x="384" y="1232.6479">Execution create(Date executionFinishDate, double delay, String executionBriefDescription)</text><!--MD5=[b34797a66dc35cbf1d65f7e3ca75530e]
class Task--><rect fill="#FEFECE" filter="url(#fxcmcyl9eh29h)" height="112.0234" id="Task" style="stroke: #A80036; stroke-width: 1.5;" width="165" x="293.5" y="1335"/><ellipse cx="357.25" cy="1351" fill="#ADD1B2" rx="11" ry="11" style="stroke: #A80036; stroke-width: 1.0;"/><path d="M360.2188,1356.6406 Q359.6406,1356.9375 359,1357.0859 Q358.3594,1357.2344 357.6563,1357.2344 Q355.1563,1357.2344 353.8359,1355.5859 Q352.5156,1353.9375 352.5156,1350.8125 Q352.5156,1347.6875 353.8359,1346.0313 Q355.1563,1344.375 357.6563,1344.375 Q358.3594,1344.375 359.0078,1344.5313 Q359.6563,1344.6875 360.2188,1344.9844 L360.2188,1347.7031 Q359.5938,1347.125 359,1346.8516 Q358.4063,1346.5781 357.7813,1346.5781 Q356.4375,1346.5781 355.75,1347.6484 Q355.0625,1348.7188 355.0625,1350.8125 Q355.0625,1352.9063 355.75,1353.9766 Q356.4375,1355.0469 357.7813,1355.0469 Q358.4063,1355.0469 359,1354.7734 Q359.5938,1354.5 360.2188,1353.9219 L360.2188,1356.6406 Z "/><text fill="#000000" font-family="sans-serif" font-size="12" lengthAdjust="spacingAndGlyphs" textLength="29" x="377.75" y="1355.1543">Task</text><line style="stroke: #A80036; stroke-width: 1.5;" x1="294.5" x2="457.5" y1="1367" y2="1367"/><rect fill="none" height="6" style="stroke: #C82930; stroke-width: 1.0;" width="6" x="301.5" y="1375"/><text fill="#000000" font-family="sans-serif" font-size="11" lengthAdjust="spacingAndGlyphs" textLength="73" x="313.5" y="1381.2104">String taskID</text><rect fill="none" height="6" style="stroke: #C82930; stroke-width: 1.0;" width="6" x="301.5" y="1387.8047"/><text fill="#000000" font-family="sans-serif" font-size="11" lengthAdjust="spacingAndGlyphs" textLength="126" x="313.5" y="1394.0151">String taskDescription</text><rect fill="none" height="6" style="stroke: #C82930; stroke-width: 1.0;" width="6" x="301.5" y="1400.6094"/><text fill="#000000" font-family="sans-serif" font-size="11" lengthAdjust="spacingAndGlyphs" textLength="138" x="313.5" y="1406.8198">Time taskDurationHours</text><rect fill="none" height="6" style="stroke: #C82930; stroke-width: 1.0;" width="6" x="301.5" y="1413.4141"/><text fill="#000000" font-family="sans-serif" font-size="11" lengthAdjust="spacingAndGlyphs" textLength="139" x="313.5" y="1419.6245">Double taskCostPerHour</text><rect fill="none" height="6" style="stroke: #C82930; stroke-width: 1.0;" width="6" x="301.5" y="1426.2188"/><text fill="#000000" font-family="sans-serif" font-size="11" lengthAdjust="spacingAndGlyphs" textLength="113" x="313.5" y="1432.4292">String taskCategory</text><line style="stroke: #A80036; stroke-width: 1.5;" x1="294.5" x2="457.5" y1="1439.0234" y2="1439.0234"/><!--MD5=[1f687b5315377fe49fca59b457947463]
class Freelancer--><rect fill="#FEFECE" filter="url(#fxcmcyl9eh29h)" height="150.4375" id="Freelancer" style="stroke: #A80036; stroke-width: 1.5;" width="133" x="578.5" y="1316"/><ellipse cx="608.8" cy="1332" fill="#ADD1B2" rx="11" ry="11" style="stroke: #A80036; stroke-width: 1.0;"/><path d="M611.7688,1337.6406 Q611.1906,1337.9375 610.55,1338.0859 Q609.9094,1338.2344 609.2063,1338.2344 Q606.7063,1338.2344 605.3859,1336.5859 Q604.0656,1334.9375 604.0656,1331.8125 Q604.0656,1328.6875 605.3859,1327.0313 Q606.7063,1325.375 609.2063,1325.375 Q609.9094,1325.375 610.5578,1325.5313 Q611.2063,1325.6875 611.7688,1325.9844 L611.7688,1328.7031 Q611.1438,1328.125 610.55,1327.8516 Q609.9563,1327.5781 609.3313,1327.5781 Q607.9875,1327.5781 607.3,1328.6484 Q606.6125,1329.7188 606.6125,1331.8125 Q606.6125,1333.9063 607.3,1334.9766 Q607.9875,1336.0469 609.3313,1336.0469 Q609.9563,1336.0469 610.55,1335.7734 Q611.1438,1335.5 611.7688,1334.9219 L611.7688,1337.6406 Z "/><text fill="#000000" font-family="sans-serif" font-size="12" lengthAdjust="spacingAndGlyphs" textLength="67" x="626.2" y="1336.1543">Freelancer</text><line style="stroke: #A80036; stroke-width: 1.5;" x1="579.5" x2="710.5" y1="1348" y2="1348"/><rect fill="none" height="6" style="stroke: #C82930; stroke-width: 1.0;" width="6" x="586.5" y="1356"/><text fill="#000000" font-family="sans-serif" font-size="11" lengthAdjust="spacingAndGlyphs" textLength="107" x="598.5" y="1362.2104">String freelancerID</text><rect fill="none" height="6" style="stroke: #C82930; stroke-width: 1.0;" width="6" x="586.5" y="1368.8047"/><text fill="#000000" font-family="sans-serif" font-size="11" lengthAdjust="spacingAndGlyphs" textLength="70" x="598.5" y="1375.0151">String name</text><rect fill="none" height="6" style="stroke: #C82930; stroke-width: 1.0;" width="6" x="586.5" y="1381.6094"/><text fill="#000000" font-family="sans-serif" font-size="11" lengthAdjust="spacingAndGlyphs" textLength="91" x="598.5" y="1387.8198">String expertise</text><rect fill="none" height="6" style="stroke: #C82930; stroke-width: 1.0;" width="6" x="586.5" y="1394.4141"/><text fill="#000000" font-family="sans-serif" font-size="11" lengthAdjust="spacingAndGlyphs" textLength="69" x="598.5" y="1400.6245">String email</text><rect fill="none" height="6" style="stroke: #C82930; stroke-width: 1.0;" width="6" x="586.5" y="1407.2188"/><text fill="#000000" font-family="sans-serif" font-size="11" lengthAdjust="spacingAndGlyphs" textLength="52" x="598.5" y="1413.4292">String nif</text><rect fill="none" height="6" style="stroke: #C82930; stroke-width: 1.0;" width="6" x="586.5" y="1420.0234"/><text fill="#000000" font-family="sans-serif" font-size="11" lengthAdjust="spacingAndGlyphs" textLength="62" x="598.5" y="1426.2339">String iban</text><rect fill="none" height="6" style="stroke: #C82930; stroke-width: 1.0;" width="6" x="586.5" y="1432.8281"/><text fill="#000000" font-family="sans-serif" font-size="11" lengthAdjust="spacingAndGlyphs" textLength="85" x="598.5" y="1439.0386">String address</text><rect fill="none" height="6" style="stroke: #C82930; stroke-width: 1.0;" width="6" x="586.5" y="1445.6328"/><text fill="#000000" font-family="sans-serif" font-size="11" lengthAdjust="spacingAndGlyphs" textLength="77" x="598.5" y="1451.8433">Strinf country</text><line style="stroke: #A80036; stroke-width: 1.5;" x1="579.5" x2="710.5" y1="1458.4375" y2="1458.4375"/><!--MD5=[790bf473908c07d169e6b512040948bf]
link RegisterPaymentTransactionUI to RegisterPaymentTransactionController--><path d="M333,56.3006 C333,71.2905 333,91.46 333,111.6585 " fill="none" id="RegisterPaymentTransactionUI-&gt;RegisterPaymentTransactionController" style="stroke: #A80036; stroke-width: 1.0; stroke-dasharray: 7.0,7.0;"/><polygon fill="#A80036" points="333,116.7912,337,107.7912,333,111.7912,329,107.7912,333,116.7912" style="stroke: #A80036; stroke-width: 1.0;"/><!--MD5=[53b9933160e28dab46e5639d4538fc79]
link RegisterPaymentTransactionController to ApplicationPOT--><path d="M241.4959,267.1341 C214.9504,288.9306 186.9833,311.8944 164.1155,330.6712 " fill="none" id="RegisterPaymentTransactionController-&gt;ApplicationPOT" style="stroke: #A80036; stroke-width: 1.0; stroke-dasharray: 7.0,7.0;"/><polygon fill="#A80036" points="160.1992,333.8869,169.6932,331.267,164.0634,330.7139,164.6165,325.0842,160.1992,333.8869" style="stroke: #A80036; stroke-width: 1.0;"/><!--MD5=[be9b3cbb4e6a8051e7de109f8d386984]
link RegisterPaymentTransactionController to UserSession--><path d="M333,267.1341 C333,290.5713 333,315.3581 333,334.8378 " fill="none" id="RegisterPaymentTransactionController-&gt;UserSession" style="stroke: #A80036; stroke-width: 1.0; stroke-dasharray: 7.0,7.0;"/><polygon fill="#A80036" points="333,340.1858,337,331.1858,333,335.1858,329,331.1858,333,340.1858" style="stroke: #A80036; stroke-width: 1.0;"/><!--MD5=[4bb7b2a429b460087a276ec8292c2e32]
link RegisterPaymentTransactionController to Platform--><path d="M442.9728,267.1341 C471.699,286.76 501.8104,307.3323 527.5859,324.9423 " fill="none" id="RegisterPaymentTransactionController-&gt;Platform" style="stroke: #A80036; stroke-width: 1.0; stroke-dasharray: 7.0,7.0;"/><polygon fill="#A80036" points="532.0147,327.968,526.8398,319.5882,527.8862,325.1475,522.327,326.1939,532.0147,327.968" style="stroke: #A80036; stroke-width: 1.0;"/><!--MD5=[d7e6b8c0ccf00764186b54e4e31b9fc3]
link Platform to RegistryOrganizations--><path d="M523.36,414.1273 C482.6713,438.6219 432.6965,468.7067 396.0081,490.7931 " fill="none" id="Platform-RegistryOrganizations" style="stroke: #A80036; stroke-width: 1.0;"/><polygon fill="#000000" points="478,451.0664,472,454.0664,478,457.0664,478,451.0664" style="stroke: #000000; stroke-width: 1.0;"/><text fill="#000000" font-family="sans-serif" font-size="13" lengthAdjust="spacingAndGlyphs" textLength="23" x="484" y="457.0669">has</text><text fill="#000000" font-family="sans-serif" font-size="13" lengthAdjust="spacingAndGlyphs" textLength="8" x="502.8321" y="434.5561">1</text><text fill="#000000" font-family="sans-serif" font-size="13" lengthAdjust="spacingAndGlyphs" textLength="8" x="397.7035" y="480.0137">1</text><!--MD5=[02bb9ce2210e261d6550aa31ee7fd776]
link Organization to ListTransactions--><path d="M418.0348,728.0505 C452.1283,751.1813 493.4497,779.2159 531.27,804.8751 " fill="none" id="Organization-ListTransactions" style="stroke: #A80036; stroke-width: 1.0;"/><text fill="#000000" font-family="sans-serif" font-size="13" lengthAdjust="spacingAndGlyphs" textLength="23" x="486" y="771.0669">has</text><polygon fill="#000000" points="512,765.0664,518,768.0664,512,771.0664,512,765.0664" style="stroke: #000000; stroke-width: 1.0;"/><text fill="#000000" font-family="sans-serif" font-size="13" lengthAdjust="spacingAndGlyphs" textLength="8" x="419.7428" y="748.1341">1</text><text fill="#000000" font-family="sans-serif" font-size="13" lengthAdjust="spacingAndGlyphs" textLength="8" x="512.3348" y="794.0523">1</text><!--MD5=[4f878dd892a20705c739bf9da60c4694]
link Platform to RegistryFreelancers--><path d="M626.235,414.1273 C643.9753,438.6219 665.7643,468.7067 681.7605,490.7931 " fill="none" id="Platform-RegistryFreelancers" style="stroke: #A80036; stroke-width: 1.0;"/><text fill="#000000" font-family="sans-serif" font-size="13" lengthAdjust="spacingAndGlyphs" textLength="23" x="661" y="457.0669">has</text><polygon fill="#000000" points="668,466.1328,671,472.1328,674,466.1328,668,466.1328" style="stroke: #000000; stroke-width: 1.0;"/><text fill="#000000" font-family="sans-serif" font-size="13" lengthAdjust="spacingAndGlyphs" textLength="8" x="622.7458" y="434.5561">1</text><text fill="#000000" font-family="sans-serif" font-size="13" lengthAdjust="spacingAndGlyphs" textLength="8" x="668.3486" y="480.0137">1</text><!--MD5=[bc7c47ae1c4406ef2290619baa1d80b6]
link ListTransactions to Transaction--><path d="M642.8118,955.0955 C643.2144,992.3346 643.7014,1037.3839 644.1137,1075.5194 " fill="none" id="ListTransactions-Transaction" style="stroke: #A80036; stroke-width: 1.0;"/><text fill="#000000" font-family="sans-serif" font-size="13" lengthAdjust="spacingAndGlyphs" textLength="23" x="645" y="1020.0669">has</text><polygon fill="#000000" points="652,1029.1328,655,1035.1328,658,1029.1328,652,1029.1328" style="stroke: #000000; stroke-width: 1.0;"/><text fill="#000000" font-family="sans-serif" font-size="13" lengthAdjust="spacingAndGlyphs" textLength="8" x="634.483" y="975.6643">1</text><text fill="#000000" font-family="sans-serif" font-size="13" lengthAdjust="spacingAndGlyphs" textLength="7" x="636.7368" y="1064.8919">*</text><!--MD5=[4444e3f7d3a256ce06ca5b39bcbcc4ba]
link RegistryOrganizations to Organization--><path d="M345,552.1439 C345,573.918 345,603.6356 345,628.7804 " fill="none" id="RegistryOrganizations-Organization" style="stroke: #A80036; stroke-width: 1.0;"/><text fill="#000000" font-family="sans-serif" font-size="13" lengthAdjust="spacingAndGlyphs" textLength="23" x="346" y="595.0669">has</text><polygon fill="#000000" points="353,604.1328,356,610.1328,359,604.1328,353,604.1328" style="stroke: #000000; stroke-width: 1.0;"/><text fill="#000000" font-family="sans-serif" font-size="13" lengthAdjust="spacingAndGlyphs" textLength="8" x="336.2125" y="571.7527">1</text><text fill="#000000" font-family="sans-serif" font-size="13" lengthAdjust="spacingAndGlyphs" textLength="7" x="337.5078" y="617.7947">*</text><!--MD5=[5c7004354ac93151ef18ab3264a40448]
link Organization to ListTasks--><path d="M338.5076,728.2255 C329.2803,798.8983 312.6477,926.2893 305.0201,984.7095 " fill="none" id="Organization-ListTasks" style="stroke: #A80036; stroke-width: 1.0;"/><text fill="#000000" font-family="sans-serif" font-size="13" lengthAdjust="spacingAndGlyphs" textLength="23" x="335" y="771.0669">has</text><polygon fill="#000000" points="342,780.1328,345,786.1328,348,780.1328,342,780.1328" style="stroke: #000000; stroke-width: 1.0;"/><text fill="#000000" font-family="sans-serif" font-size="13" lengthAdjust="spacingAndGlyphs" textLength="8" x="329.0321" y="748.3337">1</text><text fill="#000000" font-family="sans-serif" font-size="13" lengthAdjust="spacingAndGlyphs" textLength="8" x="297.0242" y="973.9128">1</text><!--MD5=[542f32193441b56ea302115ed1249c3b]
link Transaction to Freelancer--><path d="M645,1239.167 C645,1264.0229 645,1291.2177 645,1315.6376 " fill="none" id="Transaction-Freelancer" style="stroke: #A80036; stroke-width: 1.0;"/><text fill="#000000" font-family="sans-serif" font-size="13" lengthAdjust="spacingAndGlyphs" textLength="141" x="646" y="1282.0669">has information about</text><polygon fill="#000000" points="712,1291.1328,715,1297.1328,718,1291.1328,712,1291.1328" style="stroke: #000000; stroke-width: 1.0;"/><text fill="#000000" font-family="sans-serif" font-size="13" lengthAdjust="spacingAndGlyphs" textLength="8" x="636.6438" y="1259.1705">1</text><text fill="#000000" font-family="sans-serif" font-size="13" lengthAdjust="spacingAndGlyphs" textLength="8" x="636.6313" y="1305.0516">1</text><!--MD5=[8e4873cec2cb3febaaa9495c716fc885]
link Transaction to Task--><path d="M550.9169,1239.167 C514.5551,1270.7301 473.8486,1306.0645 440.8602,1334.6994 " fill="none" id="Transaction-Task" style="stroke: #A80036; stroke-width: 1.0;"/><polygon fill="#000000" points="519,1276.0664,513,1279.0664,519,1282.0664,519,1276.0664" style="stroke: #000000; stroke-width: 1.0;"/><text fill="#000000" font-family="sans-serif" font-size="13" lengthAdjust="spacingAndGlyphs" textLength="55" x="525" y="1282.0669">specifies</text><text fill="#000000" font-family="sans-serif" font-size="13" lengthAdjust="spacingAndGlyphs" textLength="8" x="534.1814" y="1259.1705">1</text><text fill="#000000" font-family="sans-serif" font-size="13" lengthAdjust="spacingAndGlyphs" textLength="8" x="440.2775" y="1323.9973">1</text><!--MD5=[50730d577314823ce15082f9739f74fe]
link ListTasks to Task--><path d="M298.2413,1046.3462 C295.1806,1089.9087 292.5166,1171.6554 308,1239 C315.6112,1272.1047 330.5609,1306.8416 344.5092,1334.7384 " fill="none" id="ListTasks-Task" style="stroke: #A80036; stroke-width: 1.0;"/><text fill="#000000" font-family="sans-serif" font-size="13" lengthAdjust="spacingAndGlyphs" textLength="23" x="309" y="1162.0669">has</text><polygon fill="#000000" points="316,1171.1328,319,1177.1328,322,1171.1328,316,1171.1328" style="stroke: #000000; stroke-width: 1.0;"/><text fill="#000000" font-family="sans-serif" font-size="13" lengthAdjust="spacingAndGlyphs" textLength="8" x="288.9529" y="1065.7541">1</text><text fill="#000000" font-family="sans-serif" font-size="13" lengthAdjust="spacingAndGlyphs" textLength="7" x="333.2447" y="1324.041">*</text><!--MD5=[b5f967b160e3fdb13546fd1f00178170]
@startuml
class RegisterPaymentTransactionUI {
}

class RegisterPaymentTransactionController {
    +Transaction newTransaction(String transId, String taskId, String taskDescription,\nint taskAssignedDuration, double taskCostPerHour, String taskCategory,\n Date executionFinishDate, double delay, String executionBriefDescription, String freelancerId,\nString freelancerName, String freelancerExpertise, String freelancerEmail,\nString freelancerNIF, String freelancerBankAccount, String streetName, \nString doorNumber, String city, String country)
    +double computeAmount(double taskCostPerHour, int taskAssignedDuration,String freelancerExpertise)
    +boolean registerTransaction()
}

class ApplicationPOT{
    +ApplicationPOT getInstance()
    +UserSession getCurrentSession()
}

class UserSession{
    +String getEmailUser()
}

class Platform{
    -String designation
    +RegistrYOrganizations getRegistryOrganizations()
    +RegistryFreelancers getRegistryFreelancers()
}

class RegistryOrganizations{
    +Organization getOrganizationByUserEmail(String email)
}

class Organization{
    -String name
    -String nif
    -Date payDayDate
    +ListTasks getListTasks()
}

class ListTasks{
    +boolean existsTaskByID(String taskId)
}

class RegistryFreelancers{
    +boolean existsFreelancerByID(String freelancerId)
}

class ListTransactions{
    +Transaction newTransaction(String transId, String taskId, String taskDescription,\nint taskAssignedDuration, double taskCostPerHour, String taskCategory,\n Date executionFinishDate, double delay, String executionBriefDescription, String freelancerId,\nString freelancerName, String freelancerExpertise, String freelancerEmail,\nString freelancerNIF, String freelancerBankAccount, String streetName, \nString doorNumber, String city, String country)
    +boolean validateTransaction(Transaction transaction)
    +boolean addTransaction(Transaction transaction)
}

class Transaction{
    - String transID
    +Transaction create(String transId, String taskId, String taskDescription,\nint taskAssignedDuration, double taskCostPerHour, String taskCategory,\n Date executionFinishDate, double delay, String executionBriefDescription, String freelancerId,\nString freelancerName, String freelancerExpertise, String freelancerEmail,\nString freelancerNIF, String freelancerBankAccount, String streetName, \nString doorNumber, String city, String country)
    +double computeAmount()
    +Execution create(Date executionFinishDate, double delay, String executionBriefDescription)
}

class Task {
    - String taskID
    -String taskDescription
    -Time taskDurationHours
    -Double taskCostPerHour
    -String taskCategory
}

class Freelancer{
    - String freelancerID
    - String name
    - String expertise
    - String email
    - String nif
    - String iban
    - String address
    - Strinf country
}

RegisterPaymentTransactionUI ..> RegisterPaymentTransactionController
RegisterPaymentTransactionController ..> ApplicationPOT
RegisterPaymentTransactionController ..> UserSession
RegisterPaymentTransactionController ..> Platform
Platform "1" - - "1" RegistryOrganizations : has >
Organization "1" - - "1" ListTransactions : has >
Platform "1" - - "1" RegistryFreelancers : has >
ListTransactions "1" - - "*" Transaction : has >
RegistryOrganizations "1" - - "*" Organization : has >
Organization "1" - - "1" ListTasks : has >
Transaction "1" - - "1" Freelancer : has information about >
Transaction "1" - - "1" Task : specifies >
ListTasks "1" - - "*" Task : has >
@enduml

PlantUML version 1.2019.12(Sun Nov 03 10:24:54 UTC 2019)
(GPL source distribution)
Java Runtime: OpenJDK Runtime Environment
JVM: OpenJDK 64-Bit Server VM
Java Version: 1.8.0_232-heroku-b09
Operating System: Linux
Default Encoding: UTF-8
Language: en
Country: US
--></g></svg>