<?xml version="1.0" encoding="UTF-8" standalone="no"?><svg xmlns="http://www.w3.org/2000/svg" xmlns:xlink="http://www.w3.org/1999/xlink" contentScriptType="application/ecmascript" contentStyleType="text/css" height="1709px" preserveAspectRatio="none" style="width:653px;height:1709px;" version="1.1" viewBox="0 0 653 1709" width="653px" zoomAndPan="magnify"><defs><filter height="300%" id="f1xjzs39jx6441" width="300%" x="-1" y="-1"><feGaussianBlur result="blurOut" stdDeviation="2.0"/><feColorMatrix in="blurOut" result="blurOut2" type="matrix" values="0 0 0 0 0 0 0 0 0 0 0 0 0 0 0 0 0 0 .4 0"/><feOffset dx="4.0" dy="4.0" in="blurOut2" result="blurOut3"/><feBlend in="SourceGraphic" in2="blurOut3" mode="normal"/></filter></defs><g><!--MD5=[47e6087782439cd4575359be79833752]
class ShowOrganizationStatsUI--><rect fill="#FEFECE" filter="url(#f1xjzs39jx6441)" height="48" id="ShowOrganizationStatsUI" style="stroke: #A80036; stroke-width: 1.5;" width="183" x="269.6161" y="6"/><ellipse cx="284.6161" cy="22" fill="#ADD1B2" rx="11" ry="11" style="stroke: #A80036; stroke-width: 1.0;"/><path d="M286.9599,17.6719 C286.0224,17.2344 285.4286,17.0938 284.5536,17.0938 C281.9286,17.0938 279.9286,19.1719 279.9286,21.8906 L279.9286,23.0156 C279.9286,25.5938 282.038,27.4844 284.9286,27.4844 C286.1474,27.4844 287.3036,27.1875 288.0536,26.6406 C288.6318,26.2344 288.9599,25.7813 288.9599,25.3906 C288.9599,24.9375 288.5693,24.5469 288.1005,24.5469 C287.8818,24.5469 287.6786,24.625 287.4911,24.8125 C287.038,25.2969 287.038,25.2969 286.8505,25.3906 C286.4286,25.6563 285.7411,25.7813 284.9755,25.7813 C282.9286,25.7813 281.6318,24.6875 281.6318,22.9844 L281.6318,21.8906 C281.6318,20.1094 282.8818,18.7969 284.6161,18.7969 C285.1943,18.7969 285.8036,18.9531 286.2724,19.2031 C286.7568,19.4844 286.9286,19.7031 287.0224,20.1094 C287.0849,20.5156 287.1161,20.6406 287.2568,20.7656 C287.3974,20.9063 287.6318,21.0156 287.8505,21.0156 C288.1161,21.0156 288.3818,20.875 288.5536,20.6563 C288.663,20.5 288.6943,20.3125 288.6943,19.8906 L288.6943,18.4688 C288.6943,18.0313 288.6786,17.9063 288.5849,17.75 C288.4286,17.4844 288.1474,17.3438 287.8505,17.3438 C287.5536,17.3438 287.3505,17.4375 287.1318,17.75 L286.9599,17.6719 Z "/><text fill="#000000" font-family="sans-serif" font-size="12" lengthAdjust="spacingAndGlyphs" textLength="151" x="298.6161" y="26.1543">ShowOrganizationStatsUI</text><line style="stroke: #A80036; stroke-width: 1.5;" x1="270.6161" x2="451.6161" y1="38" y2="38"/><line style="stroke: #A80036; stroke-width: 1.5;" x1="270.6161" x2="451.6161" y1="46" y2="46"/><!--MD5=[90f6c62d4cc5fc2b15290b0dd1ba44a1]
class ShowOrganizationStatsController--><rect fill="#FEFECE" filter="url(#f1xjzs39jx6441)" height="137.6328" id="ShowOrganizationStatsController" style="stroke: #A80036; stroke-width: 1.5;" width="406" x="158.1161" y="115"/><ellipse cx="257.8661" cy="131" fill="#ADD1B2" rx="11" ry="11" style="stroke: #A80036; stroke-width: 1.0;"/><path d="M260.2099,126.6719 C259.2724,126.2344 258.6786,126.0938 257.8036,126.0938 C255.1786,126.0938 253.1786,128.1719 253.1786,130.8906 L253.1786,132.0156 C253.1786,134.5938 255.288,136.4844 258.1786,136.4844 C259.3974,136.4844 260.5536,136.1875 261.3036,135.6406 C261.8818,135.2344 262.2099,134.7813 262.2099,134.3906 C262.2099,133.9375 261.8193,133.5469 261.3505,133.5469 C261.1318,133.5469 260.9286,133.625 260.7411,133.8125 C260.288,134.2969 260.288,134.2969 260.1005,134.3906 C259.6786,134.6563 258.9911,134.7813 258.2255,134.7813 C256.1786,134.7813 254.8818,133.6875 254.8818,131.9844 L254.8818,130.8906 C254.8818,129.1094 256.1318,127.7969 257.8661,127.7969 C258.4443,127.7969 259.0536,127.9531 259.5224,128.2031 C260.0068,128.4844 260.1786,128.7031 260.2724,129.1094 C260.3349,129.5156 260.3661,129.6406 260.5068,129.7656 C260.6474,129.9063 260.8818,130.0156 261.1005,130.0156 C261.3661,130.0156 261.6318,129.875 261.8036,129.6563 C261.913,129.5 261.9443,129.3125 261.9443,128.8906 L261.9443,127.4688 C261.9443,127.0313 261.9286,126.9063 261.8349,126.75 C261.6786,126.4844 261.3974,126.3438 261.1005,126.3438 C260.8036,126.3438 260.6005,126.4375 260.3818,126.75 L260.2099,126.6719 Z "/><text fill="#000000" font-family="sans-serif" font-size="12" lengthAdjust="spacingAndGlyphs" textLength="198" x="278.3661" y="135.1543">ShowOrganizationStatsController</text><line style="stroke: #A80036; stroke-width: 1.5;" x1="159.1161" x2="563.1161" y1="147" y2="147"/><line style="stroke: #A80036; stroke-width: 1.5;" x1="159.1161" x2="563.1161" y1="155" y2="155"/><ellipse cx="169.1161" cy="166" fill="#84BE84" rx="3" ry="3" style="stroke: #038048; stroke-width: 1.0;"/><text fill="#000000" font-family="sans-serif" font-size="11" lengthAdjust="spacingAndGlyphs" textLength="233" x="178.1161" y="169.2104">RegistryOrganizarions getOrganizations()</text><ellipse cx="169.1161" cy="178.8047" fill="#84BE84" rx="3" ry="3" style="stroke: #038048; stroke-width: 1.0;"/><text fill="#000000" font-family="sans-serif" font-size="11" lengthAdjust="spacingAndGlyphs" textLength="293" x="178.1161" y="182.0151">TreeMap&lt;String, Double&gt; calculateMeanPayment()</text><ellipse cx="169.1161" cy="191.6094" fill="#84BE84" rx="3" ry="3" style="stroke: #038048; stroke-width: 1.0;"/><text fill="#000000" font-family="sans-serif" font-size="11" lengthAdjust="spacingAndGlyphs" textLength="317" x="178.1161" y="194.8198">TreeMap&lt;String, Double&gt; calculateDeviationPayment()</text><ellipse cx="169.1161" cy="204.4141" fill="#84BE84" rx="3" ry="3" style="stroke: #038048; stroke-width: 1.0;"/><text fill="#000000" font-family="sans-serif" font-size="11" lengthAdjust="spacingAndGlyphs" textLength="277" x="178.1161" y="207.6245">TreeMap&lt;String, Double&gt; calculateMeanDelay()</text><ellipse cx="169.1161" cy="217.2188" fill="#84BE84" rx="3" ry="3" style="stroke: #038048; stroke-width: 1.0;"/><text fill="#000000" font-family="sans-serif" font-size="11" lengthAdjust="spacingAndGlyphs" textLength="301" x="178.1161" y="220.4292">TreeMap&lt;String, Double&gt; calculateDeviationDelay()</text><ellipse cx="169.1161" cy="230.0234" fill="#84BE84" rx="3" ry="3" style="stroke: #038048; stroke-width: 1.0;"/><text fill="#000000" font-family="sans-serif" font-size="11" lengthAdjust="spacingAndGlyphs" textLength="380" x="178.1161" y="233.2339">TreeMap&lt;String, List&lt;Double&gt;&gt; determinePaymentOrganization()</text><ellipse cx="169.1161" cy="242.8281" fill="#84BE84" rx="3" ry="3" style="stroke: #038048; stroke-width: 1.0;"/><text fill="#000000" font-family="sans-serif" font-size="11" lengthAdjust="spacingAndGlyphs" textLength="364" x="178.1161" y="246.0386">TreeMap&lt;String, List&lt;Double&gt;&gt; determineDelayOrganization()</text><!--MD5=[99b8db98afdc2c8404e39242ef4c1e65]
class Platform--><rect fill="#FEFECE" filter="url(#f1xjzs39jx6441)" height="73.6094" id="Platform" style="stroke: #A80036; stroke-width: 1.5;" width="299" x="211.6161" y="314"/><ellipse cx="332.8661" cy="330" fill="#ADD1B2" rx="11" ry="11" style="stroke: #A80036; stroke-width: 1.0;"/><path d="M335.2099,325.6719 C334.2724,325.2344 333.6786,325.0938 332.8036,325.0938 C330.1786,325.0938 328.1786,327.1719 328.1786,329.8906 L328.1786,331.0156 C328.1786,333.5938 330.288,335.4844 333.1786,335.4844 C334.3974,335.4844 335.5536,335.1875 336.3036,334.6406 C336.8818,334.2344 337.2099,333.7813 337.2099,333.3906 C337.2099,332.9375 336.8193,332.5469 336.3505,332.5469 C336.1318,332.5469 335.9286,332.625 335.7411,332.8125 C335.288,333.2969 335.288,333.2969 335.1005,333.3906 C334.6786,333.6563 333.9911,333.7813 333.2255,333.7813 C331.1786,333.7813 329.8818,332.6875 329.8818,330.9844 L329.8818,329.8906 C329.8818,328.1094 331.1318,326.7969 332.8661,326.7969 C333.4443,326.7969 334.0536,326.9531 334.5224,327.2031 C335.0068,327.4844 335.1786,327.7031 335.2724,328.1094 C335.3349,328.5156 335.3661,328.6406 335.5068,328.7656 C335.6474,328.9063 335.8818,329.0156 336.1005,329.0156 C336.3661,329.0156 336.6318,328.875 336.8036,328.6563 C336.913,328.5 336.9443,328.3125 336.9443,327.8906 L336.9443,326.4688 C336.9443,326.0313 336.9286,325.9063 336.8349,325.75 C336.6786,325.4844 336.3974,325.3438 336.1005,325.3438 C335.8036,325.3438 335.6005,325.4375 335.3818,325.75 L335.2099,325.6719 Z "/><text fill="#000000" font-family="sans-serif" font-size="12" lengthAdjust="spacingAndGlyphs" textLength="48" x="353.3661" y="334.1543">Platform</text><line style="stroke: #A80036; stroke-width: 1.5;" x1="212.6161" x2="509.6161" y1="346" y2="346"/><rect fill="none" height="6" style="stroke: #C82930; stroke-width: 1.0;" width="6" x="219.6161" y="354"/><text fill="#000000" font-family="sans-serif" font-size="11" lengthAdjust="spacingAndGlyphs" textLength="70" x="231.6161" y="360.2104">String name</text><line style="stroke: #A80036; stroke-width: 1.5;" x1="212.6161" x2="509.6161" y1="366.8047" y2="366.8047"/><ellipse cx="222.6161" cy="377.8047" fill="#84BE84" rx="3" ry="3" style="stroke: #038048; stroke-width: 1.0;"/><text fill="#000000" font-family="sans-serif" font-size="11" lengthAdjust="spacingAndGlyphs" textLength="273" x="231.6161" y="381.0151">RegistryOrganization getRegistryOrganizations()</text><!--MD5=[33715664216438c299d64633eb1ff89b]
class RegistryOrganizations--><rect fill="#FEFECE" filter="url(#f1xjzs39jx6441)" height="60.8047" id="RegistryOrganizations" style="stroke: #A80036; stroke-width: 1.5;" width="260" x="231.1161" y="465"/><ellipse cx="290.8661" cy="481" fill="#ADD1B2" rx="11" ry="11" style="stroke: #A80036; stroke-width: 1.0;"/><path d="M293.2099,476.6719 C292.2724,476.2344 291.6786,476.0938 290.8036,476.0938 C288.1786,476.0938 286.1786,478.1719 286.1786,480.8906 L286.1786,482.0156 C286.1786,484.5938 288.288,486.4844 291.1786,486.4844 C292.3974,486.4844 293.5536,486.1875 294.3036,485.6406 C294.8818,485.2344 295.2099,484.7813 295.2099,484.3906 C295.2099,483.9375 294.8193,483.5469 294.3505,483.5469 C294.1318,483.5469 293.9286,483.625 293.7411,483.8125 C293.288,484.2969 293.288,484.2969 293.1005,484.3906 C292.6786,484.6563 291.9911,484.7813 291.2255,484.7813 C289.1786,484.7813 287.8818,483.6875 287.8818,481.9844 L287.8818,480.8906 C287.8818,479.1094 289.1318,477.7969 290.8661,477.7969 C291.4443,477.7969 292.0536,477.9531 292.5224,478.2031 C293.0068,478.4844 293.1786,478.7031 293.2724,479.1094 C293.3349,479.5156 293.3661,479.6406 293.5068,479.7656 C293.6474,479.9063 293.8818,480.0156 294.1005,480.0156 C294.3661,480.0156 294.6318,479.875 294.8036,479.6563 C294.913,479.5 294.9443,479.3125 294.9443,478.8906 L294.9443,477.4688 C294.9443,477.0313 294.9286,476.9063 294.8349,476.75 C294.6786,476.4844 294.3974,476.3438 294.1005,476.3438 C293.8036,476.3438 293.6005,476.4375 293.3818,476.75 L293.2099,476.6719 Z "/><text fill="#000000" font-family="sans-serif" font-size="12" lengthAdjust="spacingAndGlyphs" textLength="132" x="311.3661" y="485.1543">RegistryOrganizations</text><line style="stroke: #A80036; stroke-width: 1.5;" x1="232.1161" x2="490.1161" y1="497" y2="497"/><line style="stroke: #A80036; stroke-width: 1.5;" x1="232.1161" x2="490.1161" y1="505" y2="505"/><ellipse cx="242.1161" cy="516" fill="#84BE84" rx="3" ry="3" style="stroke: #038048; stroke-width: 1.0;"/><text fill="#000000" font-family="sans-serif" font-size="11" lengthAdjust="spacingAndGlyphs" textLength="234" x="251.1161" y="519.2104">List&lt;Organization&gt; getLstOrganizations()</text><!--MD5=[86c7c362de55a38b660185a1328fe18d]
class Organization--><rect fill="#FEFECE" filter="url(#f1xjzs39jx6441)" height="176.0469" id="Organization" style="stroke: #A80036; stroke-width: 1.5;" width="563" x="79.6161" y="603"/><ellipse cx="318.8661" cy="619" fill="#ADD1B2" rx="11" ry="11" style="stroke: #A80036; stroke-width: 1.0;"/><path d="M321.2099,614.6719 C320.2724,614.2344 319.6786,614.0938 318.8036,614.0938 C316.1786,614.0938 314.1786,616.1719 314.1786,618.8906 L314.1786,620.0156 C314.1786,622.5938 316.288,624.4844 319.1786,624.4844 C320.3974,624.4844 321.5536,624.1875 322.3036,623.6406 C322.8818,623.2344 323.2099,622.7813 323.2099,622.3906 C323.2099,621.9375 322.8193,621.5469 322.3505,621.5469 C322.1318,621.5469 321.9286,621.625 321.7411,621.8125 C321.288,622.2969 321.288,622.2969 321.1005,622.3906 C320.6786,622.6563 319.9911,622.7813 319.2255,622.7813 C317.1786,622.7813 315.8818,621.6875 315.8818,619.9844 L315.8818,618.8906 C315.8818,617.1094 317.1318,615.7969 318.8661,615.7969 C319.4443,615.7969 320.0536,615.9531 320.5224,616.2031 C321.0068,616.4844 321.1786,616.7031 321.2724,617.1094 C321.3349,617.5156 321.3661,617.6406 321.5068,617.7656 C321.6474,617.9063 321.8818,618.0156 322.1005,618.0156 C322.3661,618.0156 322.6318,617.875 322.8036,617.6563 C322.913,617.5 322.9443,617.3125 322.9443,616.8906 L322.9443,615.4688 C322.9443,615.0313 322.9286,614.9063 322.8349,614.75 C322.6786,614.4844 322.3974,614.3438 322.1005,614.3438 C321.8036,614.3438 321.6005,614.4375 321.3818,614.75 L321.2099,614.6719 Z "/><text fill="#000000" font-family="sans-serif" font-size="12" lengthAdjust="spacingAndGlyphs" textLength="76" x="339.3661" y="623.1543">Organization</text><line style="stroke: #A80036; stroke-width: 1.5;" x1="80.6161" x2="641.6161" y1="635" y2="635"/><rect fill="none" height="6" style="stroke: #C82930; stroke-width: 1.0;" width="6" x="87.6161" y="643"/><text fill="#000000" font-family="sans-serif" font-size="11" lengthAdjust="spacingAndGlyphs" textLength="70" x="99.6161" y="649.2104">String name</text><rect fill="none" height="6" style="stroke: #C82930; stroke-width: 1.0;" width="6" x="87.6161" y="655.8047"/><text fill="#000000" font-family="sans-serif" font-size="11" lengthAdjust="spacingAndGlyphs" textLength="51" x="99.6161" y="662.0151">String nif</text><rect fill="none" height="6" style="stroke: #C82930; stroke-width: 1.0;" width="6" x="87.6161" y="668.6094"/><text fill="#000000" font-family="sans-serif" font-size="11" lengthAdjust="spacingAndGlyphs" textLength="104" x="99.6161" y="674.8198">Date payDayDate</text><line style="stroke: #A80036; stroke-width: 1.5;" x1="80.6161" x2="641.6161" y1="681.4141" y2="681.4141"/><ellipse cx="90.6161" cy="692.4141" fill="#84BE84" rx="3" ry="3" style="stroke: #038048; stroke-width: 1.0;"/><text fill="#000000" font-family="sans-serif" font-size="11" lengthAdjust="spacingAndGlyphs" textLength="380" x="99.6161" y="695.6245">TreeMap&lt;String, List&lt;Double&gt;&gt; determinePaymentOrganization()</text><ellipse cx="90.6161" cy="705.2188" fill="#84BE84" rx="3" ry="3" style="stroke: #038048; stroke-width: 1.0;"/><text fill="#000000" font-family="sans-serif" font-size="11" lengthAdjust="spacingAndGlyphs" textLength="364" x="99.6161" y="708.4292">TreeMap&lt;String, List&lt;Double&gt;&gt; determineDelayOrganization()</text><ellipse cx="90.6161" cy="718.0234" fill="#84BE84" rx="3" ry="3" style="stroke: #038048; stroke-width: 1.0;"/><text fill="#000000" font-family="sans-serif" font-size="11" lengthAdjust="spacingAndGlyphs" textLength="394" x="99.6161" y="721.2339">TreeMap&lt;String, Double&gt; calculateMeanPayment(paymentTreeMap)</text><ellipse cx="90.6161" cy="730.8281" fill="#84BE84" rx="3" ry="3" style="stroke: #038048; stroke-width: 1.0;"/><text fill="#000000" font-family="sans-serif" font-size="11" lengthAdjust="spacingAndGlyphs" textLength="537" x="99.6161" y="734.0386">TreeMap&lt;String, Double&gt; calculateDeviationPayment(paymentTreeMap, meanPaymentsMap)</text><ellipse cx="90.6161" cy="743.6328" fill="#84BE84" rx="3" ry="3" style="stroke: #038048; stroke-width: 1.0;"/><text fill="#000000" font-family="sans-serif" font-size="11" lengthAdjust="spacingAndGlyphs" textLength="378" x="99.6161" y="746.8433">TreeMap&lt;String, Double&gt; calculateMeanDelay(paymentTreeMap)</text><ellipse cx="90.6161" cy="756.4375" fill="#84BE84" rx="3" ry="3" style="stroke: #038048; stroke-width: 1.0;"/><text fill="#000000" font-family="sans-serif" font-size="11" lengthAdjust="spacingAndGlyphs" textLength="521" x="99.6161" y="759.6479">TreeMap&lt;String, Double&gt; calculateDeviationDelay(paymentTreeMap, meanPaymentsMap)</text><ellipse cx="90.6161" cy="769.2422" fill="#84BE84" rx="3" ry="3" style="stroke: #038048; stroke-width: 1.0;"/><text fill="#000000" font-family="sans-serif" font-size="11" lengthAdjust="spacingAndGlyphs" textLength="176" x="99.6161" y="772.4526">int determineNumberOfTasks()</text><!--MD5=[587ce92a074ce7913f038873c96800e7]
class ListTransactions--><rect fill="#FEFECE" filter="url(#f1xjzs39jx6441)" height="60.8047" id="ListTransactions" style="stroke: #A80036; stroke-width: 1.5;" width="246" x="97.1161" y="856"/><ellipse cx="167.8661" cy="872" fill="#ADD1B2" rx="11" ry="11" style="stroke: #A80036; stroke-width: 1.0;"/><path d="M170.2099,867.6719 C169.2724,867.2344 168.6786,867.0938 167.8036,867.0938 C165.1786,867.0938 163.1786,869.1719 163.1786,871.8906 L163.1786,873.0156 C163.1786,875.5938 165.288,877.4844 168.1786,877.4844 C169.3974,877.4844 170.5536,877.1875 171.3036,876.6406 C171.8818,876.2344 172.2099,875.7813 172.2099,875.3906 C172.2099,874.9375 171.8193,874.5469 171.3505,874.5469 C171.1318,874.5469 170.9286,874.625 170.7411,874.8125 C170.288,875.2969 170.288,875.2969 170.1005,875.3906 C169.6786,875.6563 168.9911,875.7813 168.2255,875.7813 C166.1786,875.7813 164.8818,874.6875 164.8818,872.9844 L164.8818,871.8906 C164.8818,870.1094 166.1318,868.7969 167.8661,868.7969 C168.4443,868.7969 169.0536,868.9531 169.5224,869.2031 C170.0068,869.4844 170.1786,869.7031 170.2724,870.1094 C170.3349,870.5156 170.3661,870.6406 170.5068,870.7656 C170.6474,870.9063 170.8818,871.0156 171.1005,871.0156 C171.3661,871.0156 171.6318,870.875 171.8036,870.6563 C171.913,870.5 171.9443,870.3125 171.9443,869.8906 L171.9443,868.4688 C171.9443,868.0313 171.9286,867.9063 171.8349,867.75 C171.6786,867.4844 171.3974,867.3438 171.1005,867.3438 C170.8036,867.3438 170.6005,867.4375 170.3818,867.75 L170.2099,867.6719 Z "/><text fill="#000000" font-family="sans-serif" font-size="12" lengthAdjust="spacingAndGlyphs" textLength="96" x="188.3661" y="876.1543">ListTransactions</text><line style="stroke: #A80036; stroke-width: 1.5;" x1="98.1161" x2="342.1161" y1="888" y2="888"/><line style="stroke: #A80036; stroke-width: 1.5;" x1="98.1161" x2="342.1161" y1="896" y2="896"/><ellipse cx="108.1161" cy="907" fill="#84BE84" rx="3" ry="3" style="stroke: #038048; stroke-width: 1.0;"/><text fill="#000000" font-family="sans-serif" font-size="11" lengthAdjust="spacingAndGlyphs" textLength="220" x="117.1161" y="910.2104">List&lt;Transaction&gt; getLstTransactions()</text><!--MD5=[c38b041ce756cbe16ae0cf6e4cd53481]
class Execution--><rect fill="#FEFECE" filter="url(#f1xjzs39jx6441)" height="99.2188" id="Execution" style="stroke: #A80036; stroke-width: 1.5;" width="153" x="8.6161" y="1599"/><ellipse cx="51.9661" cy="1615" fill="#ADD1B2" rx="11" ry="11" style="stroke: #A80036; stroke-width: 1.0;"/><path d="M54.3099,1610.6719 C53.3724,1610.2344 52.7786,1610.0938 51.9036,1610.0938 C49.2786,1610.0938 47.2786,1612.1719 47.2786,1614.8906 L47.2786,1616.0156 C47.2786,1618.5938 49.388,1620.4844 52.2786,1620.4844 C53.4974,1620.4844 54.6536,1620.1875 55.4036,1619.6406 C55.9818,1619.2344 56.3099,1618.7813 56.3099,1618.3906 C56.3099,1617.9375 55.9193,1617.5469 55.4505,1617.5469 C55.2318,1617.5469 55.0286,1617.625 54.8411,1617.8125 C54.388,1618.2969 54.388,1618.2969 54.2005,1618.3906 C53.7786,1618.6563 53.0911,1618.7813 52.3255,1618.7813 C50.2786,1618.7813 48.9818,1617.6875 48.9818,1615.9844 L48.9818,1614.8906 C48.9818,1613.1094 50.2318,1611.7969 51.9661,1611.7969 C52.5443,1611.7969 53.1536,1611.9531 53.6224,1612.2031 C54.1068,1612.4844 54.2786,1612.7031 54.3724,1613.1094 C54.4349,1613.5156 54.4661,1613.6406 54.6068,1613.7656 C54.7474,1613.9063 54.9818,1614.0156 55.2005,1614.0156 C55.4661,1614.0156 55.7318,1613.875 55.9036,1613.6563 C56.013,1613.5 56.0443,1613.3125 56.0443,1612.8906 L56.0443,1611.4688 C56.0443,1611.0313 56.0286,1610.9063 55.9349,1610.75 C55.7786,1610.4844 55.4974,1610.3438 55.2005,1610.3438 C54.9036,1610.3438 54.7005,1610.4375 54.4818,1610.75 L54.3099,1610.6719 Z "/><text fill="#000000" font-family="sans-serif" font-size="12" lengthAdjust="spacingAndGlyphs" textLength="58" x="72.2661" y="1619.1543">Execution</text><line style="stroke: #A80036; stroke-width: 1.5;" x1="9.6161" x2="160.6161" y1="1631" y2="1631"/><rect fill="none" height="6" style="stroke: #C82930; stroke-width: 1.0;" width="6" x="16.6161" y="1639"/><text fill="#000000" font-family="sans-serif" font-size="11" lengthAdjust="spacingAndGlyphs" textLength="90" x="28.6161" y="1645.2104">Date finishDate</text><rect fill="none" height="6" style="stroke: #C82930; stroke-width: 1.0;" width="6" x="16.6161" y="1651.8047"/><text fill="#000000" font-family="sans-serif" font-size="11" lengthAdjust="spacingAndGlyphs" textLength="107" x="28.6161" y="1658.0151">double delayHours</text><rect fill="none" height="6" style="stroke: #C82930; stroke-width: 1.0;" width="6" x="16.6161" y="1664.6094"/><text fill="#000000" font-family="sans-serif" font-size="11" lengthAdjust="spacingAndGlyphs" textLength="127" x="28.6161" y="1670.8198">String briefDescription</text><line style="stroke: #A80036; stroke-width: 1.5;" x1="9.6161" x2="160.6161" y1="1677.4141" y2="1677.4141"/><ellipse cx="19.6161" cy="1688.4141" fill="#84BE84" rx="3" ry="3" style="stroke: #038048; stroke-width: 1.0;"/><text fill="#000000" font-family="sans-serif" font-size="11" lengthAdjust="spacingAndGlyphs" textLength="104" x="28.6161" y="1691.6245">double getDelay()</text><!--MD5=[4555bb1b0911a5adf28ce6dbe60fed2e]
class Transaction--><rect fill="#FEFECE" filter="url(#f1xjzs39jx6441)" height="99.2188" id="Transaction" style="stroke: #A80036; stroke-width: 1.5;" width="179" x="50.6161" y="994"/><ellipse cx="101.3661" cy="1010" fill="#ADD1B2" rx="11" ry="11" style="stroke: #A80036; stroke-width: 1.0;"/><path d="M103.7099,1005.6719 C102.7724,1005.2344 102.1786,1005.0938 101.3036,1005.0938 C98.6786,1005.0938 96.6786,1007.1719 96.6786,1009.8906 L96.6786,1011.0156 C96.6786,1013.5938 98.788,1015.4844 101.6786,1015.4844 C102.8974,1015.4844 104.0536,1015.1875 104.8036,1014.6406 C105.3818,1014.2344 105.7099,1013.7813 105.7099,1013.3906 C105.7099,1012.9375 105.3193,1012.5469 104.8505,1012.5469 C104.6318,1012.5469 104.4286,1012.625 104.2411,1012.8125 C103.788,1013.2969 103.788,1013.2969 103.6005,1013.3906 C103.1786,1013.6563 102.4911,1013.7813 101.7255,1013.7813 C99.6786,1013.7813 98.3818,1012.6875 98.3818,1010.9844 L98.3818,1009.8906 C98.3818,1008.1094 99.6318,1006.7969 101.3661,1006.7969 C101.9443,1006.7969 102.5536,1006.9531 103.0224,1007.2031 C103.5068,1007.4844 103.6786,1007.7031 103.7724,1008.1094 C103.8349,1008.5156 103.8661,1008.6406 104.0068,1008.7656 C104.1474,1008.9063 104.3818,1009.0156 104.6005,1009.0156 C104.8661,1009.0156 105.1318,1008.875 105.3036,1008.6563 C105.413,1008.5 105.4443,1008.3125 105.4443,1007.8906 L105.4443,1006.4688 C105.4443,1006.0313 105.4286,1005.9063 105.3349,1005.75 C105.1786,1005.4844 104.8974,1005.3438 104.6005,1005.3438 C104.3036,1005.3438 104.1005,1005.4375 103.8818,1005.75 L103.7099,1005.6719 Z "/><text fill="#000000" font-family="sans-serif" font-size="12" lengthAdjust="spacingAndGlyphs" textLength="69" x="121.8661" y="1014.1543">Transaction</text><line style="stroke: #A80036; stroke-width: 1.5;" x1="51.6161" x2="228.6161" y1="1026" y2="1026"/><rect fill="none" height="6" style="stroke: #C82930; stroke-width: 1.0;" width="6" x="58.6161" y="1034"/><text fill="#000000" font-family="sans-serif" font-size="11" lengthAdjust="spacingAndGlyphs" textLength="47" x="70.6161" y="1040.2104">String id</text><line style="stroke: #A80036; stroke-width: 1.5;" x1="51.6161" x2="228.6161" y1="1046.8047" y2="1046.8047"/><ellipse cx="61.6161" cy="1057.8047" fill="#84BE84" rx="3" ry="3" style="stroke: #038048; stroke-width: 1.0;"/><text fill="#000000" font-family="sans-serif" font-size="11" lengthAdjust="spacingAndGlyphs" textLength="143" x="70.6161" y="1061.0151">Execution getExecution()</text><ellipse cx="61.6161" cy="1070.6094" fill="#84BE84" rx="3" ry="3" style="stroke: #038048; stroke-width: 1.0;"/><text fill="#000000" font-family="sans-serif" font-size="11" lengthAdjust="spacingAndGlyphs" textLength="153" x="70.6161" y="1073.8198">Freelancer getFreelancer()</text><ellipse cx="61.6161" cy="1083.4141" fill="#84BE84" rx="3" ry="3" style="stroke: #038048; stroke-width: 1.0;"/><text fill="#000000" font-family="sans-serif" font-size="11" lengthAdjust="spacingAndGlyphs" textLength="145" x="70.6161" y="1086.6245">double computeAmount()</text><!--MD5=[1f687b5315377fe49fca59b457947463]
class Freelancer--><rect fill="#FEFECE" filter="url(#f1xjzs39jx6441)" height="163.2422" id="Freelancer" style="stroke: #A80036; stroke-width: 1.5;" width="163" x="70.6161" y="1170"/><ellipse cx="115.3661" cy="1186" fill="#ADD1B2" rx="11" ry="11" style="stroke: #A80036; stroke-width: 1.0;"/><path d="M117.7099,1181.6719 C116.7724,1181.2344 116.1786,1181.0938 115.3036,1181.0938 C112.6786,1181.0938 110.6786,1183.1719 110.6786,1185.8906 L110.6786,1187.0156 C110.6786,1189.5938 112.788,1191.4844 115.6786,1191.4844 C116.8974,1191.4844 118.0536,1191.1875 118.8036,1190.6406 C119.3818,1190.2344 119.7099,1189.7813 119.7099,1189.3906 C119.7099,1188.9375 119.3193,1188.5469 118.8505,1188.5469 C118.6318,1188.5469 118.4286,1188.625 118.2411,1188.8125 C117.788,1189.2969 117.788,1189.2969 117.6005,1189.3906 C117.1786,1189.6563 116.4911,1189.7813 115.7255,1189.7813 C113.6786,1189.7813 112.3818,1188.6875 112.3818,1186.9844 L112.3818,1185.8906 C112.3818,1184.1094 113.6318,1182.7969 115.3661,1182.7969 C115.9443,1182.7969 116.5536,1182.9531 117.0224,1183.2031 C117.5068,1183.4844 117.6786,1183.7031 117.7724,1184.1094 C117.8349,1184.5156 117.8661,1184.6406 118.0068,1184.7656 C118.1474,1184.9063 118.3818,1185.0156 118.6005,1185.0156 C118.8661,1185.0156 119.1318,1184.875 119.3036,1184.6563 C119.413,1184.5 119.4443,1184.3125 119.4443,1183.8906 L119.4443,1182.4688 C119.4443,1182.0313 119.4286,1181.9063 119.3349,1181.75 C119.1786,1181.4844 118.8974,1181.3438 118.6005,1181.3438 C118.3036,1181.3438 118.1005,1181.4375 117.8818,1181.75 L117.7099,1181.6719 Z "/><text fill="#000000" font-family="sans-serif" font-size="12" lengthAdjust="spacingAndGlyphs" textLength="65" x="135.8661" y="1190.1543">Freelancer</text><line style="stroke: #A80036; stroke-width: 1.5;" x1="71.6161" x2="232.6161" y1="1202" y2="1202"/><rect fill="none" height="6" style="stroke: #C82930; stroke-width: 1.0;" width="6" x="78.6161" y="1210"/><text fill="#000000" font-family="sans-serif" font-size="11" lengthAdjust="spacingAndGlyphs" textLength="108" x="90.6161" y="1216.2104">String freelancerID</text><rect fill="none" height="6" style="stroke: #C82930; stroke-width: 1.0;" width="6" x="78.6161" y="1222.8047"/><text fill="#000000" font-family="sans-serif" font-size="11" lengthAdjust="spacingAndGlyphs" textLength="70" x="90.6161" y="1229.0151">String name</text><rect fill="none" height="6" style="stroke: #C82930; stroke-width: 1.0;" width="6" x="78.6161" y="1235.6094"/><text fill="#000000" font-family="sans-serif" font-size="11" lengthAdjust="spacingAndGlyphs" textLength="92" x="90.6161" y="1241.8198">String expertise</text><rect fill="none" height="6" style="stroke: #C82930; stroke-width: 1.0;" width="6" x="78.6161" y="1248.4141"/><text fill="#000000" font-family="sans-serif" font-size="11" lengthAdjust="spacingAndGlyphs" textLength="69" x="90.6161" y="1254.6245">String email</text><rect fill="none" height="6" style="stroke: #C82930; stroke-width: 1.0;" width="6" x="78.6161" y="1261.2188"/><text fill="#000000" font-family="sans-serif" font-size="11" lengthAdjust="spacingAndGlyphs" textLength="51" x="90.6161" y="1267.4292">String nif</text><rect fill="none" height="6" style="stroke: #C82930; stroke-width: 1.0;" width="6" x="78.6161" y="1274.0234"/><text fill="#000000" font-family="sans-serif" font-size="11" lengthAdjust="spacingAndGlyphs" textLength="61" x="90.6161" y="1280.2339">String iban</text><rect fill="none" height="6" style="stroke: #C82930; stroke-width: 1.0;" width="6" x="78.6161" y="1286.8281"/><text fill="#000000" font-family="sans-serif" font-size="11" lengthAdjust="spacingAndGlyphs" textLength="82" x="90.6161" y="1293.0386">String address</text><rect fill="none" height="6" style="stroke: #C82930; stroke-width: 1.0;" width="6" x="78.6161" y="1299.6328"/><text fill="#000000" font-family="sans-serif" font-size="11" lengthAdjust="spacingAndGlyphs" textLength="79" x="90.6161" y="1305.8433">String country</text><line style="stroke: #A80036; stroke-width: 1.5;" x1="71.6161" x2="232.6161" y1="1312.4375" y2="1312.4375"/><ellipse cx="81.6161" cy="1323.4375" fill="#84BE84" rx="3" ry="3" style="stroke: #038048; stroke-width: 1.0;"/><text fill="#000000" font-family="sans-serif" font-size="11" lengthAdjust="spacingAndGlyphs" textLength="137" x="90.6161" y="1326.6479">String getFreelancerID()</text><!--MD5=[b34797a66dc35cbf1d65f7e3ca75530e]
class Task--><rect fill="#FEFECE" filter="url(#f1xjzs39jx6441)" height="112.0234" id="Task" style="stroke: #A80036; stroke-width: 1.5;" width="182" x="141.1161" y="1410"/><ellipse cx="213.8661" cy="1426" fill="#ADD1B2" rx="11" ry="11" style="stroke: #A80036; stroke-width: 1.0;"/><path d="M216.2099,1421.6719 C215.2724,1421.2344 214.6786,1421.0938 213.8036,1421.0938 C211.1786,1421.0938 209.1786,1423.1719 209.1786,1425.8906 L209.1786,1427.0156 C209.1786,1429.5938 211.288,1431.4844 214.1786,1431.4844 C215.3974,1431.4844 216.5536,1431.1875 217.3036,1430.6406 C217.8818,1430.2344 218.2099,1429.7813 218.2099,1429.3906 C218.2099,1428.9375 217.8193,1428.5469 217.3505,1428.5469 C217.1318,1428.5469 216.9286,1428.625 216.7411,1428.8125 C216.288,1429.2969 216.288,1429.2969 216.1005,1429.3906 C215.6786,1429.6563 214.9911,1429.7813 214.2255,1429.7813 C212.1786,1429.7813 210.8818,1428.6875 210.8818,1426.9844 L210.8818,1425.8906 C210.8818,1424.1094 212.1318,1422.7969 213.8661,1422.7969 C214.4443,1422.7969 215.0536,1422.9531 215.5224,1423.2031 C216.0068,1423.4844 216.1786,1423.7031 216.2724,1424.1094 C216.3349,1424.5156 216.3661,1424.6406 216.5068,1424.7656 C216.6474,1424.9063 216.8818,1425.0156 217.1005,1425.0156 C217.3661,1425.0156 217.6318,1424.875 217.8036,1424.6563 C217.913,1424.5 217.9443,1424.3125 217.9443,1423.8906 L217.9443,1422.4688 C217.9443,1422.0313 217.9286,1421.9063 217.8349,1421.75 C217.6786,1421.4844 217.3974,1421.3438 217.1005,1421.3438 C216.8036,1421.3438 216.6005,1421.4375 216.3818,1421.75 L216.2099,1421.6719 Z "/><text fill="#000000" font-family="sans-serif" font-size="12" lengthAdjust="spacingAndGlyphs" textLength="28" x="234.3661" y="1430.1543">Task</text><line style="stroke: #A80036; stroke-width: 1.5;" x1="142.1161" x2="322.1161" y1="1442" y2="1442"/><rect fill="none" height="6" style="stroke: #C82930; stroke-width: 1.0;" width="6" x="149.1161" y="1450"/><text fill="#000000" font-family="sans-serif" font-size="11" lengthAdjust="spacingAndGlyphs" textLength="72" x="161.1161" y="1456.2104">String taskID</text><rect fill="none" height="6" style="stroke: #C82930; stroke-width: 1.0;" width="6" x="149.1161" y="1462.8047"/><text fill="#000000" font-family="sans-serif" font-size="11" lengthAdjust="spacingAndGlyphs" textLength="124" x="161.1161" y="1469.0151">String taskDescription</text><rect fill="none" height="6" style="stroke: #C82930; stroke-width: 1.0;" width="6" x="149.1161" y="1475.6094"/><text fill="#000000" font-family="sans-serif" font-size="11" lengthAdjust="spacingAndGlyphs" textLength="156" x="161.1161" y="1481.8198">double taskDurationInHours</text><rect fill="none" height="6" style="stroke: #C82930; stroke-width: 1.0;" width="6" x="149.1161" y="1488.4141"/><text fill="#000000" font-family="sans-serif" font-size="11" lengthAdjust="spacingAndGlyphs" textLength="135" x="161.1161" y="1494.6245">double taskCostPerHour</text><rect fill="none" height="6" style="stroke: #C82930; stroke-width: 1.0;" width="6" x="149.1161" y="1501.2188"/><text fill="#000000" font-family="sans-serif" font-size="11" lengthAdjust="spacingAndGlyphs" textLength="112" x="161.1161" y="1507.4292">String taskCategory</text><line style="stroke: #A80036; stroke-width: 1.5;" x1="142.1161" x2="322.1161" y1="1514.0234" y2="1514.0234"/><!--MD5=[8b03c1ea8b80be71cc12358a5fc6cf4a]
link ShowOrganizationStatsUI to ShowOrganizationStatsController--><path d="M361.1161,54.09 C361.1161,69.09 361.1161,89.56 361.1161,109.77 " fill="none" id="ShowOrganizationStatsUI-&gt;ShowOrganizationStatsController" style="stroke: #A80036; stroke-width: 1.0; stroke-dasharray: 7.0,7.0;"/><polygon fill="#A80036" points="361.1161,114.9,365.1161,105.9,361.1161,109.9,357.1161,105.9,361.1161,114.9" style="stroke: #A80036; stroke-width: 1.0;"/><!--MD5=[407b4fdf0cd1b0d2d3bf0ac5cd2efa75]
link ShowOrganizationStatsController to Platform--><path d="M361.1161,253.06 C361.1161,271.89 361.1161,291.75 361.1161,308.56 " fill="none" id="ShowOrganizationStatsController-&gt;Platform" style="stroke: #A80036; stroke-width: 1.0; stroke-dasharray: 7.0,7.0;"/><polygon fill="#A80036" points="361.1161,313.67,365.1161,304.67,361.1161,308.67,357.1161,304.67,361.1161,313.67" style="stroke: #A80036; stroke-width: 1.0;"/><!--MD5=[d7e6b8c0ccf00764186b54e4e31b9fc3]
link Platform to RegistryOrganizations--><path d="M361.1161,388.33 C361.1161,412.08 361.1161,442.7 361.1161,464.95 " fill="none" id="Platform-RegistryOrganizations" style="stroke: #A80036; stroke-width: 1.0;"/><text fill="#000000" font-family="sans-serif" font-size="13" lengthAdjust="spacingAndGlyphs" textLength="23" x="362.1161" y="431.0669">has</text><polygon fill="#000000" points="369.1161,440.1328,372.1161,446.1328,375.1161,440.1328,369.1161,440.1328" style="stroke: #000000; stroke-width: 1.0;"/><text fill="#000000" font-family="sans-serif" font-size="13" lengthAdjust="spacingAndGlyphs" textLength="8" x="352.4786" y="407.5834">1</text><text fill="#000000" font-family="sans-serif" font-size="13" lengthAdjust="spacingAndGlyphs" textLength="8" x="352.2411" y="453.7293">1</text><!--MD5=[4444e3f7d3a256ce06ca5b39bcbcc4ba]
link RegistryOrganizations to Organization--><path d="M361.1161,526.31 C361.1161,546.88 361.1161,575.36 361.1161,602.8 " fill="none" id="RegistryOrganizations-Organization" style="stroke: #A80036; stroke-width: 1.0;"/><text fill="#000000" font-family="sans-serif" font-size="13" lengthAdjust="spacingAndGlyphs" textLength="23" x="362.1161" y="569.0669">has</text><polygon fill="#000000" points="369.1161,578.1328,372.1161,584.1328,375.1161,578.1328,369.1161,578.1328" style="stroke: #000000; stroke-width: 1.0;"/><text fill="#000000" font-family="sans-serif" font-size="13" lengthAdjust="spacingAndGlyphs" textLength="8" x="352.3286" y="545.9515">1</text><text fill="#000000" font-family="sans-serif" font-size="13" lengthAdjust="spacingAndGlyphs" textLength="7" x="353.8263" y="591.9453">*</text><!--MD5=[02bb9ce2210e261d6550aa31ee7fd776]
link Organization to ListTransactions--><path d="M297.6281,779.127 C277.6001,806.613 256.8091,835.144 241.8081,855.731 " fill="none" id="Organization-ListTransactions" style="stroke: #A80036; stroke-width: 1.0;"/><text fill="#000000" font-family="sans-serif" font-size="13" lengthAdjust="spacingAndGlyphs" textLength="23" x="275.1161" y="822.0669">has</text><polygon fill="#000000" points="282.1161,831.1328,285.1161,837.1328,288.1161,831.1328,282.1161,831.1328" style="stroke: #000000; stroke-width: 1.0;"/><text fill="#000000" font-family="sans-serif" font-size="13" lengthAdjust="spacingAndGlyphs" textLength="8" x="284.0393" y="799.1166">1</text><text fill="#000000" font-family="sans-serif" font-size="13" lengthAdjust="spacingAndGlyphs" textLength="8" x="237.4571" y="844.9388">1</text><!--MD5=[bc7c47ae1c4406ef2290619baa1d80b6]
link ListTransactions to Transaction--><path d="M204.8801,917.019 C193.6831,938.715 178.2161,968.681 165.2061,993.888 " fill="none" id="ListTransactions-Transaction" style="stroke: #A80036; stroke-width: 1.0;"/><text fill="#000000" font-family="sans-serif" font-size="13" lengthAdjust="spacingAndGlyphs" textLength="103" x="189.1161" y="960.0669">has registries of</text><polygon fill="#000000" points="236.1161,969.1328,239.1161,975.1328,242.1161,969.1328,236.1161,969.1328" style="stroke: #000000; stroke-width: 1.0;"/><text fill="#000000" font-family="sans-serif" font-size="13" lengthAdjust="spacingAndGlyphs" textLength="8" x="192.9127" y="936.9612">1</text><text fill="#000000" font-family="sans-serif" font-size="13" lengthAdjust="spacingAndGlyphs" textLength="7" x="161.2422" y="982.9175">*</text><!--MD5=[4078351e3988aa35b1504a42837f2ab1]
link Organization to Task--><path d="M405.0581,779.42 C417.6871,811.901 428.1161,849.594 428.1161,885.5 C428.1161,885.5 428.1161,885.5 428.1161,1252.5 C428.1161,1319.753 374.4151,1374.823 323.2301,1412.037 " fill="none" id="Organization-Task" style="stroke: #A80036; stroke-width: 1.0;"/><text fill="#000000" font-family="sans-serif" font-size="13" lengthAdjust="spacingAndGlyphs" textLength="23" x="429.1161" y="1048.0669">has</text><polygon fill="#000000" points="436.1161,1057.1328,439.1161,1063.1328,442.1161,1057.1328,436.1161,1057.1328" style="stroke: #000000; stroke-width: 1.0;"/><text fill="#000000" font-family="sans-serif" font-size="13" lengthAdjust="spacingAndGlyphs" textLength="8" x="400.241" y="799.1339">1</text><text fill="#000000" font-family="sans-serif" font-size="13" lengthAdjust="spacingAndGlyphs" textLength="7" x="331.0654" y="1404.0185">*</text><!--MD5=[9926cd7d1f33844ac98d85654cc7d38d]
link Task to Execution--><path d="M187.2121,1522.137 C167.2861,1546.604 144.0381,1575.151 124.7631,1598.8176 " fill="none" id="Task-Execution" style="stroke: #A80036; stroke-width: 1.0;"/><text fill="#000000" font-family="sans-serif" font-size="13" lengthAdjust="spacingAndGlyphs" textLength="42" x="160.1161" y="1565.0669">details</text><polygon fill="#000000" points="176.6161,1574.1328,179.6161,1580.1328,182.6161,1574.1328,176.6161,1574.1328" style="stroke: #000000; stroke-width: 1.0;"/><text fill="#000000" font-family="sans-serif" font-size="13" lengthAdjust="spacingAndGlyphs" textLength="8" x="173.252" y="1541.9663">1</text><text fill="#000000" font-family="sans-serif" font-size="13" lengthAdjust="spacingAndGlyphs" textLength="16" x="113.2135" y="1587.8376">0..</text><!--MD5=[b4b6c1ff9c803d8207b36238c02005ea]
link Freelancer to Task--><path d="M182.4751,1333.14 C192.1111,1358.736 202.5401,1386.44 211.3411,1409.817 " fill="none" id="Freelancer-Task" style="stroke: #A80036; stroke-width: 1.0;"/><text fill="#000000" font-family="sans-serif" font-size="13" lengthAdjust="spacingAndGlyphs" textLength="59" x="201.1161" y="1376.0669">executes</text><polygon fill="#000000" points="226.1161,1385.1328,229.1161,1391.1328,232.1161,1385.1328,226.1161,1385.1328" style="stroke: #000000; stroke-width: 1.0;"/><text fill="#000000" font-family="sans-serif" font-size="13" lengthAdjust="spacingAndGlyphs" textLength="8" x="176.9051" y="1353.4194">1</text><text fill="#000000" font-family="sans-serif" font-size="13" lengthAdjust="spacingAndGlyphs" textLength="7" x="201.3826" y="1399.1292">*</text><!--MD5=[8e4873cec2cb3febaaa9495c716fc885]
link Transaction to Task--><path d="M229.6351,1075.384 C250.4431,1086.977 270.0231,1102.498 282.1161,1123 C340.1441,1221.384 312.1271,1269.791 282.1161,1380 C279.3721,1390.077 275.0971,1400.177 270.1761,1409.718 " fill="none" id="Transaction-Task" style="stroke: #A80036; stroke-width: 1.0;"/><text fill="#000000" font-family="sans-serif" font-size="13" lengthAdjust="spacingAndGlyphs" textLength="56" x="317.1161" y="1256.0669">specifies</text><polygon fill="#000000" points="340.6161,1265.1328,343.6161,1271.1328,346.6161,1265.1328,340.6161,1265.1328" style="stroke: #000000; stroke-width: 1.0;"/><text fill="#000000" font-family="sans-serif" font-size="13" lengthAdjust="spacingAndGlyphs" textLength="8" x="237.6719" y="1074.5427">1</text><text fill="#000000" font-family="sans-serif" font-size="13" lengthAdjust="spacingAndGlyphs" textLength="8" x="266.3272" y="1399.0181">1</text><!--MD5=[6d9a0d3e52bb71e36b137034df33f234]
link Transaction to Execution--><path d="M95.9939,1093.24 C79.107,1115.081 61.8201,1142.167 53.1161,1170 C6,1320.667 46.4488,1510.715 70.4369,1598.6938 " fill="none" id="Transaction-Execution" style="stroke: #A80036; stroke-width: 1.0;"/><text fill="#000000" font-family="sans-serif" font-size="13" lengthAdjust="spacingAndGlyphs" textLength="23" x="34.1161" y="1376.0669">has</text><polygon fill="#000000" points="41.1161,1385.1328,44.1161,1391.1328,47.1161,1385.1328,41.1161,1385.1328" style="stroke: #000000; stroke-width: 1.0;"/><text fill="#000000" font-family="sans-serif" font-size="13" lengthAdjust="spacingAndGlyphs" textLength="8" x="81.2267" y="1113.3502">1</text><text fill="#000000" font-family="sans-serif" font-size="13" lengthAdjust="spacingAndGlyphs" textLength="8" x="59.9269" y="1588.0546">1</text><!--MD5=[542f32193441b56ea302115ed1249c3b]
link Transaction to Freelancer--><path d="M126.4421,1093.167 C124.2261,1102.968 122.2791,1113.254 121.1161,1123 C119.2951,1138.268 120.5891,1154.349 123.4821,1169.753 " fill="none" id="Transaction-Freelancer" style="stroke: #A80036; stroke-width: 1.0;"/><text fill="#000000" font-family="sans-serif" font-size="13" lengthAdjust="spacingAndGlyphs" textLength="142" x="122.1161" y="1136.0669">has information about</text><polygon fill="#000000" points="188.6161,1145.1328,191.6161,1151.1328,194.6161,1145.1328,188.6161,1145.1328" style="stroke: #000000; stroke-width: 1.0;"/><text fill="#000000" font-family="sans-serif" font-size="13" lengthAdjust="spacingAndGlyphs" textLength="8" x="115.9567" y="1113.267">1</text><text fill="#000000" font-family="sans-serif" font-size="13" lengthAdjust="spacingAndGlyphs" textLength="8" x="112.5757" y="1158.8665">1</text><!--MD5=[6dcfc7d77935809b8d0ac840d63963d6]
@startuml
class ShowOrganizationStatsUI { 
}

class ShowOrganizationStatsController {
    +RegistryOrganizarions getOrganizations()
    +TreeMap<String, Double> calculateMeanPayment()
    +TreeMap<String, Double> calculateDeviationPayment()
    +TreeMap<String, Double> calculateMeanDelay()
    +TreeMap<String, Double> calculateDeviationDelay()
    +TreeMap<String, List<Double>> determinePaymentOrganization()
    +TreeMap<String, List<Double>> determineDelayOrganization()
}

class Platform {
    -String name
    +RegistryOrganization getRegistryOrganizations()
}

class RegistryOrganizations {
    +List<Organization> getLstOrganizations()
    
}

class Organization {
    -String name
    -String nif
    -Date payDayDate
    +TreeMap<String, List<Double>> determinePaymentOrganization()
    +TreeMap<String, List<Double>> determineDelayOrganization()
    +TreeMap<String, Double> calculateMeanPayment(paymentTreeMap)
    +TreeMap<String, Double> calculateDeviationPayment(paymentTreeMap, meanPaymentsMap)
    +TreeMap<String, Double> calculateMeanDelay(paymentTreeMap)
    +TreeMap<String, Double> calculateDeviationDelay(paymentTreeMap, meanPaymentsMap)
    +int determineNumberOfTasks()
}

class ListTransactions{
    +List<Transaction> getLstTransactions()
}


class Execution {
    -Date finishDate
    -double delayHours
    -String briefDescription
    +double getDelay()
}


class Transaction {
    -String id
    +Execution getExecution()
    +Freelancer getFreelancer()
    +double computeAmount()
}

class Freelancer {
    -String freelancerID
    -String name
    -String expertise
    -String email
    -String nif
    -String iban
    -String address
    -String country
    +String getFreelancerID()
}

class Task {
    -String taskID
    -String taskDescription
    -double taskDurationInHours
    -double taskCostPerHour
    -String taskCategory

}

ShowOrganizationStatsUI ..> ShowOrganizationStatsController
ShowOrganizationStatsController ..> Platform
Platform "1" - - "1" RegistryOrganizations : has >
RegistryOrganizations "1" - - "*" Organization : has >
Organization "1" - - "1" ListTransactions : has >
ListTransactions "1" - - "*" Transaction : has registries of >
Organization "1" - - "*" Task: has >
Task "1" - - "0.." Execution : details >
Freelancer "1" - - "*" Task : executes >
Transaction "1" - - "1" Task : specifies >
Transaction "1" - - "1" Execution : has >
Transaction "1" - - "1" Freelancer : has information about >
@enduml

PlantUML version 1.2020.12(Sat Jun 06 10:54:15 UTC 2020)
(GPL source distribution)
Java Runtime: Java(TM) SE Runtime Environment
JVM: Java HotSpot(TM) 64-Bit Server VM
Default Encoding: UTF-8
Language: en
Country: US
--></g></svg>