<?xml version="1.0" encoding="UTF-8" standalone="no"?><svg xmlns="http://www.w3.org/2000/svg" xmlns:xlink="http://www.w3.org/1999/xlink" contentScriptType="application/ecmascript" contentStyleType="text/css" height="396px" preserveAspectRatio="none" style="width:1147px;height:396px;" version="1.1" viewBox="0 0 1147 396" width="1147px" zoomAndPan="magnify">
    <defs>
        <filter height="300%" id="fvt2sb62u5nti" width="300%" x="-1" y="-1">
            <feGaussianBlur result="blurOut" stdDeviation="2.0" />
            <feColorMatrix in="blurOut" result="blurOut2" type="matrix" values="0 0 0 0 0 0 0 0 0 0 0 0 0 0 0 0 0 0 .4 0" />
            <feOffset dx="4.0" dy="4.0" in="blurOut2" result="blurOut3" />
            <feBlend in="SourceGraphic" in2="blurOut3" mode="normal" />
        </filter>
    </defs>
    <g>
        <!--class Platform-->
        <rect fill="#FEFECE" filter="url(#fvt2sb62u5nti)" height="53.8359" id="Platform" style="stroke: #A80036; stroke-width: 1.5;" width="102" x="12" y="192.5" />
        <ellipse cx="37.8" cy="208.5" fill="#ADD1B2" rx="11" ry="11" style="stroke: #A80036; stroke-width: 1.0;" />
        <path d="M40.5656,204.375 Q40.7219,204.1563 40.9094,204.0469 Q41.0969,203.9375 41.3156,203.9375 Q41.6906,203.9375 41.925,204.1953 Q42.1594,204.4531 42.1594,205.0625 L42.1594,206.5156 Q42.1594,207.125 41.925,207.3906 Q41.6906,207.6563 41.3156,207.6563 Q40.9719,207.6563 40.7688,207.4531 Q40.5656,207.2656 40.4563,206.75 Q40.4094,206.3906 40.2219,206.2031 Q39.8938,205.8281 39.2844,205.6094 Q38.675,205.3906 38.05,205.3906 Q37.2844,205.3906 36.6516,205.7188 Q36.0188,206.0469 35.5266,206.7969 Q35.0344,207.5469 35.0344,208.5781 L35.0344,209.6719 Q35.0344,210.9063 35.925,211.7266 Q36.8156,212.5469 38.4094,212.5469 Q39.3469,212.5469 40.0031,212.2969 Q40.3938,212.1406 40.8156,211.7031 Q41.0813,211.4375 41.2297,211.3594 Q41.3781,211.2813 41.5813,211.2813 Q41.9094,211.2813 42.1672,211.5391 Q42.425,211.7969 42.425,212.1406 Q42.425,212.4844 42.0813,212.8906 Q41.5813,213.4688 40.7844,213.7969 Q39.7063,214.25 38.4094,214.25 Q36.8938,214.25 35.6906,213.625 Q34.7063,213.125 34.0188,212.0547 Q33.3313,210.9844 33.3313,209.7031 L33.3313,208.5469 Q33.3313,207.2188 33.9484,206.0703 Q34.5656,204.9219 35.6594,204.3047 Q36.7531,203.6875 37.9875,203.6875 Q38.7219,203.6875 39.3703,203.8516 Q40.0188,204.0156 40.5656,204.375 Z " /><text fill="#000000" font-family="sans-serif" font-size="12" lengthAdjust="spacingAndGlyphs" textLength="46" x="54.2" y="213.4102">Platform</text>
        <line style="stroke: #A80036; stroke-width: 1.5;" x1="13" x2="113" y1="224.5" y2="224.5" /><text fill="#000000" font-family="sans-serif" font-size="11" lengthAdjust="spacingAndGlyphs" textLength="90" x="18" y="239.9189">-String designation</text>
        <!--class Organization-->
        <rect fill="#FEFECE" filter="url(#fvt2sb62u5nti)" height="123.0156" id="Organization" style="stroke: #A80036; stroke-width: 1.5;" width="162" x="312" y="158" />
        <ellipse cx="354.45" cy="174" fill="#ADD1B2" rx="11" ry="11" style="stroke: #A80036; stroke-width: 1.0;" />
        <path d="M357.2156,169.875 Q357.3719,169.6563 357.5594,169.5469 Q357.7469,169.4375 357.9656,169.4375 Q358.3406,169.4375 358.575,169.6953 Q358.8094,169.9531 358.8094,170.5625 L358.8094,172.0156 Q358.8094,172.625 358.575,172.8906 Q358.3406,173.1563 357.9656,173.1563 Q357.6219,173.1563 357.4188,172.9531 Q357.2156,172.7656 357.1063,172.25 Q357.0594,171.8906 356.8719,171.7031 Q356.5438,171.3281 355.9344,171.1094 Q355.325,170.8906 354.7,170.8906 Q353.9344,170.8906 353.3016,171.2188 Q352.6688,171.5469 352.1766,172.2969 Q351.6844,173.0469 351.6844,174.0781 L351.6844,175.1719 Q351.6844,176.4063 352.575,177.2266 Q353.4656,178.0469 355.0594,178.0469 Q355.9969,178.0469 356.6531,177.7969 Q357.0438,177.6406 357.4656,177.2031 Q357.7313,176.9375 357.8797,176.8594 Q358.0281,176.7813 358.2313,176.7813 Q358.5594,176.7813 358.8172,177.0391 Q359.075,177.2969 359.075,177.6406 Q359.075,177.9844 358.7313,178.3906 Q358.2313,178.9688 357.4344,179.2969 Q356.3563,179.75 355.0594,179.75 Q353.5438,179.75 352.3406,179.125 Q351.3563,178.625 350.6688,177.5547 Q349.9813,176.4844 349.9813,175.2031 L349.9813,174.0469 Q349.9813,172.7188 350.5984,171.5703 Q351.2156,170.4219 352.3094,169.8047 Q353.4031,169.1875 354.6375,169.1875 Q355.3719,169.1875 356.0203,169.3516 Q356.6688,169.5156 357.2156,169.875 Z " /><text fill="#000000" font-family="sans-serif" font-size="12" lengthAdjust="spacingAndGlyphs" textLength="69" x="374.55" y="178.9102">Organization</text>
        <line style="stroke: #A80036; stroke-width: 1.5;" x1="313" x2="473" y1="190" y2="190" /><text fill="#000000" font-family="sans-serif" font-size="11" lengthAdjust="spacingAndGlyphs" textLength="104" x="318" y="205.4189">-String managerName</text><text fill="#000000" font-family="sans-serif" font-size="11" lengthAdjust="spacingAndGlyphs" textLength="150" x="318" y="219.2549">-String organizationDesignation</text><text fill="#000000" font-family="sans-serif" font-size="11" lengthAdjust="spacingAndGlyphs" textLength="119" x="318" y="233.0908">-String collaboratorName</text><text fill="#000000" font-family="sans-serif" font-size="11" lengthAdjust="spacingAndGlyphs" textLength="101" x="318" y="246.9268">-String managerEmail</text><text fill="#000000" font-family="sans-serif" font-size="11" lengthAdjust="spacingAndGlyphs" textLength="117" x="318" y="260.7627">-String CollaboratorEmail</text><text fill="#000000" font-family="sans-serif" font-size="11" lengthAdjust="spacingAndGlyphs" textLength="88" x="318" y="274.5986">-Date PayDayDate</text>
        <!--class Transaction-->
        <rect fill="#FEFECE" filter="url(#fvt2sb62u5nti)" height="53.8359" id="Transaction" style="stroke: #A80036; stroke-width: 1.5;" width="97" x="800.5" y="296.5" />
        <ellipse cx="815.5" cy="312.5" fill="#ADD1B2" rx="11" ry="11" style="stroke: #A80036; stroke-width: 1.0;" />
        <path d="M818.2656,308.375 Q818.4219,308.1563 818.6094,308.0469 Q818.7969,307.9375 819.0156,307.9375 Q819.3906,307.9375 819.625,308.1953 Q819.8594,308.4531 819.8594,309.0625 L819.8594,310.5156 Q819.8594,311.125 819.625,311.3906 Q819.3906,311.6563 819.0156,311.6563 Q818.6719,311.6563 818.4688,311.4531 Q818.2656,311.2656 818.1563,310.75 Q818.1094,310.3906 817.9219,310.2031 Q817.5938,309.8281 816.9844,309.6094 Q816.375,309.3906 815.75,309.3906 Q814.9844,309.3906 814.3516,309.7188 Q813.7188,310.0469 813.2266,310.7969 Q812.7344,311.5469 812.7344,312.5781 L812.7344,313.6719 Q812.7344,314.9063 813.625,315.7266 Q814.5156,316.5469 816.1094,316.5469 Q817.0469,316.5469 817.7031,316.2969 Q818.0938,316.1406 818.5156,315.7031 Q818.7813,315.4375 818.9297,315.3594 Q819.0781,315.2813 819.2813,315.2813 Q819.6094,315.2813 819.8672,315.5391 Q820.125,315.7969 820.125,316.1406 Q820.125,316.4844 819.7813,316.8906 Q819.2813,317.4688 818.4844,317.7969 Q817.4063,318.25 816.1094,318.25 Q814.5938,318.25 813.3906,317.625 Q812.4063,317.125 811.7188,316.0547 Q811.0313,314.9844 811.0313,313.7031 L811.0313,312.5469 Q811.0313,311.2188 811.6484,310.0703 Q812.2656,308.9219 813.3594,308.3047 Q814.4531,307.6875 815.6875,307.6875 Q816.4219,307.6875 817.0703,307.8516 Q817.7188,308.0156 818.2656,308.375 Z " /><text fill="#000000" font-family="sans-serif" font-size="12" lengthAdjust="spacingAndGlyphs" textLength="65" x="829.5" y="317.4102">Transaction</text>
        <line style="stroke: #A80036; stroke-width: 1.5;" x1="801.5" x2="896.5" y1="328.5" y2="328.5" /><text fill="#000000" font-family="sans-serif" font-size="11" lengthAdjust="spacingAndGlyphs" textLength="69" x="806.5" y="343.9189">-String transID</text>
        <!--class Task-->
        <rect fill="#FEFECE" filter="url(#fvt2sb62u5nti)" height="123.0156" id="Task" style="stroke: #A80036; stroke-width: 1.5;" width="123" x="1013" y="262" />
        <ellipse cx="1056.8" cy="278" fill="#ADD1B2" rx="11" ry="11" style="stroke: #A80036; stroke-width: 1.0;" />
        <path d="M1059.5656,273.875 Q1059.7219,273.6563 1059.9094,273.5469 Q1060.0969,273.4375 1060.3156,273.4375 Q1060.6906,273.4375 1060.925,273.6953 Q1061.1594,273.9531 1061.1594,274.5625 L1061.1594,276.0156 Q1061.1594,276.625 1060.925,276.8906 Q1060.6906,277.1563 1060.3156,277.1563 Q1059.9719,277.1563 1059.7688,276.9531 Q1059.5656,276.7656 1059.4563,276.25 Q1059.4094,275.8906 1059.2219,275.7031 Q1058.8938,275.3281 1058.2844,275.1094 Q1057.675,274.8906 1057.05,274.8906 Q1056.2844,274.8906 1055.6516,275.2188 Q1055.0188,275.5469 1054.5266,276.2969 Q1054.0344,277.0469 1054.0344,278.0781 L1054.0344,279.1719 Q1054.0344,280.4063 1054.925,281.2266 Q1055.8156,282.0469 1057.4094,282.0469 Q1058.3469,282.0469 1059.0031,281.7969 Q1059.3938,281.6406 1059.8156,281.2031 Q1060.0813,280.9375 1060.2297,280.8594 Q1060.3781,280.7813 1060.5813,280.7813 Q1060.9094,280.7813 1061.1672,281.0391 Q1061.425,281.2969 1061.425,281.6406 Q1061.425,281.9844 1061.0813,282.3906 Q1060.5813,282.9688 1059.7844,283.2969 Q1058.7063,283.75 1057.4094,283.75 Q1055.8938,283.75 1054.6906,283.125 Q1053.7063,282.625 1053.0188,281.5547 Q1052.3313,280.4844 1052.3313,279.2031 L1052.3313,278.0469 Q1052.3313,276.7188 1052.9484,275.5703 Q1053.5656,274.4219 1054.6594,273.8047 Q1055.7531,273.1875 1056.9875,273.1875 Q1057.7219,273.1875 1058.3703,273.3516 Q1059.0188,273.5156 1059.5656,273.875 Z " /><text fill="#000000" font-family="sans-serif" font-size="12" lengthAdjust="spacingAndGlyphs" textLength="27" x="1077.2" y="282.9102">Task</text>
        <line style="stroke: #A80036; stroke-width: 1.5;" x1="1014" x2="1135" y1="294" y2="294" /><text fill="#000000" font-family="sans-serif" font-size="11" lengthAdjust="spacingAndGlyphs" textLength="43" x="1019" y="309.4189">-String id</text><text fill="#000000" font-family="sans-serif" font-size="11" lengthAdjust="spacingAndGlyphs" textLength="111" x="1019" y="323.2549">-String briefDescription</text><text fill="#000000" font-family="sans-serif" font-size="11" lengthAdjust="spacingAndGlyphs" textLength="78" x="1019" y="337.0908">-double duration</text><text fill="#000000" font-family="sans-serif" font-size="11" lengthAdjust="spacingAndGlyphs" textLength="60" x="1019" y="350.9268">-double cost</text><text fill="#000000" font-family="sans-serif" font-size="11" lengthAdjust="spacingAndGlyphs" textLength="78" x="1019" y="364.7627">-String category</text><text fill="#000000" font-family="sans-serif" font-size="11" lengthAdjust="spacingAndGlyphs" textLength="95" x="1019" y="378.5986">-String idFreelancer</text>
        <!--class Freelancer-->
        <rect fill="#FEFECE" filter="url(#fvt2sb62u5nti)" height="123.0156" id="Freelancer" style="stroke: #A80036; stroke-width: 1.5;" width="102" x="798" y="138" />
        <ellipse cx="817.95" cy="154" fill="#ADD1B2" rx="11" ry="11" style="stroke: #A80036; stroke-width: 1.0;" />
        <path d="M820.7156,149.875 Q820.8719,149.6563 821.0594,149.5469 Q821.2469,149.4375 821.4656,149.4375 Q821.8406,149.4375 822.075,149.6953 Q822.3094,149.9531 822.3094,150.5625 L822.3094,152.0156 Q822.3094,152.625 822.075,152.8906 Q821.8406,153.1563 821.4656,153.1563 Q821.1219,153.1563 820.9188,152.9531 Q820.7156,152.7656 820.6063,152.25 Q820.5594,151.8906 820.3719,151.7031 Q820.0438,151.3281 819.4344,151.1094 Q818.825,150.8906 818.2,150.8906 Q817.4344,150.8906 816.8016,151.2188 Q816.1688,151.5469 815.6766,152.2969 Q815.1844,153.0469 815.1844,154.0781 L815.1844,155.1719 Q815.1844,156.4063 816.075,157.2266 Q816.9656,158.0469 818.5594,158.0469 Q819.4969,158.0469 820.1531,157.7969 Q820.5438,157.6406 820.9656,157.2031 Q821.2313,156.9375 821.3797,156.8594 Q821.5281,156.7813 821.7313,156.7813 Q822.0594,156.7813 822.3172,157.0391 Q822.575,157.2969 822.575,157.6406 Q822.575,157.9844 822.2313,158.3906 Q821.7313,158.9688 820.9344,159.2969 Q819.8563,159.75 818.5594,159.75 Q817.0438,159.75 815.8406,159.125 Q814.8563,158.625 814.1688,157.5547 Q813.4813,156.4844 813.4813,155.2031 L813.4813,154.0469 Q813.4813,152.7188 814.0984,151.5703 Q814.7156,150.4219 815.8094,149.8047 Q816.9031,149.1875 818.1375,149.1875 Q818.8719,149.1875 819.5203,149.3516 Q820.1688,149.5156 820.7156,149.875 Z " /><text fill="#000000" font-family="sans-serif" font-size="12" lengthAdjust="spacingAndGlyphs" textLength="59" x="833.05" y="158.9102">Freelancer</text>
        <line style="stroke: #A80036; stroke-width: 1.5;" x1="799" x2="899" y1="170" y2="170" /><text fill="#000000" font-family="sans-serif" font-size="11" lengthAdjust="spacingAndGlyphs" textLength="61" x="804" y="185.4189">-String name</text><text fill="#000000" font-family="sans-serif" font-size="11" lengthAdjust="spacingAndGlyphs" textLength="43" x="804" y="199.2549">-String id</text><text fill="#000000" font-family="sans-serif" font-size="11" lengthAdjust="spacingAndGlyphs" textLength="90" x="804" y="213.0908">-String lvlExpertise</text><text fill="#000000" font-family="sans-serif" font-size="11" lengthAdjust="spacingAndGlyphs" textLength="59" x="804" y="226.9268">-String email</text><text fill="#000000" font-family="sans-serif" font-size="11" lengthAdjust="spacingAndGlyphs" textLength="47" x="804" y="240.7627">-String nif</text><text fill="#000000" font-family="sans-serif" font-size="11" lengthAdjust="spacingAndGlyphs" textLength="59" x="804" y="254.5986">-String IBAN</text>
        <!--class Collaborator-->
        <rect fill="#FEFECE" filter="url(#fvt2sb62u5nti)" height="95.3438" id="Collaborator" style="stroke: #A80036; stroke-width: 1.5;" width="114" x="579" y="68" />
        <ellipse cx="600.3" cy="84" fill="#ADD1B2" rx="11" ry="11" style="stroke: #A80036; stroke-width: 1.0;" />
        <path d="M603.0656,79.875 Q603.2219,79.6563 603.4094,79.5469 Q603.5969,79.4375 603.8156,79.4375 Q604.1906,79.4375 604.425,79.6953 Q604.6594,79.9531 604.6594,80.5625 L604.6594,82.0156 Q604.6594,82.625 604.425,82.8906 Q604.1906,83.1563 603.8156,83.1563 Q603.4719,83.1563 603.2688,82.9531 Q603.0656,82.7656 602.9563,82.25 Q602.9094,81.8906 602.7219,81.7031 Q602.3938,81.3281 601.7844,81.1094 Q601.175,80.8906 600.55,80.8906 Q599.7844,80.8906 599.1516,81.2188 Q598.5188,81.5469 598.0266,82.2969 Q597.5344,83.0469 597.5344,84.0781 L597.5344,85.1719 Q597.5344,86.4063 598.425,87.2266 Q599.3156,88.0469 600.9094,88.0469 Q601.8469,88.0469 602.5031,87.7969 Q602.8938,87.6406 603.3156,87.2031 Q603.5813,86.9375 603.7297,86.8594 Q603.8781,86.7813 604.0813,86.7813 Q604.4094,86.7813 604.6672,87.0391 Q604.925,87.2969 604.925,87.6406 Q604.925,87.9844 604.5813,88.3906 Q604.0813,88.9688 603.2844,89.2969 Q602.2063,89.75 600.9094,89.75 Q599.3938,89.75 598.1906,89.125 Q597.2063,88.625 596.5188,87.5547 Q595.8313,86.4844 595.8313,85.2031 L595.8313,84.0469 Q595.8313,82.7188 596.4484,81.5703 Q597.0656,80.4219 598.1594,79.8047 Q599.2531,79.1875 600.4875,79.1875 Q601.2219,79.1875 601.8703,79.3516 Q602.5188,79.5156 603.0656,79.875 Z " /><text fill="#000000" font-family="sans-serif" font-size="12" lengthAdjust="spacingAndGlyphs" textLength="68" x="615.7" y="88.9102">Collaborator</text>
        <line style="stroke: #A80036; stroke-width: 1.5;" x1="580" x2="692" y1="100" y2="100" /><text fill="#000000" font-family="sans-serif" font-size="11" lengthAdjust="spacingAndGlyphs" textLength="61" x="585" y="115.4189">-String name</text><text fill="#000000" font-family="sans-serif" font-size="11" lengthAdjust="spacingAndGlyphs" textLength="74" x="585" y="129.2549">-String function</text><text fill="#000000" font-family="sans-serif" font-size="11" lengthAdjust="spacingAndGlyphs" textLength="59" x="585" y="143.0908">-String email</text><text fill="#000000" font-family="sans-serif" font-size="11" lengthAdjust="spacingAndGlyphs" textLength="102" x="585" y="156.9268">-String phoneNumber</text>
        <!--class Manager-->
        <rect fill="#FEFECE" filter="url(#fvt2sb62u5nti)" height="95.3438" id="Manager" style="stroke: #A80036; stroke-width: 1.5;" width="114" x="6" y="40" />
        <ellipse cx="36.3" cy="56" fill="#ADD1B2" rx="11" ry="11" style="stroke: #A80036; stroke-width: 1.0;" />
        <path d="M39.0656,51.875 Q39.2219,51.6563 39.4094,51.5469 Q39.5969,51.4375 39.8156,51.4375 Q40.1906,51.4375 40.425,51.6953 Q40.6594,51.9531 40.6594,52.5625 L40.6594,54.0156 Q40.6594,54.625 40.425,54.8906 Q40.1906,55.1563 39.8156,55.1563 Q39.4719,55.1563 39.2688,54.9531 Q39.0656,54.7656 38.9563,54.25 Q38.9094,53.8906 38.7219,53.7031 Q38.3938,53.3281 37.7844,53.1094 Q37.175,52.8906 36.55,52.8906 Q35.7844,52.8906 35.1516,53.2188 Q34.5188,53.5469 34.0266,54.2969 Q33.5344,55.0469 33.5344,56.0781 L33.5344,57.1719 Q33.5344,58.4063 34.425,59.2266 Q35.3156,60.0469 36.9094,60.0469 Q37.8469,60.0469 38.5031,59.7969 Q38.8938,59.6406 39.3156,59.2031 Q39.5813,58.9375 39.7297,58.8594 Q39.8781,58.7813 40.0813,58.7813 Q40.4094,58.7813 40.6672,59.0391 Q40.925,59.2969 40.925,59.6406 Q40.925,59.9844 40.5813,60.3906 Q40.0813,60.9688 39.2844,61.2969 Q38.2063,61.75 36.9094,61.75 Q35.3938,61.75 34.1906,61.125 Q33.2063,60.625 32.5188,59.5547 Q31.8312,58.4844 31.8312,57.2031 L31.8312,56.0469 Q31.8312,54.7188 32.4484,53.5703 Q33.0656,52.4219 34.1594,51.8047 Q35.2531,51.1875 36.4875,51.1875 Q37.2219,51.1875 37.8703,51.3516 Q38.5188,51.5156 39.0656,51.875 Z " /><text fill="#000000" font-family="sans-serif" font-size="12" lengthAdjust="spacingAndGlyphs" textLength="48" x="53.7" y="60.9102">Manager</text>
        <line style="stroke: #A80036; stroke-width: 1.5;" x1="7" x2="119" y1="72" y2="72" /><text fill="#000000" font-family="sans-serif" font-size="11" lengthAdjust="spacingAndGlyphs" textLength="61" x="12" y="87.4189">-String name</text><text fill="#000000" font-family="sans-serif" font-size="11" lengthAdjust="spacingAndGlyphs" textLength="74" x="12" y="101.2549">-String function</text><text fill="#000000" font-family="sans-serif" font-size="11" lengthAdjust="spacingAndGlyphs" textLength="59" x="12" y="115.0908">-String email</text><text fill="#000000" font-family="sans-serif" font-size="11" lengthAdjust="spacingAndGlyphs" textLength="102" x="12" y="128.9268">-String phoneNumber</text>
        <!--class User-->
        <rect fill="#FEFECE" filter="url(#fvt2sb62u5nti)" height="67.6719" id="User" style="stroke: #A80036; stroke-width: 1.5;" width="97" x="800.5" y="8.5" />
        <ellipse cx="832.6" cy="24.5" fill="#ADD1B2" rx="11" ry="11" style="stroke: #A80036; stroke-width: 1.0;" />
        <path d="M835.3656,20.375 Q835.5219,20.1563 835.7094,20.0469 Q835.8969,19.9375 836.1156,19.9375 Q836.4906,19.9375 836.725,20.1953 Q836.9594,20.4531 836.9594,21.0625 L836.9594,22.5156 Q836.9594,23.125 836.725,23.3906 Q836.4906,23.6563 836.1156,23.6563 Q835.7719,23.6563 835.5688,23.4531 Q835.3656,23.2656 835.2563,22.75 Q835.2094,22.3906 835.0219,22.2031 Q834.6938,21.8281 834.0844,21.6094 Q833.475,21.3906 832.85,21.3906 Q832.0844,21.3906 831.4516,21.7188 Q830.8188,22.0469 830.3266,22.7969 Q829.8344,23.5469 829.8344,24.5781 L829.8344,25.6719 Q829.8344,26.9063 830.725,27.7266 Q831.6156,28.5469 833.2094,28.5469 Q834.1469,28.5469 834.8031,28.2969 Q835.1938,28.1406 835.6156,27.7031 Q835.8813,27.4375 836.0297,27.3594 Q836.1781,27.2813 836.3813,27.2813 Q836.7094,27.2813 836.9672,27.5391 Q837.225,27.7969 837.225,28.1406 Q837.225,28.4844 836.8813,28.8906 Q836.3813,29.4688 835.5844,29.7969 Q834.5063,30.25 833.2094,30.25 Q831.6938,30.25 830.4906,29.625 Q829.5063,29.125 828.8188,28.0547 Q828.1313,26.9844 828.1313,25.7031 L828.1313,24.5469 Q828.1313,23.2188 828.7484,22.0703 Q829.3656,20.9219 830.4594,20.3047 Q831.5531,19.6875 832.7875,19.6875 Q833.5219,19.6875 834.1703,19.8516 Q834.8188,20.0156 835.3656,20.375 Z " /><text fill="#000000" font-family="sans-serif" font-size="12" lengthAdjust="spacingAndGlyphs" textLength="27" x="850.4" y="29.4102">User</text>
        <line style="stroke: #A80036; stroke-width: 1.5;" x1="801.5" x2="896.5" y1="40.5" y2="40.5" /><text fill="#000000" font-family="sans-serif" font-size="11" lengthAdjust="spacingAndGlyphs" textLength="59" x="806.5" y="55.9189">-String email</text><text fill="#000000" font-family="sans-serif" font-size="11" lengthAdjust="spacingAndGlyphs" textLength="85" x="806.5" y="69.7549">-String password</text>
        <!--class Bill-->
        <rect fill="#FEFECE" filter="url(#fvt2sb62u5nti)" height="53.8359" id="Bill" style="stroke: #A80036; stroke-width: 1.5;" width="80" x="596" y="198.5" />
        <ellipse cx="624.95" cy="214.5" fill="#ADD1B2" rx="11" ry="11" style="stroke: #A80036; stroke-width: 1.0;" />
        <path d="M627.7156,210.375 Q627.8719,210.1563 628.0594,210.0469 Q628.2469,209.9375 628.4656,209.9375 Q628.8406,209.9375 629.075,210.1953 Q629.3094,210.4531 629.3094,211.0625 L629.3094,212.5156 Q629.3094,213.125 629.075,213.3906 Q628.8406,213.6563 628.4656,213.6563 Q628.1219,213.6563 627.9188,213.4531 Q627.7156,213.2656 627.6063,212.75 Q627.5594,212.3906 627.3719,212.2031 Q627.0438,211.8281 626.4344,211.6094 Q625.825,211.3906 625.2,211.3906 Q624.4344,211.3906 623.8016,211.7188 Q623.1688,212.0469 622.6766,212.7969 Q622.1844,213.5469 622.1844,214.5781 L622.1844,215.6719 Q622.1844,216.9063 623.075,217.7266 Q623.9656,218.5469 625.5594,218.5469 Q626.4969,218.5469 627.1531,218.2969 Q627.5438,218.1406 627.9656,217.7031 Q628.2313,217.4375 628.3797,217.3594 Q628.5281,217.2813 628.7313,217.2813 Q629.0594,217.2813 629.3172,217.5391 Q629.575,217.7969 629.575,218.1406 Q629.575,218.4844 629.2313,218.8906 Q628.7313,219.4688 627.9344,219.7969 Q626.8563,220.25 625.5594,220.25 Q624.0438,220.25 622.8406,219.625 Q621.8563,219.125 621.1688,218.0547 Q620.4813,216.9844 620.4813,215.7031 L620.4813,214.5469 Q620.4813,213.2188 621.0984,212.0703 Q621.7156,210.9219 622.8094,210.3047 Q623.9031,209.6875 625.1375,209.6875 Q625.8719,209.6875 626.5203,209.8516 Q627.1688,210.0156 627.7156,210.375 Z " /><text fill="#000000" font-family="sans-serif" font-size="12" lengthAdjust="spacingAndGlyphs" textLength="17" x="642.05" y="219.4102">Bill</text>
        <line style="stroke: #A80036; stroke-width: 1.5;" x1="597" x2="675" y1="230.5" y2="230.5" /><text fill="#000000" font-family="sans-serif" font-size="11" lengthAdjust="spacingAndGlyphs" textLength="68" x="602" y="245.9189">-String receipt</text>
        <!--link Platform to Organization-->
        <path d="M114.173,219.5 C165.317,219.5 245.603,219.5 306.743,219.5 " fill="none" id="Platform-Organization" style="stroke: #A80036; stroke-width: 1.0;" />
        <polygon fill="#A80036" points="311.853,219.5,302.853,215.5,306.853,219.5,302.853,223.5,311.853,219.5" style="stroke: #A80036; stroke-width: 1.0;" /><text fill="#000000" font-family="sans-serif" font-size="13" lengthAdjust="spacingAndGlyphs" textLength="82" x="175" y="215.9951">has registered</text><text fill="#000000" font-family="sans-serif" font-size="13" lengthAdjust="spacingAndGlyphs" textLength="7" x="121.8614" y="234.1564">1</text><text fill="#000000" font-family="sans-serif" font-size="13" lengthAdjust="spacingAndGlyphs" textLength="5" x="298.8804" y="233.7736">*</text>
        <!--link Organization to Collaborator-->
        <path d="M474.25,184.87 C506.743,170.847 543.648,154.921 573.895,141.869 " fill="none" id="Organization-Collaborator" style="stroke: #A80036; stroke-width: 1.0;" />
        <polygon fill="#A80036" points="578.691,139.799,568.8427,139.6936,574.1005,141.7807,572.0134,147.0384,578.691,139.799" style="stroke: #A80036; stroke-width: 1.0;" /><text fill="#000000" font-family="sans-serif" font-size="13" lengthAdjust="spacingAndGlyphs" textLength="21" x="516" y="150.9951">has</text><text fill="#000000" font-family="sans-serif" font-size="13" lengthAdjust="spacingAndGlyphs" textLength="7" x="482.0629" y="195.9256">1</text><text fill="#000000" font-family="sans-serif" font-size="13" lengthAdjust="spacingAndGlyphs" textLength="5" x="566.028" y="157.4329">*</text>
        <!--link Manager to Organization-->
        <path d="M120.422,117.622 C130.186,122.473 140.313,127.28 150,131.5 C201.215,153.811 260.091,175.308 306.946,191.47 " fill="none" id="Manager-Organization" style="stroke: #A80036; stroke-width: 1.0;" />
        <polygon fill="#A80036" points="311.73,193.116,304.5213,186.4052,307.0021,191.4891,301.9182,193.9699,311.73,193.116" style="stroke: #A80036; stroke-width: 1.0;" /><text fill="#000000" font-family="sans-serif" font-size="13" lengthAdjust="spacingAndGlyphs" textLength="130" x="151" y="127.9951">sets up payment timer</text><text fill="#000000" font-family="sans-serif" font-size="13" lengthAdjust="spacingAndGlyphs" textLength="7" x="127.8469" y="135.7637">1</text><text fill="#000000" font-family="sans-serif" font-size="13" lengthAdjust="spacingAndGlyphs" textLength="7" x="296.9153" y="204.9318">1</text>
        <!--link Manager to Collaborator-->
        <path d="M120.051,90.249 C227.51,95.518 461.734,107.004 573.401,112.479 " fill="none" id="Manager-Collaborator" style="stroke: #A80036; stroke-width: 1.0;" />
        <polygon fill="#A80036" points="578.625,112.736,569.8325,108.2985,573.631,112.4902,569.4393,116.2888,578.625,112.736" style="stroke: #A80036; stroke-width: 1.0;" /><text fill="#000000" font-family="sans-serif" font-size="13" lengthAdjust="spacingAndGlyphs" textLength="21" x="382.5" y="96.9951">is a</text><text fill="#000000" font-family="sans-serif" font-size="13" lengthAdjust="spacingAndGlyphs" textLength="7" x="128.1875" y="105.189">1</text><text fill="#000000" font-family="sans-serif" font-size="13" lengthAdjust="spacingAndGlyphs" textLength="7" x="563.8254" y="126.9025">1</text>
        <!--link Manager to User-->
        <path d="M120.217,74.371 C130.096,72.455 140.314,70.72 150,69.5 C402.911,37.645 468.197,51.846 723,44.5 C746.6,43.82 772.713,43.356 794.943,43.049 " fill="none" id="Manager-User" style="stroke: #A80036; stroke-width: 1.0;" />
        <polygon fill="#A80036" points="800.211,42.977,791.1581,39.0982,795.2115,43.0441,791.2655,47.0975,800.211,42.977" style="stroke: #A80036; stroke-width: 1.0;" /><text fill="#000000" font-family="sans-serif" font-size="13" lengthAdjust="spacingAndGlyphs" textLength="43" x="505" y="43.9951">acts as</text><text fill="#000000" font-family="sans-serif" font-size="13" lengthAdjust="spacingAndGlyphs" textLength="7" x="127.9964" y="87.2095">1</text><text fill="#000000" font-family="sans-serif" font-size="13" lengthAdjust="spacingAndGlyphs" textLength="7" x="785.5311" y="57.7671">1</text>
        <!--link Collaborator to User-->
        <path d="M693.267,96.033 C725.019,85.048 764.44,71.409 795.545,60.648 " fill="none" id="Collaborator-User" style="stroke: #A80036; stroke-width: 1.0;" />
        <polygon fill="#A80036" points="800.464,58.946,790.6507,58.1098,795.739,60.5815,793.2674,65.6698,800.464,58.946" style="stroke: #A80036; stroke-width: 1.0;" /><text fill="#000000" font-family="sans-serif" font-size="13" lengthAdjust="spacingAndGlyphs" textLength="43" x="724" y="66.9951">acts as</text><text fill="#000000" font-family="sans-serif" font-size="13" lengthAdjust="spacingAndGlyphs" textLength="7" x="701.0528" y="108.0594">1</text><text fill="#000000" font-family="sans-serif" font-size="13" lengthAdjust="spacingAndGlyphs" textLength="7" x="785.496" y="76.2364">1</text>
        <!--link Organization to Bill-->
        <path d="M474.25,221.498 C513.112,222.465 558.285,223.59 590.83,224.4 " fill="none" id="Organization-Bill" style="stroke: #A80036; stroke-width: 1.0;" />
        <polygon fill="#A80036" points="595.942,224.528,587.0442,220.3055,590.9435,224.4037,586.8454,228.3031,595.942,224.528" style="stroke: #A80036; stroke-width: 1.0;" /><text fill="#000000" font-family="sans-serif" font-size="13" lengthAdjust="spacingAndGlyphs" textLength="21" x="516" y="217.9951">has</text><text fill="#000000" font-family="sans-serif" font-size="13" lengthAdjust="spacingAndGlyphs" textLength="7" x="482.0629" y="235.9303">1</text><text fill="#000000" font-family="sans-serif" font-size="13" lengthAdjust="spacingAndGlyphs" textLength="5" x="583.0954" y="239.3664">*</text>
        <!--link Bill to Transaction-->
        <path d="M676.193,243.703 C709.726,259.278 758.289,281.833 795.236,298.9933 " fill="none" id="Bill-Transaction" style="stroke: #A80036; stroke-width: 1.0;" />
        <polygon fill="#A80036" points="800.139,301.2709,793.6627,293.8508,795.6046,299.1639,790.2915,301.1058,800.139,301.2709" style="stroke: #A80036; stroke-width: 1.0;" /><text fill="#000000" font-family="sans-serif" font-size="13" lengthAdjust="spacingAndGlyphs" textLength="21" x="735" y="261.9951">has</text><text fill="#000000" font-family="sans-serif" font-size="13" lengthAdjust="spacingAndGlyphs" textLength="7" x="683.9758" y="261.9114">1</text><text fill="#000000" font-family="sans-serif" font-size="13" lengthAdjust="spacingAndGlyphs" textLength="5" x="787.5954" y="312.714">*</text>
        <!--link Bill to Freelancer-->
        <path d="M676.193,220.671 C708.908,216.639 755.927,210.845 792.51,206.338 " fill="none" id="Bill-Freelancer" style="stroke: #A80036; stroke-width: 1.0;" />
        <polygon fill="#A80036" points="797.829,205.682,788.4074,202.8125,792.8665,206.2934,789.3856,210.7525,797.829,205.682" style="stroke: #A80036; stroke-width: 1.0;" /><text fill="#000000" font-family="sans-serif" font-size="13" lengthAdjust="spacingAndGlyphs" textLength="21" x="735" y="204.9951">has</text><text fill="#000000" font-family="sans-serif" font-size="13" lengthAdjust="spacingAndGlyphs" textLength="7" x="683.9758" y="234.7769">1</text><text fill="#000000" font-family="sans-serif" font-size="13" lengthAdjust="spacingAndGlyphs" textLength="5" x="784.9461" y="221.2848">*</text>
        <!--link Transaction to Task-->
        <path d="M897.672,323.5 C929.687,323.5 972.299,323.5 1007.55,323.5 " fill="none" id="Transaction-Task" style="stroke: #A80036; stroke-width: 1.0;" />
        <polygon fill="#A80036" points="1012.7,323.5,1003.7,319.5,1007.7,323.5,1003.7,327.5,1012.7,323.5" style="stroke: #A80036; stroke-width: 1.0;" /><text fill="#000000" font-family="sans-serif" font-size="13" lengthAdjust="spacingAndGlyphs" textLength="51" x="931" y="319.9951">specifies</text><text fill="#000000" font-family="sans-serif" font-size="13" lengthAdjust="spacingAndGlyphs" textLength="7" x="905.6608" y="338.2596">1</text><text fill="#000000" font-family="sans-serif" font-size="13" lengthAdjust="spacingAndGlyphs" textLength="7" x="998.1508" y="337.9395">1</text>
        <!--
@startuml
skinparam classAttributeIconSize 0
hide methods
left to right direction

class Platform {
  -String designation
}

class Organization {
  -String managerName
  -String organizationDesignation
  -String collaboratorName
  -String managerEmail
  -String CollaboratorEmail
  -Date PayDayDate
}

class Transaction {
  -String transID
}

class Task {
  -String id
  -String briefDescription
  -double duration
  -double cost
  -String category
  -String idFreelancer
}

class Freelancer {
  -String name
  -String id
  -String lvlExpertise
  -String email
  -String nif
  -String IBAN
}

class Collaborator {
  -String name
  -String function
  -String email
  -String phoneNumber
}

class Manager {
  -String name
  -String function
  -String email
  -String phoneNumber
}

class User {
  -String email
  -String password
}

class Bill {
  -String receipt
}


Platform "1" - -> "*" Organization : has registered

Organization "1" - -> "*" Collaborator : has

Manager "1" - -> "1" Organization : sets up payment timer
Manager "1" - -> "1" Collaborator : is a
Manager "1" - -> "1" User : acts as

Collaborator "1" - -> "1" User : acts as

Organization "1" - -> "*" Bill : has
Bill "1" - -> "*" Transaction : has
Bill "1" - -> "*" Freelancer : has
Transaction "1" - -> "1" Task : specifies
@enduml

PlantUML version 1.2018.14(Fri Dec 21 16:33:16 GMT 2018)
(GPL source distribution)
Java Runtime: Java(TM) SE Runtime Environment
JVM: Java HotSpot(TM) 64-Bit Server VM
Java Version: 1.8.0_221-b11
Operating System: Windows 10
OS Version: 10.0
Default Encoding: Cp1252
Language: pt
Country: PT
-->
    </g>
</svg>